<svg width="158" height="43" viewBox="0 0 158 43" fill="none" xmlns="http://www.w3.org/2000/svg">
<path d="M145.392 33.4004V35.7044C145.392 39.4804 145.408 41.2564 145.408 41.7844C145.408 42.1684 145.184 42.3444 144.704 42.3444C144.304 42.3444 144.16 42.2164 144.16 41.8644C144.16 41.5124 144.224 40.3764 144.272 36.6644C144.272 35.6404 144.272 34.6324 144.288 33.5924C143.776 34.3604 143.2 35.0644 142.56 35.7044C142.496 35.7684 142.336 35.6244 142.384 35.5444C143.664 33.7044 144.688 31.1924 145.152 29.0644C145.264 28.5684 145.344 28.0884 145.376 27.6244C146.896 28.0404 147.12 28.1204 147.12 28.3284C147.12 28.4884 146.992 28.5524 146.496 28.6644C146.08 30.1204 145.536 31.4484 144.864 32.6324C145.728 32.7764 145.856 32.8244 145.856 33.0004C145.856 33.1284 145.792 33.2244 145.392 33.4004ZM147.424 35.0644H155.52C156 34.5044 156.08 34.4404 156.208 34.4404C156.32 34.4404 156.448 34.5204 157.056 35.0484C157.344 35.3204 157.408 35.4164 157.408 35.5284C157.408 35.7204 157.28 35.8004 156.832 35.8004C156.64 35.8004 156.56 35.8484 156.368 35.9924C156.08 36.2164 155.776 36.4084 155.408 36.6004C155.488 36.6484 155.568 36.7124 155.664 36.7924C155.936 37.0164 156.016 37.1124 156.016 37.2244C156.016 37.3204 155.952 37.3844 155.808 37.3844H152.4V39.0644C152.4 40.0724 152.432 40.6644 152.432 40.9844C152.432 41.4164 152.24 41.6724 152 41.8804C151.76 42.0884 151.36 42.2324 150.848 42.2324C150.688 42.2324 150.64 42.1844 150.592 41.9444C150.512 41.5604 150.32 41.3364 148.88 41.0324C148.784 41.0164 148.784 40.7764 148.88 40.7924C149.888 40.8884 150.48 40.9044 150.976 40.9044C151.168 40.9044 151.232 40.8404 151.232 40.6324V37.3844H148.672C148.368 37.3844 148.144 37.4164 147.76 37.4804L147.6 36.8724C148.048 36.9684 148.32 36.9844 148.688 36.9844H154.016C154.608 36.3124 154.736 36.2324 154.832 36.2324C154.896 36.2324 154.992 36.2804 155.248 36.4724C155.44 36.0724 155.52 35.8484 155.616 35.4644H147.44C147.456 36.4564 147.008 37.1444 146.4 37.1444C146.08 37.1444 145.856 36.9044 145.856 36.5684C145.856 36.2804 145.936 36.1844 146.384 35.9124C146.816 35.6244 147.072 35.1444 147.12 34.4884C147.12 34.4084 147.28 34.3764 147.296 34.4564C147.36 34.6644 147.392 34.8724 147.424 35.0644ZM149.04 33.8004V33.8484C149.04 34.1844 148.816 34.3284 148.416 34.3284C148.08 34.3284 147.92 34.2164 147.92 33.9124C147.92 33.7524 147.952 33.4804 147.952 32.4404C147.952 31.7524 147.936 31.2564 147.872 30.6964C148.432 30.9204 148.656 31.0164 149.152 31.2724H154.08C154.544 30.7764 154.64 30.7124 154.736 30.7124C154.832 30.7124 154.944 30.7764 155.392 31.1604C155.648 31.3524 155.696 31.4644 155.696 31.5604C155.696 31.6724 155.632 31.7524 155.312 31.9764V32.3764C155.312 33.3044 155.344 33.6884 155.344 33.8164C155.344 34.1364 155.136 34.2964 154.688 34.2964C154.336 34.2964 154.208 34.1844 154.208 33.9124V33.8004H149.04ZM154.208 33.4004V31.6724H149.04V33.4004H154.208ZM152.176 29.6564H155.088C155.712 28.8404 155.824 28.7604 155.936 28.7604C156.032 28.7604 156.16 28.8404 156.848 29.4324C157.168 29.7044 157.248 29.8004 157.248 29.8964C157.248 29.9924 157.184 30.0564 157.04 30.0564H148.096C147.696 30.0564 147.408 30.0724 146.96 30.1524L146.8 29.5444C147.312 29.6244 147.648 29.6564 148.096 29.6564H151.024V28.7124C151.024 28.3764 151.008 28.1044 150.96 27.6084C152.528 27.7684 152.704 27.8964 152.704 28.0724C152.704 28.1844 152.592 28.2964 152.176 28.4724V29.6564Z" fill="#FFF5F5"/>
<path d="M134.784 35.3527C136.256 35.9607 137.632 36.6967 138.576 37.6087C139.136 38.1527 139.568 38.6807 139.568 39.1127C139.568 39.5447 139.296 39.7847 138.912 39.7847C138.688 39.7847 138.48 39.6407 138.224 39.2887C137.168 37.7687 136 36.6647 134.432 35.7367C133.472 36.7927 132.432 37.7047 131.312 38.4407C130.24 39.1607 129.12 39.7367 128.192 40.0727C128.032 40.1367 127.872 40.1847 127.76 40.1847C127.664 40.1847 127.584 40.0727 127.584 39.9927C127.584 39.9127 127.648 39.8167 127.744 39.7687C129.664 38.7127 131.328 37.5447 132.928 35.8487C134.112 34.6167 134.992 33.4327 135.952 31.7847C136 31.7047 136.016 31.6727 136.016 31.6407C136.016 31.6087 135.984 31.6087 135.888 31.6087C135.152 31.6567 133.328 31.8967 131.712 32.2167C131.392 32.2807 131.184 32.3447 131.056 32.4247C130.912 32.5047 130.816 32.5847 130.592 32.5847C130.32 32.5847 129.936 32.3127 129.6 31.8487C129.296 31.4327 129.168 31.2087 129.168 30.9367C129.168 30.7767 129.248 30.6007 129.328 30.6007C129.392 30.6007 129.504 30.6967 129.6 30.7927C130.016 31.1927 130.304 31.4007 130.656 31.4007C130.912 31.4007 131.456 31.3527 131.92 31.3047C133.168 31.1767 134.496 31.0487 135.664 30.8887C135.936 30.8567 136.064 30.7767 136.208 30.6487C136.32 30.5367 136.432 30.4727 136.592 30.4727C136.832 30.4727 137.008 30.5527 137.344 30.8567C137.776 31.2567 137.904 31.4327 137.904 31.6247C137.904 31.7847 137.824 31.8487 137.504 31.9767C137.28 32.0567 137.024 32.2647 136.832 32.5687C136.4 33.2567 135.616 34.3767 134.784 35.3527Z" fill="#FFF5F5"/>
<path d="M123.888 36.344C123.888 36.888 123.696 37.176 123.216 37.176C122.88 37.176 122.672 36.952 122.496 36.568C122.064 35.608 121.664 34.952 121.136 34.312C120.656 33.736 120.096 33.24 119.488 32.808C119.296 32.68 119.2 32.584 119.2 32.504C119.2 32.376 119.296 32.312 119.392 32.312C119.504 32.312 119.632 32.36 119.84 32.44C120.768 32.824 121.648 33.384 122.432 34.088C123.136 34.712 123.888 35.704 123.888 36.344ZM115.632 33.672C115.632 33.512 115.488 33.32 115.104 33.048C114.944 32.936 114.912 32.904 114.912 32.84C114.912 32.728 115.136 32.648 115.312 32.648C115.536 32.648 115.84 32.76 116.24 33.032C116.72 33.368 117.184 33.816 117.184 34.232C117.184 34.488 117.056 34.616 116.784 34.712C116.656 34.76 116.528 34.872 116.352 35.048C115.664 35.736 114.992 36.344 114.176 36.952C113.296 37.608 112.32 38.2 111.312 38.616C111.104 38.712 110.992 38.744 110.912 38.744C110.8 38.744 110.704 38.664 110.704 38.536C110.704 38.44 110.784 38.376 110.944 38.28C111.936 37.64 112.816 36.936 113.584 36.248C114.208 35.656 114.752 35.064 115.184 34.52C115.488 34.12 115.632 33.88 115.632 33.672ZM121.232 30.088C121.328 30.088 121.44 30.12 121.488 30.136C121.92 30.264 122.4 30.504 122.88 30.936C123.264 31.272 123.488 31.56 123.488 31.896C123.488 32.152 123.328 32.376 123.04 32.376C122.832 32.376 122.656 32.232 122.512 31.944C122.272 31.464 121.632 30.76 121.168 30.408C121.104 30.36 121.056 30.296 121.056 30.248C121.056 30.168 121.12 30.088 121.232 30.088ZM122.528 29C122.608 29 122.736 29.032 122.88 29.064C123.312 29.176 123.712 29.368 124.16 29.688C124.544 29.96 124.896 30.328 124.896 30.696C124.896 31.016 124.704 31.208 124.464 31.208C124.256 31.208 124.128 31.128 123.952 30.824C123.664 30.328 123.024 29.64 122.48 29.32C122.416 29.288 122.368 29.224 122.368 29.16C122.368 29.08 122.432 29 122.528 29Z" fill="#FFF5F5"/>
<path d="M149.918 19.9377V19.1462H155.709V2.64941H156.542V19.9377H149.918Z" fill="#FFF5F5"/>
<path d="M141.821 0.0663929C143.55 1.37864 144.883 2.89917 145.82 4.628C146.757 6.37766 147.174 8.18981 147.174 10.0644C147.174 11.9391 146.757 13.7512 145.82 15.5009C144.883 17.2297 143.55 18.7502 141.8 20.0833C141.737 20.125 141.675 20.1458 141.612 20.1458C141.55 20.1458 141.508 20.0833 141.508 20.0208C141.508 19.9583 141.55 19.9167 141.612 19.8542C144.404 17.0214 145.632 13.7721 145.632 10.0644C145.632 6.35683 144.404 3.10747 141.592 0.253857C141.55 0.212199 141.529 0.170539 141.529 0.108052C141.529 0.045564 141.571 0.00390625 141.633 0.00390625C141.696 0.00390625 141.758 0.0247349 141.821 0.0663929Z" fill="#FFF5F5"/>
<path d="M123.928 13.4802V10.7099C123.116 11.3348 122.241 11.918 121.283 12.4179C121.2 12.4596 121.012 12.2513 121.096 12.168C122.554 10.8141 123.908 9.12689 124.866 7.54387C125.366 6.68987 125.761 5.87753 125.97 5.19016C128.073 6.18996 128.365 6.3566 128.365 6.62738C128.365 6.93982 128.115 7.06479 127.49 7.06479C126.865 7.85631 126.24 8.58533 125.595 9.23104C126.24 9.35601 126.345 9.43933 126.345 9.62679C126.345 9.81426 126.22 9.93923 125.782 10.1267V18.875C125.782 19.479 125.428 19.7498 124.699 19.7498C124.22 19.7498 123.803 19.5624 123.803 18.9583C123.803 18.4167 123.928 16.7712 123.928 13.4802ZM136.113 8.00211V12.8762C136.113 14.3967 136.176 15.9172 136.176 17.4378C136.176 18.0626 135.989 18.5626 135.655 18.8958C135.218 19.3124 134.551 19.5415 133.718 19.5415C133.302 19.5415 133.281 19.5207 133.197 19.0625C133.052 18.2293 132.51 17.9585 130.531 17.4794C130.427 17.4586 130.448 17.1462 130.552 17.1462C131.51 17.2086 132.864 17.292 133.635 17.292C134.01 17.292 134.093 17.1878 134.093 16.8545V8.00211H129.552C129.157 8.00211 128.761 8.04377 128.219 8.12709L127.99 7.3564C128.615 7.48138 129.073 7.52304 129.552 7.52304H136.822C137.863 6.33577 138.113 6.16914 138.259 6.16914C138.446 6.16914 138.675 6.33577 139.654 7.10645C140.092 7.46055 140.259 7.64801 140.259 7.79382C140.259 7.93962 140.196 8.00211 139.988 8.00211H136.113ZM130.344 2.50318H135.739C136.78 1.33674 137.03 1.17011 137.176 1.17011C137.363 1.17011 137.592 1.33674 138.592 2.10743C139.03 2.46152 139.196 2.62816 139.196 2.77396C139.196 2.91977 139.134 2.98226 138.925 2.98226H130.344C129.927 2.98226 129.531 3.02391 128.99 3.10723L128.761 2.33655C129.386 2.46152 129.865 2.50318 130.344 2.50318ZM128.136 1.98245C128.136 2.21157 127.948 2.33655 127.157 2.33655C125.532 4.41948 123.574 5.96084 121.366 6.91899C121.262 6.96065 121.137 6.75235 121.221 6.68987C122.408 5.62757 123.658 4.12787 124.532 2.77396C125.095 1.89913 125.511 1.08679 125.678 0.461914C127.511 1.29509 128.136 1.69084 128.136 1.98245Z" fill="#FFF5F5"/>
<path d="M107.828 2.2745V4.96148C107.828 12.1267 107.911 17.0425 107.911 18.6671C107.911 19.292 107.515 19.6045 106.599 19.6045C105.932 19.6045 105.661 19.3753 105.661 18.8546C105.661 18.1464 105.703 16.6675 105.745 14.2097C104.787 15.0012 103.308 15.9593 101.704 16.8133C101.62 17.3341 101.516 17.5215 101.308 17.5215C101.016 17.5215 100.891 17.2924 100.017 15.1053C100.412 15.0428 100.85 14.9595 101.266 14.8762C102.62 14.5638 104.099 14.0639 105.765 13.3765L105.828 7.48182H102.141C101.725 7.48182 101.308 7.52348 100.746 7.62763L100.517 6.85694C101.162 6.96109 101.662 7.00275 102.141 7.00275H105.828V5.27392C105.828 2.64943 105.807 2.02455 105.661 1.06641C108.223 1.2747 108.536 1.35802 108.536 1.69128C108.536 1.89958 108.39 2.02455 107.828 2.2745ZM112.493 2.35782V8.93987C113.535 8.1067 114.493 7.14855 115.243 6.21124C115.743 5.60719 116.138 5.00314 116.409 4.46158C118.055 5.48221 118.721 6.00294 118.721 6.29455C118.721 6.50285 118.534 6.66948 117.721 6.56533C116.159 7.87758 114.368 8.98153 112.493 9.77304V16.5217C112.493 17.3341 112.702 17.4174 114.785 17.4174C115.889 17.4174 116.243 17.4174 116.701 17.0841C117.18 16.73 117.513 15.9593 118.138 13.9181C118.159 13.8139 118.409 13.8556 118.409 13.9597C118.346 14.8137 118.242 16.0427 118.242 16.5009C118.242 16.7508 118.305 16.855 118.513 16.9591C118.971 17.1883 119.138 17.3549 119.138 17.7298C119.138 18.3547 118.7 18.7505 117.68 18.9587C116.972 19.1254 115.993 19.1879 114.701 19.1879C111.119 19.1879 110.452 18.8546 110.452 16.855C110.452 16.4592 110.515 16.0635 110.515 14.4805C110.515 10.0438 110.494 5.58636 110.431 1.12889C112.91 1.37885 113.118 1.44133 113.118 1.7746C113.118 2.00372 112.952 2.14953 112.493 2.35782Z" fill="#FFF5F5"/>
<path d="M98.5016 0.0663929C98.564 0.0247349 98.6265 0.00390625 98.689 0.00390625C98.7515 0.00390625 98.7932 0.045564 98.7932 0.108052C98.7932 0.170539 98.7723 0.212199 98.7307 0.253857C95.9187 3.10747 94.6898 6.35683 94.6898 10.0644C94.6898 13.7721 95.9187 17.0214 98.7099 19.8542C98.7723 19.9167 98.814 19.9583 98.814 20.0208C98.814 20.0833 98.7723 20.1458 98.7099 20.1458C98.6474 20.1458 98.5849 20.125 98.5224 20.0833C96.7727 18.7502 95.4397 17.2297 94.5023 15.5009C93.565 13.7512 93.1484 11.9391 93.1484 10.0644C93.1484 8.18981 93.565 6.37766 94.5023 4.628C95.4397 2.89917 96.7727 1.37864 98.5016 0.0663929Z" fill="#FFF5F5"/>
<path d="M73.3813 4.274H82.0671C82.5046 3.44083 82.817 2.75347 83.0669 2.12859C83.2752 1.54537 83.421 1.02464 83.5252 0.503906C85.2957 1.04547 86.1913 1.46205 86.1913 1.73283C86.1913 2.02444 85.9206 2.14942 85.254 2.14942C84.2126 3.21171 83.8168 3.58664 82.9003 4.274H86.7954C87.8577 3.06591 88.1076 2.89927 88.2534 2.89927C88.4409 2.89927 88.67 3.06591 89.6698 3.85742C90.1281 4.23235 90.2947 4.39898 90.2947 4.54478C90.2947 4.69059 90.2322 4.75308 90.0239 4.75308H73.423C72.9648 4.75308 72.5065 4.79474 71.9025 4.87805L71.6733 4.10737C72.3607 4.23235 72.8606 4.274 73.3813 4.274ZM78.4637 13.7513H74.8186C74.8394 16.2717 74.8602 17.5631 74.8602 18.8545C74.8602 19.4169 74.5061 19.6252 73.7354 19.6252C73.0897 19.6252 72.8398 19.4585 72.8398 18.9586C72.8398 17.813 72.9439 16.6466 72.9439 12.0017C72.9439 10.0021 72.9439 8.00244 72.8814 5.982C73.9021 6.35693 74.0687 6.41942 74.9644 6.94015H78.3387C79.0261 6.14864 79.1927 6.02366 79.3593 6.02366C79.5676 6.02366 79.7343 6.14864 80.4633 6.73186C80.7757 7.00264 80.9007 7.14844 80.9007 7.31508C80.9007 7.48171 80.7757 7.60669 80.3383 7.8983V9.52298C80.3383 16.2092 80.4008 17.1465 80.4008 17.7922C80.4008 18.3754 80.2342 18.8128 79.8801 19.1253C79.5468 19.4169 79.0469 19.5627 78.3804 19.5627C78.1512 19.5627 78.0679 19.4585 78.0263 19.1669C77.9013 18.4587 77.693 18.1255 76.0891 17.6464C75.985 17.6256 76.0058 17.3964 76.11 17.3964C76.9015 17.4381 77.568 17.4798 78.2554 17.4798C78.422 17.4798 78.4637 17.4173 78.4637 17.1465V13.7513ZM78.4637 13.2722V10.5228H74.8186V13.2722H78.4637ZM78.4637 10.0437V7.41922H74.8186V10.0437H78.4637ZM84.4833 7.98161V9.10639C84.4833 12.085 84.525 14.1262 84.525 14.7928C84.525 15.3968 84.1501 15.6468 83.3377 15.6468C82.692 15.6468 82.5462 15.5218 82.5462 14.8553C82.5462 14.2304 82.5879 12.3558 82.5879 8.60649C82.5879 7.85664 82.567 7.46088 82.5046 6.75269C84.7958 7.0443 85.1915 7.14844 85.1915 7.41922C85.1915 7.62752 84.9624 7.79415 84.4833 7.98161ZM79.1302 2.89927C79.1302 3.54498 78.6928 4.04488 78.0679 4.04488C77.5264 4.04488 77.3181 3.81576 77.1514 3.08674C76.9223 2.10776 76.5474 1.33708 76.1516 0.878833C76.0891 0.795516 76.1933 0.64971 76.2974 0.67054C78.2346 1.17044 79.1302 1.87864 79.1302 2.89927ZM86.7329 17.0632V7.93996C86.7329 7.12761 86.7121 6.87766 86.6288 6.12781C89.1283 6.41942 89.3366 6.48191 89.3366 6.836C89.3366 7.0443 89.1283 7.1901 88.6492 7.37756V12.8557C88.6492 13.9388 88.7325 16.4175 88.7325 17.6047C88.7325 18.0213 88.6284 18.4587 88.4201 18.7295C88.0035 19.2711 87.5244 19.521 86.6496 19.521C86.1705 19.521 86.1497 19.4794 86.0455 19.0003C85.8997 18.3546 85.5248 18.0005 83.796 17.5214C83.6918 17.5006 83.6918 17.2715 83.796 17.2715C84.6916 17.334 85.6914 17.3756 86.2122 17.3756C86.6704 17.3756 86.7329 17.334 86.7329 17.0632Z" fill="#FFF5F5"/>
<path d="M53.0725 11.6053V11.7511C53.0725 12.1885 52.7601 12.4177 52.0935 12.4177C51.5311 12.4177 51.3228 12.251 51.3228 11.8553C51.3228 11.1679 51.4062 9.85567 51.4062 4.58586C51.4062 3.21113 51.3853 2.87786 51.2812 1.06571C52.2393 1.44064 52.3643 1.52396 53.2391 2.02386H56.9467C57.7383 0.982397 57.9049 0.857422 58.0715 0.857422C58.2798 0.857422 58.4465 0.982397 59.1963 1.66976C59.5296 1.96137 59.6546 2.12801 59.6546 2.29464C59.6546 2.44045 59.5712 2.50293 59.3421 2.50293H56.3219V4.98162H56.9259C57.405 4.14845 57.6549 3.98181 57.8008 3.98181C57.9882 3.98181 58.1757 4.14845 58.7172 4.69001C58.9255 4.8983 59.0922 5.10659 59.0922 5.2524C59.0922 5.3982 59.0297 5.46069 58.8214 5.46069H56.3219V7.98103H56.8218C57.405 7.14786 57.6549 6.98123 57.8008 6.98123C57.9882 6.98123 58.1548 7.14786 58.6964 7.68942C58.8839 7.89772 59.0505 8.10601 59.0505 8.25181C59.0505 8.39762 58.988 8.4601 58.7797 8.4601H56.3219V11.1263H57.0717C57.6341 10.3347 57.8008 10.2098 57.9674 10.2098C58.1757 10.2098 58.3423 10.3347 59.0297 10.9596C59.3213 11.2096 59.4463 11.3762 59.4463 11.5428C59.4463 11.6886 59.4046 11.772 58.8839 12.1261C58.6964 15.2088 58.4465 16.8543 57.9882 17.9583C57.7799 18.4373 57.4466 18.8331 57.0092 19.1039C56.6343 19.3538 56.1761 19.4996 55.6762 19.4996C55.3221 19.4996 55.2179 19.3955 55.1554 18.9997C54.9888 18.2082 54.8638 18.1249 53.4683 17.5625C53.3641 17.5208 53.4058 17.3125 53.5099 17.3125C54.5514 17.4167 55.2387 17.4792 55.697 17.4792C56.301 17.4792 56.5093 17.2709 56.7176 16.2503C57.0301 14.8339 57.1342 13.6258 57.1967 11.6053H53.0725ZM53.0725 11.1263H54.6764V8.4601H53.0725V11.1263ZM53.0725 7.98103H54.6764V5.46069H53.0725V7.98103ZM53.0725 4.98162H54.6764V2.50293H53.0725V4.98162ZM66.6532 8.87669H64.4869C64.8202 10.8138 65.3201 12.3552 66.1533 13.6466C67.0906 15.1046 68.257 16.1669 70.09 17.2501C70.1733 17.3125 70.1733 17.4167 70.0692 17.4375C69.3402 17.625 69.0069 18.0624 68.632 19.0205C68.5278 19.2705 68.4445 19.333 68.2987 19.333C68.1946 19.333 67.9863 19.1663 67.7155 18.8956C66.6115 17.7083 65.9033 16.6043 65.2993 15.1463C64.6744 13.6049 64.1953 11.647 63.9662 8.87669H62.2374C62.1541 11.3554 61.9874 12.6051 61.6542 13.9174C60.9668 16.4377 59.8004 18.354 58.0924 19.7287C58.009 19.7912 57.8424 19.6454 57.9049 19.5621C58.8839 17.9583 59.4671 16.5419 59.842 14.7922C60.2794 12.8343 60.4044 10.3972 60.4044 6.73128C60.4044 4.00264 60.3628 2.52376 60.2794 1.06571C61.3417 1.54479 61.5084 1.6281 62.4873 2.16966H66.5282C67.2156 1.41981 67.3822 1.29484 67.5488 1.29484C67.7571 1.29484 67.9238 1.41981 68.6528 2.04469C68.9652 2.3363 69.0902 2.4821 69.0902 2.64874C69.0902 2.85703 68.9652 2.98201 68.5487 3.27362C68.5487 7.16869 68.6528 7.93937 68.6528 9.23079C68.6528 9.83484 68.2779 10.0848 67.4655 10.0848C66.9031 10.0848 66.6532 9.91815 66.6532 9.41825V8.87669ZM66.6532 8.39762V2.64874H62.2999V3.37776C62.2999 5.48152 62.279 7.08537 62.2374 8.39762H66.6532ZM51.7186 13.5424C51.8436 14.1465 51.9061 14.7714 51.9061 15.3129C51.9061 16.6877 51.5311 17.7291 50.7605 17.7291C50.3855 17.7291 50.1147 17.375 50.1147 16.8751C50.1147 16.5002 50.1981 16.2503 50.5105 15.9586C51.0937 15.3963 51.3853 14.7089 51.4687 13.5424C51.4687 13.4383 51.6978 13.4383 51.7186 13.5424ZM53.6974 15.6462C53.6974 16.1878 53.3433 16.6877 52.9684 16.6877C52.6143 16.6877 52.5726 16.6252 52.5726 15.792C52.5726 14.7089 52.5518 14.3756 52.3226 13.5216C52.3018 13.4175 52.4476 13.3342 52.5101 13.4175C53.3433 14.334 53.6974 14.9588 53.6974 15.6462ZM56.6968 14.1257C56.6968 14.5631 56.4885 14.8963 56.1761 14.8963C55.9469 14.8963 55.822 14.7714 55.697 14.3964C55.4679 13.7924 55.0929 13.23 54.5722 12.7926C54.4889 12.7301 54.5722 12.6051 54.6764 12.626C55.9886 12.8551 56.6968 13.3758 56.6968 14.1257ZM55.3012 15.0213C55.3012 15.5837 55.0096 15.9586 54.6347 15.9586C54.3847 15.9586 54.3223 15.8337 54.2181 15.2504C54.0931 14.4798 53.9057 13.959 53.4683 13.2092C53.4058 13.1259 53.5307 13.0009 53.6141 13.0634C54.7805 13.7924 55.3012 14.3964 55.3012 15.0213Z" fill="#FFF5F5"/>
<path d="M37.701 10.3145H35.4931C35.4931 11.0227 35.2431 11.2518 34.4516 11.2518C33.7851 11.2518 33.5559 11.0643 33.5559 10.4395C33.5559 9.87708 33.6393 9.31469 33.6393 7.02347C33.6393 6.39859 33.6184 5.77371 33.5559 5.128C34.6182 5.56542 34.764 5.62791 35.7847 6.1903H42.575C43.304 5.39878 43.4707 5.27381 43.6373 5.27381C43.8456 5.27381 44.0122 5.39879 44.7829 6.02366C45.1162 6.31527 45.2412 6.46108 45.2412 6.62771C45.2412 6.81518 45.1162 6.94015 44.6788 7.23176V7.75249C44.6788 9.08556 44.7413 10.0021 44.7413 10.2937C44.7413 10.7727 44.3039 11.0643 43.6165 11.0643C42.9916 11.0643 42.7625 10.8769 42.7417 10.3145H40.0963C39.4715 11.3768 38.8258 12.3766 38.0342 13.3139H44.1789C44.9079 12.4807 45.0745 12.3558 45.2412 12.3558C45.4495 12.3558 45.6161 12.4807 46.4284 13.1473C46.7825 13.4597 46.9075 13.6055 46.9075 13.7722C46.9075 13.9804 46.7617 14.1262 46.3035 14.397V15.1052C46.3035 16.9382 46.3868 18.188 46.3868 18.6045C46.3868 19.2294 45.991 19.5419 45.2412 19.5419C44.5121 19.5419 44.3038 19.3544 44.3038 18.667V18.4587H33.9517V18.7087C33.9517 19.4377 33.6809 19.6877 32.8686 19.6877C32.2229 19.6877 31.9313 19.4585 31.9313 18.8753C31.9313 18.2921 32.0354 17.7089 32.0354 15.3552C32.0354 14.3137 32.0146 13.2722 31.9313 12.2308C32.9936 12.7099 33.1602 12.7932 34.1392 13.3139H37.3052C37.4927 12.3141 37.6385 11.3351 37.701 10.3145ZM42.7417 9.83542V6.66937H35.4931V9.83542H42.7417ZM44.3038 17.9797V13.793H33.9517V17.9797H44.3038ZM40.1172 3.39917H45.6369C46.3243 2.48269 46.4909 2.35771 46.6576 2.35771C46.8659 2.35771 47.0117 2.48269 48.0948 3.48249C48.5947 3.94074 48.7197 4.10737 48.7197 4.274C48.7197 4.64893 48.5739 4.75308 47.824 4.77391C47.574 4.77391 47.4074 4.81557 47.3033 4.89888C46.7409 5.39879 46.1577 5.81537 45.5744 6.10698C45.4911 6.14864 45.3661 6.06532 45.4078 5.96117C45.5953 5.41961 45.7827 4.56561 45.8869 3.87825H32.7019C32.8269 5.58625 32.1604 6.79434 31.0564 6.79434C30.4316 6.79434 29.9941 6.3361 29.9941 5.69039C29.9941 5.21132 30.1608 4.94054 30.6607 4.69059C31.7438 4.1282 32.0354 3.71161 32.1812 2.37854C32.202 2.27439 32.3895 2.25356 32.4103 2.35771C32.5145 2.71181 32.5978 3.06591 32.6395 3.39917H38.0551V2.00361C38.0551 1.64952 38.0342 1.17044 37.9509 0.503906C40.5754 0.733028 40.8254 0.96215 40.8254 1.17044C40.8254 1.39956 40.5962 1.60786 40.1172 1.81615V3.39917Z" fill="#FFF5F5"/>
<path d="M13.039 3.1286H22.5996C23.766 1.73304 24.016 1.56641 24.1618 1.56641C24.3493 1.56641 24.5784 1.73304 25.7032 2.64953C26.2239 3.06611 26.3905 3.25358 26.3905 3.39938C26.3905 3.54519 26.328 3.60767 26.1198 3.60767H13.0181C12.4349 3.60767 11.8517 3.64933 11.081 3.73265L10.8519 2.96197C11.7267 3.08694 12.3724 3.1286 13.039 3.1286ZM13.893 9.62733H21.3082C22.4121 8.2526 22.6621 8.08597 22.8079 8.08597C22.9954 8.08597 23.2245 8.2526 24.3076 9.16909C24.7867 9.56485 24.9533 9.75231 24.9533 9.89811C24.9533 10.0439 24.8908 10.1064 24.6825 10.1064H13.9555C13.4139 10.1064 12.8723 10.1481 12.1433 10.2314L11.9142 9.4607C12.7057 9.58568 13.2889 9.62733 13.893 9.62733ZM11.4559 16.8967H23.766C24.9741 15.397 25.2241 15.2304 25.3699 15.2304C25.5574 15.2304 25.7865 15.397 27.0154 16.376C27.5778 16.8343 27.7444 17.0217 27.7444 17.1675C27.7444 17.3133 27.682 17.3758 27.4737 17.3758H11.4768C10.8727 17.3758 10.2687 17.4175 9.47717 17.5008L9.24805 16.7301C10.1229 16.8551 10.7894 16.8967 11.4559 16.8967Z" fill="#FFF5F5"/>
<path d="M7.08171 0.233398V1.02491H1.29118V17.5217H0.458008V0.233398H7.08171Z" fill="#FFF5F5"/>
</svg>
