<svg width="98" height="53" viewBox="0 0 98 53" fill="none" xmlns="http://www.w3.org/2000/svg">
<path d="M89.0845 51.7725V52.0008C89.0845 52.3012 88.9403 52.4214 88.5678 52.4214C88.2915 52.4214 88.2074 52.3373 88.2074 52.0729C88.2074 51.7004 88.2554 51.0756 88.2554 49.1891C88.2554 48.5283 88.2554 48.2039 88.2314 47.7833C87.6066 48.0957 86.9337 48.3601 86.2007 48.5884C86.1166 48.6124 86.0685 48.4322 86.1406 48.3961C87.8589 47.567 89.3248 46.5697 90.3942 45.296H87.3662C87.1019 45.296 86.8856 45.3201 86.5612 45.3681L86.441 44.9115C86.8015 44.9836 87.0418 44.9956 87.3422 44.9956H91.2113V42.8208C89.9737 42.9289 88.6519 42.965 87.2341 42.965C87.15 42.965 87.1379 42.7607 87.2221 42.7487C89.7814 42.5564 91.8121 42.232 93.1699 41.8595C93.7106 41.7033 94.1551 41.5712 94.4676 41.3789C95.2846 41.9436 95.4528 42.1119 95.4528 42.232C95.4528 42.3041 95.3928 42.3642 95.2125 42.3642C95.1044 42.3642 94.9602 42.3402 94.7439 42.2801C93.8908 42.4723 92.9896 42.6285 92.0284 42.7367V44.9956H93.0978C93.3982 44.527 93.6385 44.0584 93.8187 43.6138C93.9389 43.3134 94.035 43.0491 94.083 42.7968C95.0683 43.1813 95.2245 43.2774 95.2245 43.3976C95.2245 43.5417 95.1044 43.6018 94.7559 43.6379C94.3594 44.1425 93.9028 44.6232 93.4222 44.9956H95.3447C95.8854 44.3828 95.9695 44.3228 96.0416 44.3228C96.1257 44.3228 96.2098 44.3828 96.7626 44.8154C97.0029 45.0197 97.063 45.1038 97.063 45.1879C97.063 45.26 97.0269 45.296 96.9068 45.296H92.2326C92.9416 45.8968 93.6865 46.3654 94.4796 46.7019C95.3207 47.0744 96.306 47.3027 97.3273 47.4228C97.3754 47.4228 97.3754 47.543 97.3273 47.555C97.0269 47.6511 96.9308 47.7473 96.7866 48.1197C96.7145 48.336 96.6664 48.3841 96.5583 48.3841C96.4862 48.3841 96.2939 48.336 96.0656 48.2519C95.549 48.0597 94.78 47.7112 94.2272 47.3507C93.4102 46.8581 92.6892 46.2213 92.0163 45.4162C92.0524 46.5096 92.0764 46.9302 92.0764 47.1705C92.0764 47.4348 91.9082 47.543 91.5357 47.543C91.2834 47.543 91.1752 47.4348 91.1752 47.2186C91.1752 47.0503 91.1993 46.6058 91.2353 45.6205C90.4182 46.4135 89.5291 47.0864 88.5318 47.6391C88.7481 47.7352 88.9163 47.8314 89.2167 47.9996H94.1311C94.4315 47.6872 94.4916 47.6511 94.5637 47.6511C94.6478 47.6511 94.7199 47.6872 95.1044 47.9876C95.3087 48.1558 95.3567 48.2279 95.3567 48.3C95.3567 48.3961 95.2966 48.4562 95.0683 48.5763V49.4535C95.0683 50.9675 95.1164 51.7605 95.1164 51.9768C95.1164 52.2532 94.9482 52.3853 94.5757 52.3853C94.3354 52.3853 94.2272 52.2892 94.2272 52.0729V51.7725H89.0845ZM89.0845 51.4721H91.2113V49.9581H89.0845V51.4721ZM94.2272 51.4721V49.9581H92.0404V51.4721H94.2272ZM94.2272 49.6578V48.3H92.0404V49.6578H94.2272ZM91.2113 48.3H89.0845V49.6578H91.2113V48.3ZM89.5171 44.8274C89.3008 44.8274 89.1926 44.6953 89.1085 44.3588C89.0004 43.9503 88.8081 43.5538 88.5077 43.2293C88.4717 43.1933 88.5438 43.1332 88.5919 43.1452C89.493 43.4096 89.9857 43.8421 89.9857 44.2987C89.9857 44.6111 89.7814 44.8274 89.5171 44.8274Z" fill="#FFF5F5"/>
<path d="M81.3582 43.7456L81.1539 46.0406C81.1419 46.2208 81.1179 46.4251 81.0939 46.6654C81.5144 46.1727 82.0551 45.9324 82.7881 45.9324C84.1939 45.9324 85.1191 46.9538 85.1191 48.5038C85.1191 50.0779 84.1699 51.3395 82.5237 51.3395C81.9229 51.3395 81.3582 51.1713 80.9737 50.931C80.5892 50.7147 80.1807 50.3422 80.1807 49.9457C80.1807 49.6934 80.469 49.453 80.9256 49.453C81.3101 49.453 81.4543 50.0298 81.5985 50.3182C81.7547 50.6666 82.0551 50.967 82.5237 50.967C83.521 50.967 83.9416 49.8976 83.9416 48.5158C83.9416 47.158 83.2687 46.377 82.5117 46.377C81.8148 46.377 81.3943 46.7135 81.0698 47.2421C80.9977 47.3623 80.9256 47.3743 80.7334 47.3022C80.5772 47.2301 80.5772 47.1701 80.6012 47.0619C80.6252 46.9658 80.6373 46.8336 80.6493 46.7255L80.9737 42.9766C80.9737 42.9165 80.9857 42.8804 81.0458 42.8204C81.1059 42.7723 81.1299 42.7483 81.19 42.7483C81.6466 42.7603 82.3195 42.7603 82.9323 42.7603C83.3889 42.7603 84.0858 42.7483 84.8548 42.7002C84.9269 42.7002 84.9509 42.7362 84.9509 42.8083L84.6505 43.6855C84.6385 43.7335 84.5784 43.7696 84.5304 43.7696C84.0377 43.7576 83.7013 43.7456 83.2327 43.7456H81.3582Z" fill="#FFF5F5"/>
<path d="M70.628 50.1022V50.7511C70.628 51.0154 70.4718 51.1837 70.0752 51.1837C69.7869 51.1837 69.6787 51.0515 69.6787 50.8472C69.6787 50.3185 69.7508 49.4534 69.7508 46.2091C69.7508 44.5149 69.7388 43.6618 69.6787 42.8447C70.1473 43.025 70.3516 43.1211 70.7962 43.3734H76.6358C77.0444 42.9288 77.1044 42.8808 77.1765 42.8808C77.2606 42.8808 77.3327 42.9288 77.7773 43.3013C77.9696 43.4695 78.0056 43.5416 78.0056 43.6137C78.0056 43.7099 77.9335 43.794 77.6692 43.9742V45.7766C77.6692 48.7805 77.7293 50.2104 77.7293 50.655C77.7293 50.9554 77.5731 51.0995 77.1405 51.0995C76.8641 51.0995 76.756 50.9794 76.756 50.7511V50.1022H70.628ZM76.756 49.8018V43.6738H70.628V49.8018H76.756Z" fill="#FFF5F5"/>
<path d="M58.3966 46.4368V46.6651C58.3966 46.9174 58.2284 47.0376 57.8559 47.0376C57.5795 47.0376 57.4594 46.9295 57.4594 46.7252C57.4594 46.5089 57.5194 45.8841 57.5194 44.4182C57.5194 43.505 57.5194 43.1685 57.4594 42.5557C58.6609 42.6999 58.8412 42.748 58.8412 42.9162C58.8412 43.0364 58.7571 43.1325 58.3966 43.2647V46.1364H61.2203V43.9255C61.2203 42.6519 61.2083 41.9309 61.1362 41.4863C62.4219 41.6065 62.5661 41.7146 62.5661 41.8588C62.5661 41.979 62.4579 42.0871 62.1095 42.2193V46.1364H64.9812V44.0337C64.9812 43.3848 64.9812 43.0844 64.9211 42.5557C66.0626 42.6879 66.2789 42.76 66.2789 42.9402C66.2789 43.0484 66.1948 43.1325 65.8584 43.2647V44.1178C65.8584 45.6438 65.9064 46.3767 65.9064 46.605C65.9064 46.8814 65.7382 47.0136 65.3777 47.0136C65.0894 47.0136 64.9812 46.9054 64.9812 46.6891V46.4368H62.1095V51.2431H65.5339V49.2365C65.5339 48.5636 65.5219 48.2993 65.4618 47.7826C66.6634 47.9027 66.8557 47.9628 66.8557 48.1431C66.8557 48.2632 66.7595 48.3593 66.4231 48.4915V49.3807C66.4231 50.9668 66.4712 51.7478 66.4712 51.9881C66.4712 52.2645 66.2909 52.3966 65.9064 52.3966C65.6301 52.3966 65.5339 52.3005 65.5339 52.0602V51.5435H57.8799V51.9881C57.8799 52.2765 57.7117 52.4207 57.3272 52.4207C57.0508 52.4207 56.9307 52.3125 56.9307 52.0602C56.9307 51.8439 56.9907 51.147 56.9907 49.5489C56.9907 48.6717 57.0028 48.4074 56.9307 47.7946C58.0481 47.9027 58.2884 47.9868 58.2884 48.1431C58.2884 48.2632 58.2043 48.3473 57.8799 48.4915V51.2431H61.2203V46.4368H58.3966Z" fill="#FFF5F5"/>
<path d="M49.9733 44.4906H52.5567C52.9052 44.1421 52.9653 44.0941 53.0494 44.0941C53.1335 44.0941 53.2296 44.1301 53.5781 44.4425C53.7583 44.5987 53.7823 44.6829 53.7823 44.7549C53.7823 44.8511 53.7463 44.8991 53.4819 45.0553V45.9565C53.4819 47.5066 53.53 48.2395 53.53 48.4678C53.53 48.7201 53.3618 48.8403 53.0013 48.8403C52.7249 48.8403 52.6408 48.7562 52.6408 48.5039V48.2876H50.1295C50.7784 49.1407 51.6075 49.7535 52.5928 50.2341C53.494 50.6787 54.4552 50.931 55.3444 51.0152C55.4045 51.0152 55.3924 51.1353 55.3324 51.1473C55.02 51.2314 54.8397 51.3876 54.7436 51.7001C54.6715 51.9163 54.5874 52.0004 54.5033 52.0004C54.4071 52.0004 54.1548 51.9284 53.9145 51.8202C53.2416 51.5318 52.5327 51.1233 51.9199 50.6547C51.247 50.138 50.5621 49.405 49.9253 48.4198C49.9733 49.8857 50.0334 51.7601 50.0334 52.1326C50.0334 52.409 49.8291 52.5171 49.4567 52.5171C49.1563 52.5171 49.0601 52.421 49.0601 52.1927C49.0601 51.8442 49.1082 50.3182 49.1563 48.9364C47.7384 50.5465 46.2364 51.3997 44.0496 52.0605C43.9655 52.0846 43.9054 51.9043 43.9775 51.8683C45.7919 51.0512 47.45 49.8496 48.5675 48.2876H46.657V48.4798C46.657 48.7442 46.5128 48.8643 46.1523 48.8643C45.888 48.8643 45.7798 48.7682 45.7798 48.5519C45.7798 48.2515 45.8519 47.7829 45.8519 46.0166C45.8519 45.1154 45.8519 44.5987 45.7678 44.022C46.2004 44.1902 46.3806 44.2743 46.7771 44.4906H49.1202V43.2169H45.2632C44.9508 43.2169 44.6984 43.241 44.362 43.289L44.2418 42.8204C44.6263 42.8925 44.9147 42.9165 45.2632 42.9165H49.1202V42.8084C49.1202 41.9553 49.0962 41.6909 49.0361 41.3545C50.2497 41.5107 50.3578 41.5588 50.3578 41.715C50.3578 41.8231 50.2857 41.8952 49.9733 42.0274V42.9165H53.3858C53.9145 42.3037 53.9986 42.2437 54.0707 42.2437C54.1548 42.2437 54.2389 42.3037 54.8157 42.7603C55.08 42.9646 55.1281 43.0367 55.1281 43.1088C55.1281 43.1809 55.092 43.2169 54.9719 43.2169H49.9733V44.4906ZM49.9733 46.4972V47.9872H52.6408V46.4972H49.9733ZM49.1202 46.4972H46.657V47.9872H49.1202V46.4972ZM49.9733 44.791V46.1968H52.6408V44.791H49.9733ZM49.1202 44.791H46.657V46.1968H49.1202V44.791Z" fill="#FFF5F5"/>
<path d="M39.7523 5.17707L39.7746 6.72796C39.7969 8.1338 39.8304 9.04872 39.8304 9.41691C39.8304 9.75164 39.6965 9.95247 39.5068 10.0975C39.3618 10.2091 39.1274 10.2984 38.9155 10.2984C38.7704 10.2984 38.7258 10.2426 38.6811 10.0529C38.6365 9.74048 38.458 9.65122 37.6212 9.4727C37.5542 9.46154 37.5654 9.3165 37.6323 9.32765C38.2572 9.38344 38.6254 9.3946 38.8708 9.3946C39.0047 9.3946 39.0605 9.34997 39.0605 9.20492V4.74193H37.9894V4.88698C37.9894 5.12128 37.8332 5.21054 37.5319 5.21054C37.3311 5.21054 37.2195 5.1436 37.2195 4.94276C37.2195 4.66383 37.2641 4.251 37.2641 2.64432C37.2641 1.81867 37.2641 1.40584 37.2084 0.870284C37.5654 1.01533 37.7439 1.10459 38.101 1.32774H38.8262C38.8931 1.10459 38.9489 0.881441 38.9936 0.680606C39.0382 0.446299 39.0605 0.211992 39.0605 0C39.9531 0.234307 40.1762 0.334725 40.1762 0.457457C40.1762 0.557874 40.0758 0.624819 39.7523 0.658292C39.5514 0.914914 39.3618 1.11575 39.1386 1.32774H40.8457C41.2027 0.959543 41.2585 0.914913 41.3255 0.914913C41.4036 0.914913 41.4594 0.959544 41.8052 1.24964C41.9726 1.40584 42.0061 1.47279 42.0061 1.53973C42.0061 1.62899 41.9838 1.66246 41.716 1.85214V2.59969C41.716 3.94975 41.7495 4.64151 41.7495 4.84235C41.7495 5.07665 41.6044 5.17707 41.3032 5.17707C41.0465 5.17707 40.9573 5.09897 40.9573 4.88698V4.74193H39.8192C39.9866 5.48948 40.1986 6.22587 40.6225 6.87301C40.8792 6.61639 41.1135 6.33745 41.3366 6.02504C41.5375 5.73495 41.6713 5.44485 41.7606 5.18823C42.5305 5.64569 42.6755 5.77957 42.6755 5.89115C42.6755 6.01388 42.5751 6.05851 42.2404 6.04735C41.5933 6.52713 41.2697 6.77259 40.7341 7.04037C40.8234 7.1631 40.9126 7.27468 41.0131 7.38625C41.5932 8.04454 42.2739 8.47969 43.0326 8.75862C43.0772 8.76978 43.0549 8.84788 43.0102 8.8702C42.7425 8.98177 42.6309 9.11566 42.5082 9.4727C42.4524 9.65122 42.4077 9.67354 42.3296 9.67354C42.2739 9.67354 42.1846 9.62891 42.0061 9.49502C41.504 9.04872 40.9907 8.44621 40.6672 7.8995C40.2544 7.17426 40.0089 6.50481 39.7523 5.17707ZM37.9894 3.12409V4.46299H40.9573V3.12409H37.9894ZM40.9573 2.84516V1.60668H37.9894V2.84516H40.9573ZM34.4078 7.76561V5.33328C34.0954 5.40022 33.7161 5.45601 33.2363 5.54527C33.1582 5.79073 33.0912 5.85768 33.002 5.85768C32.8793 5.85768 32.8235 5.69031 32.6673 4.82003C32.9016 4.84235 33.0131 4.8535 33.1805 4.8535C33.4037 4.8535 33.6157 4.8535 33.7942 4.84235C34.2293 4.20637 34.7202 3.36956 35.0661 2.62201C35.2558 2.22034 35.4008 1.84098 35.4678 1.5732C36.2488 1.95256 36.4831 2.09761 36.4831 2.22034C36.4831 2.32076 36.3715 2.39886 36.0591 2.3877C35.3785 3.39187 34.9322 4.01669 34.1066 4.84235C34.7202 4.83119 35.3451 4.79772 35.9699 4.73077C35.8806 4.42952 35.7467 4.13943 35.5459 3.82702C35.5236 3.79354 35.6017 3.74891 35.6352 3.77123C36.3715 4.20637 36.7955 4.78656 36.7955 5.26633C36.7955 5.54527 36.6282 5.77958 36.405 5.77958C36.2153 5.77958 36.1149 5.64569 36.0703 5.21054C36.0591 5.12128 36.048 5.03202 36.0257 4.95392C35.7244 5.04318 35.4232 5.12128 35.1219 5.18823V7.33047C35.1219 8.54663 35.1554 9.65122 35.1554 9.98595C35.1554 10.2314 34.9992 10.3541 34.6979 10.3541C34.4413 10.3541 34.352 10.2649 34.352 10.0529C34.352 9.85206 34.4078 9.13798 34.4078 7.76561ZM33.9169 2.32076C34.2405 2.56622 34.3967 2.84516 34.3967 3.13525C34.3967 3.41419 34.2293 3.62618 34.0173 3.62618C33.8165 3.62618 33.7719 3.58155 33.638 3.14641C33.4594 2.65548 33.2698 2.29844 32.8346 1.89677C32.8012 1.8633 32.8569 1.79635 32.9016 1.80751C33.2251 1.91909 33.4929 2.04182 33.7161 2.17571C33.8946 1.76288 34.062 1.36121 34.1958 0.937228C34.3074 0.591347 34.3855 0.267779 34.419 0.0223147C35.2781 0.345882 35.5013 0.446299 35.5013 0.569031C35.5013 0.680606 35.412 0.747551 35.0773 0.758709C34.5864 1.50626 34.3409 1.84098 33.9169 2.32076ZM36.1372 8.30117C35.9141 8.30117 35.8471 8.1338 35.8248 7.73213C35.7914 7.18542 35.6686 6.68333 35.4455 6.28166C35.4232 6.24819 35.5013 6.21472 35.5347 6.23703C36.1819 6.72796 36.5389 7.27468 36.5389 7.73213C36.5389 8.10033 36.3827 8.30117 36.1372 8.30117ZM32.6673 9.46154C32.6226 9.51733 32.4999 9.46154 32.5222 9.3946C32.7454 8.8702 32.9574 8.11149 33.0912 7.46435C33.1805 7.0069 33.2363 6.5606 33.2363 6.25935C34.1177 6.52713 34.2628 6.58291 34.2628 6.7168C34.2628 6.79491 34.1735 6.86185 33.9169 6.91764C33.5933 7.96644 33.2698 8.70284 32.6673 9.46154ZM37.0745 6.12546H37.8109C38.0786 5.81305 38.1344 5.76842 38.2014 5.76842C38.2795 5.76842 38.3353 5.81305 38.67 6.12546C38.8597 6.30398 38.9043 6.37092 38.9043 6.43787C38.9043 6.51597 38.8262 6.57176 38.5696 6.64986C38.034 8.10033 37.253 8.9483 35.7914 9.72932C35.7244 9.7628 35.6352 9.60659 35.6909 9.56196C36.7621 8.70284 37.4873 7.64287 37.8109 6.40439H37.0968C36.8736 6.40439 36.6951 6.42671 36.4273 6.4825L36.3046 6.04735C36.6282 6.1143 36.829 6.12546 37.0745 6.12546Z" fill="#FFF5F5"/>
<path d="M25.069 7.49827H26.5529C26.5752 6.24863 26.5975 4.98783 26.6087 3.73819C25.4929 5.73538 23.864 7.42016 21.9672 8.35739C21.9002 8.39086 21.7887 8.25697 21.8556 8.21234C23.6743 6.95155 25.2921 4.8651 26.1066 2.82328H23.2503C22.949 2.82328 22.7259 2.8456 22.3688 2.89023L22.2573 2.46624C22.6589 2.53319 22.9044 2.54434 23.2391 2.54434H26.5529V2.13152C26.5529 0.837249 26.5306 0.48021 26.486 0.0673828C27.5236 0.1678 27.7356 0.245903 27.7356 0.39095C27.7356 0.48021 27.6687 0.558312 27.3674 0.70336V2.54434H30.3688C30.8374 1.94184 30.9266 1.88605 30.9936 1.88605C31.0605 1.88605 31.1498 1.94184 31.6853 2.37698C31.9308 2.57782 31.9866 2.64476 31.9866 2.71171C31.9866 2.78981 31.942 2.82328 31.8304 2.82328H27.4901C28.0257 4.01713 28.684 4.8651 29.3646 5.52339C30.2126 6.37136 31.3395 6.98502 32.3994 7.35322C32.4441 7.36438 32.4329 7.45363 32.3883 7.46479C32.087 7.54289 31.942 7.66563 31.7746 8.08961C31.73 8.20119 31.6853 8.25697 31.6072 8.25697C31.5403 8.25697 31.3618 8.19003 31.1386 8.04498C30.3353 7.50942 29.4985 6.77303 28.8848 5.96969C28.3269 5.22214 27.8137 4.35186 27.3116 3.03527C27.3339 4.51922 27.3674 6.01432 27.3897 7.49827H28.3158C28.7286 6.97386 28.8179 6.91808 28.8848 6.91808C28.9518 6.91808 29.0299 6.97386 29.4985 7.36438C29.6993 7.53174 29.7551 7.60984 29.7551 7.67678C29.7551 7.74373 29.7216 7.7772 29.6101 7.7772H27.4009C27.4232 9.06031 27.4343 9.70745 27.4343 9.96407C27.4343 10.2207 27.2335 10.3434 26.8765 10.3434C26.5975 10.3434 26.4971 10.243 26.4971 10.0199C26.4971 9.83018 26.5194 9.10494 26.5417 7.7772H25.1136C24.857 7.7772 24.645 7.79952 24.3214 7.84415L24.2098 7.42016C24.5557 7.48711 24.7789 7.49827 25.069 7.49827Z" fill="#FFF5F5"/>
<path d="M16.5328 2.18701H17.961C17.961 0.948532 17.9498 0.624965 17.9052 0.0224609C18.9763 0.145194 19.1213 0.189824 19.1213 0.357186C19.1213 0.46876 19.0544 0.546863 18.742 0.669595V2.18701H20.2929C20.6387 1.7965 20.6945 1.76303 20.7726 1.76303C20.8507 1.76303 20.9065 1.7965 21.2636 2.09775C21.4198 2.2428 21.4532 2.30974 21.4532 2.38785C21.4532 2.47711 21.3975 2.55521 21.152 2.70026V3.82716C21.152 5.79088 21.2078 6.82852 21.2078 7.14093C21.2078 7.3864 21.0516 7.49797 20.728 7.49797C20.4714 7.49797 20.3821 7.40871 20.3821 7.18556V6.89547H18.7531C18.7643 8.66951 18.7866 9.56211 18.7866 9.9303C18.7866 10.2092 18.6416 10.3431 18.2957 10.3431C18.0056 10.3431 17.9052 10.265 17.9052 9.98609C17.9052 9.65137 17.9275 8.82571 17.9498 6.89547H16.4324V7.10746C16.4324 7.36408 16.2873 7.4645 15.9861 7.4645C15.7295 7.4645 15.6179 7.37524 15.6179 7.18556C15.6179 6.80621 15.6737 6.14792 15.6737 4.05031C15.6737 2.92341 15.6625 2.34322 15.6179 1.70724C15.9972 1.89692 16.1646 1.97502 16.5328 2.18701ZM16.4324 6.61653H17.9498C17.961 5.83551 17.961 4.84249 17.961 4.59703H16.4324V6.61653ZM18.7531 6.61653H20.3821V4.59703H18.742C18.742 5.26648 18.742 5.94708 18.7531 6.61653ZM18.742 2.46595V4.31809H20.3821V2.46595H18.742ZM17.961 2.46595H16.4324V4.31809H17.961V2.46595ZM13.6876 4.76439V4.86481C14.703 5.19953 15.3055 5.74625 15.3055 6.21486C15.3055 6.47149 15.1381 6.66116 14.9373 6.66116C14.7699 6.66116 14.6918 6.5719 14.5468 6.25949C14.3013 5.74625 14.0893 5.40037 13.6876 5.08796V7.15209C13.6876 8.87034 13.7211 9.60674 13.7211 9.96378C13.7211 10.2204 13.5426 10.3431 13.2413 10.3431C12.9736 10.3431 12.862 10.2427 12.862 10.0084C12.862 9.80757 12.9066 9.08234 12.9289 7.0182C12.9289 6.51612 12.9401 6.02519 12.9512 5.51194C12.438 5.95824 11.8801 6.34875 11.2553 6.67232C11.1884 6.70579 11.0879 6.5719 11.1549 6.52727C12.4603 5.51194 13.6095 4.028 14.2232 2.52174H12.3041C11.9917 2.52174 11.7686 2.53289 11.5119 2.59984L11.4004 2.1647C11.7128 2.22048 11.9582 2.2428 12.3041 2.2428H12.9289V1.02663C12.9289 0.703068 12.9066 0.42413 12.8508 0.0224609C13.9219 0.145194 14.0893 0.234454 14.0893 0.357186C14.0893 0.457603 13.9889 0.546863 13.6988 0.669595V2.2428H14.2009C14.491 1.93039 14.5468 1.88576 14.6137 1.88576C14.6918 1.88576 14.7476 1.93039 15.1158 2.28743C15.2832 2.46595 15.3278 2.53289 15.3278 2.611C15.3278 2.71141 15.2274 2.7672 14.9373 2.8453C14.6026 3.54823 14.1897 4.19536 13.6876 4.76439Z" fill="#FFF5F5"/>
<path d="M5.98929 3.67105H9.09107C9.45927 3.23591 9.52621 3.20243 9.59316 3.20243C9.6601 3.20243 9.72705 3.23591 10.151 3.62642C10.3296 3.77146 10.363 3.83841 10.363 3.91651C10.363 3.99461 10.2849 4.06156 10.0171 4.19545C9.69358 5.47856 9.2138 6.56084 8.5332 7.45343C9.38117 8.34603 10.3296 8.90391 11.2891 9.17169C11.3449 9.18284 11.3114 9.28326 11.2556 9.30557C10.9655 9.41715 10.8986 9.46178 10.7201 9.93039C10.6754 10.0643 10.6308 10.0866 10.5639 10.0866C10.4858 10.0866 10.3184 9.99734 10.0841 9.85229C9.31422 9.37252 8.63361 8.72539 8.07574 8.00015C7.18314 8.98201 6.01161 9.69609 4.53882 10.1982C4.46072 10.2205 4.39377 10.0531 4.46072 10.0197C5.83309 9.29442 6.88189 8.43529 7.66291 7.39765C7.02694 6.34884 6.68106 5.15499 6.45791 3.94998H5.97813C5.91119 5.22194 5.75498 6.14801 5.53184 6.94019C5.1748 8.15635 4.47187 9.24979 3.27802 10.1424C3.21108 10.187 3.08835 10.0754 3.14413 10.0197C3.9921 9.08242 4.58345 8.05594 4.87354 6.7282C5.11901 5.61245 5.20827 4.27355 5.20827 2.32099C5.20827 1.52881 5.19711 1.2164 5.13017 0.524638C5.56531 0.703158 5.74383 0.78126 6.1455 1.02672H9.41464C9.93904 0.435378 9.99483 0.401906 10.0618 0.401906C10.151 0.401906 10.218 0.435378 10.7312 0.859362C10.999 1.04904 11.0436 1.11598 11.0436 1.18293C11.0436 1.26103 10.999 1.30566 10.8874 1.30566H6.02276V1.94164C6.02276 2.57761 6.01161 3.1578 5.98929 3.67105ZM9.15802 3.94998H6.68106C6.97115 4.98763 7.38398 5.9918 8.03111 6.86209C8.55551 6.01412 8.92371 5.04342 9.15802 3.94998ZM2.11765 1.02672V7.30839C2.11765 9.04895 2.13996 9.58451 2.13996 9.87461C2.13996 10.1201 1.96144 10.2316 1.64903 10.2316C1.39241 10.2316 1.29199 10.1424 1.29199 9.93039C1.29199 9.21631 1.34778 7.31954 1.34778 3.38095C1.34778 1.57344 1.34778 0.881677 1.29199 0.334961C1.69366 0.491166 1.87218 0.55811 2.22922 0.747788H3.63506C3.92516 0.401906 3.9921 0.357276 4.05905 0.357276C4.15947 0.357276 4.22641 0.401906 4.54998 0.747788C4.71734 0.91515 4.76197 0.993252 4.76197 1.0602C4.76197 1.14946 4.67271 1.22756 4.4384 1.31682C4.00326 2.22057 3.50117 3.04623 2.8652 3.84957C3.8359 4.65291 4.2822 5.37814 4.2822 6.4381C4.2822 6.90672 4.18178 7.24144 3.96979 7.48691C3.78011 7.74353 3.44539 7.86626 3.12182 7.86626C2.95446 7.86626 2.92098 7.82163 2.89867 7.64311C2.84288 7.3307 2.76478 7.19681 2.21806 7.05176C2.16228 7.04061 2.17343 6.92903 2.22922 6.92903C2.60857 6.9625 2.9433 6.97366 3.13298 6.97366C3.26687 6.97366 3.36728 6.92903 3.42307 6.82861C3.51233 6.71704 3.5458 6.48273 3.5458 6.14801C3.5458 5.26657 3.30034 4.59712 2.63089 3.8942C3.11066 2.91234 3.4677 1.93048 3.65738 1.02672H2.11765Z" fill="#FFF5F5"/>
<path d="M76.874 35.7557V35.0541H82.0063V20.4326H82.7448V35.7557H76.874Z" fill="#FFF5F5"/>
<path d="M63.0089 29.8481H65.9997C66.2582 28.9988 66.4428 28.1311 66.5351 27.245H64.2459V27.3742C64.2459 27.8542 64.0243 28.0388 63.4705 28.0388C63.0274 28.0388 62.8797 27.8911 62.8797 27.4665C62.8797 27.1527 62.9351 26.6727 62.9351 24.8081C62.9351 23.885 62.9351 23.4419 62.8613 22.7219C63.5259 22.9988 63.8028 23.1465 64.4674 23.5158H70.8366C71.4089 22.9065 71.5012 22.8512 71.612 22.8512C71.7597 22.8512 71.8889 22.8881 72.4797 23.405C72.7566 23.645 72.812 23.7558 72.812 23.8665C72.812 24.0142 72.7197 24.1065 72.3136 24.3835V25.0481C72.3136 26.4881 72.3689 27.0788 72.3689 27.2635C72.3689 27.6327 72.092 27.8358 71.5751 27.8358C71.132 27.8358 70.9843 27.6881 70.9843 27.245H68.1597C67.7166 28.1496 67.1997 29.0358 66.6089 29.8481H72.2212C72.7936 29.2019 72.8859 29.1465 72.9966 29.1465C73.1259 29.1465 73.2551 29.165 73.8828 29.7373C74.1782 29.9958 74.2335 30.1065 74.2335 30.2173C74.2335 30.3834 74.1412 30.4758 73.7166 30.7342V31.7311C73.7166 33.6142 73.7905 34.4634 73.7905 34.7404C73.7905 35.1834 73.4951 35.3865 72.9597 35.3865C72.4982 35.3865 72.3505 35.2388 72.3505 34.8142V34.4265H62.8428V34.8327C62.8428 35.3311 62.6397 35.5342 62.0674 35.5342C61.6243 35.5342 61.4397 35.3496 61.4397 34.9619C61.4397 34.6111 61.5136 34.0204 61.5136 31.9158C61.5136 30.6419 61.5136 29.9588 61.4213 29.0542C62.1043 29.3311 62.3997 29.4788 63.0089 29.8481ZM70.9843 26.7835V23.9773H64.2459V26.7835H70.9843ZM72.3505 33.965V30.3096H62.8428V33.965H72.3505ZM73.8089 21.5035H61.8459C61.8459 22.9804 61.1628 23.9958 60.3136 23.9958C59.8705 23.9958 59.5566 23.6819 59.5566 23.2388C59.5566 22.8881 59.7043 22.6665 60.0736 22.4635C60.9782 21.9465 61.3659 21.3558 61.4397 20.2112C61.4397 20.1004 61.6797 20.1004 61.6982 20.2112C61.772 20.5065 61.8089 20.7835 61.8274 21.0419H66.8859V19.8788C66.8859 19.5096 66.8859 19.1958 66.7936 18.5127C68.7136 18.7158 68.9351 18.8635 68.9351 19.0665C68.9351 19.2327 68.7874 19.3804 68.2889 19.6019V21.0419H73.6059C74.1412 20.3773 74.2705 20.3035 74.3997 20.3035C74.5474 20.3035 74.6951 20.4142 75.4705 21.1342C75.8766 21.5035 75.9135 21.6327 75.9135 21.7619C75.9135 22.0204 75.7843 22.1127 75.1935 22.1127C74.9905 22.1127 74.8797 22.1681 74.7505 22.2973C74.3443 22.7404 73.9566 23.0727 73.3659 23.4788C73.292 23.5342 73.1628 23.4419 73.1997 23.3496C73.4397 22.8512 73.6428 22.1865 73.8089 21.5035Z" fill="#FFF5F5"/>
<path d="M43.6616 21.5038L43.4585 20.8207C44.1416 20.9314 44.6216 20.9499 45.2493 20.9499H54.1108C55.0155 19.8607 55.2555 19.7314 55.3662 19.7314C55.4955 19.7314 55.6801 19.8238 56.6031 20.5991C57.0647 20.9868 57.1385 21.1161 57.1385 21.2268C57.1385 21.3561 57.0832 21.4114 56.8985 21.4114H45.2493C44.6585 21.4114 44.2524 21.4484 43.6616 21.5038ZM44.6032 27.2084L44.4185 26.5253C45.0462 26.6361 45.5078 26.6545 46.0801 26.6545H52.9293C53.797 25.6022 54.0185 25.473 54.1478 25.473C54.277 25.473 54.4247 25.5468 55.3478 26.3222C55.7724 26.673 55.8462 26.8207 55.8462 26.9314C55.8462 27.0607 55.7908 27.1161 55.6062 27.1161H46.0985C45.5816 27.1161 45.1755 27.153 44.6032 27.2084ZM42.2032 33.633L42.0186 32.9499C42.6647 33.0607 43.2001 33.0791 43.8278 33.0791H55.1816C56.1601 31.9345 56.3816 31.8053 56.4924 31.8053C56.6216 31.8053 56.7878 31.916 57.7847 32.7099C58.2831 33.0976 58.357 33.2453 58.357 33.356C58.357 33.4853 58.3016 33.5407 58.117 33.5407H43.8278C43.237 33.5407 42.7755 33.5776 42.2032 33.633Z" fill="#FFF5F5"/>
<path d="M37.2002 27.8909H27.914C27.8217 29.0539 27.6371 30.0324 27.3233 30.937C26.6956 32.6909 25.754 34.057 24.1848 35.4601C24.111 35.5339 23.9079 35.3678 23.9817 35.2755C25.1079 33.7801 25.7725 32.2662 26.1786 30.457C26.5294 28.9063 26.5848 27.1524 26.5848 24.6601C26.5848 23.4232 26.5479 22.9616 26.474 22.1309C27.231 22.4447 27.5448 22.6109 28.2648 22.9986H37.034C37.6433 22.334 37.7356 22.2601 37.8463 22.2601C37.994 22.2601 38.1048 22.334 38.7509 22.8878C39.0279 23.1093 39.1017 23.2201 39.1017 23.3309C39.1017 23.497 39.0094 23.6263 38.6033 23.8847V25.1401C38.6033 27.1524 38.6771 28.2786 38.6771 28.6663C38.6771 29.1278 38.4002 29.3309 37.7725 29.3309C37.3479 29.3309 37.2002 29.1647 37.2002 28.7401V27.8909ZM37.2002 27.4293V23.4601H28.0248V24.8447C28.0248 25.8232 28.0063 26.6724 27.951 27.4293H37.2002ZM24.9602 20.5247L24.7571 19.8047C25.4033 19.9155 25.791 19.9524 26.3448 19.9524H37.8832C38.7879 18.937 38.9171 18.8447 39.0279 18.8447C39.1571 18.8447 39.3048 18.937 40.2279 19.657C40.6709 20.0263 40.7448 20.137 40.7448 20.2478C40.7448 20.3586 40.6894 20.414 40.5048 20.414H26.3633C25.8463 20.414 25.4956 20.4509 24.9602 20.5247Z" fill="#FFF5F5"/>
<path d="M15.102 22.0757H17.465C17.465 20.0264 17.4466 19.4911 17.3727 18.4941C19.145 18.6972 19.385 18.7711 19.385 19.048C19.385 19.2326 19.2743 19.3618 18.7574 19.5649V22.0757H21.3235C21.8958 21.4295 21.9881 21.3741 22.1173 21.3741C22.2466 21.3741 22.3389 21.4295 22.9297 21.928C23.1881 22.168 23.2435 22.2788 23.2435 22.408C23.2435 22.5557 23.1512 22.6849 22.745 22.9249V24.7895C22.745 28.0387 22.8373 29.7557 22.8373 30.2726C22.8373 30.6787 22.5789 30.8634 22.0435 30.8634C21.6189 30.8634 21.4712 30.7157 21.4712 30.3464V29.8664H18.7758C18.7943 32.8018 18.8312 34.2787 18.8312 34.888C18.8312 35.3495 18.5912 35.571 18.0189 35.571C17.5389 35.571 17.3727 35.4418 17.3727 34.9803C17.3727 34.4264 17.4097 33.0603 17.4466 29.8664H14.9358V30.2172C14.9358 30.6418 14.6958 30.808 14.1974 30.808C13.7727 30.808 13.5881 30.6603 13.5881 30.3464C13.5881 29.7187 13.6804 28.6295 13.6804 25.1587C13.6804 23.2941 13.662 22.3341 13.5881 21.2818C14.2158 21.5957 14.4927 21.7249 15.102 22.0757ZM14.9358 29.4049H17.4466C17.465 28.1126 17.465 26.4695 17.465 26.0634H14.9358V29.4049ZM18.7758 29.4049H21.4712V26.0634H18.7574C18.7574 27.1711 18.7574 28.2972 18.7758 29.4049ZM18.7574 22.5372V25.6018H21.4712V22.5372H18.7574ZM17.465 22.5372H14.9358V25.6018H17.465V22.5372ZM10.3943 26.3403V26.5064C12.0743 27.0603 13.0712 27.9649 13.0712 28.7403C13.0712 29.1649 12.7943 29.4787 12.462 29.4787C12.1851 29.4787 12.0558 29.3311 11.8158 28.8141C11.4097 27.9649 11.0589 27.3926 10.3943 26.8757V30.291C10.3943 33.1341 10.4497 34.3526 10.4497 34.9433C10.4497 35.368 10.1543 35.571 9.65582 35.571C9.21275 35.571 9.02813 35.4049 9.02813 35.0172C9.02813 34.6849 9.10198 33.4849 9.1389 30.0695C9.1389 29.2387 9.15736 28.4264 9.17583 27.5772C8.3266 28.3157 7.40352 28.9618 6.36967 29.4972C6.25891 29.5526 6.09275 29.331 6.20352 29.2572C8.36352 27.5772 10.2651 25.1218 11.2804 22.6295H8.10506C7.58813 22.6295 7.21891 22.648 6.79429 22.7588L6.60967 22.0388C7.1266 22.1311 7.53275 22.168 8.10506 22.168H9.1389V20.1557C9.1389 19.6203 9.10198 19.1588 9.00967 18.4941C10.782 18.6972 11.0589 18.8449 11.0589 19.048C11.0589 19.2141 10.8927 19.3618 10.4127 19.5649V22.168H11.2435C11.7235 21.6511 11.8158 21.5772 11.9266 21.5772C12.0558 21.5772 12.1481 21.6511 12.7574 22.2418C13.0343 22.5372 13.1081 22.648 13.1081 22.7772C13.1081 22.9434 12.942 23.0357 12.462 23.1649C11.9081 24.328 11.2251 25.3987 10.3943 26.3403Z" fill="#FFF5F5"/>
<path d="M5.87076 18.291V18.9926H0.738461V33.6141H0V18.291H5.87076Z" fill="#FFF5F5"/>
<path d="M95.2283 27.279H93.8105C94.0268 28.781 94.3872 29.7543 94.952 30.5714C95.5167 31.4004 96.1656 31.9291 96.9826 32.3978C97.0187 32.4218 96.9947 32.5059 96.9466 32.5179C96.6342 32.59 96.49 32.7462 96.3338 33.1668C96.2857 33.2869 96.2377 33.311 96.1536 33.311C96.1055 33.311 96.0214 33.2509 95.8892 33.1307C95.2524 32.554 94.8078 31.8691 94.3993 31.076C94.0148 30.2469 93.6903 29.0814 93.5341 27.279H92.3926C92.3446 28.8291 92.2244 29.6461 92.0081 30.4392C91.6597 31.7249 91.0709 32.7462 90.1697 33.5513C90.1216 33.5873 90.0135 33.5032 90.0496 33.4551C90.6624 32.578 90.9988 31.6768 91.2391 30.6314C91.4794 29.55 91.5635 28.2043 91.5635 25.9573C91.5635 24.1429 91.5515 23.5782 91.4914 22.8573C91.924 23.0495 92.1163 23.1456 92.5248 23.3859H95.1442C95.5047 23.0014 95.5648 22.9654 95.6369 22.9654C95.721 22.9654 95.7811 23.0014 96.1776 23.3379C96.3458 23.4941 96.3939 23.5542 96.3939 23.6263C96.3939 23.7224 96.3338 23.8065 96.0815 23.9747V25.1763C96.0815 26.7383 96.1295 27.3632 96.1295 27.5915C96.1295 27.8798 95.9613 27.988 95.5888 27.988C95.3365 27.988 95.2283 27.9039 95.2283 27.6756V27.279ZM95.2283 26.9787V23.6863H92.4287V24.936C92.4287 25.729 92.4167 26.4019 92.4046 26.9787H95.2283ZM87.1778 28.9252V29.0333C87.1778 29.2496 87.0216 29.3698 86.7092 29.3698C86.4568 29.3698 86.3607 29.2857 86.3607 29.0814C86.3607 28.793 86.4208 28.024 86.4208 25.3085C86.4208 24.0108 86.4088 23.6743 86.3487 22.8693C86.7452 23.0255 86.9014 23.1096 87.2619 23.3259H89.665C90.0736 22.8212 90.1337 22.7852 90.2058 22.7852C90.3019 22.7852 90.362 22.8212 90.8186 23.2297C90.9748 23.3739 91.0348 23.446 91.0348 23.5181C91.0348 23.5902 90.9748 23.6263 90.8546 23.6263H89.0522V25.0802H89.593C89.8933 24.6356 89.9895 24.5875 90.0496 24.5875C90.1337 24.5875 90.2058 24.6356 90.5782 24.984C90.6984 25.1042 90.7585 25.2003 90.7585 25.2604C90.7585 25.3325 90.7224 25.3806 90.6023 25.3806H89.0522V26.8104H89.5569C89.8933 26.3899 89.9775 26.3298 90.0496 26.3298C90.1216 26.3298 90.1937 26.3899 90.5662 26.7263C90.6864 26.8345 90.7465 26.9306 90.7465 26.9907C90.7465 27.0748 90.7104 27.1108 90.5903 27.1108H89.0522V28.6248H89.7371C90.0375 28.2523 90.1096 28.2043 90.1817 28.2043C90.2538 28.2043 90.3259 28.2523 90.6864 28.5767C90.8546 28.733 90.9027 28.805 90.9027 28.8771C90.9027 28.9492 90.8546 29.0093 90.5782 29.1775C90.4821 30.7396 90.3379 31.7129 90.0856 32.3857C89.9654 32.6981 89.8092 32.9505 89.605 33.1187C89.3647 33.311 89.0883 33.4071 88.8239 33.4071C88.6798 33.4071 88.6197 33.359 88.5836 33.1788C88.5236 32.8423 88.4394 32.7702 87.6104 32.4939C87.5503 32.4698 87.5623 32.3377 87.6224 32.3497C88.2953 32.4338 88.6077 32.4578 88.884 32.4578C89.1724 32.4578 89.2926 32.3257 89.4488 31.7609C89.653 31.0159 89.7371 30.2469 89.8213 28.9252H87.1778ZM87.1778 28.6248H88.2953V27.1108H87.1778V28.6248ZM87.1778 26.8104H88.2953V25.3806H87.1778V26.8104ZM87.1778 25.0802H88.2953V23.6263H87.1778V25.0802ZM89.1724 30.7396C89.0402 30.7396 88.9922 30.6675 88.9201 30.4632C88.8119 30.1148 88.6197 29.8144 88.3433 29.562C88.3073 29.526 88.3553 29.4659 88.4034 29.4779C89.0162 29.6341 89.4247 29.9826 89.4247 30.3431C89.4247 30.5714 89.3166 30.7396 89.1724 30.7396ZM85.9041 32.2896C85.6999 32.2896 85.5557 32.0974 85.5557 31.857C85.5557 31.7008 85.6037 31.5807 85.7599 31.4365C86.1204 31.1001 86.3367 30.6555 86.3727 29.9826C86.3727 29.9345 86.4929 29.9345 86.5049 29.9826C86.553 30.271 86.577 30.5353 86.577 30.7876C86.577 31.6648 86.3127 32.2896 85.9041 32.2896ZM87.31 31.785C87.1658 31.785 87.0456 31.7369 87.0696 31.4125C87.0817 31.2322 87.0937 31.0159 87.0937 30.7997C87.0817 30.5593 87.0456 30.271 86.9615 29.9826C86.9495 29.9345 87.0216 29.8985 87.0576 29.9345C87.4782 30.3911 87.6825 30.8477 87.6825 31.2563C87.6825 31.5326 87.5142 31.785 87.31 31.785ZM88.2953 31.3644C88.1511 31.3644 88.115 31.2923 88.079 30.9919C88.0189 30.5353 87.9108 30.2349 87.6704 29.7903C87.6464 29.7423 87.7185 29.6942 87.7545 29.7182C88.3193 30.1268 88.6437 30.5353 88.6437 30.8718C88.6437 31.1481 88.4755 31.3644 88.2953 31.3644Z" fill="#FFF5F5"/>
</svg>
