<svg width="103" height="38" viewBox="0 0 103 38" fill="none" xmlns="http://www.w3.org/2000/svg">
<path d="M8.05851 4.5446V6.47279C8.05851 7.65845 8.07049 7.82612 8.19025 8.06565C8.33397 8.30518 8.66931 8.30518 9.11243 8.35308C9.20824 8.36506 9.2322 8.38901 9.2322 8.52075C9.2322 8.62854 9.20824 8.66447 9.11243 8.66447C8.59745 8.64052 8.01061 8.61656 7.51957 8.61656C7.04052 8.61656 6.42972 8.64052 5.96265 8.66447C5.86683 8.66447 5.84288 8.62854 5.84288 8.52075C5.84288 8.38901 5.86683 8.36506 5.96265 8.35308C6.36984 8.30518 6.70518 8.2932 6.83692 8.06565C6.98064 7.80217 6.98064 7.26323 6.98064 6.47279V2.22118C6.98064 1.08342 6.98064 0.951682 6.8489 0.700178C6.71716 0.46065 6.29798 0.448674 5.84288 0.400768C5.77102 0.388792 5.74707 0.376816 5.74707 0.257052C5.74707 0.101359 5.77102 0.0774059 5.84288 0.0774059C6.35787 0.101359 6.98064 0.125312 7.45969 0.125312C7.89084 0.125312 8.64535 0.0654297 9.42382 0.0654297C11.6155 0.0654297 12.4898 1.02354 12.4898 2.24513C12.4898 3.13138 11.9149 4.00566 10.5616 4.37693C11.0406 5.29911 11.5915 6.28117 12.2263 7.28719C12.4898 7.71834 12.7053 8.0417 12.9449 8.18542C13.1485 8.2932 13.364 8.31716 13.6754 8.35308C13.7473 8.36506 13.7712 8.38901 13.7712 8.50878C13.7712 8.64052 13.7353 8.66447 13.6635 8.66447C13.2203 8.64052 12.873 8.61656 12.5257 8.61656C12.2143 8.61656 11.9868 8.61657 11.6275 8.62854C11.5077 8.32913 11.352 8.00577 11.1843 7.70636C10.5975 6.65244 10.0226 5.61049 9.44777 4.55657C9.30405 4.56855 9.08848 4.58052 8.92081 4.58052C8.6214 4.58052 8.34594 4.56855 8.05851 4.5446ZM8.05851 2.22118V4.1374C8.32199 4.17333 8.6214 4.19728 8.92081 4.19728C10.6215 4.19728 11.2562 3.34696 11.2562 2.31699C11.2562 1.1433 10.6095 0.472627 9.17232 0.472627C8.77709 0.472627 8.3699 0.46065 8.2142 0.700178C8.04654 0.939705 8.05851 1.56248 8.05851 2.22118Z" fill="#FFF5F5"/>
<path d="M2.60897 7.33483V2.20894C2.60897 1.08316 2.60897 0.939448 2.47723 0.687944C2.34549 0.460393 1.97422 0.43644 1.53109 0.388535C1.45924 0.376558 1.43528 0.364582 1.43528 0.232841C1.43528 0.0891254 1.45924 0.0771484 1.53109 0.0771484C2.0341 0.0891254 2.65687 0.113078 3.13593 0.113078C3.62696 0.113078 4.26171 0.0891254 4.74076 0.0771484C4.81262 0.0771484 4.83658 0.0891254 4.83658 0.232841C4.83658 0.364582 4.81262 0.376558 4.74076 0.388535C4.30961 0.43644 3.98625 0.448416 3.85451 0.687944C3.69882 0.951424 3.69882 1.47839 3.69882 2.20894V4.60422C3.69882 5.78988 3.73475 6.26894 3.73475 7.47855C3.73475 8.62828 3.31558 9.58639 2.83652 10.2451C2.33351 10.9517 1.66284 11.4906 1.11192 11.4906C0.740654 11.4906 0.584961 11.3948 0.584961 11.1553C0.584961 10.7361 0.980181 10.2331 1.31552 10.2331C1.61493 10.2331 1.73469 10.4247 2.04608 10.4247C2.21375 10.4247 2.34549 10.281 2.42932 9.99359C2.54909 9.62232 2.60897 8.89176 2.60897 7.33483Z" fill="#FFF5F5"/>
<path d="M100.357 29.9604H98.8353C99.0674 31.5726 99.4544 32.6173 100.061 33.4944C100.667 34.3843 101.363 34.9518 102.24 35.4548C102.279 35.4806 102.253 35.5709 102.202 35.5838C101.866 35.6612 101.711 35.8289 101.544 36.2803C101.492 36.4093 101.441 36.4351 101.35 36.4351C101.299 36.4351 101.208 36.3706 101.067 36.2416C100.383 35.6225 99.9058 34.8873 99.4673 34.0361C99.0545 33.1462 98.7063 31.8951 98.5386 29.9604H97.3134C97.2618 31.6242 97.1328 32.5013 96.9006 33.3525C96.5266 34.7326 95.8946 35.8289 94.9273 36.693C94.8757 36.7317 94.7596 36.6414 94.7983 36.5898C95.4561 35.6483 95.8172 34.681 96.0752 33.5589C96.3331 32.3981 96.4234 30.9536 96.4234 28.5417C96.4234 26.5942 96.4105 25.988 96.346 25.2141C96.8104 25.4205 97.0167 25.5236 97.4552 25.7816H100.267C100.654 25.3689 100.718 25.3302 100.796 25.3302C100.886 25.3302 100.95 25.3689 101.376 25.73C101.557 25.8977 101.608 25.9622 101.608 26.0396C101.608 26.1427 101.544 26.233 101.273 26.4136V27.7033C101.273 29.38 101.325 30.0507 101.325 30.2958C101.325 30.6053 101.144 30.7214 100.744 30.7214C100.473 30.7214 100.357 30.6311 100.357 30.3861V29.9604ZM100.357 29.638V26.104H97.3521V27.4454C97.3521 28.2966 97.3392 29.0189 97.3263 29.638H100.357ZM91.7158 31.7274V31.8435C91.7158 32.0756 91.5481 32.2046 91.2128 32.2046C90.9419 32.2046 90.8388 32.1143 90.8388 31.8951C90.8388 31.5855 90.9032 30.7601 90.9032 27.8452C90.9032 26.4523 90.8903 26.0911 90.8259 25.227C91.2515 25.3947 91.4191 25.485 91.8061 25.7171H94.3856C94.8241 25.1754 94.8886 25.1367 94.966 25.1367C95.0692 25.1367 95.1337 25.1754 95.6238 25.6139C95.7914 25.7687 95.8559 25.8461 95.8559 25.9235C95.8559 26.0009 95.7914 26.0396 95.6625 26.0396H93.7278V27.6002H94.3082C94.6307 27.123 94.7338 27.0714 94.7983 27.0714C94.8886 27.0714 94.966 27.123 95.3658 27.497C95.4948 27.626 95.5593 27.7291 95.5593 27.7936C95.5593 27.871 95.5206 27.9226 95.3916 27.9226H93.7278V29.4574H94.2695C94.6307 29.006 94.7209 28.9415 94.7983 28.9415C94.8757 28.9415 94.9531 29.006 95.3529 29.3671C95.4819 29.4832 95.5464 29.5864 95.5464 29.6509C95.5464 29.7412 95.5077 29.7799 95.3787 29.7799H93.7278V31.405H94.463C94.7854 31.0051 94.8628 30.9536 94.9402 30.9536C95.0176 30.9536 95.095 31.0051 95.4819 31.3534C95.6625 31.521 95.7141 31.5984 95.7141 31.6758C95.7141 31.7532 95.6625 31.8177 95.3658 31.9983C95.2626 33.675 95.1079 34.7197 94.837 35.4419C94.708 35.7773 94.5404 36.0481 94.3211 36.2287C94.0632 36.435 93.7665 36.5382 93.4828 36.5382C93.328 36.5382 93.2635 36.4866 93.2248 36.2932C93.1603 35.932 93.07 35.8547 92.1801 35.558C92.1156 35.5322 92.1285 35.3903 92.193 35.4032C92.9153 35.4935 93.2506 35.5193 93.5473 35.5193C93.8568 35.5193 93.9858 35.3774 94.1534 34.7713C94.3727 33.9716 94.463 33.1462 94.5533 31.7274H91.7158ZM91.7158 31.405H92.9153V29.7799H91.7158V31.405ZM91.7158 29.4574H92.9153V27.9226H91.7158V29.4574ZM91.7158 27.6002H92.9153V26.0396H91.7158V27.6002ZM93.8568 33.675C93.7149 33.675 93.6633 33.5976 93.5859 33.3783C93.4699 33.0043 93.2635 32.6818 92.9669 32.411C92.9282 32.3723 92.9798 32.3078 93.0313 32.3207C93.6891 32.4884 94.1276 32.8624 94.1276 33.2493C94.1276 33.4944 94.0116 33.675 93.8568 33.675ZM90.3486 35.3388C90.1294 35.3388 89.9746 35.1324 89.9746 34.8744C89.9746 34.7068 90.0262 34.5778 90.1939 34.423C90.5808 34.0619 90.813 33.5847 90.8516 32.8624C90.8516 32.8108 90.9806 32.8108 90.9935 32.8624C91.0451 33.1719 91.0709 33.4557 91.0709 33.7265C91.0709 34.6681 90.7872 35.3388 90.3486 35.3388ZM91.8577 34.7971C91.7029 34.7971 91.5739 34.7455 91.5997 34.3972C91.6126 34.2038 91.6255 33.9716 91.6255 33.7394C91.6126 33.4815 91.5739 33.1719 91.4836 32.8624C91.4707 32.8108 91.5481 32.7721 91.5868 32.8108C92.0382 33.3009 92.2575 33.791 92.2575 34.2296C92.2575 34.5262 92.0769 34.7971 91.8577 34.7971ZM92.9153 34.3456C92.7605 34.3456 92.7218 34.2682 92.6831 33.9458C92.6186 33.4557 92.5025 33.1333 92.2446 32.656C92.2188 32.6045 92.2962 32.5529 92.3349 32.5787C92.9411 33.0172 93.2893 33.4557 93.2893 33.8168C93.2893 34.1135 93.1087 34.3456 92.9153 34.3456Z" fill="#FFF5F5"/>
<path d="M75.9258 37.7167V36.8765H82.0724V19.3652H82.9568V37.7167H75.9258Z" fill="#FFF5F5"/>
<path d="M69.3148 28.2979H58.1934C58.0828 29.6908 57.8617 30.8627 57.4859 31.9461C56.7341 34.0465 55.6065 35.6827 53.7271 37.3631C53.6387 37.4515 53.3955 37.2525 53.4839 37.142C54.8326 35.3511 55.6286 33.538 56.115 31.3712C56.5351 29.5139 56.6014 27.4135 56.6014 24.4286C56.6014 22.9472 56.5572 22.3944 56.4688 21.3995C57.3753 21.7754 57.7512 21.9744 58.6135 22.4387H69.1158C69.8455 21.6427 69.956 21.5543 70.0887 21.5543C70.2656 21.5543 70.3982 21.6427 71.1721 22.306C71.5037 22.5713 71.5922 22.704 71.5922 22.8367C71.5922 23.0356 71.4816 23.1904 70.9952 23.5V25.0035C70.9952 27.4135 71.0837 28.7622 71.0837 29.2265C71.0837 29.7793 70.752 30.0225 70.0002 30.0225C69.4917 30.0225 69.3148 29.8235 69.3148 29.315V28.2979ZM69.3148 27.7451V22.9914H58.326V24.6497C58.326 25.8215 58.3039 26.8386 58.2376 27.7451H69.3148ZM54.6557 19.4759L54.4125 18.6136C55.1864 18.7463 55.6507 18.7905 56.314 18.7905H70.1329C71.2163 17.5744 71.3711 17.4639 71.5037 17.4639C71.6585 17.4639 71.8354 17.5744 72.9409 18.4367C73.4716 18.8789 73.56 19.0116 73.56 19.1442C73.56 19.2769 73.4937 19.3432 73.2726 19.3432H56.3361C55.717 19.3432 55.2969 19.3875 54.6557 19.4759Z" fill="#FFF5F5"/>
<path d="M41.7429 21.3333H44.573C44.573 18.8791 44.5509 18.2379 44.4624 17.0439C46.585 17.2872 46.8725 17.3756 46.8725 17.7073C46.8725 17.9284 46.7398 18.0831 46.1207 18.3263V21.3333H49.194C49.8794 20.5595 49.99 20.4931 50.1448 20.4931C50.2995 20.4931 50.4101 20.5595 51.1176 21.1565C51.4272 21.4439 51.4935 21.5765 51.4935 21.7313C51.4935 21.9082 51.3829 22.063 50.8965 22.3504V24.5835C50.8965 28.4749 51.0071 30.5312 51.0071 31.1503C51.0071 31.6367 50.6975 31.8578 50.0563 31.8578C49.5478 31.8578 49.3709 31.6809 49.3709 31.2387V30.6639H46.1428C46.1649 34.1794 46.2091 35.9482 46.2091 36.6778C46.2091 37.2306 45.9217 37.4959 45.2363 37.4959C44.6614 37.4959 44.4624 37.3411 44.4624 36.7884C44.4624 36.1251 44.5067 34.4889 44.5509 30.6639H41.5439V31.0839C41.5439 31.5925 41.2565 31.7915 40.6595 31.7915C40.1509 31.7915 39.9298 31.6146 39.9298 31.2387C39.9298 30.487 40.0404 29.1825 40.0404 25.0257C40.0404 22.7926 40.0183 21.6429 39.9298 20.3826C40.6816 20.7585 41.0132 20.9132 41.7429 21.3333ZM41.5439 30.1111H44.5509C44.573 28.5634 44.573 26.5956 44.573 26.1091H41.5439V30.1111ZM46.1428 30.1111H49.3709V26.1091H46.1207C46.1207 27.4358 46.1207 28.7845 46.1428 30.1111ZM46.1207 21.8861V25.5564H49.3709V21.8861H46.1207ZM44.573 21.8861H41.5439V25.5564H44.573V21.8861ZM36.1048 26.4408V26.6398C38.1168 27.3031 39.3108 28.3865 39.3108 29.3151C39.3108 29.8237 38.9791 30.1995 38.5811 30.1995C38.2495 30.1995 38.0947 30.0227 37.8073 29.4036C37.3208 28.3865 36.9007 27.7011 36.1048 27.082V31.1724C36.1048 34.5774 36.1711 36.0366 36.1711 36.7442C36.1711 37.2527 35.8173 37.4959 35.2204 37.4959C34.6897 37.4959 34.4686 37.2969 34.4686 36.8326C34.4686 36.4346 34.5571 34.9975 34.6013 30.9071C34.6013 29.9121 34.6234 28.9393 34.6455 27.9222C33.6284 28.8066 32.5229 29.5805 31.2847 30.2216C31.1521 30.288 30.9531 30.0227 31.0857 29.9342C33.6726 27.9222 35.95 24.9815 37.1661 21.9966H33.3631C32.744 21.9966 32.3018 22.0187 31.7933 22.1514L31.5722 21.2891C32.1913 21.3997 32.6777 21.4439 33.3631 21.4439H34.6013V19.0339C34.6013 18.3927 34.557 17.8399 34.4465 17.0439C36.5691 17.2872 36.9007 17.464 36.9007 17.7073C36.9007 17.9062 36.7017 18.0831 36.1269 18.3263V21.4439H37.1218C37.6967 20.8248 37.8073 20.7364 37.9399 20.7364C38.0947 20.7364 38.2052 20.8248 38.9349 21.5323C39.2665 21.8861 39.355 22.0187 39.355 22.1735C39.355 22.3725 39.156 22.4831 38.5811 22.6378C37.9178 24.0308 37.0997 25.3132 36.1048 26.4408Z" fill="#FFF5F5"/>
<path d="M15.2329 29.0054V29.9782C17.3113 30.531 18.4389 31.5038 18.4389 32.4325C18.4389 32.9631 18.1514 33.2948 17.7313 33.2948C17.3555 33.2948 17.1786 33.0958 16.8912 32.4325C16.5153 31.6144 15.9183 30.9069 15.2329 30.3983V31.1501C15.2329 35.3068 15.2992 36.4344 15.2992 36.8103C15.2992 37.3409 15.0118 37.5399 14.3264 37.5399C13.8399 37.5399 13.6631 37.3631 13.6631 36.8987C13.6631 36.2354 13.7957 33.6043 13.8399 31.3491C12.4691 33.339 11.3194 34.4887 9.32945 35.6827C9.19679 35.7711 9.01991 35.5058 9.13046 35.3952C11.1867 33.538 12.6018 31.4817 13.5304 29.0054H11.1867C10.7445 29.0054 10.3907 29.0496 9.79377 29.138L9.57267 28.2757C10.1918 28.4305 10.6118 28.4526 11.1425 28.4526H13.7957V28.1873C13.7957 27.2366 13.7515 26.7944 13.6852 26.1311C15.3877 26.3079 15.852 26.4627 15.852 26.728C15.852 26.8828 15.7193 27.0155 15.2329 27.2366V28.4526H17.2449C17.9746 27.5461 18.1293 27.4577 18.262 27.4577C18.4168 27.4577 18.5715 27.5461 19.3896 28.1873C19.7213 28.519 19.8318 28.6737 19.8318 28.8064C19.8318 28.9391 19.7655 29.0054 19.5444 29.0054H15.2329ZM26.7081 25.0477V30.4868C26.7081 33.4938 26.7523 35.9922 26.7523 36.7661C26.7523 37.2304 26.3986 37.4736 25.7131 37.4736C25.2488 37.4736 25.0277 37.2967 25.0277 36.8766C25.0277 36.4344 25.1162 34.8646 25.1162 31.5923V25.0477H22.2639C22.1976 27.4798 21.9765 29.0938 21.6006 30.6415C20.9373 33.4717 19.7655 35.2626 17.4881 37.0535C17.3555 37.142 17.1123 36.9209 17.2007 36.8103C18.9916 34.6656 19.876 32.7641 20.3182 29.8456C20.6057 28.0989 20.7162 26.1311 20.7162 23.2788C20.7162 21.1562 20.6941 20.6256 20.5836 19.5643C21.3574 19.8739 21.7333 20.0286 22.485 20.4266C23.8559 19.9181 24.9835 19.1884 26.089 18.3261C26.4207 18.0608 26.7302 17.7734 27.0398 17.3975C28.4106 18.2598 28.8749 18.6799 28.8749 18.901C28.8749 19.1 28.6317 19.2327 27.8136 19.0779C26.089 20.0065 24.1875 20.6477 22.3082 20.9573V22.8587C22.3082 23.4336 22.2861 23.9864 22.2861 24.4949H27.2166C28.0789 23.4336 28.2558 23.3231 28.3885 23.3231C28.5433 23.3231 28.6759 23.4336 29.6045 24.2296C30.0025 24.5612 30.1131 24.6939 30.1131 24.8265C30.1131 24.9813 30.0246 25.0477 29.8035 25.0477H26.7081ZM15.3213 20.2055H17.267C17.9303 19.3211 18.0851 19.2105 18.2178 19.2105C18.3725 19.2105 18.5273 19.3211 19.3012 19.9623C19.6328 20.2276 19.7434 20.4045 19.7434 20.5372C19.7434 20.6698 19.677 20.7583 19.4559 20.7583H11.6289C11.1867 20.7583 10.8551 20.7804 10.3023 20.8909L10.0591 20.0507C10.6782 20.1613 11.0762 20.2055 11.5847 20.2055H13.7957V18.7683C13.7957 18.2598 13.7736 17.8618 13.7073 17.1543C15.7414 17.3754 16.0289 17.5302 16.0289 17.7513C16.0289 17.906 15.8741 18.0829 15.3213 18.304V20.2055ZM15.6309 25.0919H17.4439C18.2399 24.119 18.3947 24.0306 18.5273 24.0306C18.6821 24.0306 18.8147 24.119 19.677 24.8044C20.0529 25.1361 20.1635 25.2909 20.1635 25.4235C20.1635 25.5783 20.0971 25.6446 19.876 25.6446H11.0983C10.6561 25.6446 10.3244 25.6888 9.74955 25.7773L9.52845 24.9371C10.1475 25.0477 10.5455 25.0919 11.0983 25.0919H15.1223C15.5645 24.0748 15.8741 23.2125 16.0952 22.4608C16.2278 21.9522 16.3163 21.4658 16.3605 21.0236C17.7756 21.4658 18.3947 21.7974 18.3947 22.0407C18.3947 22.2839 18.2178 22.3723 17.6208 22.4165C16.869 23.5663 16.4047 24.2296 15.6309 25.0919ZM12.8892 24.6497C12.4249 24.6497 12.2922 24.4949 12.1817 23.5663C12.0932 22.7703 11.8721 22.1291 11.4963 21.4216C11.452 21.3331 11.5847 21.2447 11.6731 21.2889C12.8892 21.8859 13.6852 22.8366 13.6852 23.6326C13.6852 24.2296 13.3314 24.6497 12.8892 24.6497Z" fill="#FFF5F5"/>
<path d="M7.47246 16.8008V17.641H1.32582V35.1523H0.441406V16.8008H7.47246Z" fill="#FFF5F5"/>
</svg>
