<svg width="87" height="37" viewBox="0 0 87 37" fill="none" xmlns="http://www.w3.org/2000/svg">
<path d="M84.5643 30.2715H83.2323C83.4355 31.6825 83.7741 32.5968 84.3047 33.3643C84.8352 34.1432 85.4447 34.6399 86.2123 35.0801C86.2462 35.1027 86.2236 35.1817 86.1784 35.193C85.885 35.2607 85.7495 35.4075 85.6028 35.8025C85.5576 35.9154 85.5125 35.938 85.4334 35.938C85.3883 35.938 85.3093 35.8815 85.1851 35.7687C84.5868 35.2268 84.1692 34.5834 83.7854 33.8384C83.4242 33.0596 83.1194 31.9646 82.9727 30.2715H81.9003C81.8552 31.7276 81.7423 32.4952 81.5391 33.2402C81.2118 34.448 80.6587 35.4074 79.8121 36.1637C79.7669 36.1976 79.6653 36.1186 79.6992 36.0734C80.2749 35.2494 80.5909 34.4028 80.8167 33.4208C81.0425 32.4049 81.1215 31.1406 81.1215 29.0298C81.1215 27.3253 81.1102 26.7948 81.0537 26.1175C81.4601 26.2981 81.6407 26.3884 82.0245 26.6142H84.4853C84.8239 26.253 84.8803 26.2191 84.9481 26.2191C85.0271 26.2191 85.0835 26.253 85.456 26.569C85.614 26.7158 85.6592 26.7722 85.6592 26.84C85.6592 26.9303 85.6028 27.0093 85.3657 27.1673V28.2961C85.3657 29.7635 85.4109 30.3505 85.4109 30.565C85.4109 30.8359 85.2528 30.9375 84.9029 30.9375C84.6659 30.9375 84.5643 30.8584 84.5643 30.644V30.2715ZM84.5643 29.9893V26.8964H81.9342V28.0703C81.9342 28.8153 81.9229 29.4475 81.9116 29.9893H84.5643ZM77.0014 31.8179V31.9195C77.0014 32.1227 76.8547 32.2356 76.5612 32.2356C76.3241 32.2356 76.2338 32.1565 76.2338 31.9646C76.2338 31.6937 76.2903 30.9713 76.2903 28.4203C76.2903 27.2012 76.279 26.8851 76.2225 26.1288C76.595 26.2756 76.7418 26.3546 77.0804 26.5578H79.338C79.7218 26.0837 79.7782 26.0498 79.8459 26.0498C79.9363 26.0498 79.9927 26.0837 80.4216 26.4675C80.5684 26.6029 80.6248 26.6706 80.6248 26.7384C80.6248 26.8061 80.5684 26.84 80.4555 26.84H78.7623V28.2058H79.2703C79.5525 27.7881 79.6428 27.743 79.6992 27.743C79.7782 27.743 79.8459 27.7881 80.1959 28.1155C80.3087 28.2284 80.3652 28.3187 80.3652 28.3751C80.3652 28.4428 80.3313 28.488 80.2184 28.488H78.7623V29.8312H79.2364C79.5525 29.4362 79.6315 29.3797 79.6992 29.3797C79.7669 29.3797 79.8347 29.4362 80.1846 29.7522C80.2975 29.8538 80.3539 29.9441 80.3539 30.0006C80.3539 30.0796 80.32 30.1134 80.2072 30.1134H78.7623V31.5357H79.4057C79.6879 31.1858 79.7556 31.1406 79.8234 31.1406C79.8911 31.1406 79.9588 31.1858 80.2975 31.4906C80.4555 31.6373 80.5006 31.705 80.5006 31.7728C80.5006 31.8405 80.4555 31.8969 80.1959 32.055C80.1056 33.5224 79.9701 34.4367 79.7331 35.0688C79.6202 35.3623 79.4734 35.5993 79.2816 35.7574C79.0558 35.938 78.7962 36.0283 78.5478 36.0283C78.4124 36.0283 78.3559 35.9831 78.3221 35.8138C78.2656 35.4978 78.1866 35.43 77.4078 35.1704C77.3513 35.1478 77.3626 35.0237 77.4191 35.0349C78.0512 35.114 78.3447 35.1365 78.6043 35.1365C78.8752 35.1365 78.9881 35.0124 79.1348 34.4818C79.3267 33.782 79.4057 33.0596 79.4847 31.8179H77.0014ZM77.0014 31.5357H78.0512V30.1134H77.0014V31.5357ZM77.0014 29.8312H78.0512V28.488H77.0014V29.8312ZM77.0014 28.2058H78.0512V26.84H77.0014V28.2058ZM78.8752 33.5224C78.751 33.5224 78.7059 33.4546 78.6381 33.2628C78.5366 32.9354 78.3559 32.6532 78.0963 32.4162C78.0625 32.3823 78.1076 32.3259 78.1528 32.3371C78.7284 32.4839 79.1122 32.8112 79.1122 33.1499C79.1122 33.3643 79.0106 33.5224 78.8752 33.5224ZM75.8049 34.9785C75.613 34.9785 75.4775 34.7979 75.4775 34.5721C75.4775 34.4254 75.5227 34.3125 75.6694 34.1771C76.0081 33.861 76.2113 33.4434 76.2451 32.8112C76.2451 32.7661 76.358 32.7661 76.3693 32.8112C76.4144 33.0821 76.437 33.3305 76.437 33.5675C76.437 34.3915 76.1887 34.9785 75.8049 34.9785ZM77.1256 34.5044C76.9901 34.5044 76.8772 34.4593 76.8998 34.1545C76.9111 33.9852 76.9224 33.782 76.9224 33.5788C76.9111 33.3531 76.8772 33.0821 76.7982 32.8112C76.7869 32.7661 76.8547 32.7322 76.8885 32.7661C77.2836 33.195 77.4755 33.624 77.4755 34.0078C77.4755 34.2674 77.3175 34.5044 77.1256 34.5044ZM78.0512 34.1093C77.9157 34.1093 77.8819 34.0416 77.848 33.7594C77.7916 33.3305 77.69 33.0483 77.4642 32.6306C77.4416 32.5855 77.5094 32.5403 77.5432 32.5629C78.0738 32.9467 78.3785 33.3305 78.3785 33.6465C78.3785 33.9062 78.2205 34.1093 78.0512 34.1093Z" fill="#FFF5F5"/>
<path d="M66.1357 36.9111V36.237H71.0669V22.1885H71.7765V36.9111H66.1357Z" fill="#FFF5F5"/>
<path d="M60.4274 28.8168H50.694C50.5973 30.0359 50.4038 31.0614 50.0748 32.0096C49.4169 33.8479 48.43 35.2799 46.7852 36.7505C46.7078 36.8279 46.4949 36.6538 46.5723 36.557C47.7527 34.9896 48.4493 33.4029 48.8751 31.5065C49.2427 29.8811 49.3008 28.0427 49.3008 25.4304C49.3008 24.1339 49.2621 23.6502 49.1847 22.7794C49.9781 23.1083 50.307 23.2825 51.0617 23.6889H60.2532C60.8918 22.9922 60.9886 22.9148 61.1047 22.9148C61.2595 22.9148 61.3756 22.9922 62.0528 23.5727C62.3431 23.805 62.4205 23.9211 62.4205 24.0372C62.4205 24.2113 62.3238 24.3468 61.898 24.6177V25.9335C61.898 28.0427 61.9754 29.2231 61.9754 29.6295C61.9754 30.1133 61.6852 30.3261 61.0273 30.3261C60.5822 30.3261 60.4274 30.152 60.4274 29.7069V28.8168ZM60.4274 28.333V24.1726H50.8101V25.6239C50.8101 26.6495 50.7908 27.5396 50.7327 28.333H60.4274ZM47.5979 21.0959L47.3851 20.3412C48.0623 20.4573 48.4687 20.496 49.0492 20.496H61.1434C62.0915 19.4317 62.227 19.335 62.3431 19.335C62.4786 19.335 62.6334 19.4317 63.6009 20.1864C64.0653 20.5734 64.1427 20.6895 64.1427 20.8056C64.1427 20.9217 64.0847 20.9798 63.8912 20.9798H49.0686C48.5268 20.9798 48.1591 21.0185 47.5979 21.0959Z" fill="#FFF5F5"/>
<path d="M36.2979 22.7218H38.7748C38.7748 20.5739 38.7554 20.0127 38.678 18.9678C40.5357 19.1806 40.7873 19.258 40.7873 19.5483C40.7873 19.7418 40.6712 19.8773 40.1293 20.0901V22.7218H42.8191C43.4189 22.0445 43.5157 21.9865 43.6511 21.9865C43.7866 21.9865 43.8834 22.0445 44.5026 22.567C44.7735 22.8186 44.8315 22.9347 44.8315 23.0701C44.8315 23.2249 44.7348 23.3604 44.3091 23.6119V25.5663C44.3091 28.9721 44.4058 30.7717 44.4058 31.3135C44.4058 31.7392 44.1349 31.9327 43.5737 31.9327C43.1287 31.9327 42.9739 31.7779 42.9739 31.3909V30.8878H40.1487C40.168 33.9645 40.2067 35.5126 40.2067 36.1511C40.2067 36.6349 39.9552 36.8671 39.3553 36.8671C38.8522 36.8671 38.678 36.7317 38.678 36.2479C38.678 35.6674 38.7167 34.2354 38.7554 30.8878H36.1238V31.2554C36.1238 31.7005 35.8722 31.8746 35.3497 31.8746C34.9047 31.8746 34.7112 31.7198 34.7112 31.3909C34.7112 30.733 34.8079 29.5913 34.8079 25.9534C34.8079 23.9989 34.7886 22.9927 34.7112 21.8897C35.3691 22.2187 35.6593 22.3541 36.2979 22.7218ZM36.1238 30.404H38.7554C38.7748 29.0495 38.7748 27.3272 38.7748 26.9015H36.1238V30.404ZM40.1487 30.404H42.9739V26.9015H40.1293C40.1293 28.0626 40.1293 29.243 40.1487 30.404ZM40.1293 23.2056V26.4178H42.9739V23.2056H40.1293ZM38.7748 23.2056H36.1238V26.4178H38.7748V23.2056ZM31.3635 27.1918V27.3659C33.1244 27.9465 34.1693 28.8946 34.1693 29.7074C34.1693 30.1524 33.8791 30.4814 33.5308 30.4814C33.2405 30.4814 33.1051 30.3266 32.8535 29.7848C32.4278 28.8946 32.0601 28.2948 31.3635 27.753V31.3328C31.3635 34.3128 31.4216 35.59 31.4216 36.2092C31.4216 36.6543 31.1119 36.8671 30.5895 36.8671C30.1251 36.8671 29.9316 36.693 29.9316 36.2866C29.9316 35.9383 30.009 34.6805 30.0477 31.1006C30.0477 30.2298 30.067 29.3784 30.0864 28.4883C29.1962 29.2623 28.2287 29.9396 27.1451 30.5008C27.029 30.5588 26.8548 30.3266 26.9709 30.2492C29.2349 28.4883 31.228 25.9147 32.2923 23.3023H28.964C28.4222 23.3023 28.0352 23.3217 27.5901 23.4378L27.3966 22.6831C27.9384 22.7798 28.3642 22.8186 28.964 22.8186H30.0477V20.7093C30.0477 20.1482 30.009 19.6644 29.9122 18.9678C31.7699 19.1806 32.0601 19.3354 32.0601 19.5483C32.0601 19.7224 31.886 19.8773 31.3829 20.0901V22.8186H32.2536C32.7567 22.2767 32.8535 22.1993 32.9696 22.1993C33.1051 22.1993 33.2018 22.2767 33.8404 22.896C34.1306 23.2056 34.208 23.3217 34.208 23.4571C34.208 23.6313 34.0339 23.728 33.5308 23.8635C32.9503 25.0826 32.2343 26.2049 31.3635 27.1918Z" fill="#FFF5F5"/>
<path d="M13.0963 29.4364V30.2878C14.9153 30.7716 15.9021 31.623 15.9021 32.4357C15.9021 32.9002 15.6506 33.1904 15.2829 33.1904C14.954 33.1904 14.7992 33.0163 14.5476 32.4357C14.2186 31.7198 13.6962 31.1005 13.0963 30.6555V31.3134C13.0963 34.9513 13.1543 35.9382 13.1543 36.2672C13.1543 36.7316 12.9028 36.9057 12.3029 36.9057C11.8772 36.9057 11.7224 36.7509 11.7224 36.3446C11.7224 35.764 11.8385 33.4613 11.8772 31.4876C10.6775 33.2291 9.67123 34.2353 7.92968 35.2803C7.81357 35.3577 7.65877 35.1255 7.75552 35.0287C9.55513 33.4033 10.7936 31.6037 11.6063 29.4364H9.55513C9.16812 29.4364 8.8585 29.4751 8.33604 29.5525L8.14253 28.7978C8.68435 28.9333 9.05201 28.9526 9.51643 28.9526H11.8385V28.7204C11.8385 27.8883 11.7998 27.5013 11.7418 26.9208C13.2317 27.0756 13.6381 27.2111 13.6381 27.4433C13.6381 27.5787 13.522 27.6948 13.0963 27.8883V28.9526H14.8572C15.4958 28.1593 15.6312 28.0818 15.7473 28.0818C15.8828 28.0818 16.0182 28.1592 16.7342 28.7204C17.0245 29.0107 17.1212 29.1461 17.1212 29.2622C17.1212 29.3783 17.0632 29.4364 16.8697 29.4364H13.0963ZM23.1393 25.9726V30.7329C23.1393 33.3646 23.178 35.5512 23.178 36.2285C23.178 36.6348 22.8684 36.8477 22.2685 36.8477C21.8621 36.8477 21.6686 36.6929 21.6686 36.3252C21.6686 35.9382 21.746 34.5643 21.746 31.7004V25.9726H19.2498C19.1917 28.1012 18.9982 29.5138 18.6693 30.8683C18.0888 33.3452 17.0632 34.9126 15.0701 36.48C14.954 36.5574 14.7411 36.3639 14.8185 36.2672C16.3859 34.3902 17.1599 32.726 17.5469 30.1717C17.7985 28.643 17.8952 26.9208 17.8952 24.4246C17.8952 22.5669 17.8759 22.1025 17.7791 21.1737C18.4564 21.4446 18.7854 21.58 19.4433 21.9283C20.643 21.4833 21.6299 20.8447 22.5975 20.09C22.8877 19.8578 23.1586 19.6063 23.4295 19.2773C24.6293 20.032 25.0356 20.3996 25.0356 20.5932C25.0356 20.7673 24.8228 20.8834 24.1068 20.748C22.5975 21.5607 20.9333 22.1219 19.2885 22.3928V24.0569C19.2885 24.56 19.2691 25.0438 19.2691 25.4889H23.5843C24.339 24.56 24.4938 24.4633 24.6099 24.4633C24.7454 24.4633 24.8615 24.56 25.6742 25.2567C26.0225 25.5469 26.1193 25.663 26.1193 25.7791C26.1193 25.9146 26.0419 25.9726 25.8484 25.9726H23.1393ZM13.1737 21.7348H14.8766C15.4571 20.9608 15.5925 20.8641 15.7086 20.8641C15.8441 20.8641 15.9795 20.9608 16.6568 21.522C16.9471 21.7542 17.0438 21.909 17.0438 22.0251C17.0438 22.1412 16.9858 22.2186 16.7923 22.2186H9.94214C9.55513 22.2186 9.26487 22.238 8.7811 22.3347L8.56825 21.5994C9.11006 21.6961 9.45838 21.7348 9.90344 21.7348H11.8385V20.477C11.8385 20.032 11.8192 19.6837 11.7611 19.0645C13.5414 19.258 13.7929 19.3934 13.7929 19.5869C13.7929 19.7224 13.6575 19.8772 13.1737 20.0707V21.7348ZM13.4446 26.0113H15.0314C15.728 25.1599 15.8634 25.0825 15.9795 25.0825C16.115 25.0825 16.2311 25.1599 16.9858 25.7598C17.3147 26.05 17.4115 26.1855 17.4115 26.3016C17.4115 26.437 17.3534 26.4951 17.1599 26.4951H9.47773C9.09071 26.4951 8.80045 26.5338 8.29734 26.6112L8.10383 25.8759C8.64565 25.9726 8.99396 26.0113 9.47773 26.0113H12.9995C13.3866 25.1212 13.6575 24.3665 13.851 23.7086C13.9671 23.2635 14.0445 22.8378 14.0832 22.4508C15.3216 22.8378 15.8634 23.1281 15.8634 23.3409C15.8634 23.5538 15.7086 23.6312 15.1862 23.6699C14.5282 24.6761 14.1219 25.2567 13.4446 26.0113ZM11.0451 25.6243C10.6388 25.6243 10.5227 25.4889 10.4259 24.6761C10.3485 23.9795 10.155 23.4183 9.82604 22.7991C9.78734 22.7217 9.90344 22.6443 9.98084 22.683C11.0451 23.2055 11.7418 24.0376 11.7418 24.7342C11.7418 25.2567 11.4321 25.6243 11.0451 25.6243Z" fill="#FFF5F5"/>
<path d="M6.38143 20.1309V20.8049H1.45025V34.8535H0.740723V20.1309H6.38143Z" fill="#FFF5F5"/>
<path d="M78.1741 1.41427L78.1244 1.51375C79.3554 1.94894 80.0393 2.4836 80.0393 3.04313C80.0393 3.30425 79.8776 3.50319 79.6662 3.50319C79.4548 3.50319 79.3429 3.39129 79.1564 2.9934C78.8705 2.409 78.5472 2.04841 78.0249 1.68782C77.5027 2.58307 76.8934 3.41615 76.1225 4.10003C76.3961 4.14976 76.5702 4.17463 76.8064 4.17463H78.3607C78.7212 3.72701 78.8083 3.66484 78.8829 3.66484C78.9699 3.66484 79.057 3.72701 79.4922 4.05029C79.6662 4.1995 79.716 4.2741 79.716 4.34871C79.716 4.43575 79.6787 4.48548 79.5543 4.48548H78.0498V6.07704H78.7212C79.0943 5.60455 79.1813 5.54238 79.2559 5.54238C79.3429 5.54238 79.43 5.60455 79.8527 5.9527C80.0268 6.08947 80.089 6.18895 80.089 6.26355C80.089 6.31329 80.0766 6.35059 80.0517 6.36302C80.3128 6.41276 80.4993 6.42519 80.7729 6.42519H82.3769C82.4888 5.64185 82.5385 4.84607 82.5634 4.05029H81.1459C80.8226 4.67199 80.4371 5.21909 79.9522 5.69158C79.9025 5.74132 79.7781 5.66672 79.8154 5.60455C80.2382 4.92067 80.6237 3.80161 80.8226 2.86906C80.8972 2.45873 80.9469 2.06084 80.9594 1.70026C81.9665 1.96137 82.1282 2.06084 82.1282 2.18518C82.1282 2.29709 82.0536 2.34683 81.7427 2.42143C81.6184 2.89392 81.4692 3.32912 81.2827 3.73944H82.5634C82.5758 3.41615 82.5758 3.08044 82.5758 2.71985C82.5758 1.58835 82.5758 1.33967 82.5136 0.742834C83.7197 0.879609 83.8441 0.941779 83.8441 1.10342C83.8441 1.21533 83.7943 1.28993 83.4711 1.42671C83.4711 1.81216 83.471 2.25979 83.4586 2.86906C83.4586 3.16747 83.4462 3.46589 83.4462 3.73944H84.4658C84.9507 3.11774 85.0377 3.068 85.1123 3.068C85.1994 3.068 85.274 3.11774 85.8087 3.5778C86.0325 3.77674 86.0946 3.86378 86.0946 3.93838C86.0946 4.01299 86.0449 4.05029 85.933 4.05029H83.4337C83.4089 4.84607 83.3716 5.64185 83.2597 6.42519H84.8512C85.3486 5.80349 85.4481 5.75376 85.5227 5.75376C85.6097 5.75376 85.7092 5.80349 86.2314 6.26355C86.4677 6.4625 86.5298 6.54953 86.5298 6.62414C86.5298 6.69874 86.4801 6.73604 86.3557 6.73604H83.384C83.6451 7.75564 84.0803 8.65089 84.6772 9.33476C85.2367 9.99377 85.9579 10.4911 86.7661 10.8517C86.8158 10.8766 86.7909 10.9512 86.7412 10.9761C86.4303 11.1377 86.2936 11.2993 86.219 11.6599C86.1817 11.834 86.1568 11.8837 86.0698 11.8837C86.0076 11.8837 85.8957 11.7967 85.7589 11.6972C84.9134 11.0631 84.3041 10.2051 83.9062 9.34719C83.5954 8.68819 83.3467 7.91728 83.1602 7.00959C82.9986 7.84268 82.7374 8.55142 82.3271 9.21042C81.5438 10.4911 80.3874 11.4112 78.6591 11.9832C78.5845 12.0081 78.5223 11.8589 78.5845 11.8216C80.0766 10.9885 80.9469 10.1803 81.6059 8.912C81.9417 8.27787 82.1655 7.60643 82.3271 6.73604H80.7853C80.5117 6.73604 80.3377 6.76091 80.0393 6.81065L79.9273 6.38789H78.0498V10.2051C78.7212 10.0559 79.3802 9.88186 79.9895 9.67048C80.0517 9.64561 80.089 9.79482 80.0393 9.81969C78.9699 10.429 77.4281 11.0507 76.0479 11.4361C75.9982 11.7594 75.9236 11.8713 75.8117 11.8713C75.6873 11.8713 75.6003 11.7843 75.2148 10.6279C75.5381 10.6155 75.8738 10.5782 76.1971 10.5409C76.5453 10.4911 76.8934 10.4414 77.2416 10.3792V6.38789H76.1474C75.9112 6.38789 75.7371 6.40033 75.4138 6.4625L75.2894 5.99C75.6376 6.05217 75.8365 6.07704 76.1225 6.07704H77.2416V4.48548H76.8437C76.6199 4.48548 76.4582 4.49792 76.1723 4.56009L76.0604 4.1622C75.7619 4.41088 75.4511 4.63469 75.1278 4.8212C75.0532 4.87094 74.9413 4.73416 75.0035 4.67199C75.8614 3.90108 76.5577 2.81932 77.0178 1.8619C77.2043 1.43914 77.3535 1.02882 77.4281 0.680664C78.3358 0.916911 78.6342 1.05369 78.6342 1.19046C78.6342 1.30237 78.5347 1.36454 78.1741 1.41427ZM76.2593 9.64561C76.0231 9.64561 75.936 9.4964 75.9111 9.09851C75.849 8.2903 75.7868 7.92971 75.5133 7.35775C75.4884 7.29558 75.6003 7.24584 75.65 7.28314C76.3463 7.90485 76.6945 8.52655 76.6945 9.06121C76.6945 9.3845 76.508 9.64561 76.2593 9.64561ZM78.5472 9.59588C78.5099 9.64561 78.3731 9.59588 78.398 9.53371C78.6093 9.01148 78.8083 8.37734 78.9078 7.86754C78.9699 7.58156 78.9948 7.33288 79.0072 7.07176C79.8527 7.38262 80.089 7.50696 80.089 7.6313C80.089 7.75564 79.9895 7.80537 79.7035 7.85511C79.3429 8.53898 79.0072 9.07365 78.5472 9.59588Z" fill="#FFF5F5"/>
<path d="M68.463 1.86171V3.86359C70.6514 4.41069 71.9072 5.2935 71.9072 6.12658C71.9072 6.4623 71.7082 6.72342 71.4098 6.72342C71.1611 6.72342 71.0492 6.63638 70.6514 6.02711C70.1167 5.23133 69.4577 4.65937 68.463 4.11227V7.5565C68.463 10.0433 68.5251 10.864 68.5251 11.4608C68.5251 11.7592 68.3138 11.8835 67.9034 11.8835C67.5926 11.8835 67.4682 11.7841 67.4682 11.5478C67.4682 11.2743 67.518 9.9687 67.518 7.60624V1.86171H64.0489C63.651 1.86171 63.365 1.87414 62.9671 1.93631L62.8428 1.47625C63.3277 1.52599 63.651 1.55085 64.0613 1.55085H71.8823C72.5662 0.767509 72.6532 0.717773 72.7278 0.717773C72.8149 0.717773 72.9019 0.76751 73.5734 1.32704C73.8842 1.58816 73.9464 1.66276 73.9464 1.73736C73.9464 1.8244 73.8966 1.86171 73.7723 1.86171H68.463Z" fill="#FFF5F5"/>
<path d="M59.9461 4.01325L58.2551 4.63495C58.2675 7.43261 58.3048 8.73819 58.3048 9.18581C58.3048 9.49667 58.1307 9.62101 57.7328 9.62101C57.4717 9.62101 57.3598 9.52153 57.3598 9.27285C57.3722 8.55168 57.3971 7.61912 57.4095 4.9458L55.8926 5.4929V10.2178C55.8926 10.7898 56.104 10.8395 57.7577 10.8395C59.7347 10.8395 60.1948 10.7649 60.4061 10.5784C60.63 10.4044 60.8289 9.98159 61.1024 8.93713C61.1273 8.86253 61.2641 8.8874 61.2641 8.962C61.2392 9.34746 61.2144 9.85725 61.2144 10.1681C61.2144 10.3919 61.2517 10.4417 61.4257 10.5163C61.6122 10.5909 61.6744 10.6903 61.6744 10.8768C61.6744 11.1255 61.5128 11.312 61.1149 11.4488C60.5802 11.6105 59.8466 11.6726 58.0064 11.6726C55.3704 11.6726 55.0098 11.4239 55.0098 10.3049C55.0098 8.8874 55.0346 7.74346 55.0346 5.80375L54.4005 6.04C54.1145 6.15191 53.8783 6.25138 53.642 6.38815L53.3685 5.99026C53.7912 5.91566 54.0026 5.85349 54.2886 5.75402L55.0346 5.48047V5.15718C55.0346 3.25477 55.0222 2.58333 54.96 2.03624C56.0542 2.14814 56.2905 2.23518 56.2905 2.39682C56.2905 2.50873 56.2283 2.58333 55.8926 2.73254V5.16962L57.4095 4.61008V3.64023C57.4095 1.77512 57.4095 1.25289 57.3474 0.693359C58.5037 0.830134 58.6529 0.892304 58.6529 1.05395C58.6529 1.14099 58.5908 1.21559 58.2551 1.3648V4.29923L59.8342 3.72727C60.1077 3.26721 60.1699 3.20504 60.2569 3.20504C60.3315 3.20504 60.4434 3.25477 60.8786 3.57806C61.0403 3.67753 61.1024 3.75214 61.1024 3.86404C61.1024 3.96351 61.0403 4.02568 60.7916 4.19976C60.7667 5.89079 60.6921 7.08446 60.5305 7.76833C60.431 8.17866 60.3067 8.4522 60.1202 8.61385C59.9336 8.77549 59.6725 8.86253 59.4114 8.86253C59.2373 8.86253 59.2 8.81279 59.1752 8.61385C59.1254 8.24083 59.026 8.14135 58.367 7.90511C58.2924 7.88024 58.3297 7.73103 58.4043 7.74346C58.8519 7.80563 59.1752 7.81807 59.399 7.81807C59.6104 7.81807 59.6974 7.69373 59.7596 7.32071C59.8839 6.6244 59.9212 5.48047 59.9461 4.01325ZM52.7343 4.68469V8.61385C53.269 8.42734 53.8161 8.21596 54.3259 7.99214C54.3881 7.96728 54.4502 8.10405 54.3881 8.15379C53.3685 8.91226 52.2867 9.52153 51.1303 10.0065C51.093 10.3919 51.0309 10.5038 50.8941 10.5038C50.7449 10.5038 50.6081 10.3049 50.2351 9.24798C50.4838 9.21068 50.7449 9.17338 51.0557 9.09877C51.3169 9.0366 51.5904 8.962 51.8764 8.87496V4.68469H51.0309C50.7946 4.68469 50.633 4.70956 50.347 4.75929L50.2227 4.27437C50.5335 4.34897 50.72 4.37384 51.006 4.37384H51.8764V3.09313C51.8764 1.9492 51.8764 1.37723 51.8266 0.855002C53.0203 0.979342 53.1695 1.07882 53.1695 1.21559C53.1695 1.3275 53.0949 1.4021 52.7343 1.56374V4.37384H53.2068C53.5674 3.85161 53.6545 3.78944 53.7291 3.78944C53.8161 3.78944 53.9031 3.85161 54.3259 4.22463C54.5124 4.41114 54.5621 4.49818 54.5621 4.57278C54.5621 4.64739 54.5248 4.68469 54.4005 4.68469H52.7343Z" fill="#FFF5F5"/>
<path d="M40.3371 8.43906H42.2893C42.4758 7.92927 42.6001 7.40704 42.6747 6.87237H41.1951V6.97184C41.1951 7.25783 41.0459 7.3946 40.6853 7.3946C40.3869 7.3946 40.2874 7.30756 40.2874 7.05888C40.2874 6.8475 40.3247 6.51178 40.3247 5.34298C40.3247 4.77102 40.3247 4.4726 40.2625 3.98767C40.7102 4.16175 40.8967 4.24879 41.3443 4.49747H45.5843C45.9698 4.07471 46.0319 4.03741 46.1065 4.03741C46.206 4.03741 46.2682 4.07471 46.6785 4.4353C46.8526 4.60938 46.9023 4.68398 46.9023 4.75858C46.9023 4.84562 46.8402 4.90779 46.579 5.0943V5.5295C46.579 6.47448 46.6039 6.85994 46.6039 6.99671C46.6039 7.24539 46.4174 7.38217 46.0817 7.38217C45.7708 7.38217 45.6838 7.2827 45.6838 7.00915V6.87237H43.7565C43.4332 7.41947 43.0975 7.9417 42.712 8.43906H46.6039C46.9769 8.00387 47.0391 7.95413 47.1137 7.95413C47.2007 7.95413 47.2753 8.00387 47.7105 8.36446C47.897 8.53853 47.9468 8.61314 47.9468 8.68774C47.9468 8.78722 47.8846 8.87425 47.6111 9.0359V9.6576C47.6111 10.8388 47.6484 11.3859 47.6484 11.5351C47.6484 11.8336 47.4619 11.9828 47.1013 11.9828C46.778 11.9828 46.6909 11.8584 46.6909 11.6097V11.2367H40.2252V11.5476C40.2252 11.846 40.0512 11.9952 39.6657 11.9952C39.3673 11.9952 39.2803 11.8709 39.2803 11.647C39.2803 11.4357 39.33 11.0626 39.33 9.79437C39.33 8.97373 39.3176 8.5261 39.2678 7.9044C39.7154 8.10334 39.9144 8.20282 40.3371 8.43906ZM45.6838 6.56152V4.80832H41.1951V6.56152H45.6838ZM46.6909 10.9259V8.74991H40.2252V10.9259H46.6909ZM47.6981 3.2292H39.4916C39.4916 4.19905 39.044 4.84562 38.5218 4.84562C38.2234 4.84562 38.0244 4.63424 38.0244 4.34826C38.0244 4.12445 38.1239 3.98767 38.4223 3.82603C38.957 3.51518 39.1932 3.04269 39.2554 2.37125C39.2554 2.30908 39.3797 2.29664 39.3922 2.35881C39.4419 2.55776 39.4668 2.74427 39.4792 2.91834H45.3356C45.634 2.44585 45.9076 1.96092 46.119 1.50086C46.2806 1.19001 46.3925 0.891595 46.4671 0.642914C47.4619 1.09054 47.6857 1.22732 47.6857 1.35166C47.6857 1.5133 47.5986 1.5506 47.1386 1.5506C46.5417 2.18474 46.1811 2.52046 45.6838 2.91834H47.5738C48.009 2.44585 48.0711 2.39612 48.1582 2.39612C48.2576 2.39612 48.3447 2.47072 48.842 2.94321C49.0907 3.19189 49.1404 3.2665 49.1404 3.35354C49.1404 3.51518 49.0037 3.57735 48.6431 3.58978C48.4814 3.60222 48.4068 3.63952 48.1582 3.87577C47.9343 4.08714 47.7354 4.23635 47.3251 4.5099C47.2878 4.53477 47.1883 4.48503 47.2132 4.4353C47.4494 3.9628 47.5613 3.72656 47.6981 3.2292ZM43.7316 2.54532C43.4705 2.54532 43.3835 2.42098 43.284 1.94849C43.1472 1.45113 42.9732 1.09054 42.6499 0.69265C42.6126 0.655349 42.6747 0.580744 42.7245 0.593178C43.7068 0.879161 44.2414 1.42626 44.2414 1.96092C44.2414 2.27177 44.0798 2.54532 43.7316 2.54532ZM41.1702 2.70697C40.8967 2.70697 40.8221 2.60749 40.6853 2.11013C40.561 1.63764 40.3496 1.20245 40.0512 0.891595C40.0139 0.854293 40.0885 0.779689 40.1382 0.792123C41.1205 1.06567 41.6676 1.5879 41.6676 2.135C41.6676 2.43342 41.4686 2.70697 41.1702 2.70697Z" fill="#FFF5F5"/>
<path d="M30.5149 5.3183H27.8043V10.0059C27.8043 10.2546 27.6551 10.4038 27.2074 10.4038C26.9588 10.4038 26.8344 10.2919 26.8344 10.0432C26.8344 9.59561 26.8717 8.86201 26.8717 7.0342C26.8717 5.54211 26.8593 5.19396 26.8095 4.47279C27.282 4.6593 27.4934 4.74634 27.9286 5.00745H30.5149C30.5149 3.91325 30.49 3.58997 30.4527 3.24182C31.6464 3.37859 31.8205 3.42833 31.8205 3.58997C31.8205 3.70188 31.7334 3.77648 31.4101 3.91325V5.00745H34.2078C34.6181 4.57226 34.6803 4.52252 34.7549 4.52252C34.8419 4.52252 34.9165 4.57226 35.3393 4.93285C35.5383 5.10692 35.5756 5.18153 35.5756 5.25613C35.5756 5.3556 35.5134 5.43021 35.2523 5.59185V6.61144C35.2523 8.63819 35.2771 8.94904 35.2771 9.27233C35.2771 9.68265 35.1155 9.94377 34.8792 10.1054C34.6927 10.2546 34.4068 10.3417 34.1083 10.3417C33.9591 10.3417 33.9218 10.3044 33.8845 10.1178C33.8224 9.75726 33.6856 9.59561 32.7033 9.34693C32.6287 9.3345 32.6287 9.17286 32.7033 9.17286C33.412 9.22259 33.7975 9.24746 34.1083 9.24746C34.27 9.24746 34.3321 9.18529 34.3321 9.02365V5.3183H31.4101V6.07678C31.4101 9.53344 31.435 11.0877 31.435 11.5726C31.435 11.8959 31.2734 12.0203 30.8631 12.0203C30.5398 12.0203 30.4527 11.9083 30.4527 11.6224C30.4527 11.1623 30.5149 9.68265 30.5149 5.81566V5.3183ZM31.4226 2.66985H34.8171C35.4388 2.01085 35.5258 1.94868 35.6004 1.94868C35.6875 1.94868 35.7745 2.01085 36.3589 2.48334C36.6449 2.70715 36.6946 2.79419 36.6946 2.86879C36.6946 2.9434 36.6573 2.9807 36.533 2.9807H26.5733C26.2625 2.9807 26.0262 3.00557 25.6781 3.05531L25.5537 2.58281C25.9516 2.65742 26.2251 2.66985 26.5733 2.66985H30.4776V1.71243C30.4776 1.38914 30.4652 1.12803 30.4154 0.667969C31.6961 0.792309 31.8329 0.891782 31.8329 1.02856C31.8329 1.12803 31.7334 1.21507 31.4226 1.35184V2.66985Z" fill="#FFF5F5"/>
<path d="M21.7485 6.86026H15.4941C15.432 7.64361 15.3076 8.30261 15.0962 8.91188C14.6735 10.0931 14.0393 11.0132 12.9825 11.9582C12.9327 12.008 12.7959 11.896 12.8457 11.8339C13.6042 10.8267 14.0518 9.80713 14.3253 8.58859C14.5616 7.54413 14.5989 6.3629 14.5989 4.6843C14.5989 3.85122 14.574 3.54037 14.5243 2.98084C15.0341 3.19222 15.2454 3.30412 15.7304 3.56524H21.6365C22.0469 3.11761 22.109 3.06788 22.1836 3.06788C22.2831 3.06788 22.3577 3.11761 22.7929 3.49063C22.9794 3.63984 23.0292 3.71445 23.0292 3.78905C23.0292 3.90096 22.967 3.988 22.6934 4.16207V5.00759C22.6934 6.3629 22.7432 7.12138 22.7432 7.38249C22.7432 7.69334 22.5567 7.83012 22.1339 7.83012C21.8479 7.83012 21.7485 7.71821 21.7485 7.43223V6.86026ZM21.7485 6.54941V3.87609H15.5687V4.80864C15.5687 5.46765 15.5563 6.03961 15.519 6.54941H21.7485ZM13.5047 1.89908L13.3679 1.41415C13.8031 1.48875 14.0642 1.51362 14.4372 1.51362H22.2085C22.8178 0.829748 22.9048 0.767578 22.9794 0.767578C23.0665 0.767578 23.1659 0.829748 23.7876 1.31468C24.0861 1.56336 24.1358 1.63796 24.1358 1.71257C24.1358 1.78717 24.0985 1.82447 23.9741 1.82447H14.4497C14.1015 1.82447 13.8653 1.84934 13.5047 1.89908Z" fill="#FFF5F5"/>
<path d="M6.2434 2.94346H7.83496C7.83496 1.56328 7.82252 1.20269 7.77279 0.53125C8.96646 0.668025 9.1281 0.717761 9.1281 0.904272C9.1281 1.02861 9.05349 1.11565 8.70534 1.25243V2.94346H10.4337C10.8191 2.50826 10.8813 2.47096 10.9683 2.47096C11.0554 2.47096 11.1175 2.50826 11.5154 2.84398C11.6895 3.00563 11.7268 3.08023 11.7268 3.16727C11.7268 3.26674 11.6646 3.35378 11.3911 3.51542V4.77126C11.3911 6.95965 11.4533 8.11602 11.4533 8.46417C11.4533 8.73772 11.2792 8.86206 10.9186 8.86206C10.6326 8.86206 10.5331 8.76259 10.5331 8.51391V8.19062H8.71778C8.73021 10.1676 8.75508 11.1624 8.75508 11.5727C8.75508 11.8835 8.59344 12.0327 8.20798 12.0327C7.88469 12.0327 7.77279 11.9457 7.77279 11.6349C7.77279 11.2618 7.79766 10.3417 7.82252 8.19062H6.13149V8.42687C6.13149 8.71285 5.96985 8.82476 5.63413 8.82476C5.34815 8.82476 5.22381 8.72529 5.22381 8.51391C5.22381 8.09115 5.28598 7.35754 5.28598 5.01994C5.28598 3.7641 5.27354 3.11753 5.22381 2.40879C5.64657 2.62017 5.83308 2.70721 6.2434 2.94346ZM6.13149 7.87977H7.82252C7.83496 7.00939 7.83496 5.90276 7.83496 5.62921H6.13149V7.87977ZM8.71778 7.87977H10.5331V5.62921H8.70534C8.70534 6.37525 8.70534 7.13373 8.71778 7.87977ZM8.70534 3.25431V5.31836H10.5331V3.25431H8.70534ZM7.83496 3.25431H6.13149V5.31836H7.83496V3.25431ZM3.07272 5.81572V5.92763C4.20422 6.30065 4.87565 6.90992 4.87565 7.43215C4.87565 7.71813 4.68914 7.92951 4.46533 7.92951C4.27882 7.92951 4.19178 7.83004 4.03014 7.48188C3.75659 6.90992 3.52034 6.52446 3.07272 6.17631V8.47661C3.07272 10.3914 3.11002 11.2121 3.11002 11.61C3.11002 11.896 2.91108 12.0327 2.57536 12.0327C2.27694 12.0327 2.1526 11.9208 2.1526 11.6597C2.1526 11.4359 2.20233 10.6277 2.2272 8.3274C2.2272 7.76787 2.23964 7.22077 2.25207 6.6488C1.6801 7.14616 1.0584 7.58135 0.362096 7.94194C0.287491 7.97924 0.175585 7.83004 0.250189 7.7803C1.70497 6.6488 2.98568 4.99507 3.66955 3.31648H1.5309C1.18274 3.31648 0.934062 3.32891 0.648079 3.40352L0.523738 2.91859C0.871891 2.98076 1.14544 3.00563 1.5309 3.00563H2.2272V1.65031C2.2272 1.28973 2.20233 0.978876 2.14016 0.53125C3.33383 0.668025 3.52034 0.767497 3.52034 0.904272C3.52034 1.01618 3.40844 1.11565 3.08515 1.25243V3.00563H3.64468C3.96797 2.65747 4.03014 2.60774 4.10474 2.60774C4.19178 2.60774 4.25395 2.65747 4.66428 3.05536C4.85079 3.25431 4.90052 3.32891 4.90052 3.41595C4.90052 3.52786 4.78862 3.59003 4.46533 3.67706C4.09231 4.46041 3.63225 5.18158 3.07272 5.81572Z" fill="#FFF5F5"/>
</svg>
