<svg width="87" height="54" viewBox="0 0 87 54" fill="none" xmlns="http://www.w3.org/2000/svg">
<path d="M83.8871 29.4368H82.5671C82.7685 30.8351 83.1041 31.7412 83.6299 32.5019C84.1556 33.2738 84.7597 33.766 85.5204 34.2023C85.554 34.2247 85.5316 34.303 85.4869 34.3142C85.196 34.3813 85.0618 34.5267 84.9163 34.9183C84.8716 35.0301 84.8268 35.0525 84.7485 35.0525C84.7038 35.0525 84.6255 34.9966 84.5024 34.8847C83.9095 34.3477 83.4956 33.7101 83.1153 32.9718C82.7573 32.1999 82.4552 31.1148 82.3098 29.4368H81.2471C81.2023 30.8799 81.0905 31.6405 80.8891 32.3789C80.5647 33.5759 80.0165 34.5267 79.1775 35.2762C79.1328 35.3098 79.0321 35.2315 79.0657 35.1867C79.6362 34.3701 79.9494 33.5311 80.1732 32.5579C80.3969 31.5511 80.4752 30.2981 80.4752 28.2062C80.4752 26.517 80.464 25.9913 80.4081 25.3201C80.8108 25.499 80.9898 25.5885 81.3701 25.8123H83.8088C84.1444 25.4543 84.2004 25.4207 84.2675 25.4207C84.3458 25.4207 84.4017 25.4543 84.7709 25.7675C84.9275 25.9129 84.9723 25.9689 84.9723 26.036C84.9723 26.1255 84.9163 26.2038 84.6814 26.3604V27.4791C84.6814 28.9334 84.7262 29.5151 84.7262 29.7276C84.7262 29.9961 84.5695 30.0968 84.2227 30.0968C83.9878 30.0968 83.8871 30.0185 83.8871 29.8059V29.4368ZM83.8871 29.1571V26.0919H81.2806V27.2554C81.2806 27.9937 81.2695 28.6201 81.2583 29.1571H83.8871ZM76.392 30.9693V31.07C76.392 31.2714 76.2466 31.3833 75.9558 31.3833C75.7208 31.3833 75.6313 31.3049 75.6313 31.1148C75.6313 30.8463 75.6873 30.1303 75.6873 27.6021C75.6873 26.394 75.6761 26.0807 75.6202 25.3312C75.9893 25.4767 76.1348 25.555 76.4704 25.7563H78.7077C79.088 25.2865 79.144 25.2529 79.2111 25.2529C79.3006 25.2529 79.3565 25.2865 79.7816 25.6668C79.9271 25.8011 79.983 25.8682 79.983 25.9353C79.983 26.0024 79.9271 26.036 79.8152 26.036H78.1372V27.3896H78.6406C78.9202 26.9757 79.0097 26.9309 79.0657 26.9309C79.144 26.9309 79.2111 26.9757 79.5579 27.3001C79.6698 27.412 79.7257 27.5015 79.7257 27.5574C79.7257 27.6245 79.6921 27.6693 79.5803 27.6693H78.1372V29.0005H78.607C78.9202 28.6089 78.9986 28.553 79.0657 28.553C79.1328 28.553 79.1999 28.6089 79.5467 28.9222C79.6586 29.0229 79.7145 29.1123 79.7145 29.1683C79.7145 29.2466 79.6809 29.2801 79.5691 29.2801H78.1372V30.6897H78.7748C79.0545 30.3429 79.1216 30.2981 79.1887 30.2981C79.2558 30.2981 79.323 30.3429 79.6586 30.6449C79.8152 30.7904 79.8599 30.8575 79.8599 30.9246C79.8599 30.9917 79.8152 31.0477 79.5579 31.2043C79.4684 32.6585 79.3341 33.5647 79.0992 34.1911C78.9874 34.482 78.8419 34.7169 78.6518 34.8735C78.428 35.0525 78.1707 35.142 77.9246 35.142C77.7904 35.142 77.7344 35.0972 77.7009 34.9294C77.645 34.6162 77.5667 34.5491 76.7948 34.2918C76.7388 34.2694 76.75 34.1464 76.806 34.1576C77.4324 34.2359 77.7233 34.2582 77.9806 34.2582C78.249 34.2582 78.3609 34.1352 78.5063 33.6094C78.6965 32.9158 78.7748 32.1999 78.8531 30.9693H76.392ZM76.392 30.6897H77.4324V29.2801H76.392V30.6897ZM76.392 29.0005H77.4324V27.6693H76.392V29.0005ZM76.392 27.3896H77.4324V26.036H76.392V27.3896ZM78.249 32.6585C78.126 32.6585 78.0812 32.5914 78.0141 32.4012C77.9134 32.0768 77.7345 31.7972 77.4772 31.5622C77.4436 31.5287 77.4883 31.4727 77.5331 31.4839C78.1036 31.6294 78.484 31.9538 78.484 32.2894C78.484 32.5019 78.3833 32.6585 78.249 32.6585ZM75.2063 34.1016C75.0161 34.1016 74.8818 33.9226 74.8818 33.6989C74.8818 33.5535 74.9266 33.4416 75.072 33.3074C75.4076 32.9941 75.609 32.5802 75.6425 31.9538C75.6425 31.909 75.7544 31.909 75.7656 31.9538C75.8103 32.2223 75.8327 32.4684 75.8327 32.7033C75.8327 33.5199 75.5866 34.1016 75.2063 34.1016ZM76.5151 33.6318C76.3809 33.6318 76.269 33.587 76.2914 33.285C76.3026 33.1172 76.3137 32.9158 76.3137 32.7145C76.3025 32.4907 76.269 32.2223 76.1907 31.9538C76.1795 31.909 76.2466 31.8755 76.2802 31.909C76.6717 32.3341 76.8619 32.7592 76.8619 33.1396C76.8619 33.3969 76.7053 33.6318 76.5151 33.6318ZM77.4324 33.2402C77.2982 33.2402 77.2646 33.1731 77.231 32.8935C77.1751 32.4684 77.0744 32.1887 76.8507 31.7748C76.8283 31.73 76.8954 31.6853 76.929 31.7077C77.4548 32.088 77.7568 32.4684 77.7568 32.7816C77.7568 33.0389 77.6002 33.2402 77.4324 33.2402Z" fill="#FFF5F5"/>
<path d="M65.624 36.0155V35.3475H70.511V21.4248H71.2142V36.0155H65.624Z" fill="#FFF5F5"/>
<path d="M50.34 30.0278H53.4468C53.7152 29.1456 53.907 28.2443 54.0029 27.3238H51.6249V27.458C51.6249 27.9566 51.3948 28.1484 50.8195 28.1484C50.3592 28.1484 50.2058 27.995 50.2058 27.5539C50.2058 27.2279 50.2633 26.7293 50.2633 24.7924C50.2633 23.8335 50.2633 23.3733 50.1866 22.6253C50.877 22.913 51.1647 23.0664 51.8551 23.45H58.4712C59.0657 22.8171 59.1616 22.7596 59.2766 22.7596C59.4301 22.7596 59.5643 22.7979 60.178 23.3349C60.4656 23.5842 60.5232 23.6993 60.5232 23.8143C60.5232 23.9677 60.4273 24.0636 60.0054 24.3513V25.0417C60.0054 26.5375 60.0629 27.1512 60.0629 27.3429C60.0629 27.7265 59.7752 27.9374 59.2383 27.9374C58.778 27.9374 58.6246 27.784 58.6246 27.3238H55.6905C55.2302 28.2634 54.6933 29.184 54.0796 30.0278H59.9095C60.504 29.3566 60.5999 29.299 60.7149 29.299C60.8492 29.299 60.9834 29.3182 61.6354 29.9127C61.9423 30.1812 61.9998 30.2962 61.9998 30.4113C61.9998 30.5839 61.9039 30.6798 61.4628 30.9483V31.9838C61.4628 33.9399 61.5396 34.8221 61.5396 35.1097C61.5396 35.57 61.2327 35.7809 60.6766 35.7809C60.1971 35.7809 60.0437 35.6275 60.0437 35.1864V34.7837H50.1675V35.2056C50.1675 35.7234 49.9565 35.9343 49.362 35.9343C48.9018 35.9343 48.71 35.7426 48.71 35.3398C48.71 34.9755 48.7867 34.3618 48.7867 32.1756C48.7867 30.8524 48.7867 30.1428 48.6908 29.2031C49.4004 29.4908 49.7072 29.6442 50.34 30.0278ZM58.6246 26.8443V23.9294H51.6249V26.8443H58.6246ZM60.0437 34.3043V30.5072H50.1675V34.3043H60.0437ZM61.5587 21.3596H49.1319C49.1319 22.8938 48.4223 23.9486 47.5402 23.9486C47.0799 23.9486 46.7539 23.6226 46.7539 23.1623C46.7539 22.7979 46.9073 22.5678 47.2909 22.3569C48.2306 21.8199 48.6333 21.2062 48.71 20.0172C48.71 19.9022 48.9593 19.9022 48.9785 20.0172C49.0552 20.3241 49.0935 20.6117 49.1127 20.8802H54.3673V19.672C54.3673 19.2885 54.3673 18.9625 54.2714 18.2529C56.2658 18.4639 56.4959 18.6173 56.4959 18.8282C56.4959 19.0008 56.3425 19.1543 55.8247 19.3844V20.8802H61.3478C61.9039 20.1898 62.0382 20.1131 62.1724 20.1131C62.3258 20.1131 62.4792 20.2282 63.2847 20.9761C63.7066 21.3596 63.7449 21.4939 63.7449 21.6281C63.7449 21.8966 63.6107 21.9925 62.997 21.9925C62.7861 21.9925 62.671 22.05 62.5368 22.1843C62.1149 22.6445 61.7122 22.9897 61.0985 23.4116C61.0218 23.4691 60.8875 23.3733 60.9259 23.2774C61.1752 22.7596 61.3861 22.0692 61.5587 21.3596Z" fill="#FFF5F5"/>
<path d="M37.7984 20.6309C38.2011 20.6309 38.9107 20.8993 39.3326 21.1678C40.1764 21.7048 40.464 22.0116 40.464 22.4335C40.464 22.702 40.2915 22.8938 40.0613 23.0088C39.7928 23.1431 39.6586 23.3732 39.4477 23.7951C38.4313 25.943 37.4149 27.573 36.1108 29.2031C34.2506 31.5427 32.237 33.1919 30.2426 34.2083C30.0316 34.3042 29.9549 34.3234 29.859 34.3234C29.7248 34.3234 29.6289 34.1892 29.6289 34.0549C29.6289 33.9015 29.744 33.8248 29.9357 33.6906C32.0836 32.0988 33.7328 30.3921 35.3054 28.2059C36.3218 26.8059 37.2998 25.0224 38.1052 23.1047C38.2587 22.7595 38.3545 22.4143 38.3545 22.1075C38.3545 21.8582 38.2778 21.7048 37.9327 21.4938C37.7025 21.3404 37.4724 21.2445 37.2806 21.1678C37.1656 21.1295 37.108 21.0719 37.108 20.976C37.108 20.8035 37.6066 20.6309 37.7984 20.6309Z" fill="#FFF5F5"/>
<path d="M10.1062 21.3596L9.89524 20.65C10.6048 20.7651 11.1034 20.7843 11.7554 20.7843H20.9605C21.9002 19.6528 22.1495 19.5186 22.2646 19.5186C22.3988 19.5186 22.5906 19.6144 23.5494 20.4199C24.0289 20.8226 24.1056 20.9568 24.1056 21.0719C24.1056 21.2062 24.048 21.2637 23.8563 21.2637H11.7554C11.1418 21.2637 10.7199 21.302 10.1062 21.3596ZM11.0842 27.2853L10.8925 26.5758C11.5445 26.6908 12.0239 26.71 12.6184 26.71H19.7332C20.6345 25.6169 20.8646 25.4827 20.9989 25.4827C21.1331 25.4827 21.2865 25.5594 22.2454 26.3648C22.6865 26.7292 22.7632 26.8826 22.7632 26.9977C22.7632 27.1319 22.7056 27.1894 22.5139 27.1894H12.6376C12.1006 27.1894 11.6787 27.2278 11.0842 27.2853ZM8.59119 33.959L8.39941 33.2495C9.07062 33.3645 9.62676 33.3837 10.2788 33.3837H22.0728C23.0892 32.1947 23.3193 32.0605 23.4344 32.0605C23.5686 32.0605 23.7412 32.1755 24.7768 33.0002C25.2946 33.4029 25.3713 33.5563 25.3713 33.6714C25.3713 33.8056 25.3137 33.8631 25.122 33.8631H10.2788C9.66511 33.8631 9.18568 33.9015 8.59119 33.959Z" fill="#FFF5F5"/>
<path d="M6.40511 19.3857V20.0537H1.51811V33.9764H0.814941V19.3857H6.40511Z" fill="#FFF5F5"/>
<path d="M76.8163 0.870416L76.7673 0.968444C77.9804 1.39731 78.6543 1.92421 78.6543 2.47562C78.6543 2.73294 78.495 2.929 78.2867 2.929C78.0784 2.929 77.9681 2.81872 77.7843 2.42661C77.5025 1.85069 77.1839 1.49534 76.6693 1.13999C76.1546 2.02224 75.5542 2.84322 74.7945 3.51717C75.0641 3.56618 75.2356 3.59069 75.4684 3.59069H77.0001C77.3555 3.14956 77.4412 3.08829 77.5148 3.08829C77.6005 3.08829 77.6863 3.14956 78.1152 3.46815C78.2867 3.61519 78.3357 3.68871 78.3357 3.76223C78.3357 3.84801 78.299 3.89702 78.1764 3.89702H76.6938V5.46547H77.3555C77.7231 4.99984 77.8088 4.93857 77.8824 4.93857C77.9681 4.93857 78.0539 4.99984 78.4705 5.34293C78.6421 5.47772 78.7033 5.57575 78.7033 5.64927C78.7033 5.69828 78.6911 5.73504 78.6666 5.7473C78.9239 5.79631 79.1077 5.80856 79.3773 5.80856H80.958C81.0683 5.0366 81.1173 4.25237 81.1418 3.46815H79.7449C79.4263 4.08083 79.0464 4.61998 78.5686 5.08561C78.5195 5.13462 78.397 5.0611 78.4338 4.99984C78.8504 4.32589 79.2302 3.22308 79.4263 2.30407C79.4998 1.89971 79.5488 1.5076 79.5611 1.15225C80.5536 1.40957 80.7129 1.5076 80.7129 1.63013C80.7129 1.74041 80.6394 1.78943 80.3331 1.86295C80.2105 2.32858 80.0635 2.75745 79.8797 3.16181H81.1418C81.154 2.84322 81.154 2.51238 81.154 2.15703C81.154 1.04196 81.154 0.796895 81.0928 0.208728C82.2814 0.343517 82.4039 0.404784 82.4039 0.564079C82.4039 0.67436 82.3549 0.747881 82.0363 0.882669C82.0363 1.26253 82.0363 1.70365 82.024 2.30407C82.024 2.59815 82.0118 2.89224 82.0118 3.16181H83.0166C83.4944 2.54914 83.5802 2.50013 83.6537 2.50013C83.7395 2.50013 83.813 2.54914 84.3399 3.00252C84.5605 3.19857 84.6218 3.28435 84.6218 3.35787C84.6218 3.43139 84.5728 3.46815 84.4625 3.46815H81.9995C81.975 4.25237 81.9383 5.0366 81.828 5.80856H83.3964C83.8866 5.19589 83.9846 5.14688 84.0581 5.14688C84.1439 5.14688 84.2419 5.19589 84.7566 5.64927C84.9894 5.84532 85.0506 5.9311 85.0506 6.00462C85.0506 6.07814 85.0016 6.1149 84.8791 6.1149H81.9505C82.2078 7.11969 82.6367 8.00194 83.2249 8.67588C83.7763 9.32531 84.487 9.81545 85.2835 10.1708C85.3325 10.1953 85.308 10.2688 85.259 10.2933C84.9526 10.4526 84.8178 10.6119 84.7443 10.9673C84.7075 11.1388 84.683 11.1878 84.5973 11.1878C84.536 11.1878 84.4257 11.1021 84.2909 11.004C83.4577 10.3791 82.8573 9.53362 82.4652 8.68813C82.1588 8.0387 81.9138 7.27898 81.73 6.38448C81.5707 7.20546 81.3133 7.90391 80.909 8.55334C80.137 9.81545 78.9974 10.7222 77.2942 11.2859C77.2207 11.3104 77.1594 11.1633 77.2207 11.1266C78.6911 10.3056 79.5488 9.50911 80.1983 8.25926C80.5291 7.63433 80.7497 6.97264 80.909 6.1149H79.3895C79.12 6.1149 78.9484 6.13941 78.6543 6.18842L78.544 5.7718H76.6938V9.53362C77.3555 9.38658 78.0049 9.21503 78.6053 9.00672C78.6666 8.98221 78.7033 9.12925 78.6543 9.15376C77.6005 9.75418 76.0811 10.3669 74.721 10.7467C74.6719 11.0653 74.5984 11.1756 74.4881 11.1756C74.3656 11.1756 74.2798 11.0898 73.9 9.95024C74.2186 9.93798 74.5494 9.90122 74.868 9.86446C75.2111 9.81545 75.5542 9.76644 75.8973 9.70517V5.7718H74.819C74.5862 5.7718 74.4146 5.78406 74.096 5.84532L73.9735 5.37969C74.3166 5.44096 74.5127 5.46547 74.7945 5.46547H75.8973V3.89702H75.5052C75.2846 3.89702 75.1253 3.90928 74.8435 3.97054L74.7332 3.57843C74.4391 3.8235 74.1328 4.04406 73.8142 4.22787C73.7407 4.27688 73.6304 4.14209 73.6917 4.08082C74.5372 3.32111 75.2234 2.25506 75.6767 1.31154C75.8605 0.894922 76.0076 0.490558 76.0811 0.147461C76.9756 0.380277 77.2697 0.515065 77.2697 0.649853C77.2697 0.760134 77.1717 0.821402 76.8163 0.870416ZM74.9293 8.98221C74.6965 8.98221 74.6107 8.83517 74.5862 8.44306C74.5249 7.64658 74.4636 7.29123 74.1941 6.72757C74.1696 6.66631 74.2798 6.61729 74.3289 6.65405C75.015 7.26673 75.3581 7.8794 75.3581 8.4063C75.3581 8.72489 75.1743 8.98221 74.9293 8.98221ZM77.1839 8.9332C77.1472 8.98221 77.0124 8.9332 77.0369 8.87193C77.2452 8.35729 77.4412 7.73236 77.5393 7.22997C77.6005 6.94814 77.625 6.70307 77.6373 6.44574C78.4705 6.75208 78.7033 6.87462 78.7033 6.99715C78.7033 7.11969 78.6053 7.1687 78.3235 7.21771C77.9681 7.89165 77.6373 8.41855 77.1839 8.9332Z" fill="#FFF5F5"/>
<path d="M67.2466 1.31091V3.28372C69.4032 3.82287 70.6408 4.69287 70.6408 5.51385C70.6408 5.8447 70.4447 6.10202 70.1507 6.10202C69.9056 6.10202 69.7953 6.01624 69.4032 5.41582C68.8763 4.6316 68.2269 4.06794 67.2466 3.52879V6.923C67.2466 9.3737 67.3078 10.1824 67.3078 10.7706C67.3078 11.0647 67.0995 11.1872 66.6952 11.1872C66.3888 11.1872 66.2663 11.0892 66.2663 10.8564C66.2663 10.5868 66.3153 9.30018 66.3153 6.97202V1.31091H62.8966C62.5045 1.31091 62.2227 1.32317 61.8305 1.38443L61.708 0.931055C62.1859 0.980069 62.5045 1.00458 62.9088 1.00458H70.6163C71.2902 0.232608 71.376 0.183594 71.4495 0.183594C71.5353 0.183594 71.6211 0.232608 72.2828 0.784014C72.5891 1.04134 72.6504 1.11486 72.6504 1.18838C72.6504 1.27415 72.6013 1.31091 72.4788 1.31091H67.2466Z" fill="#FFF5F5"/>
<path d="M58.8532 3.43086L57.1867 4.04353C57.199 6.80056 57.2358 8.08718 57.2358 8.5283C57.2358 8.83464 57.0642 8.95717 56.6721 8.95717C56.4148 8.95717 56.3045 8.85914 56.3045 8.61407C56.3167 7.90337 56.3412 6.98436 56.3535 4.34987L54.8586 4.88902V9.54534C54.8586 10.109 55.0669 10.158 56.6966 10.158C58.6449 10.158 59.0983 10.0845 59.3066 9.90069C59.5271 9.72914 59.7232 9.31252 59.9928 8.28323C60.0173 8.20971 60.1521 8.23422 60.1521 8.30774C60.1276 8.68759 60.1031 9.18999 60.1031 9.49632C60.1031 9.71689 60.1398 9.7659 60.3114 9.83942C60.4952 9.91294 60.5564 10.011 60.5564 10.1948C60.5564 10.4398 60.3971 10.6236 60.005 10.7584C59.4781 10.9177 58.7552 10.979 56.9417 10.979C54.3439 10.979 53.9886 10.7339 53.9886 9.63111C53.9886 8.23422 54.0131 7.1069 54.0131 5.19536L53.3882 5.42817C53.1063 5.53845 52.8735 5.63648 52.6407 5.77127L52.3711 5.37916C52.7877 5.30564 52.9961 5.24437 53.2779 5.14634L54.0131 4.87677V4.55818C54.0131 2.68339 54.0008 2.02171 53.9396 1.48255C55.0179 1.59284 55.2507 1.67861 55.2507 1.83791C55.2507 1.94819 55.1894 2.02171 54.8586 2.16875V4.57043L56.3535 4.01902V3.06325C56.3535 1.22523 56.3535 0.710586 56.2922 0.15918C57.4318 0.293968 57.5788 0.355235 57.5788 0.514531C57.5788 0.600305 57.5176 0.673825 57.1867 0.820867V3.71269L58.7429 3.14903C59.0125 2.69565 59.0738 2.63438 59.1595 2.63438C59.2331 2.63438 59.3433 2.68339 59.7722 3.00199C59.9315 3.10001 59.9928 3.17353 59.9928 3.28381C59.9928 3.38184 59.9315 3.44311 59.6864 3.61466C59.6619 5.28113 59.5884 6.45746 59.4291 7.1314C59.3311 7.53577 59.2086 7.80535 59.0248 7.96464C58.841 8.12394 58.5836 8.20971 58.3263 8.20971C58.1548 8.20971 58.118 8.1607 58.0935 7.96464C58.0445 7.59704 57.9465 7.49901 57.297 7.26619C57.2235 7.24169 57.2603 7.09464 57.3338 7.1069C57.7749 7.16817 58.0935 7.18042 58.3141 7.18042C58.5224 7.18042 58.6081 7.05788 58.6694 6.69028C58.7919 6.00409 58.8287 4.87677 58.8532 3.43086ZM51.7462 4.09254V7.96464C52.2731 7.78084 52.8122 7.57253 53.3146 7.35197C53.3759 7.32746 53.4372 7.46225 53.3759 7.51126C52.3711 8.25872 51.3051 8.85914 50.1655 9.33703C50.1287 9.71689 50.0675 9.82717 49.9327 9.82717C49.7856 9.82717 49.6509 9.63111 49.2832 8.58957C49.5283 8.55281 49.7856 8.51605 50.092 8.44253C50.3493 8.38126 50.6189 8.30774 50.9007 8.22196V4.09254H50.0675C49.8347 4.09254 49.6754 4.11705 49.3935 4.16606L49.271 3.68818C49.5773 3.7617 49.7611 3.78621 50.043 3.78621H50.9007V2.5241C50.9007 1.39678 50.9007 0.83312 50.8517 0.318475C52.028 0.441009 52.1751 0.539037 52.1751 0.673825C52.1751 0.784107 52.1015 0.857628 51.7462 1.01692V3.78621H52.2118C52.5672 3.27156 52.653 3.21029 52.7265 3.21029C52.8122 3.21029 52.898 3.27156 53.3146 3.63917C53.4984 3.82297 53.5475 3.90874 53.5475 3.98226C53.5475 4.05578 53.5107 4.09254 53.3882 4.09254H51.7462Z" fill="#FFF5F5"/>
<path d="M39.5296 7.79287H41.4534C41.6372 7.29048 41.7598 6.77583 41.8333 6.24893H40.3751V6.34696C40.3751 6.62879 40.2281 6.76358 39.8727 6.76358C39.5786 6.76358 39.4806 6.67781 39.4806 6.43274C39.4806 6.22443 39.5174 5.89358 39.5174 4.74176C39.5174 4.1781 39.5174 3.88401 39.4561 3.40613C39.8972 3.57768 40.081 3.66345 40.5222 3.90852H44.7006C45.0805 3.4919 45.1417 3.45514 45.2152 3.45514C45.3133 3.45514 45.3745 3.4919 45.7789 3.84725C45.9505 4.0188 45.9995 4.09232 45.9995 4.16584C45.9995 4.25162 45.9382 4.31289 45.6809 4.49669V4.92556C45.6809 5.85682 45.7054 6.23668 45.7054 6.37147C45.7054 6.61654 45.5216 6.75133 45.1907 6.75133C44.8844 6.75133 44.7986 6.6533 44.7986 6.38372V6.24893H42.8993C42.5807 6.78809 42.2499 7.30273 41.87 7.79287H45.7054C46.073 7.364 46.1343 7.31499 46.2078 7.31499C46.2935 7.31499 46.3671 7.364 46.7959 7.71935C46.9797 7.8909 47.0288 7.96442 47.0288 8.03794C47.0288 8.13597 46.9675 8.22174 46.6979 8.38104V8.99371C46.6979 10.1578 46.7347 10.6969 46.7347 10.844C46.7347 11.1381 46.5509 11.2851 46.1955 11.2851C45.8769 11.2851 45.7912 11.1626 45.7912 10.9175V10.5499H39.4194V10.8562C39.4194 11.1503 39.2478 11.2974 38.8679 11.2974C38.5739 11.2974 38.4881 11.1748 38.4881 10.9543C38.4881 10.746 38.5371 10.3784 38.5371 9.1285C38.5371 8.31977 38.5248 7.87865 38.4758 7.26597C38.917 7.46203 39.113 7.56006 39.5296 7.79287ZM44.7986 5.9426V4.21486H40.3751V5.9426H44.7986ZM45.7912 10.2436V8.09921H39.4194V10.2436H45.7912ZM46.7837 2.65867H38.6964C38.6964 3.61444 38.2553 4.25162 37.7406 4.25162C37.4465 4.25162 37.2505 4.04331 37.2505 3.76148C37.2505 3.54092 37.3485 3.40613 37.6426 3.24683C38.1695 2.9405 38.4023 2.47487 38.4636 1.81318C38.4636 1.75191 38.5861 1.73966 38.5984 1.80092C38.6474 1.99698 38.6719 2.18078 38.6841 2.35233H44.4555C44.7496 1.8867 45.0192 1.40881 45.2275 0.955434C45.3868 0.649098 45.4971 0.355015 45.5706 0.109945C46.5509 0.55107 46.7714 0.685858 46.7714 0.808393C46.7714 0.967688 46.6857 1.00445 46.2323 1.00445C45.6441 1.62938 45.2888 1.96022 44.7986 2.35233H46.6612C47.09 1.8867 47.1513 1.83768 47.2371 1.83768C47.3351 1.83768 47.4209 1.91121 47.911 2.37684C48.1561 2.62191 48.2051 2.69543 48.2051 2.7812C48.2051 2.9405 48.0703 3.00176 47.715 3.01402C47.5557 3.02627 47.4821 3.06303 47.2371 3.29585C47.0165 3.50416 46.8204 3.6512 46.4161 3.92077C46.3793 3.94528 46.2813 3.89627 46.3058 3.84725C46.5386 3.38162 46.6489 3.14881 46.7837 2.65867ZM42.8748 1.98473C42.6175 1.98473 42.5317 1.86219 42.4337 1.39656C42.2989 0.906421 42.1274 0.55107 41.8088 0.158959C41.772 0.122199 41.8333 0.0486777 41.8823 0.0609318C42.8503 0.342762 43.3772 0.881914 43.3772 1.40881C43.3772 1.71515 43.2179 1.98473 42.8748 1.98473ZM40.3506 2.14402C40.081 2.14402 40.0075 2.04599 39.8727 1.55585C39.7502 1.09022 39.5419 0.661351 39.2478 0.355015C39.211 0.318254 39.2846 0.244734 39.3336 0.256987C40.3016 0.526563 40.8408 1.04121 40.8408 1.58036C40.8408 1.87445 40.6447 2.14402 40.3506 2.14402Z" fill="#FFF5F5"/>
<path d="M29.8491 4.71756H27.1778V9.33712C27.1778 9.58219 27.0308 9.72923 26.5897 9.72923C26.3446 9.72923 26.2221 9.61895 26.2221 9.37388C26.2221 8.93276 26.2588 8.2098 26.2588 6.40854C26.2588 4.93813 26.2466 4.59503 26.1976 3.88433C26.6632 4.06813 26.8715 4.1539 27.3004 4.41123H29.8491C29.8491 3.33292 29.8246 3.01433 29.7878 2.67123C30.9642 2.80602 31.1357 2.85504 31.1357 3.01433C31.1357 3.12461 31.0499 3.19813 30.7313 3.33292V4.41123H33.4884C33.8927 3.98235 33.954 3.93334 34.0275 3.93334C34.1133 3.93334 34.1868 3.98236 34.6034 4.33771C34.7995 4.50925 34.8363 4.58277 34.8363 4.6563C34.8363 4.75432 34.775 4.82784 34.5177 4.98714V5.99192C34.5177 7.98924 34.5422 8.29558 34.5422 8.61417C34.5422 9.01853 34.3829 9.27585 34.1501 9.43515C33.9663 9.58219 33.6844 9.66796 33.3903 9.66796C33.2433 9.66796 33.2065 9.63121 33.1698 9.4474C33.1085 9.09205 32.9737 8.93276 32.0057 8.68769C31.9322 8.67543 31.9322 8.51614 32.0057 8.51614C32.7042 8.56515 33.084 8.58966 33.3903 8.58966C33.5496 8.58966 33.6109 8.52839 33.6109 8.3691V4.71756H30.7313V5.46502C30.7313 8.87149 30.7559 10.4032 30.7559 10.8811C30.7559 11.1996 30.5966 11.3222 30.1922 11.3222C29.8736 11.3222 29.7878 11.2119 29.7878 10.9301C29.7878 10.4767 29.8491 9.01853 29.8491 5.2077V4.71756ZM30.7436 2.10757H34.0888C34.7015 1.45814 34.7872 1.39687 34.8608 1.39687C34.9465 1.39687 35.0323 1.45814 35.6082 1.92377C35.8901 2.14433 35.9391 2.23011 35.9391 2.30363C35.9391 2.37715 35.9023 2.41391 35.7798 2.41391H25.9647C25.6584 2.41391 25.4256 2.43842 25.0825 2.48743L24.96 2.0218C25.3521 2.09532 25.6216 2.10757 25.9647 2.10757H29.8123V1.16406C29.8123 0.845466 29.8001 0.588144 29.7511 0.134766C31.0132 0.2573 31.148 0.355328 31.148 0.490116C31.148 0.588144 31.0499 0.673918 30.7436 0.808706V2.10757Z" fill="#FFF5F5"/>
<path d="M21.2103 6.23662H15.0468C14.9856 7.00859 14.863 7.65802 14.6547 8.25844C14.2381 9.42252 13.6132 10.3293 12.5716 11.2605C12.5226 11.3096 12.3878 11.1993 12.4368 11.138C13.1843 10.1455 13.6254 9.14069 13.895 7.93985C14.1278 6.91056 14.1646 5.74648 14.1646 4.09226C14.1646 3.27128 14.1401 2.96495 14.091 2.41354C14.5934 2.62185 14.8017 2.73213 15.2796 2.98945H21.1C21.5044 2.54833 21.5657 2.49931 21.6392 2.49931C21.7372 2.49931 21.8107 2.54833 22.2396 2.91593C22.4234 3.06297 22.4724 3.13649 22.4724 3.21001C22.4724 3.3203 22.4112 3.40607 22.1416 3.57762V4.41085C22.1416 5.74648 22.1906 6.49394 22.1906 6.75127C22.1906 7.0576 22.0068 7.19239 21.5902 7.19239C21.3083 7.19239 21.2103 7.08211 21.2103 6.80028V6.23662ZM21.2103 5.93028V3.29579H15.1203V4.2148C15.1203 4.86423 15.1081 5.42789 15.0713 5.93028H21.2103ZM13.0863 1.34749L12.9515 0.869602C13.3803 0.943123 13.6377 0.96763 14.0053 0.96763H21.6637C22.2641 0.293689 22.3499 0.232422 22.4234 0.232422C22.5092 0.232422 22.6072 0.293689 23.2199 0.771574C23.514 1.01664 23.563 1.09016 23.563 1.16369C23.563 1.23721 23.5262 1.27397 23.4037 1.27397H14.0175C13.6744 1.27397 13.4416 1.29847 13.0863 1.34749Z" fill="#FFF5F5"/>
<path d="M5.93042 2.37717H7.49886C7.49886 1.01704 7.48661 0.661688 7.43759 0C8.61393 0.134789 8.77322 0.183803 8.77322 0.367604C8.77322 0.490139 8.6997 0.575914 8.35661 0.710702V2.37717H10.0598C10.4397 1.9483 10.501 1.91154 10.5867 1.91154C10.6725 1.91154 10.7338 1.9483 11.1259 2.27915C11.2974 2.43844 11.3342 2.51196 11.3342 2.59774C11.3342 2.69576 11.2729 2.78154 11.0034 2.94083V4.17843C11.0034 6.33504 11.0646 7.47462 11.0646 7.81771C11.0646 8.08729 10.8931 8.20983 10.5377 8.20983C10.2559 8.20983 10.1579 8.1118 10.1579 7.86673V7.54814H8.36886C8.38111 9.49644 8.40562 10.4767 8.40562 10.8811C8.40562 11.1874 8.24632 11.3345 7.86647 11.3345C7.54788 11.3345 7.43759 11.2487 7.43759 10.9423C7.43759 10.5747 7.4621 9.66799 7.48661 7.54814H5.82014V7.78095C5.82014 8.06278 5.66084 8.17306 5.33 8.17306C5.04817 8.17306 4.92563 8.07504 4.92563 7.86673C4.92563 7.45011 4.9869 6.72716 4.9869 4.4235C4.9869 3.1859 4.97465 2.54872 4.92563 1.85027C5.34225 2.05858 5.52605 2.14436 5.93042 2.37717ZM5.82014 7.2418H7.48661C7.49886 6.38406 7.49886 5.2935 7.49886 5.02392H5.82014V7.2418ZM8.36886 7.2418H10.1579V5.02392H8.35661C8.35661 5.75913 8.35661 6.50659 8.36886 7.2418ZM8.35661 2.68351V4.71759H10.1579V2.68351H8.35661ZM7.49886 2.68351H5.82014V4.71759H7.49886V2.68351ZM2.80578 5.20772V5.31801C3.92085 5.68561 4.58254 6.28603 4.58254 6.80068C4.58254 7.08251 4.39873 7.29081 4.17817 7.29081C3.99437 7.29081 3.9086 7.19279 3.7493 6.84969C3.47972 6.28603 3.24691 5.90617 2.80578 5.56308V7.82997C2.80578 9.717 2.84254 10.5257 2.84254 10.9178C2.84254 11.1997 2.64649 11.3345 2.31564 11.3345C2.02156 11.3345 1.89903 11.2242 1.89903 10.9669C1.89903 10.7463 1.94804 9.94982 1.97255 7.68293C1.97255 7.13152 1.9848 6.59237 1.99705 6.02871C1.43339 6.51885 0.820721 6.94772 0.134527 7.30307C0.0610063 7.33983 -0.049275 7.19279 0.0242459 7.14377C1.4579 6.02871 2.72001 4.399 3.39395 2.74478H1.28635C0.943256 2.74478 0.698187 2.75703 0.416357 2.83055L0.293822 2.35267C0.636919 2.41393 0.906496 2.43844 1.28635 2.43844H1.97255V1.10281C1.97255 0.747462 1.94804 0.441125 1.88677 0C3.06311 0.134789 3.24691 0.232817 3.24691 0.367604C3.24691 0.477886 3.13663 0.575914 2.81804 0.710702V2.43844H3.36944C3.68803 2.09534 3.7493 2.04633 3.82282 2.04633C3.9086 2.04633 3.96986 2.09534 4.37423 2.48745C4.55803 2.68351 4.60704 2.75703 4.60704 2.84281C4.60704 2.95309 4.49676 3.01435 4.17817 3.10013C3.81057 3.8721 3.35719 4.5828 2.80578 5.20772Z" fill="#FFF5F5"/>
<path d="M77.8295 52.2811V52.5153C77.8295 52.8233 77.6817 52.9466 77.2997 52.9466C77.0162 52.9466 76.93 52.8603 76.93 52.5892C76.93 52.2072 76.9793 51.5664 76.9793 49.6318C76.9793 48.954 76.9793 48.6213 76.9546 48.19C76.3138 48.5104 75.6238 48.7815 74.8721 49.0156C74.7858 49.0403 74.7365 48.8555 74.8105 48.8185C76.5726 47.9682 78.076 46.9454 79.1727 45.6392H76.0674C75.7963 45.6392 75.5745 45.6639 75.2418 45.7132L75.1186 45.2449C75.4882 45.3189 75.7347 45.3312 76.0427 45.3312H80.0106V43.1008C78.7414 43.2117 77.3859 43.2487 75.9318 43.2487C75.8456 43.2487 75.8333 43.0392 75.9195 43.0268C78.5442 42.8297 80.6268 42.497 82.0192 42.115C82.5737 41.9548 83.0297 41.8192 83.3501 41.6221C84.188 42.2012 84.3605 42.3738 84.3605 42.497C84.3605 42.5709 84.2989 42.6325 84.1141 42.6325C84.0032 42.6325 83.8553 42.6079 83.6335 42.5463C82.7586 42.7434 81.8344 42.9036 80.8486 43.0145V45.3312H81.9453C82.2534 44.8506 82.4998 44.37 82.6846 43.9141C82.8079 43.606 82.9065 43.3349 82.9557 43.0761C83.9662 43.4705 84.1264 43.569 84.1264 43.6923C84.1264 43.8401 84.0032 43.9018 83.6458 43.9387C83.2392 44.4563 82.7709 44.9492 82.278 45.3312H84.2496C84.8041 44.7027 84.8904 44.6411 84.9643 44.6411C85.0506 44.6411 85.1368 44.7027 85.7037 45.1463C85.9501 45.3558 86.0118 45.4421 86.0118 45.5283C86.0118 45.6023 85.9748 45.6392 85.8516 45.6392H81.0581C81.7851 46.2554 82.5491 46.736 83.3624 47.081C84.225 47.463 85.2354 47.6971 86.2829 47.8204C86.3321 47.8204 86.3321 47.9436 86.2829 47.9559C85.9748 48.0545 85.8762 48.1531 85.7283 48.5351C85.6544 48.7569 85.6051 48.8062 85.4942 48.8062C85.4203 48.8062 85.2231 48.7569 84.989 48.6706C84.4591 48.4735 83.6705 48.1161 83.1036 47.7464C82.2657 47.2412 81.5263 46.5881 80.8362 45.7625C80.8732 46.8838 80.8979 47.3151 80.8979 47.5616C80.8979 47.8327 80.7253 47.9436 80.3433 47.9436C80.0846 47.9436 79.9737 47.8327 79.9737 47.6109C79.9737 47.4384 79.9983 46.9824 80.0353 45.972C79.1973 46.7853 78.2855 47.4753 77.2627 48.0422C77.4845 48.1407 77.657 48.2393 77.9651 48.4118H83.005C83.3131 48.0914 83.3747 48.0545 83.4486 48.0545C83.5349 48.0545 83.6088 48.0915 84.0032 48.3995C84.2126 48.572 84.2619 48.646 84.2619 48.7199C84.2619 48.8185 84.2003 48.8801 83.9662 49.0033V49.9029C83.9662 51.4555 84.0155 52.2688 84.0155 52.4906C84.0155 52.774 83.843 52.9096 83.461 52.9096C83.2145 52.9096 83.1036 52.811 83.1036 52.5892V52.2811H77.8295ZM77.8295 51.9731H80.0106V50.4204H77.8295V51.9731ZM83.1036 51.9731V50.4204H80.8609V51.9731H83.1036ZM83.1036 50.1124V48.7199H80.8609V50.1124H83.1036ZM80.0106 48.7199H77.8295V50.1124H80.0106V48.7199ZM78.2731 45.1587C78.0513 45.1587 77.9404 45.0231 77.8542 44.6781C77.7433 44.2591 77.5461 43.8525 77.238 43.5198C77.2011 43.4828 77.275 43.4212 77.3243 43.4335C78.2485 43.7046 78.7537 44.1482 78.7537 44.6165C78.7537 44.9369 78.5442 45.1587 78.2731 45.1587Z" fill="#FFF5F5"/>
<path d="M72.1111 46.7485C73.3804 47.4016 73.9103 48.141 73.9103 49.3733C73.9103 50.7287 72.9121 51.8378 71.3471 51.8378C69.8068 51.8378 68.7471 50.7411 68.7471 49.4595C68.7471 48.4244 69.4618 47.7097 70.5831 47.1429C69.4741 46.5514 68.9935 45.9106 68.9935 44.8755C68.9935 43.8157 70.0286 42.793 71.3471 42.793C72.678 42.793 73.6638 43.6556 73.6638 44.7399C73.6638 45.7011 73.1586 46.2433 72.1111 46.7485ZM71.7168 46.5267C72.3822 46.194 72.678 45.5532 72.678 44.7523C72.678 43.8281 72.0988 43.175 71.3471 43.175C70.5339 43.175 69.967 43.8404 69.967 44.6907C69.967 45.3807 70.2258 45.849 71.7168 46.5267ZM70.9651 47.34C70.1272 47.8083 69.8315 48.56 69.8315 49.4718C69.8315 50.6302 70.4722 51.4558 71.3595 51.4558C72.2837 51.4558 72.9121 50.6671 72.9121 49.5334C72.9121 48.6339 72.4315 48.0671 70.9651 47.34Z" fill="#FFF5F5"/>
<path d="M58.9012 50.5688V51.2343C58.9012 51.5054 58.741 51.6779 58.3344 51.6779C58.0386 51.6779 57.9277 51.5423 57.9277 51.3328C57.9277 50.7907 58.0017 49.9034 58.0017 46.5763C58.0017 44.8388 57.9893 43.9639 57.9277 43.126C58.4083 43.3108 58.6178 43.4094 59.0737 43.6682H65.0625C65.4815 43.2122 65.5431 43.1629 65.6171 43.1629C65.7033 43.1629 65.7772 43.2122 66.2332 43.5942C66.4303 43.7668 66.4673 43.8407 66.4673 43.9146C66.4673 44.0132 66.3934 44.0995 66.1223 44.2843V46.1327C66.1223 49.2134 66.1839 50.6797 66.1839 51.1357C66.1839 51.4438 66.0237 51.5916 65.5801 51.5916C65.2967 51.5916 65.1858 51.4684 65.1858 51.2343V50.5688H58.9012ZM65.1858 50.2608V43.9762H58.9012V50.2608H65.1858Z" fill="#FFF5F5"/>
<path d="M46.3574 46.8103V47.0445C46.3574 47.3032 46.1848 47.4265 45.8028 47.4265C45.5194 47.4265 45.3962 47.3155 45.3962 47.1061C45.3962 46.8843 45.4578 46.2435 45.4578 44.7401C45.4578 43.8036 45.4578 43.4586 45.3962 42.8301C46.6285 42.978 46.8133 43.0273 46.8133 43.1998C46.8133 43.323 46.727 43.4216 46.3574 43.5571V46.5023H49.2532V44.2349C49.2532 42.9287 49.2409 42.1893 49.1669 41.7334C50.4854 41.8566 50.6333 41.9675 50.6333 42.1154C50.6333 42.2386 50.5224 42.3495 50.1651 42.4851V46.5023H53.1102V44.3458C53.1102 43.6804 53.1102 43.3723 53.0486 42.8301C54.2192 42.9657 54.441 43.0396 54.441 43.2244C54.441 43.3353 54.3548 43.4216 54.0097 43.5571V44.4321C54.0097 45.997 54.059 46.7487 54.059 46.9828C54.059 47.2663 53.8865 47.4018 53.5168 47.4018C53.2211 47.4018 53.1102 47.2909 53.1102 47.0691V46.8103H50.1651V51.7394H53.677V49.6815C53.677 48.9914 53.6647 48.7203 53.6031 48.1905C54.8353 48.3137 55.0325 48.3753 55.0325 48.5601C55.0325 48.6834 54.9339 48.7819 54.5889 48.9175V49.8294C54.5889 51.456 54.6382 52.2569 54.6382 52.5034C54.6382 52.7868 54.4533 52.9223 54.059 52.9223C53.7756 52.9223 53.677 52.8238 53.677 52.5773V52.0474H45.8275V52.5034C45.8275 52.7991 45.655 52.947 45.2607 52.947C44.9772 52.947 44.854 52.8361 44.854 52.5773C44.854 52.3555 44.9156 51.6408 44.9156 50.0019C44.9156 49.1023 44.9279 48.8312 44.854 48.2028C46 48.3137 46.2465 48.3999 46.2465 48.5601C46.2465 48.6834 46.1602 48.7696 45.8275 48.9175V51.7394H49.2532V46.8103H46.3574Z" fill="#FFF5F5"/>
<path d="M37.7191 44.8139H40.3685C40.7258 44.4565 40.7874 44.4072 40.8737 44.4072C40.9599 44.4072 41.0585 44.4442 41.4159 44.7646C41.6007 44.9248 41.6254 45.011 41.6254 45.085C41.6254 45.1835 41.5884 45.2328 41.3173 45.393V46.3172C41.3173 47.9068 41.3666 48.6585 41.3666 48.8927C41.3666 49.1514 41.1941 49.2747 40.8244 49.2747C40.541 49.2747 40.4547 49.1884 40.4547 48.9296V48.7078H37.8793C38.5447 49.5827 39.395 50.2112 40.4054 50.7041C41.3296 51.16 42.3154 51.4188 43.2273 51.5051C43.2889 51.5051 43.2766 51.6283 43.215 51.6406C42.8946 51.7269 42.7098 51.8871 42.6112 52.2074C42.5372 52.4292 42.451 52.5155 42.3647 52.5155C42.2661 52.5155 42.0074 52.4416 41.7609 52.3307C41.0708 52.0349 40.3438 51.616 39.7154 51.1354C39.0253 50.6055 38.3229 49.8538 37.6698 48.8434C37.7191 50.3467 37.7807 52.2691 37.7807 52.6511C37.7807 52.9345 37.5712 53.0454 37.1892 53.0454C36.8812 53.0454 36.7826 52.9468 36.7826 52.7127C36.7826 52.3553 36.8319 50.7903 36.8812 49.3732C35.4271 51.0245 33.8868 51.8994 31.644 52.5771C31.5578 52.6018 31.4962 52.4169 31.5701 52.38C33.4308 51.542 35.1313 50.3098 36.2773 48.7078H34.318V48.905C34.318 49.1761 34.1702 49.2993 33.8005 49.2993C33.5294 49.2993 33.4185 49.2007 33.4185 48.9789C33.4185 48.6708 33.4924 48.1903 33.4924 46.3788C33.4924 45.4546 33.4924 44.9248 33.4062 44.3333C33.8498 44.5058 34.0346 44.5921 34.4413 44.8139H36.8442V43.5077H32.8886C32.5682 43.5077 32.3095 43.5323 31.9644 43.5816L31.8412 43.101C32.2355 43.175 32.5313 43.1996 32.8886 43.1996H36.8442V43.0887C36.8442 42.2138 36.8195 41.9427 36.7579 41.5977C38.0025 41.7579 38.1134 41.8071 38.1134 41.9673C38.1134 42.0782 38.0395 42.1522 37.7191 42.2877V43.1996H41.2187C41.7609 42.5711 41.8472 42.5095 41.9211 42.5095C42.0074 42.5095 42.0936 42.5711 42.6851 43.0394C42.9562 43.2489 43.0055 43.3228 43.0055 43.3968C43.0055 43.4707 42.9685 43.5077 42.8453 43.5077H37.7191V44.8139ZM37.7191 46.8717V48.3997H40.4547V46.8717H37.7191ZM36.8442 46.8717H34.318V48.3997H36.8442V46.8717ZM37.7191 45.1219V46.5637H40.4547V45.1219H37.7191ZM36.8442 45.1219H34.318V46.5637H36.8442V45.1219Z" fill="#FFF5F5"/>
</svg>
