<svg width="122" height="43" viewBox="0 0 122 43" fill="none" xmlns="http://www.w3.org/2000/svg">
<path d="M109.392 33.3994V35.7034C109.392 39.4794 109.408 41.2554 109.408 41.7834C109.408 42.1674 109.184 42.3434 108.704 42.3434C108.304 42.3434 108.16 42.2154 108.16 41.8634C108.16 41.5114 108.224 40.3754 108.272 36.6634C108.272 35.6394 108.272 34.6314 108.288 33.5914C107.776 34.3594 107.2 35.0634 106.56 35.7034C106.496 35.7674 106.336 35.6234 106.384 35.5434C107.664 33.7034 108.688 31.1914 109.152 29.0634C109.264 28.5674 109.344 28.0874 109.376 27.6234C110.896 28.0394 111.12 28.1194 111.12 28.3274C111.12 28.4874 110.992 28.5514 110.496 28.6634C110.08 30.1194 109.536 31.4474 108.864 32.6314C109.728 32.7754 109.856 32.8234 109.856 32.9994C109.856 33.1274 109.792 33.2234 109.392 33.3994ZM111.424 35.0634H119.52C120 34.5034 120.08 34.4394 120.208 34.4394C120.32 34.4394 120.448 34.5194 121.056 35.0474C121.344 35.3194 121.408 35.4154 121.408 35.5274C121.408 35.7194 121.28 35.7994 120.832 35.7994C120.64 35.7994 120.56 35.8474 120.368 35.9914C120.08 36.2154 119.776 36.4074 119.408 36.5994C119.488 36.6474 119.568 36.7114 119.664 36.7914C119.936 37.0154 120.016 37.1114 120.016 37.2234C120.016 37.3194 119.952 37.3834 119.808 37.3834H116.4V39.0634C116.4 40.0714 116.432 40.6634 116.432 40.9834C116.432 41.4154 116.24 41.6714 116 41.8794C115.76 42.0874 115.36 42.2314 114.848 42.2314C114.688 42.2314 114.64 42.1834 114.592 41.9434C114.512 41.5594 114.32 41.3354 112.88 41.0314C112.784 41.0154 112.784 40.7754 112.88 40.7914C113.888 40.8874 114.48 40.9034 114.976 40.9034C115.168 40.9034 115.232 40.8394 115.232 40.6314V37.3834H112.672C112.368 37.3834 112.144 37.4154 111.76 37.4794L111.6 36.8714C112.048 36.9674 112.32 36.9834 112.688 36.9834H118.016C118.608 36.3114 118.736 36.2314 118.832 36.2314C118.896 36.2314 118.992 36.2794 119.248 36.4714C119.44 36.0714 119.52 35.8474 119.616 35.4634H111.44C111.456 36.4554 111.008 37.1434 110.4 37.1434C110.08 37.1434 109.856 36.9034 109.856 36.5674C109.856 36.2794 109.936 36.1834 110.384 35.9114C110.816 35.6234 111.072 35.1434 111.12 34.4874C111.12 34.4074 111.28 34.3754 111.296 34.4554C111.36 34.6634 111.392 34.8714 111.424 35.0634ZM113.04 33.7994V33.8474C113.04 34.1834 112.816 34.3274 112.416 34.3274C112.08 34.3274 111.92 34.2154 111.92 33.9114C111.92 33.7514 111.952 33.4794 111.952 32.4394C111.952 31.7514 111.936 31.2554 111.872 30.6954C112.432 30.9194 112.656 31.0154 113.152 31.2714H118.08C118.544 30.7754 118.64 30.7114 118.736 30.7114C118.832 30.7114 118.944 30.7754 119.392 31.1594C119.648 31.3514 119.696 31.4634 119.696 31.5594C119.696 31.6714 119.632 31.7514 119.312 31.9754V32.3754C119.312 33.3034 119.344 33.6874 119.344 33.8154C119.344 34.1354 119.136 34.2954 118.688 34.2954C118.336 34.2954 118.208 34.1834 118.208 33.9114V33.7994H113.04ZM118.208 33.3994V31.6714H113.04V33.3994H118.208ZM116.176 29.6554H119.088C119.712 28.8394 119.824 28.7594 119.936 28.7594C120.032 28.7594 120.16 28.8394 120.848 29.4314C121.168 29.7034 121.248 29.7994 121.248 29.8954C121.248 29.9914 121.184 30.0554 121.04 30.0554H112.096C111.696 30.0554 111.408 30.0714 110.96 30.1514L110.8 29.5434C111.312 29.6234 111.648 29.6554 112.096 29.6554H115.024V28.7114C115.024 28.3754 115.008 28.1034 114.96 27.6074C116.528 27.7674 116.704 27.8954 116.704 28.0714C116.704 28.1834 116.592 28.2954 116.176 28.4714V29.6554Z" fill="#FFF5F5"/>
<path d="M98.784 35.3517C100.256 35.9597 101.632 36.6957 102.576 37.6077C103.136 38.1517 103.568 38.6797 103.568 39.1117C103.568 39.5437 103.296 39.7837 102.912 39.7837C102.688 39.7837 102.48 39.6397 102.224 39.2877C101.168 37.7677 100 36.6637 98.432 35.7357C97.472 36.7917 96.432 37.7037 95.312 38.4397C94.24 39.1597 93.12 39.7357 92.192 40.0717C92.032 40.1357 91.872 40.1837 91.76 40.1837C91.664 40.1837 91.584 40.0717 91.584 39.9917C91.584 39.9117 91.648 39.8157 91.744 39.7677C93.664 38.7117 95.328 37.5437 96.928 35.8477C98.112 34.6157 98.992 33.4317 99.952 31.7837C100 31.7037 100.016 31.6717 100.016 31.6397C100.016 31.6077 99.984 31.6077 99.888 31.6077C99.152 31.6557 97.328 31.8957 95.712 32.2157C95.392 32.2797 95.184 32.3437 95.056 32.4237C94.912 32.5037 94.816 32.5837 94.592 32.5837C94.32 32.5837 93.936 32.3117 93.6 31.8477C93.296 31.4317 93.168 31.2077 93.168 30.9357C93.168 30.7757 93.248 30.5997 93.328 30.5997C93.392 30.5997 93.504 30.6957 93.6 30.7917C94.016 31.1917 94.304 31.3997 94.656 31.3997C94.912 31.3997 95.456 31.3517 95.92 31.3037C97.168 31.1757 98.496 31.0477 99.664 30.8877C99.936 30.8557 100.064 30.7757 100.208 30.6477C100.32 30.5357 100.432 30.4717 100.592 30.4717C100.832 30.4717 101.008 30.5517 101.344 30.8557C101.776 31.2557 101.904 31.4317 101.904 31.6237C101.904 31.7837 101.824 31.8477 101.504 31.9757C101.28 32.0557 101.024 32.2637 100.832 32.5677C100.4 33.2557 99.616 34.3757 98.784 35.3517Z" fill="#FFF5F5"/>
<path d="M87.8881 36.343C87.8881 36.887 87.6961 37.175 87.2161 37.175C86.8801 37.175 86.6721 36.951 86.4961 36.567C86.0641 35.607 85.6641 34.951 85.1361 34.311C84.6561 33.735 84.0961 33.239 83.4881 32.807C83.2961 32.679 83.2001 32.583 83.2001 32.503C83.2001 32.375 83.2961 32.311 83.3921 32.311C83.5041 32.311 83.6321 32.359 83.8401 32.439C84.7681 32.823 85.6481 33.383 86.4321 34.087C87.1361 34.711 87.8881 35.703 87.8881 36.343ZM79.6321 33.671C79.6321 33.511 79.4881 33.319 79.1041 33.047C78.9441 32.935 78.9121 32.903 78.9121 32.839C78.9121 32.727 79.1361 32.647 79.3121 32.647C79.5361 32.647 79.8401 32.759 80.2401 33.031C80.7201 33.367 81.1841 33.815 81.1841 34.231C81.1841 34.487 81.0561 34.615 80.7841 34.711C80.6561 34.759 80.5281 34.871 80.3521 35.047C79.6641 35.735 78.9921 36.343 78.1761 36.951C77.2961 37.607 76.3201 38.199 75.3121 38.615C75.1041 38.711 74.9921 38.743 74.9121 38.743C74.8001 38.743 74.7041 38.663 74.7041 38.535C74.7041 38.439 74.7841 38.375 74.9441 38.279C75.9361 37.639 76.8161 36.935 77.5841 36.247C78.2081 35.655 78.7521 35.063 79.1841 34.519C79.4881 34.119 79.6321 33.879 79.6321 33.671ZM85.2321 30.087C85.3281 30.087 85.4401 30.119 85.4881 30.135C85.9201 30.263 86.4001 30.503 86.8801 30.935C87.2641 31.271 87.4881 31.559 87.4881 31.895C87.4881 32.151 87.3281 32.375 87.0401 32.375C86.8321 32.375 86.6561 32.231 86.5121 31.943C86.2721 31.463 85.6321 30.759 85.1681 30.407C85.1041 30.359 85.0561 30.295 85.0561 30.247C85.0561 30.167 85.1201 30.087 85.2321 30.087ZM86.5281 28.999C86.6081 28.999 86.7361 29.031 86.8801 29.063C87.3121 29.175 87.7121 29.367 88.1601 29.687C88.5441 29.959 88.8961 30.327 88.8961 30.695C88.8961 31.015 88.7041 31.207 88.4641 31.207C88.2561 31.207 88.1281 31.127 87.9521 30.823C87.6641 30.327 87.0241 29.639 86.4801 29.319C86.4161 29.287 86.3681 29.223 86.3681 29.159C86.3681 29.079 86.4321 28.999 86.5281 28.999Z" fill="#FFF5F5"/>
<path d="M112.969 19.9367V19.1452H118.759V2.64844H119.592V19.9367H112.969Z" fill="#FFF5F5"/>
<path d="M102.616 3.544H104.887V2.16927C104.887 1.66937 104.845 1.16947 104.762 0.648734C107.178 0.857027 107.386 1.04449 107.386 1.23195C107.386 1.39859 107.199 1.56522 106.803 1.79434V3.544H108.99C109.677 2.71083 109.844 2.58586 110.011 2.58586C110.219 2.58586 110.386 2.71083 111.261 3.43986C111.656 3.79395 111.781 3.93976 111.781 4.10639C111.781 4.33552 111.552 4.48132 111.094 4.50215C110.969 4.52298 110.802 4.6063 110.573 4.77293C110.136 5.1062 109.719 5.39781 109.094 5.79356C109.24 5.87688 109.407 6.00186 109.615 6.14766C109.948 6.39761 110.073 6.54342 110.073 6.71005C110.073 6.85586 109.99 6.93917 109.573 7.23078V7.79317C109.573 9.29288 109.615 10.3135 109.615 10.6468C109.615 11.2717 109.261 11.5424 108.532 11.5424C107.907 11.5424 107.699 11.3341 107.699 10.7093V10.626H103.804V13.3754H108.136C108.907 12.5214 109.073 12.3964 109.24 12.3964C109.448 12.3964 109.636 12.5214 110.386 13.1046C110.74 13.3962 110.865 13.5421 110.865 13.7087C110.865 13.8545 110.802 13.917 110.323 14.3127V15.0418C110.323 17.2913 110.386 18.4578 110.386 18.8535C110.386 19.4784 109.969 19.77 109.24 19.77C108.594 19.77 108.365 19.5617 108.365 18.916V18.2911H103.804V18.9785C103.804 19.6659 103.47 19.9158 102.7 19.9158C102.075 19.9158 101.825 19.7075 101.825 19.166C101.825 17.5829 101.929 15.9791 101.929 9.56366C101.929 8.43888 101.908 7.3141 101.866 6.18932C101.679 6.29347 101.492 6.35595 101.262 6.35595C100.658 6.35595 100.283 5.98103 100.283 5.39781C100.283 4.85625 100.45 4.62713 100.95 4.41883C101.658 4.14805 102.012 3.544 102.116 2.56503C102.137 2.46088 102.304 2.46088 102.346 2.56503C102.471 2.91912 102.554 3.23156 102.616 3.544ZM109.219 4.02308H102.679C102.721 4.52298 102.679 5.02288 102.471 5.48112C103.095 5.79356 103.45 6.00186 103.949 6.33513H107.553C108.178 5.64776 108.344 5.52278 108.511 5.52278C108.594 5.52278 108.698 5.54361 108.823 5.6061C108.99 5.04371 109.115 4.50215 109.219 4.02308ZM103.804 13.8545V17.8121H108.365V13.8545H103.804ZM107.699 10.1469V6.8142H103.804V10.1469H107.699ZM95.2636 12.6464V16.9372C96.2634 16.7498 97.2841 16.4998 98.263 16.1874C97.9089 15.3959 97.4924 14.8335 96.8675 14.1669C96.805 14.0836 96.8883 13.9586 96.9925 13.9795C99.2004 14.6043 100.617 15.8749 100.617 17.208C100.617 18.0203 100.179 18.5827 99.5336 18.5827C99.1379 18.5827 98.9712 18.3953 98.8046 17.7704C98.7005 17.3955 98.5963 17.0414 98.4713 16.7289C96.9091 17.7079 96.0343 18.1245 93.7223 19.0618C93.6598 19.5617 93.5348 19.77 93.3057 19.77C93.0557 19.77 92.8891 19.4159 92.2225 17.333C92.6391 17.3122 93.0765 17.2497 93.4931 17.208V11.6882C93.4931 9.83444 93.4723 7.98064 93.4098 6.106C92.9724 6.39761 92.4933 6.68922 92.0143 6.93917C91.9309 6.98083 91.806 6.79337 91.8685 6.71005C92.9724 5.56444 93.9722 4.27303 94.7012 3.06493C95.2636 2.12761 95.6594 1.23195 95.8468 0.50293C98.0964 1.44025 98.3672 1.56522 98.3672 1.75269C98.3672 1.96098 98.1589 2.0443 97.6382 2.06512C99.6169 2.69 100.367 3.25239 100.367 4.14805C100.367 4.68961 99.971 5.14786 99.5128 5.14786C99.0962 5.14786 99.0545 5.1062 98.5755 4.04391C98.2422 3.29405 97.9089 2.83581 97.3674 2.31508C96.3884 3.68981 95.1803 4.83542 93.8264 5.81439C94.4096 6.06434 94.6387 6.18932 95.3469 6.58508H96.076V5.31449C96.076 4.85625 96.0343 4.46049 95.9927 4.08556C98.1589 4.27303 98.3464 4.46049 98.3464 4.62712C98.3464 4.7521 98.1589 4.91873 97.8048 5.08537V6.58508H98.263C98.8463 5.9602 99.0129 5.83522 99.1795 5.83522C99.3878 5.83522 99.5753 5.9602 100.221 6.4601C100.513 6.68922 100.638 6.83503 100.638 7.00166C100.638 7.14747 100.554 7.25161 100.138 7.54322V8.35556C100.138 11.0009 100.179 12.3756 100.179 12.8547C100.179 13.4171 99.9085 13.6462 99.1587 13.6462C98.5338 13.6462 98.3672 13.4796 98.3672 12.938V12.6464H95.2636ZM98.3672 9.29288V7.06415H95.2636V9.29288H98.3672ZM95.2636 9.77195V12.1673H98.3672V9.77195H95.2636Z" fill="#FFF5F5"/>
<path d="M81.2037 6.4186C80.433 13.0423 77.6627 16.5833 71.4972 19.3952C71.3931 19.4369 71.2681 19.2286 71.3514 19.1661C77.0378 15.1252 79.2249 10.6886 79.2249 3.06509C79.2249 2.41938 79.2041 2.08611 79.1208 1.31543C81.8494 1.56538 82.141 1.62787 82.141 2.02363C82.141 2.23192 82.0369 2.31524 81.412 2.60685C81.3911 3.25255 81.3703 3.87743 81.3287 4.52314C81.6203 7.25177 82.4326 9.64714 83.724 11.6676C85.3071 14.1254 87.5983 16.0001 90.5144 17.1248C90.6185 17.1665 90.6185 17.354 90.5144 17.3748C89.7853 17.5831 89.4313 17.9788 89.1396 18.8745C89.0147 19.2286 88.9313 19.3119 88.7439 19.3119C88.5564 19.3119 88.1607 19.0828 87.6608 18.7079C85.4529 16.9374 83.5574 14.667 82.4951 12.0008C81.8494 10.397 81.4328 8.58485 81.2037 6.4186Z" fill="#FFF5F5"/>
<path d="M64.9364 8.58476H54.855C54.855 9.18881 54.5009 9.41793 53.751 9.41793C53.147 9.41793 52.8762 9.23047 52.8762 8.68891C52.8762 7.89739 52.9387 7.10588 52.9387 3.93983C52.9387 2.9192 52.9179 1.89856 52.8554 0.87793C53.9385 1.31534 54.0843 1.39866 55.0841 1.91939H64.6239C65.4779 1.08622 65.6446 0.961247 65.8112 0.961247C66.0195 0.961247 66.2069 1.08622 66.9568 1.66944C67.3109 1.96105 67.4359 2.10686 67.4359 2.27349C67.4359 2.50261 67.3525 2.60676 66.8318 2.98169V3.89817C66.8318 6.29354 66.936 8.02237 66.936 8.56393C66.936 9.20964 66.561 9.41793 65.8528 9.41793C65.2488 9.41793 64.9364 9.23047 64.9364 8.73056V8.58476ZM54.855 4.96047H58.8125V2.39847H54.855V4.96047ZM54.855 5.43954V8.10569H58.8125V5.43954H54.855ZM64.9364 8.10569V5.43954H60.708V8.10569H64.9364ZM64.9364 4.96047V2.39847H60.708V4.96047H64.9364ZM63.4991 11.855V14.5003H66.0195C67.0193 13.2713 67.2692 13.1047 67.415 13.1047C67.6025 13.1047 67.8316 13.2713 68.8314 14.0629C69.2897 14.4378 69.4563 14.6252 69.4563 14.7711C69.4563 14.9169 69.3938 14.9793 69.1855 14.9793H52.5013C52.0222 14.9793 51.564 15.021 50.9391 15.1043L50.71 14.3336C51.3973 14.4586 51.8972 14.5003 52.418 14.5003H56.1881V11.855H53.5636C53.1678 11.855 52.7929 11.8966 52.2722 11.9799L52.043 11.2092C52.6263 11.3342 53.0637 11.3759 53.5011 11.3759H56.1881C56.1881 10.3761 56.1464 9.60539 56.0839 9.00135C58.5834 9.2513 58.8334 9.48042 58.8334 9.70954C58.8334 9.897 58.5834 10.0845 58.1044 10.2719V11.3759H61.562C61.562 10.3969 61.5204 9.62622 61.4787 9.00135C63.9574 9.23047 64.1865 9.45959 64.1865 9.68871C64.1865 9.87617 63.9574 10.0428 63.4991 10.2303V11.3759H65.0197C65.9362 10.2928 66.1861 10.1261 66.3319 10.1261C66.5194 10.1261 66.7693 10.2928 67.7066 11.001C68.1232 11.3342 68.2899 11.5009 68.2899 11.6467C68.2899 11.7925 68.2274 11.855 68.0191 11.855H63.4991ZM61.562 11.855H58.1044V14.5003H61.562V11.855ZM67.6858 18.562C67.6858 19.2285 67.2901 19.7076 66.7068 19.7076C66.2278 19.7076 65.9778 19.5618 65.4779 18.9161C64.5198 17.708 63.3533 16.7707 61.7495 15.8958C61.6662 15.8542 61.7078 15.6667 61.812 15.6875C65.9362 16.3124 67.6858 17.1872 67.6858 18.562ZM58.8125 16.8956C58.8125 17.1872 58.6043 17.2497 57.8127 17.2497C55.7715 18.6245 54.1051 19.2285 51.2307 19.6659C51.1266 19.6868 51.0641 19.4576 51.1682 19.416C52.7512 18.7078 54.1676 17.7913 55.1883 16.8748C55.6673 16.4166 56.0839 15.9583 56.3755 15.5209C58.3126 16.3957 58.8125 16.6665 58.8125 16.8956Z" fill="#FFF5F5"/>
<path d="M35.5672 9.77271V12.668H36.692C37.4835 11.7515 37.7334 11.5849 37.8792 11.5849C38.0667 11.5849 38.2958 11.7515 39.0665 12.3555C39.3998 12.6263 39.5664 12.793 39.5664 12.9388C39.5664 13.0846 39.5039 13.147 39.2956 13.147H35.5672V15.834C37.0044 15.5841 38.3791 15.3341 39.2748 15.105C39.3789 15.0842 39.4414 15.3133 39.3581 15.355C37.296 16.4381 34.609 17.4171 31.1097 18.2919C31.0056 18.771 30.8806 18.9792 30.6098 18.9792C30.2557 18.9792 30.2557 18.9376 29.5684 16.5214C30.1724 16.5214 31.2764 16.4381 32.5469 16.2714C32.9427 16.2298 33.3593 16.1673 33.7759 16.1048V13.147H31.2347C30.8598 13.147 30.5057 13.1887 30.0058 13.272L29.7767 12.5013C30.3182 12.6263 30.7348 12.668 31.1514 12.668H33.7759V9.77271H32.0887V10.2726C32.0887 10.835 31.7346 11.0433 31.0472 11.0433C30.5057 11.0433 30.2974 10.8558 30.2974 10.4392C30.2974 9.39778 30.4015 8.16885 30.4015 3.91968C30.4015 2.96154 30.3807 2.00339 30.2557 1.02441C31.2764 1.42017 31.3597 1.48266 32.297 2.04505H36.9628C37.7126 1.19105 37.8792 1.06607 38.0459 1.06607C38.2542 1.06607 38.4 1.19105 39.1498 1.83676C39.4623 2.12837 39.5872 2.295 39.5872 2.46163C39.5872 2.66993 39.4831 2.7949 38.9832 3.08651V4.19046C38.9832 7.14822 39.0873 9.23115 39.0873 9.89768C39.0873 10.4392 38.7332 10.6684 38.0667 10.6684C37.4835 10.6684 37.2752 10.5017 37.2752 10.0435V9.77271H35.5672ZM35.5672 9.29364H37.2752V6.04427H35.5672V9.29364ZM35.5672 5.5652H37.2752V2.52412H35.5672V5.5652ZM32.0887 9.29364H33.7759V6.04427H32.0887V9.29364ZM32.0887 5.5652H33.7759V2.52412H32.0887V5.5652ZM42.7741 8.41881H41.0245C40.6495 8.41881 40.2954 8.46046 39.7955 8.58544L39.5664 7.7731C40.1288 7.89807 40.5454 7.93973 40.962 7.93973H46.6067C47.3566 7.08573 47.5232 6.96076 47.6898 6.96076C47.8981 6.96076 48.0439 7.08573 48.8979 7.89807C49.2729 8.273 49.3978 8.43964 49.3978 8.60627C49.3978 8.87705 49.2729 8.96037 48.7313 9.06451C48.4189 9.127 48.3772 9.14783 48.0648 9.58525C47.5024 10.2518 46.565 11.1891 45.9402 11.7307C45.8568 11.7931 45.6694 11.6682 45.711 11.564C46.1901 10.5434 46.6067 9.29364 46.7942 8.41881H44.6696V13.8969C44.6696 15.6049 44.7321 16.7922 44.7321 17.6462C44.7321 18.4793 44.5446 18.8334 44.0239 19.1875C43.5865 19.4791 42.9824 19.6666 42.3992 19.6666C42.0868 19.6666 42.0659 19.5833 41.9618 19.0001C41.8368 18.2502 41.2952 17.9586 39.5664 17.4587C39.4623 17.4379 39.4623 17.1671 39.5664 17.1671C40.6495 17.2712 41.6077 17.3546 42.4408 17.3546C42.6908 17.3546 42.7741 17.2921 42.7741 17.063V8.41881ZM41.1703 2.04505H45.961C46.7942 1.25354 46.9608 1.14939 47.1274 1.14939C47.3774 1.14939 47.5857 1.25354 48.398 2.04505C48.6896 2.33666 48.8563 2.60744 48.8563 2.75324C48.8563 3.02402 48.7521 3.10734 48.1481 3.23232C47.8981 3.27398 47.7731 3.33646 47.5024 3.56559C46.2318 4.69037 45.6069 5.16944 44.857 5.66934C45.1487 5.96095 45.3153 6.31505 45.3153 6.66915C45.3153 7.2732 44.8779 7.7731 44.2738 7.7731C43.7948 7.7731 43.6281 7.60646 43.3157 6.85661C42.8991 5.81515 42.3575 5.02363 41.6702 4.46124C41.5869 4.39876 41.6702 4.29461 41.7743 4.31544C42.8991 4.54456 43.7739 4.857 44.378 5.27359C45.0445 4.3571 45.5444 3.41978 45.9402 2.52412H41.2328C40.8787 2.52412 40.6495 2.54495 40.2121 2.6491L39.983 1.89924C40.3163 1.98256 40.712 2.02422 41.1703 2.04505Z" fill="#FFF5F5"/>
<path d="M16.4252 2.27353V4.9605C16.4252 12.1258 16.5086 17.0415 16.5086 18.6662C16.5086 19.291 16.1128 19.6035 15.1963 19.6035C14.5298 19.6035 14.259 19.3744 14.259 18.8536C14.259 18.1454 14.3006 16.6666 14.3423 14.2087C13.3842 15.0002 11.9053 15.9584 10.3014 16.8124C10.2181 17.3331 10.114 17.5206 9.90567 17.5206C9.61406 17.5206 9.48909 17.2914 8.61426 15.1044C9.01001 15.0419 9.44743 14.9586 9.86401 14.8752C11.2179 14.5628 12.6968 14.0629 14.3631 13.3755L14.4256 7.48085H10.7388C10.3223 7.48085 9.90567 7.5225 9.34328 7.62665L9.11416 6.85597C9.75987 6.96011 10.2598 7.00177 10.7388 7.00177H14.4256V5.27294C14.4256 2.64845 14.4048 2.02358 14.259 1.06543C16.821 1.27372 17.1334 1.35704 17.1334 1.69031C17.1334 1.8986 16.9876 2.02358 16.4252 2.27353ZM21.091 2.35684V8.93889C22.1325 8.10572 23.0906 7.14758 23.8405 6.21026C24.3404 5.60621 24.7361 5.00216 25.0069 4.4606C26.6524 5.48123 27.3189 6.00197 27.3189 6.29358C27.3189 6.50187 27.1315 6.6685 26.3191 6.56436C24.7569 7.8766 22.9656 8.98055 21.091 9.77206V16.5207C21.091 17.3331 21.2993 17.4164 23.3822 17.4164C24.4862 17.4164 24.8403 17.4164 25.2985 17.0831C25.7776 16.729 26.1108 15.9584 26.7357 13.9171C26.7566 13.8129 27.0065 13.8546 27.0065 13.9587C26.944 14.8127 26.8399 16.0417 26.8399 16.4999C26.8399 16.7499 26.9024 16.854 27.1106 16.9582C27.5689 17.1873 27.7355 17.3539 27.7355 17.7288C27.7355 18.3537 27.2981 18.7495 26.2775 18.9578C25.5693 19.1244 24.5903 19.1869 23.2989 19.1869C19.7163 19.1869 19.0497 18.8536 19.0497 16.854C19.0497 16.4583 19.1122 16.0625 19.1122 14.4795C19.1122 10.0428 19.0914 5.58538 19.0289 1.12792C21.5076 1.37787 21.7159 1.44036 21.7159 1.77362C21.7159 2.00275 21.5492 2.14855 21.091 2.35684Z" fill="#FFF5F5"/>
<path d="M7.03093 0.232422V1.02393H1.2404V17.5207H0.407227V0.232422H7.03093Z" fill="#FFF5F5"/>
</svg>
