<svg width="76" height="54" viewBox="0 0 76 54" fill="none" xmlns="http://www.w3.org/2000/svg">
<path d="M52.72 5.28469L52.7425 6.85085C52.765 8.27053 52.7988 9.19445 52.7988 9.56627C52.7988 9.90429 52.6636 10.1071 52.4721 10.2536C52.3256 10.3663 52.089 10.4564 51.8749 10.4564C51.7284 10.4564 51.6834 10.4001 51.6383 10.2085C51.5932 9.89303 51.413 9.80289 50.5679 9.62261C50.5003 9.61134 50.5116 9.46487 50.5792 9.47614C51.2101 9.53247 51.582 9.54374 51.8298 9.54374C51.9651 9.54374 52.0214 9.49867 52.0214 9.35219V4.84526H50.9397V4.99173C50.9397 5.22835 50.782 5.31849 50.4778 5.31849C50.275 5.31849 50.1623 5.25088 50.1623 5.04807C50.1623 4.76639 50.2073 4.3495 50.2073 2.727C50.2073 1.89322 50.2073 1.47633 50.151 0.935493C50.5116 1.08197 50.6918 1.17211 51.0524 1.39745H51.7848C51.8524 1.17211 51.9087 0.94676 51.9538 0.743948C51.9989 0.507335 52.0214 0.27072 52.0214 0.0566406C52.9228 0.293255 53.1481 0.394661 53.1481 0.518602C53.1481 0.620008 53.0467 0.687612 52.72 0.721414C52.5172 0.980563 52.3256 1.18337 52.1003 1.39745H53.8242C54.1847 1.02563 54.2411 0.980562 54.3087 0.980562C54.3875 0.980562 54.4439 1.02563 54.7932 1.31858C54.9622 1.47632 54.996 1.54393 54.996 1.61153C54.996 1.70167 54.9734 1.73547 54.703 1.92702V2.68193C54.703 4.04528 54.7368 4.74385 54.7368 4.94667C54.7368 5.18328 54.5903 5.28469 54.2861 5.28469C54.027 5.28469 53.9368 5.20581 53.9368 4.99173V4.84526H52.7876C52.9566 5.60017 53.1707 6.34382 53.5988 6.99732C53.858 6.73817 54.0946 6.45649 54.3199 6.141C54.5227 5.84805 54.6579 5.5551 54.7481 5.29595C55.5255 5.75791 55.672 5.89312 55.672 6.0058C55.672 6.12974 55.5706 6.17481 55.2326 6.16354C54.5791 6.64803 54.2523 6.89591 53.7115 7.16633C53.8016 7.29027 53.8918 7.40295 53.9932 7.51562C54.5791 8.18039 55.2664 8.61982 56.0326 8.9015C56.0776 8.91277 56.0551 8.99164 56.01 9.01417C55.7396 9.12685 55.6269 9.26206 55.503 9.62261C55.4467 9.80289 55.4016 9.82542 55.3227 9.82542C55.2664 9.82542 55.1762 9.78035 54.996 9.64515C54.4889 9.19445 53.9706 8.58602 53.6439 8.03392C53.227 7.30154 52.9791 6.6255 52.72 5.28469ZM50.9397 3.2115V4.56358H53.9368V3.2115H50.9397ZM53.9368 2.92981V1.67914H50.9397V2.92981H53.9368ZM47.3229 7.89871V5.44243C47.0074 5.51003 46.6243 5.56637 46.1398 5.65651C46.061 5.90439 45.9934 5.97199 45.9032 5.97199C45.7793 5.97199 45.7229 5.80298 45.5652 4.92413C45.8018 4.94667 45.9145 4.95793 46.0835 4.95793C46.3088 4.95793 46.5229 4.95793 46.7032 4.94667C47.1426 4.30443 47.6384 3.45938 47.9877 2.70447C48.1792 2.29884 48.3257 1.91575 48.3933 1.64534C49.182 2.02842 49.4186 2.1749 49.4186 2.29884C49.4186 2.40025 49.306 2.47912 48.9905 2.46785C48.3032 3.48191 47.8525 4.11288 47.0187 4.94667C47.6384 4.9354 48.2694 4.9016 48.9003 4.83399C48.8102 4.52977 48.675 4.23682 48.4722 3.92134C48.4496 3.88754 48.5285 3.84247 48.5623 3.865C49.306 4.30443 49.7341 4.89033 49.7341 5.37482C49.7341 5.65651 49.5651 5.89312 49.3398 5.89312C49.1482 5.89312 49.0468 5.75791 49.0017 5.31849C48.9905 5.22835 48.9792 5.13821 48.9567 5.05934C48.6525 5.14948 48.3482 5.22835 48.044 5.29595V7.45928C48.044 8.68742 48.0778 9.80289 48.0778 10.1409C48.0778 10.3888 47.9201 10.5127 47.6159 10.5127C47.3567 10.5127 47.2666 10.4226 47.2666 10.2085C47.2666 10.0057 47.3229 9.28459 47.3229 7.89871ZM46.8271 2.40025C47.1539 2.64813 47.3116 2.92981 47.3116 3.22276C47.3116 3.50445 47.1426 3.71853 46.9286 3.71853C46.7257 3.71853 46.6807 3.67346 46.5455 3.23403C46.3652 2.73827 46.1736 2.37771 45.7342 1.97209C45.7004 1.93829 45.7568 1.87068 45.8018 1.88195C46.1286 1.99462 46.399 2.11856 46.6243 2.25377C46.8046 1.83688 46.9736 1.43126 47.1088 1.0031C47.2215 0.65381 47.3004 0.327057 47.3342 0.079175C48.2018 0.405928 48.4271 0.507334 48.4271 0.631275C48.4271 0.743948 48.337 0.811553 47.9989 0.82282C47.5032 1.57773 47.2553 1.91575 46.8271 2.40025ZM49.0693 8.43954C48.844 8.43954 48.7764 8.27053 48.7539 7.86491C48.7201 7.31281 48.5961 6.80578 48.3708 6.40015C48.3482 6.36635 48.4271 6.33255 48.4609 6.35508C49.1144 6.85085 49.475 7.40294 49.475 7.86491C49.475 8.23673 49.3172 8.43954 49.0693 8.43954ZM45.5652 9.61134C45.5201 9.66768 45.3962 9.61134 45.4187 9.54374C45.6441 9.01417 45.8582 8.248 45.9934 7.59449C46.0835 7.13253 46.1398 6.68184 46.1398 6.37762C47.03 6.64803 47.1764 6.70437 47.1764 6.83958C47.1764 6.91845 47.0863 6.98605 46.8271 7.04239C46.5004 8.10152 46.1736 8.84516 45.5652 9.61134ZM50.0158 6.24241H50.7594C51.0299 5.92692 51.0862 5.88185 51.1538 5.88185C51.2327 5.88185 51.289 5.92692 51.627 6.24241C51.8186 6.42269 51.8636 6.49029 51.8636 6.55789C51.8636 6.63677 51.7848 6.6931 51.5256 6.77197C50.9848 8.23673 50.1961 9.09305 48.7201 9.88176C48.6525 9.91556 48.5623 9.75782 48.6187 9.71275C49.7003 8.84516 50.4327 7.77477 50.7594 6.52409H50.0383C49.813 6.52409 49.6327 6.54663 49.3623 6.60296L49.2384 6.16354C49.5651 6.23114 49.7679 6.24241 50.0158 6.24241Z" fill="#FFF5F5"/>
<path d="M42.1963 5.81396H36.5288C36.4725 6.52381 36.3598 7.12097 36.1682 7.67307C35.7851 8.74347 35.2105 9.57726 34.2528 10.4336C34.2077 10.4786 34.0838 10.3772 34.1289 10.3209C34.8162 9.40824 35.2218 8.48432 35.4697 7.38012C35.6837 6.43367 35.7175 5.36327 35.7175 3.84218C35.7175 3.08727 35.695 2.80558 35.6499 2.29855C36.1119 2.4901 36.3034 2.59151 36.7429 2.82812H42.0949C42.4667 2.4225 42.523 2.37743 42.5906 2.37743C42.6808 2.37743 42.7484 2.4225 43.1427 2.76052C43.3117 2.89572 43.3568 2.96333 43.3568 3.03093C43.3568 3.13234 43.3005 3.21121 43.0526 3.36895V4.13513C43.0526 5.36327 43.0976 6.05058 43.0976 6.28719C43.0976 6.56888 42.9286 6.69282 42.5456 6.69282C42.2864 6.69282 42.1963 6.59141 42.1963 6.33226V5.81396ZM42.1963 5.53228V3.1098H36.5964V3.95485C36.5964 4.55202 36.5851 5.07032 36.5513 5.53228H42.1963ZM34.726 1.3183L34.6021 0.87887C34.9964 0.946474 35.233 0.969009 35.5711 0.969009H42.6132C43.1653 0.349305 43.2441 0.292969 43.3117 0.292969C43.3906 0.292969 43.4807 0.349305 44.0441 0.788731C44.3145 1.01408 44.3596 1.08168 44.3596 1.14929C44.3596 1.21689 44.3258 1.25069 44.2131 1.25069H35.5823C35.2669 1.25069 35.0528 1.27323 34.726 1.3183Z" fill="#FFF5F5"/>
<path d="M28.1455 2.26497H29.5878C29.5878 1.01429 29.5765 0.687538 29.5314 0.0791016C30.6131 0.203043 30.7596 0.248112 30.7596 0.417122C30.7596 0.529795 30.692 0.608667 30.3765 0.732608V2.26497H31.9426C32.2919 1.87061 32.3483 1.83681 32.4271 1.83681C32.506 1.83681 32.5623 1.87061 32.9229 2.17483C33.0806 2.3213 33.1144 2.38891 33.1144 2.46778C33.1144 2.55792 33.0581 2.63679 32.8102 2.78326V3.92126C32.8102 5.90432 32.8665 6.95218 32.8665 7.26766C32.8665 7.51554 32.7088 7.62822 32.3821 7.62822C32.1229 7.62822 32.0328 7.53808 32.0328 7.31273V7.01978H30.3877C30.399 8.81129 30.4215 9.71268 30.4215 10.0845C30.4215 10.3662 30.2751 10.5014 29.9258 10.5014C29.6328 10.5014 29.5314 10.4225 29.5314 10.1408C29.5314 9.80281 29.5539 8.96903 29.5765 7.01978H28.0441V7.23386C28.0441 7.49301 27.8977 7.59442 27.5934 7.59442C27.3343 7.59442 27.2216 7.50428 27.2216 7.31273C27.2216 6.92964 27.2779 6.26487 27.2779 4.14661C27.2779 3.00861 27.2667 2.42271 27.2216 1.78047C27.6047 1.97201 27.7737 2.05089 28.1455 2.26497ZM28.0441 6.7381H29.5765C29.5878 5.94938 29.5878 4.94659 29.5878 4.69871H28.0441V6.7381ZM30.3877 6.7381H32.0328V4.69871H30.3765C30.3765 5.37475 30.3765 6.06206 30.3877 6.7381ZM30.3765 2.54665V4.41703H32.0328V2.54665H30.3765ZM29.5878 2.54665H28.0441V4.41703H29.5878V2.54665ZM25.2724 4.86772V4.96913C26.2977 5.30715 26.9061 5.85925 26.9061 6.33247C26.9061 6.59162 26.7371 6.78317 26.5343 6.78317C26.3653 6.78317 26.2864 6.69303 26.1399 6.37754C25.8921 5.85925 25.678 5.50996 25.2724 5.19447V7.27893C25.2724 9.0141 25.3062 9.75774 25.3062 10.1183C25.3062 10.3774 25.1259 10.5014 24.8217 10.5014C24.5513 10.5014 24.4386 10.4 24.4386 10.1634C24.4386 9.96056 24.4836 9.22818 24.5062 7.14372C24.5062 6.63669 24.5175 6.14093 24.5287 5.62263C24.0104 6.07333 23.4471 6.46768 22.8161 6.79444C22.7485 6.82824 22.6471 6.69303 22.7147 6.64796C24.033 5.62263 25.1935 4.12408 25.8132 2.60299H23.8752C23.5597 2.60299 23.3344 2.61425 23.0752 2.68186L22.9626 2.24243C23.278 2.29877 23.5259 2.3213 23.8752 2.3213H24.5062V1.09316C24.5062 0.76641 24.4836 0.484726 24.4273 0.0791016C25.509 0.203043 25.678 0.293182 25.678 0.417122C25.678 0.518528 25.5766 0.608667 25.2836 0.732608V2.3213H25.7907C26.0836 2.00582 26.1399 1.96075 26.2076 1.96075C26.2864 1.96075 26.3428 2.00582 26.7146 2.36637C26.8836 2.54665 26.9287 2.61425 26.9287 2.69312C26.9287 2.79453 26.8273 2.85087 26.5343 2.92974C26.1963 3.63958 25.7794 4.29309 25.2724 4.86772Z" fill="#FFF5F5"/>
<path d="M13.8928 3.52668L13.8026 3.15485C13.3407 3.53794 12.8224 3.87596 12.259 4.15765C12.1914 4.19145 12.09 4.05624 12.1576 4.01117C13.1153 3.30133 14.0167 2.26473 14.5575 1.26194C14.7829 0.833783 14.9744 0.405624 15.0871 0C16.0899 0.304218 16.2476 0.394357 16.2476 0.518298C16.2476 0.642238 16.1462 0.687308 15.7857 0.754911C15.7068 0.912655 15.6167 1.05913 15.5265 1.20561H17.5659C17.9152 0.84505 17.9828 0.799981 18.0504 0.799981C18.1518 0.799981 18.2194 0.84505 18.6363 1.21687C18.8166 1.37461 18.8729 1.46475 18.8729 1.54363C18.8729 1.67883 18.8166 1.7239 18.3884 1.81404C17.8476 2.42248 17.5208 2.7605 17.0364 3.15485H19.4476C19.7968 2.77176 19.8532 2.7267 19.9208 2.7267C19.9997 2.7267 20.0673 2.77176 20.4391 3.07598C20.6194 3.22246 20.6532 3.2788 20.6532 3.35767C20.6532 3.42527 20.6306 3.47034 20.349 3.68442V4.4168C20.349 5.80268 20.394 6.46745 20.394 6.67026C20.394 6.92941 20.2363 7.05335 19.8645 7.05335C19.6166 7.05335 19.5377 6.95195 19.5377 6.74914V6.53506H14.2984C14.0054 6.53506 13.8026 6.54632 13.4871 6.60266L13.3745 6.1745C13.735 6.23084 13.9716 6.25337 14.2871 6.25337H19.5377V4.9689H14.5463C14.2533 4.9689 14.0505 4.99143 13.735 5.04777L13.6223 4.60834C13.9942 4.66468 14.2195 4.68721 14.535 4.68721H19.5377V3.43654H14.7491C14.4336 3.43654 14.2195 3.45907 13.8928 3.52668ZM17.5997 1.48729H15.335C14.9294 2.08446 14.4449 2.62529 13.8928 3.08725C14.2083 3.13232 14.4336 3.15485 14.7265 3.15485H16.7209C17.104 2.55769 17.2955 2.26474 17.5997 1.48729ZM21.2503 9.79132C21.0137 9.79132 20.9236 9.67864 20.7996 9.17161C20.6419 8.54064 20.3377 8.04488 19.9095 7.61672C19.8645 7.57165 19.9321 7.49278 19.9884 7.51531C21.025 7.88714 21.6898 8.59698 21.6898 9.20541C21.6898 9.5547 21.5095 9.79132 21.2503 9.79132ZM17.5321 8.60825C17.3518 8.60825 17.2842 8.54064 17.1152 8.18009C16.9349 7.77446 16.7885 7.56038 16.3152 7.15476C16.2814 7.12096 16.3152 7.05335 16.3603 7.06462C17.3744 7.22236 17.9603 7.60545 17.9603 8.12375C17.9603 8.4167 17.8025 8.60825 17.5321 8.60825ZM12.5182 9.79132C12.2477 9.79132 12.0449 9.59977 12.0449 9.32936C12.0449 9.10401 12.1576 8.9688 12.4505 8.82233C13.0477 8.54064 13.3519 8.11248 13.4308 7.42518C13.4421 7.36884 13.5547 7.38011 13.566 7.43644C13.5998 7.63925 13.6223 7.84207 13.6223 8.02234C13.6223 8.98007 13.1717 9.79132 12.5182 9.79132ZM15.4477 7.67306V9.0026C15.4477 9.39696 15.5829 9.47583 16.8223 9.47583C17.9941 9.47583 18.3772 9.44203 18.6363 9.26175C18.8842 9.09274 18.9856 8.79979 19.1997 8.05615C19.2109 7.99981 19.3236 8.03361 19.3236 8.08995C19.3011 8.36036 19.2786 8.68712 19.2786 8.92373C19.2786 9.12654 19.3011 9.14908 19.5152 9.22795C19.6166 9.27302 19.6729 9.39696 19.6729 9.5209C19.6729 9.73498 19.4814 9.90399 19.1321 10.0167C18.749 10.1293 18.0617 10.1857 16.5969 10.1857C14.8618 10.1857 14.6026 9.87019 14.6026 9.0364C14.6026 8.86739 14.6251 8.72092 14.6251 8.03361C14.6251 7.63925 14.6251 7.42518 14.5688 7.07589C15.5491 7.16603 15.8082 7.2449 15.8082 7.36884C15.8082 7.47024 15.7406 7.53785 15.4477 7.67306Z" fill="#FFF5F5"/>
<path d="M5.66738 3.76346H8.7997C9.17152 3.32404 9.23912 3.29024 9.30673 3.29024C9.37433 3.29024 9.44194 3.32404 9.87009 3.7184C10.0504 3.86487 10.0842 3.93248 10.0842 4.01135C10.0842 4.09022 10.0053 4.15782 9.73489 4.29303C9.40813 5.58877 8.92364 6.68171 8.23633 7.58309C9.09265 8.48448 10.0504 9.04785 11.0194 9.31826C11.0757 9.32953 11.0419 9.43094 10.9856 9.45347C10.6926 9.56614 10.625 9.61121 10.4447 10.0844C10.3997 10.2196 10.3546 10.2422 10.287 10.2422C10.2081 10.2422 10.0391 10.152 9.80249 10.0056C9.02504 9.52107 8.33774 8.86757 7.77437 8.13519C6.87298 9.12672 5.68991 9.84783 4.20262 10.3549C4.12375 10.3774 4.05615 10.2084 4.12375 10.1746C5.50963 9.4422 6.56876 8.57462 7.35748 7.52676C6.71524 6.46763 6.36595 5.26202 6.1406 4.04515H5.65611C5.58851 5.32962 5.43076 6.26481 5.20542 7.06479C4.84486 8.29293 4.13502 9.39713 2.92941 10.2985C2.86181 10.3436 2.73787 10.2309 2.79421 10.1746C3.65052 9.22812 4.24769 8.19153 4.54064 6.85072C4.78853 5.72398 4.87866 4.3719 4.87866 2.40012C4.87866 1.60014 4.8674 1.28465 4.79979 0.586075C5.23922 0.766353 5.4195 0.845224 5.82512 1.09311H9.12645C9.65601 0.495937 9.71235 0.462135 9.77995 0.462135C9.87009 0.462135 9.9377 0.495937 10.456 0.924096C10.7264 1.11564 10.7715 1.18324 10.7715 1.25085C10.7715 1.32972 10.7264 1.37479 10.6137 1.37479H5.70118V2.01703C5.70118 2.65927 5.68991 3.24517 5.66738 3.76346ZM8.8673 4.04515H6.36595C6.6589 5.09301 7.07579 6.10707 7.7293 6.98592C8.25886 6.12961 8.63069 5.14935 8.8673 4.04515ZM1.75761 1.09311V7.43662C1.75761 9.19432 1.78015 9.73515 1.78015 10.0281C1.78015 10.276 1.59987 10.3887 1.28438 10.3887C1.02523 10.3887 0.923828 10.2985 0.923828 10.0844C0.923828 9.36333 0.980165 7.44788 0.980165 3.47051C0.980165 1.64521 0.980165 0.94663 0.923828 0.394531C1.32945 0.552274 1.50973 0.619878 1.87028 0.811423H3.28997C3.58292 0.462135 3.65052 0.417066 3.71813 0.417066C3.81953 0.417066 3.88714 0.462135 4.21389 0.811423C4.3829 0.980433 4.42797 1.0593 4.42797 1.12691C4.42797 1.21705 4.33783 1.29592 4.10122 1.38606C3.66179 2.29871 3.15476 3.13249 2.51252 3.94374C3.49278 4.75499 3.94347 5.48737 3.94347 6.55776C3.94347 7.03099 3.84207 7.36901 3.62799 7.61689C3.43644 7.87604 3.09842 7.99998 2.77167 7.99998C2.60266 7.99998 2.56886 7.95491 2.54632 7.77464C2.48999 7.45915 2.41112 7.32394 1.85902 7.17747C1.80268 7.1662 1.81395 7.05353 1.87028 7.05353C2.25337 7.08733 2.59139 7.0986 2.78294 7.0986C2.91815 7.0986 3.01955 7.05353 3.07589 6.95212C3.16603 6.83945 3.19983 6.60283 3.19983 6.26481C3.19983 5.37469 2.95195 4.69865 2.27591 3.98881C2.7604 2.99729 3.12096 2.00576 3.3125 1.09311H1.75761Z" fill="#FFF5F5"/>
<path d="M67.3398 51.5443V52.1912C67.3398 52.4547 67.1841 52.6224 66.7888 52.6224C66.5014 52.6224 66.3936 52.4906 66.3936 52.287C66.3936 51.76 66.4654 50.8975 66.4654 47.6634C66.4654 45.9745 66.4534 45.1241 66.3936 44.3096C66.8607 44.4892 67.0643 44.5851 67.5075 44.8366H73.3289C73.7361 44.3934 73.796 44.3455 73.8679 44.3455C73.9517 44.3455 74.0236 44.3934 74.4668 44.7647C74.6584 44.9324 74.6944 45.0043 74.6944 45.0762C74.6944 45.172 74.6225 45.2558 74.359 45.4355V47.2322C74.359 50.2268 74.4189 51.6521 74.4189 52.0953C74.4189 52.3948 74.2632 52.5385 73.832 52.5385C73.5565 52.5385 73.4487 52.4187 73.4487 52.1912V51.5443H67.3398ZM73.4487 51.2449V45.1361H67.3398V51.2449H73.4487Z" fill="#FFF5F5"/>
<path d="M58.7279 45.9505H61.3032C61.6505 45.6031 61.7104 45.5552 61.7943 45.5552C61.8781 45.5552 61.974 45.5912 62.3213 45.9026C62.501 46.0583 62.525 46.1422 62.525 46.214C62.525 46.3098 62.489 46.3578 62.2255 46.5135V47.4118C62.2255 48.957 62.2734 49.6877 62.2734 49.9153C62.2734 50.1668 62.1057 50.2866 61.7464 50.2866C61.4709 50.2866 61.387 50.2027 61.387 49.9512V49.7356H58.8836C59.5304 50.586 60.3569 51.1969 61.3391 51.676C62.2375 52.1192 63.1957 52.3708 64.0821 52.4546C64.142 52.4546 64.13 52.5744 64.0701 52.5864C63.7587 52.6702 63.579 52.8259 63.4832 53.1374C63.4113 53.353 63.3275 53.4368 63.2436 53.4368C63.1478 53.4368 62.8963 53.365 62.6567 53.2571C61.9859 52.9697 61.2792 52.5624 60.6683 52.0953C59.9976 51.5802 59.3148 50.8496 58.68 49.8673C58.7279 51.3287 58.7878 53.1973 58.7878 53.5686C58.7878 53.8441 58.5842 53.9519 58.2128 53.9519C57.9134 53.9519 57.8176 53.8561 57.8176 53.6285C57.8176 53.2811 57.8655 51.7599 57.9134 50.3824C56.5 51.9875 55.0027 52.8379 52.8227 53.4967C52.7388 53.5207 52.6789 53.341 52.7508 53.3051C54.5595 52.4906 56.2125 51.2927 57.3265 49.7356H55.4219V49.9272C55.4219 50.1908 55.2782 50.3105 54.9189 50.3105C54.6553 50.3105 54.5475 50.2147 54.5475 49.9991C54.5475 49.6997 54.6194 49.2325 54.6194 47.4717C54.6194 46.5734 54.6194 46.0583 54.5356 45.4834C54.9668 45.6511 55.1464 45.7349 55.5417 45.9505H57.8774V44.6808H54.0325C53.721 44.6808 53.4695 44.7048 53.1341 44.7527L53.0143 44.2855C53.3976 44.3574 53.6851 44.3814 54.0325 44.3814H57.8774V44.2736C57.8774 43.4231 57.8535 43.1596 57.7936 42.8242C59.0034 42.9799 59.1112 43.0278 59.1112 43.1836C59.1112 43.2914 59.0393 43.3632 58.7279 43.495V44.3814H62.1297C62.6567 43.7705 62.7406 43.7106 62.8124 43.7106C62.8963 43.7106 62.9801 43.7705 63.5551 44.2257C63.8186 44.4293 63.8665 44.5012 63.8665 44.573C63.8665 44.6449 63.8306 44.6808 63.7108 44.6808H58.7279V45.9505ZM58.7279 47.9508V49.4361H61.387V47.9508H58.7279ZM57.8774 47.9508H55.4219V49.4361H57.8774V47.9508ZM58.7279 46.25V47.6514H61.387V46.25H58.7279ZM57.8774 46.25H55.4219V47.6514H57.8774V46.25Z" fill="#FFF5F5"/>
<path d="M73.678 28.8137H72.1559C72.3881 30.4261 72.7751 31.471 73.3813 32.3481C73.9876 33.2382 74.6842 33.8058 75.5614 34.3089C75.6001 34.3347 75.5743 34.425 75.5227 34.4379C75.1873 34.5152 75.0325 34.6829 74.8648 35.1344C74.8132 35.2634 74.7616 35.2892 74.6713 35.2892C74.6197 35.2892 74.5294 35.2247 74.3875 35.0957C73.7038 34.4765 73.2266 33.7413 72.788 32.8899C72.3752 31.9998 72.0269 30.7486 71.8592 28.8137H70.6338C70.5822 30.4777 70.4532 31.3549 70.221 32.2062C69.8469 33.5865 69.2148 34.6829 68.2474 35.5472C68.1958 35.5859 68.0797 35.4956 68.1184 35.444C68.7762 34.5023 69.1374 33.5349 69.3954 32.4126C69.6534 31.2517 69.7437 29.8069 69.7437 27.3947C69.7437 25.4469 69.7308 24.8406 69.6663 24.0667C70.1307 24.273 70.3371 24.3762 70.7757 24.6342H73.5877C73.9747 24.2214 74.0392 24.1827 74.1166 24.1827C74.2069 24.1827 74.2714 24.2214 74.6971 24.5826C74.8777 24.7503 74.9293 24.8148 74.9293 24.8922C74.9293 24.9954 74.8648 25.0857 74.5939 25.2663V26.5563C74.5939 28.2332 74.6455 28.904 74.6455 29.1491C74.6455 29.4586 74.4649 29.5747 74.065 29.5747C73.7941 29.5747 73.678 29.4844 73.678 29.2394V28.8137ZM73.678 28.4912V24.9567H70.6725V26.2983C70.6725 27.1496 70.6596 27.872 70.6467 28.4912H73.678ZM65.0354 30.5809V30.697C65.0354 30.9292 64.8677 31.0582 64.5323 31.0582C64.2614 31.0582 64.1582 30.9679 64.1582 30.7486C64.1582 30.439 64.2227 29.6134 64.2227 26.6982C64.2227 25.305 64.2098 24.9438 64.1453 24.0796C64.571 24.2472 64.7387 24.3375 65.1257 24.5697H67.7056C68.1442 24.028 68.2087 23.9893 68.286 23.9893C68.3892 23.9893 68.4537 24.028 68.9439 24.4665C69.1116 24.6213 69.1761 24.6987 69.1761 24.7761C69.1761 24.8535 69.1116 24.8922 68.9826 24.8922H67.0477V26.4531H67.6282C67.9507 25.9758 68.0539 25.9242 68.1184 25.9242C68.2087 25.9242 68.2861 25.9758 68.6859 26.3499C68.8149 26.4789 68.8794 26.5821 68.8794 26.6466C68.8794 26.724 68.8407 26.7755 68.7117 26.7755H67.0477V28.3106H67.5895C67.9507 27.8591 68.041 27.7946 68.1184 27.7946C68.1958 27.7946 68.2731 27.8591 68.673 28.2203C68.802 28.3364 68.8665 28.4396 68.8665 28.5041C68.8665 28.5944 68.8278 28.6331 68.6988 28.6331H67.0477V30.2584H67.783C68.1055 29.8585 68.1828 29.8069 68.2602 29.8069C68.3376 29.8069 68.415 29.8585 68.802 30.2068C68.9826 30.3745 69.0342 30.4519 69.0342 30.5293C69.0342 30.6067 68.9826 30.6712 68.6859 30.8518C68.5827 32.5287 68.4279 33.5736 68.1571 34.296C68.0281 34.6313 67.8604 34.9022 67.6411 35.0828C67.3831 35.2892 67.0864 35.3924 66.8026 35.3924C66.6478 35.3924 66.5833 35.3408 66.5446 35.1473C66.4801 34.7861 66.3898 34.7087 65.4998 34.4121C65.4353 34.3863 65.4482 34.2444 65.5127 34.2573C66.235 34.3476 66.5704 34.3734 66.8671 34.3734C67.1767 34.3734 67.3057 34.2315 67.4734 33.6252C67.6927 32.8254 67.783 31.9998 67.8733 30.5809H65.0354ZM65.0354 30.2584H66.235V28.6331H65.0354V30.2584ZM65.0354 28.3106H66.235V26.7755H65.0354V28.3106ZM65.0354 26.4531H66.235V24.8922H65.0354V26.4531ZM67.1767 32.5287C67.0348 32.5287 66.9832 32.4513 66.9058 32.232C66.7897 31.858 66.5833 31.5355 66.2866 31.2646C66.2479 31.2259 66.2995 31.1614 66.3511 31.1743C67.009 31.342 67.4476 31.7161 67.4476 32.103C67.4476 32.3481 67.3315 32.5287 67.1767 32.5287ZM63.668 34.1928C63.4487 34.1928 63.2939 33.9864 63.2939 33.7284C63.2939 33.5607 63.3455 33.4317 63.5132 33.2769C63.9002 32.9157 64.1324 32.4384 64.1711 31.7161C64.1711 31.6645 64.3001 31.6645 64.313 31.7161C64.3646 32.0256 64.3904 32.3094 64.3904 32.5803C64.3904 33.522 64.1066 34.1928 63.668 34.1928ZM65.1773 33.651C65.0225 33.651 64.8935 33.5994 64.9193 33.2511C64.9322 33.0576 64.9451 32.8254 64.9451 32.5932C64.9322 32.3352 64.8935 32.0256 64.8032 31.7161C64.7903 31.6645 64.8677 31.6258 64.9064 31.6645C65.3579 32.1546 65.5772 32.6448 65.5772 33.0834C65.5772 33.3801 65.3966 33.651 65.1773 33.651ZM66.235 33.1995C66.0802 33.1995 66.0415 33.1221 66.0028 32.7996C65.9383 32.3094 65.8222 31.9869 65.5643 31.5097C65.5385 31.4581 65.6159 31.4065 65.6545 31.4323C66.2608 31.8709 66.6091 32.3094 66.6091 32.6706C66.6091 32.9673 66.4285 33.1995 66.235 33.1995Z" fill="#FFF5F5"/>
<path d="M52.6191 36.4008V35.6305H58.2544V19.5762H59.0652V36.4008H52.6191Z" fill="#FFF5F5"/>
<path d="M34.9946 29.4956H38.577C38.8865 28.4784 39.1077 27.4391 39.2183 26.3776H36.4762V26.5324C36.4762 27.1074 36.2108 27.3285 35.5474 27.3285C35.0167 27.3285 34.8398 27.1516 34.8398 26.643C34.8398 26.2671 34.9061 25.6921 34.9061 23.4586C34.9061 22.353 34.9061 21.8223 34.8177 20.9598C35.6138 21.2915 35.9455 21.4684 36.7415 21.9107H44.3707C45.0562 21.181 45.1668 21.1146 45.2994 21.1146C45.4763 21.1146 45.6311 21.1588 46.3388 21.778C46.6705 22.0655 46.7368 22.1982 46.7368 22.3309C46.7368 22.5078 46.6262 22.6183 46.1398 22.95V23.7461C46.1398 25.471 46.2061 26.1786 46.2061 26.3997C46.2061 26.842 45.8744 27.0852 45.2552 27.0852C44.7245 27.0852 44.5476 26.9083 44.5476 26.3776H41.1642C40.6335 27.4612 40.0143 28.5226 39.3067 29.4956H46.0292C46.7147 28.7216 46.8253 28.6553 46.958 28.6553C47.1127 28.6553 47.2675 28.6774 48.0194 29.3629C48.3732 29.6725 48.4395 29.8052 48.4395 29.9379C48.4395 30.1369 48.329 30.2475 47.8204 30.5571V31.7512C47.8204 34.0068 47.9088 35.024 47.9088 35.3557C47.9088 35.8864 47.555 36.1296 46.9137 36.1296C46.3609 36.1296 46.184 35.9527 46.184 35.4441V34.9797H34.7956V35.4662C34.7956 36.0633 34.5523 36.3065 33.8668 36.3065C33.3361 36.3065 33.1149 36.0854 33.1149 35.621C33.1149 35.2009 33.2034 34.4932 33.2034 31.9723C33.2034 30.4465 33.2034 29.6283 33.0928 28.5447C33.911 28.8764 34.2648 29.0533 34.9946 29.4956ZM44.5476 25.8248V22.4635H36.4762V25.8248H44.5476ZM46.184 34.4269V30.0484H34.7956V34.4269H46.184ZM47.9309 19.5003H33.6014C33.6014 21.2694 32.7832 22.4857 31.766 22.4857C31.2353 22.4857 30.8594 22.1097 30.8594 21.579C30.8594 21.1589 31.0363 20.8935 31.4785 20.6502C32.5621 20.0311 33.0265 19.3234 33.1149 17.9524C33.1149 17.8197 33.4024 17.8197 33.4245 17.9524C33.513 18.3062 33.5572 18.6379 33.5793 18.9475H39.6384V17.5544C39.6384 17.1121 39.6384 16.7362 39.5278 15.918C41.8276 16.1612 42.093 16.3381 42.093 16.5814C42.093 16.7804 41.9161 16.9573 41.319 17.2227V18.9475H47.6877C48.329 18.1514 48.4838 18.063 48.6386 18.063C48.8155 18.063 48.9924 18.1957 49.9211 19.0581C50.4076 19.5003 50.4519 19.6551 50.4519 19.8099C50.4519 20.1195 50.2971 20.2301 49.5894 20.2301C49.3462 20.2301 49.2135 20.2964 49.0587 20.4512C48.5722 20.9819 48.1078 21.38 47.4002 21.8665C47.3118 21.9328 47.157 21.8223 47.2012 21.7117C47.4887 21.1146 47.7319 20.3185 47.9309 19.5003Z" fill="#FFF5F5"/>
<path d="M10.7142 19.4998L10.4709 18.6816C11.2891 18.8143 11.8641 18.8364 12.6159 18.8364H23.2304C24.3139 17.5317 24.6014 17.377 24.7341 17.377C24.8889 17.377 25.11 17.4875 26.2157 18.4163C26.7685 18.8807 26.857 19.0355 26.857 19.1681C26.857 19.3229 26.7906 19.3893 26.5695 19.3893H12.6159C11.9083 19.3893 11.4218 19.4335 10.7142 19.4998ZM11.842 26.3329L11.6208 25.5147C12.3727 25.6474 12.9255 25.6695 13.611 25.6695H21.8151C22.8545 24.409 23.1198 24.2542 23.2746 24.2542C23.4294 24.2542 23.6063 24.3427 24.712 25.2714C25.2206 25.6916 25.309 25.8685 25.309 26.0012C25.309 26.156 25.2427 26.2223 25.0216 26.2223H13.6332C13.014 26.2223 12.5275 26.2666 11.842 26.3329ZM8.96723 34.0284L8.74609 33.2102C9.52006 33.3428 10.1614 33.365 10.9132 33.365H24.513C25.685 31.9939 25.9503 31.8391 26.083 31.8391C26.2378 31.8391 26.4368 31.9718 27.631 32.9227C28.228 33.3871 28.3165 33.564 28.3165 33.6967C28.3165 33.8515 28.2501 33.9178 28.029 33.9178H10.9132C10.2056 33.9178 9.65274 33.962 8.96723 34.0284Z" fill="#FFF5F5"/>
<path d="M6.44606 17.2246V17.9949H0.810826V34.0492H0V17.2246H6.44606Z" fill="#FFF5F5"/>
</svg>
