<svg width="105" height="41" viewBox="0 0 105 41" fill="none" xmlns="http://www.w3.org/2000/svg">
<path d="M80.486 6.17511C80.395 6.24011 80.265 6.29211 80.083 6.29211C79.823 6.29211 79.511 6.00611 79.173 5.53811C79.004 5.30411 78.874 5.05711 78.874 4.86211C78.874 4.69311 78.9 4.53711 78.991 4.53711C79.056 4.53711 79.108 4.60211 79.199 4.69311C79.654 5.13511 79.836 5.22611 80.135 5.22611C80.408 5.22611 80.902 5.20011 81.786 5.14811C83.554 5.04411 85.309 4.97911 86.414 4.94011C86.856 4.92711 87.064 4.86211 87.207 4.78411C87.311 4.73211 87.467 4.69311 87.61 4.69311C87.74 4.69311 87.922 4.73211 88.143 4.81011C88.754 5.04411 88.832 5.18711 88.832 5.42111C88.832 5.68111 88.663 5.81111 88.377 5.81111C87.883 5.81111 87.181 5.75911 86.544 5.75911C85.387 5.75911 83.086 5.83711 81.383 5.98011C80.967 6.01911 80.616 6.09711 80.486 6.17511Z" fill="#FFF5F5"/>
<path d="M70.8921 3.74377C70.9051 3.19777 70.9181 2.66477 70.9181 2.37877C70.9181 2.06677 70.9311 1.75477 70.9051 1.35177C70.8921 1.13077 70.8271 0.961765 70.7231 0.896765C70.5541 0.792765 70.2681 0.740766 70.0341 0.714766C69.9561 0.701766 69.9041 0.675765 69.9041 0.610765C69.9041 0.571765 69.9951 0.467765 70.0861 0.415765C70.2681 0.298765 70.3721 0.259766 70.5931 0.259766C70.8401 0.259766 71.2561 0.363765 71.6461 0.545765C71.9971 0.701765 72.1661 0.883765 72.1661 1.06577C72.1661 1.22177 72.1141 1.28677 71.9971 1.40377C71.8671 1.53377 71.8801 1.61177 71.8671 1.85877C71.8541 2.33977 71.8281 3.00277 71.8151 3.67877C72.5821 3.62677 73.2451 3.56177 73.9731 3.50977C74.1681 3.49677 74.3241 3.44477 74.4021 3.39277C74.4671 3.35377 74.6101 3.30177 74.7401 3.30177C75.0131 3.30177 75.4421 3.43177 75.7671 3.58777C75.9621 3.67877 76.1181 3.83477 76.1181 4.01677C76.1181 4.23777 75.9751 4.36777 75.7411 4.36777C75.5071 4.36777 75.2991 4.32877 75.0521 4.30277C74.6881 4.25077 74.1551 4.25077 73.7521 4.25077C73.1671 4.25077 72.5691 4.26377 71.7761 4.31577C71.6721 5.65477 71.4771 6.59077 70.9701 7.57877C70.3331 8.86577 69.1371 9.97077 67.6811 10.5688C67.4601 10.6598 67.3951 10.6728 67.3171 10.6728C67.2261 10.6728 67.1611 10.6078 67.1611 10.5298C67.1611 10.4388 67.2131 10.3868 67.3431 10.3088C68.6301 9.51577 69.6181 8.47577 70.1511 7.35777C70.5801 6.47377 70.8141 5.48577 70.8791 4.34177C69.8521 4.43277 69.1501 4.52377 68.3701 4.64077C67.9931 4.70577 67.5511 4.80977 67.4211 4.90077C67.2911 4.99177 67.1611 5.03077 66.9921 5.03077C66.7581 5.03077 66.5111 4.84877 66.1341 4.47177C65.9261 4.26377 65.7441 4.00377 65.7441 3.79577C65.7441 3.63977 65.7961 3.53577 65.8481 3.53577C65.9001 3.53577 65.9521 3.58777 66.0691 3.67877C66.3811 3.92577 66.5501 4.08177 67.0051 4.08177C67.2261 4.08177 67.5511 4.06877 67.7981 4.04277C68.7991 3.93877 69.6311 3.86077 70.8921 3.74377Z" fill="#FFF5F5"/>
<path d="M59.1139 5.09643V7.04643C59.1139 8.00843 59.1399 9.23043 59.1399 10.1274C59.1399 10.4134 58.9969 10.6344 58.7759 10.6344C58.5419 10.6344 58.3859 10.4654 58.2559 10.2704C58.1259 10.0494 58.0609 9.77643 58.0609 9.55543C58.0609 9.41243 58.0999 9.29543 58.1259 9.23043C58.1909 9.04843 58.2299 8.65843 58.2299 8.38543C58.2429 7.29343 58.2559 6.12343 58.2559 4.75843C58.2559 4.36843 58.2299 4.22543 58.1129 4.08243C56.6829 5.59043 55.0319 6.91643 53.6929 7.68343C53.5629 7.76143 53.4589 7.80043 53.3809 7.80043C53.2769 7.80043 53.2119 7.72243 53.2119 7.60543C53.2119 7.52743 53.2769 7.46243 53.4199 7.35843C54.6679 6.44843 56.1759 5.01843 57.2549 3.82243C58.1129 2.84743 58.8539 1.92443 59.2179 1.33943C59.3479 1.13143 59.3869 1.02743 59.3869 0.91043C59.3869 0.806431 59.2829 0.65043 58.9969 0.48143C58.8279 0.37743 58.7369 0.32543 58.7369 0.24743C58.7369 0.14343 58.9709 0.0654297 59.1659 0.0654297C59.4389 0.0654297 59.9849 0.29943 60.3099 0.52043C60.6869 0.78043 60.8169 0.91043 60.8169 1.14443C60.8169 1.33943 60.6999 1.43043 60.5179 1.52143C60.3749 1.58643 60.2839 1.63843 60.1409 1.82043C59.5949 2.48343 59.0879 3.08143 58.4639 3.71843C59.0619 4.16043 59.2049 4.32943 59.2049 4.55043C59.2049 4.62843 59.2049 4.70643 59.1529 4.78443C59.1269 4.83643 59.1139 4.95343 59.1139 5.09643Z" fill="#FFF5F5"/>
<path d="M47.1535 0.519531C47.5565 0.519531 47.9595 0.688532 47.9595 0.987532C47.9595 1.19553 47.8815 1.29953 47.7125 1.35153C47.4395 1.42953 47.1665 1.45553 46.8935 1.49453C46.1395 1.59853 44.9435 1.72853 44.0595 1.81953C43.7865 1.84553 43.4615 1.87153 43.2925 1.87153C42.9285 1.87153 42.6425 1.68953 42.3565 1.37753C42.1745 1.19553 42.0315 0.909531 42.0315 0.753531C42.0315 0.688532 42.0705 0.649531 42.1225 0.649531C42.1745 0.649531 42.2265 0.675531 42.3175 0.753531C42.7205 1.07853 42.9675 1.14353 43.4355 1.14353C43.6695 1.14353 43.8645 1.11753 44.2935 1.07853C44.9175 1.00053 45.7755 0.870532 46.3735 0.714531C46.5425 0.675531 46.6595 0.623532 46.7635 0.584531C46.8935 0.545531 47.0365 0.519531 47.1535 0.519531ZM41.9405 10.6985C41.8625 10.6985 41.7845 10.6595 41.7845 10.5165C41.7845 10.4385 41.8365 10.3605 41.9145 10.3215C43.2795 9.50253 44.4625 8.38453 45.5675 7.05853C46.3865 6.08353 47.0365 5.04353 47.4915 4.00353C47.5305 3.91253 47.5695 3.80853 47.5695 3.78253C47.5695 3.74353 47.5435 3.73053 47.4915 3.73053C47.4395 3.73053 47.3095 3.74353 47.2055 3.75653C45.7755 3.88653 44.4755 4.06853 43.3575 4.23753C42.9805 4.30253 42.6815 4.36753 42.5515 4.44553C42.4215 4.52353 42.3435 4.56253 42.1875 4.56253C41.9665 4.56253 41.6545 4.34153 41.4075 4.08153C41.1215 3.79553 40.9785 3.53553 40.9785 3.36653C40.9785 3.18453 41.0305 3.08053 41.1085 3.08053C41.1345 3.08053 41.1865 3.13253 41.2645 3.21053C41.6415 3.53553 41.8755 3.63953 42.2395 3.63953C42.5775 3.63953 42.8635 3.60053 43.2015 3.56153C44.2805 3.45753 45.9185 3.27553 47.2055 3.11953C47.3355 3.10653 47.4785 3.04153 47.5825 2.96353C47.6605 2.89853 47.7645 2.82053 47.8815 2.82053C48.0895 2.82053 48.2585 2.96353 48.6615 3.30153C48.8955 3.49653 49.0125 3.65253 49.0125 3.80853C49.0125 3.95153 48.9085 4.02953 48.7395 4.09453C48.5835 4.15953 48.4665 4.28953 48.3495 4.51053C47.7515 5.66753 47.0625 6.73353 46.1395 7.70853C45.0865 8.82653 43.7735 9.93153 42.1875 10.6335C42.0965 10.6725 41.9925 10.6985 41.9405 10.6985Z" fill="#FFF5F5"/>
<path d="M31.5411 4.66652V6.82452C31.5411 7.57852 31.5801 9.13852 31.5801 9.97052C31.5801 10.3605 31.4111 10.4905 31.2161 10.4905C31.0601 10.4905 30.9301 10.4385 30.8001 10.2305C30.6441 9.99652 30.5141 9.52852 30.5141 9.26852C30.5141 9.15152 30.5791 9.02152 30.6051 8.91752C30.6181 8.85252 30.6571 8.70952 30.6701 8.30652C30.6961 7.60452 30.7091 7.04552 30.7221 5.82352C30.7351 4.56252 30.7351 3.36652 30.7351 2.17052C30.7351 1.74152 30.7221 1.35152 30.6701 1.16952C30.6311 1.06552 30.5531 0.974523 30.4101 0.896523C30.2151 0.792523 30.0591 0.740524 29.9161 0.701524C29.8251 0.675523 29.7861 0.636524 29.7861 0.584524C29.7861 0.532524 29.8511 0.480524 29.9161 0.441524C30.0201 0.376523 30.2021 0.311523 30.3191 0.311523C30.6181 0.311523 30.9431 0.415524 31.3721 0.623524C31.6841 0.779524 31.8921 0.987524 31.8921 1.22152C31.8921 1.36452 31.8271 1.48152 31.7101 1.62452C31.6451 1.71552 31.6061 1.80652 31.5931 2.07952C31.5671 2.57352 31.5411 3.32752 31.5411 4.26352C32.1911 4.31552 33.0231 4.48452 33.6991 4.75752C34.6091 5.13452 34.9731 5.56352 34.9731 6.01852C34.9731 6.36952 34.7651 6.56452 34.5571 6.56452C34.3361 6.57752 34.1931 6.48652 33.9071 6.16152C33.6341 5.84952 33.2701 5.56352 32.8931 5.30352C32.4511 5.01752 31.9701 4.79652 31.5411 4.66652Z" fill="#FFF5F5"/>
<path d="M15.486 6.17511C15.395 6.24011 15.265 6.29211 15.083 6.29211C14.823 6.29211 14.511 6.00611 14.173 5.53811C14.004 5.30411 13.874 5.05711 13.874 4.86211C13.874 4.69311 13.9 4.53711 13.991 4.53711C14.056 4.53711 14.108 4.60211 14.199 4.69311C14.654 5.13511 14.836 5.22611 15.135 5.22611C15.408 5.22611 15.902 5.20011 16.786 5.14811C18.554 5.04411 20.309 4.97911 21.414 4.94011C21.856 4.92711 22.064 4.86211 22.207 4.78411C22.311 4.73211 22.467 4.69311 22.61 4.69311C22.74 4.69311 22.922 4.73211 23.143 4.81011C23.754 5.04411 23.832 5.18711 23.832 5.42111C23.832 5.68111 23.663 5.81111 23.377 5.81111C22.883 5.81111 22.181 5.75911 21.544 5.75911C20.387 5.75911 18.086 5.83711 16.383 5.98011C15.967 6.01911 15.616 6.09711 15.486 6.17511Z" fill="#FFF5F5"/>
<path d="M7.99778 5.525C8.06278 5.525 8.14078 5.551 8.23178 5.59C8.76478 5.785 9.34978 6.136 9.72678 6.448C10.1688 6.812 10.4678 7.254 10.4678 7.631C10.4678 8.047 10.2728 8.268 9.89578 8.268C9.64878 8.268 9.49278 8.138 9.34978 7.735C9.11578 7.046 8.60878 6.409 7.97178 5.863C7.88078 5.785 7.84178 5.707 7.84178 5.655C7.84178 5.577 7.91978 5.525 7.99778 5.525ZM6.32078 3.666C7.11378 3.601 7.88078 3.536 8.38778 3.497C8.72578 3.471 8.90778 3.432 9.11578 3.289C9.19378 3.237 9.32378 3.185 9.45378 3.185C9.66178 3.185 10.1558 3.276 10.5068 3.484C10.7278 3.614 10.8318 3.718 10.8318 3.952C10.8318 4.134 10.6758 4.264 10.4808 4.264C10.3118 4.264 10.0908 4.212 9.86978 4.199C9.66178 4.173 9.19378 4.134 8.88178 4.147C8.36178 4.147 7.45178 4.173 6.32078 4.238C6.33378 5.486 6.32078 6.526 6.34678 7.449C6.37278 8.281 6.41178 8.671 6.41178 8.983C6.41178 9.243 6.33378 9.555 6.21678 9.737C5.98278 10.088 5.77478 10.27 5.56678 10.27C5.39778 10.27 5.30678 10.205 5.24178 9.906C5.18978 9.659 5.07278 9.555 4.90378 9.464C4.61778 9.308 4.21478 9.113 3.90278 8.983C3.74678 8.905 3.72078 8.853 3.72078 8.775C3.72078 8.71 3.77278 8.645 3.85078 8.645C3.92878 8.645 4.03278 8.658 4.12378 8.671C4.51378 8.736 5.15078 8.814 5.30678 8.814C5.48878 8.814 5.52778 8.775 5.52778 8.58C5.54078 8.06 5.54078 7.462 5.54078 6.643C5.54078 5.902 5.54078 5.083 5.54078 4.303C4.70878 4.394 3.92878 4.485 3.04478 4.628C2.81078 4.667 2.56378 4.706 2.44678 4.771C2.29078 4.862 2.22578 4.94 2.04378 4.94C1.79678 4.94 1.54978 4.797 1.23778 4.407C0.990781 4.082 0.925781 3.939 0.925781 3.744C0.925781 3.666 0.964781 3.497 1.02978 3.497C1.09478 3.497 1.18578 3.614 1.30278 3.718C1.57578 3.965 1.73178 4.043 2.03078 4.043C2.26478 4.043 2.57678 4.03 2.78478 4.004C3.51278 3.926 4.46178 3.835 5.52778 3.744C5.52778 3.159 5.52778 2.457 5.51478 2.028C5.51478 1.859 5.51478 1.729 5.46278 1.638C5.39778 1.534 5.29378 1.495 5.13778 1.456C4.99478 1.43 4.86478 1.417 4.76078 1.404C4.68278 1.391 4.63078 1.365 4.63078 1.3C4.63078 1.222 4.69578 1.131 4.85178 1.053C5.04678 0.936 5.25478 0.871 5.44978 0.871C5.67078 0.871 6.07378 0.988 6.37278 1.196C6.61978 1.365 6.71078 1.456 6.71078 1.651C6.71078 1.794 6.59378 1.885 6.50278 1.976C6.39878 2.08 6.37278 2.171 6.35978 2.47C6.34678 2.782 6.33378 3.172 6.32078 3.666ZM3.27878 5.616C3.36978 5.616 3.43478 5.707 3.43478 5.863C3.43478 6.097 3.42178 6.435 3.35678 6.721C3.26578 7.163 3.08378 7.605 2.82378 7.93C2.47278 8.359 2.14778 8.541 1.87478 8.541C1.53678 8.541 1.38078 8.32 1.38078 8.086C1.38078 7.826 1.48478 7.644 1.86178 7.436C2.18678 7.254 2.44678 7.02 2.64178 6.773C2.86278 6.487 3.01878 6.11 3.09678 5.811C3.13578 5.655 3.20078 5.616 3.27878 5.616ZM10.2078 0C10.8578 0 11.3908 0.533 11.3908 1.183C11.3908 1.833 10.8578 2.366 10.2078 2.366C9.55778 2.366 9.02478 1.833 9.02478 1.183C9.02478 0.533 9.55778 0 10.2078 0ZM10.2078 0.416C9.77878 0.416 9.44078 0.754 9.44078 1.183C9.44078 1.612 9.77878 1.95 10.2078 1.95C10.6368 1.95 10.9748 1.612 10.9748 1.183C10.9748 0.754 10.6368 0.416 10.2078 0.416Z" fill="#FFF5F5"/>
<path d="M102.81 32.0563H101.158C101.41 33.8063 101.83 34.9403 102.488 35.8923C103.146 36.8583 103.902 37.4743 104.854 38.0203C104.896 38.0483 104.868 38.1463 104.812 38.1603C104.448 38.2443 104.28 38.4263 104.098 38.9163C104.042 39.0563 103.986 39.0843 103.888 39.0843C103.832 39.0843 103.734 39.0143 103.58 38.8743C102.838 38.2023 102.32 37.4043 101.844 36.4803C101.396 35.5143 101.018 34.1563 100.836 32.0563H99.506C99.45 33.8623 99.31 34.8143 99.058 35.7383C98.652 37.2363 97.966 38.4263 96.916 39.3643C96.86 39.4063 96.734 39.3083 96.776 39.2523C97.49 38.2303 97.882 37.1803 98.162 35.9623C98.442 34.7023 98.54 33.1343 98.54 30.5163C98.54 28.4023 98.526 27.7443 98.456 26.9043C98.96 27.1283 99.184 27.2403 99.66 27.5203H102.712C103.132 27.0723 103.202 27.0303 103.286 27.0303C103.384 27.0303 103.454 27.0723 103.916 27.4643C104.112 27.6463 104.168 27.7163 104.168 27.8003C104.168 27.9123 104.098 28.0103 103.804 28.2063V29.6063C103.804 31.4263 103.86 32.1543 103.86 32.4203C103.86 32.7563 103.664 32.8823 103.23 32.8823C102.936 32.8823 102.81 32.7843 102.81 32.5183V32.0563ZM102.81 31.7063V27.8703H99.548V29.3263C99.548 30.2503 99.534 31.0343 99.52 31.7063H102.81ZM93.43 33.9743V34.1003C93.43 34.3523 93.248 34.4923 92.884 34.4923C92.59 34.4923 92.478 34.3943 92.478 34.1563C92.478 33.8203 92.548 32.9243 92.548 29.7603C92.548 28.2483 92.534 27.8563 92.464 26.9183C92.926 27.1003 93.108 27.1983 93.528 27.4503H96.328C96.804 26.8623 96.874 26.8203 96.958 26.8203C97.07 26.8203 97.14 26.8623 97.672 27.3383C97.854 27.5063 97.924 27.5903 97.924 27.6743C97.924 27.7583 97.854 27.8003 97.714 27.8003H95.614V29.4943H96.244C96.594 28.9763 96.706 28.9203 96.776 28.9203C96.874 28.9203 96.958 28.9763 97.392 29.3823C97.532 29.5223 97.602 29.6343 97.602 29.7043C97.602 29.7883 97.56 29.8443 97.42 29.8443H95.614V31.5103H96.202C96.594 31.0203 96.692 30.9503 96.776 30.9503C96.86 30.9503 96.944 31.0203 97.378 31.4123C97.518 31.5383 97.588 31.6503 97.588 31.7203C97.588 31.8183 97.546 31.8603 97.406 31.8603H95.614V33.6243H96.412C96.762 33.1903 96.846 33.1343 96.93 33.1343C97.014 33.1343 97.098 33.1903 97.518 33.5683C97.714 33.7503 97.77 33.8343 97.77 33.9183C97.77 34.0023 97.714 34.0723 97.392 34.2683C97.28 36.0883 97.112 37.2223 96.818 38.0063C96.678 38.3703 96.496 38.6643 96.258 38.8603C95.978 39.0843 95.656 39.1963 95.348 39.1963C95.18 39.1963 95.11 39.1403 95.068 38.9303C94.998 38.5383 94.9 38.4543 93.934 38.1323C93.864 38.1043 93.878 37.9503 93.948 37.9643C94.732 38.0623 95.096 38.0903 95.418 38.0903C95.754 38.0903 95.894 37.9363 96.076 37.2783C96.314 36.4103 96.412 35.5143 96.51 33.9743H93.43ZM93.43 33.6243H94.732V31.8603H93.43V33.6243ZM93.43 31.5103H94.732V29.8443H93.43V31.5103ZM93.43 29.4943H94.732V27.8003H93.43V29.4943ZM95.754 36.0883C95.6 36.0883 95.544 36.0043 95.46 35.7663C95.334 35.3603 95.11 35.0103 94.788 34.7163C94.746 34.6743 94.802 34.6043 94.858 34.6183C95.572 34.8003 96.048 35.2063 96.048 35.6263C96.048 35.8923 95.922 36.0883 95.754 36.0883ZM91.946 37.8943C91.708 37.8943 91.54 37.6703 91.54 37.3903C91.54 37.2083 91.596 37.0683 91.778 36.9003C92.198 36.5083 92.45 35.9903 92.492 35.2063C92.492 35.1503 92.632 35.1503 92.646 35.2063C92.702 35.5423 92.73 35.8503 92.73 36.1443C92.73 37.1663 92.422 37.8943 91.946 37.8943ZM93.584 37.3063C93.416 37.3063 93.276 37.2503 93.304 36.8723C93.318 36.6623 93.332 36.4103 93.332 36.1583C93.318 35.8783 93.276 35.5423 93.178 35.2063C93.164 35.1503 93.248 35.1083 93.29 35.1503C93.78 35.6823 94.018 36.2143 94.018 36.6903C94.018 37.0123 93.822 37.3063 93.584 37.3063ZM94.732 36.8163C94.564 36.8163 94.522 36.7323 94.48 36.3823C94.41 35.8503 94.284 35.5003 94.004 34.9823C93.976 34.9263 94.06 34.8703 94.102 34.8983C94.76 35.3743 95.138 35.8503 95.138 36.2423C95.138 36.5643 94.942 36.8163 94.732 36.8163Z" fill="#FFF5F5"/>
<path d="M78.5225 40.383V39.509H84.9165V21.293H85.8365V40.383H78.5225Z" fill="#FFF5F5"/>
<path d="M60.0989 33.0234H63.8249C64.1469 31.9654 64.3769 30.8844 64.4919 29.7804H61.6399V29.9414C61.6399 30.5394 61.3639 30.7694 60.6739 30.7694C60.1219 30.7694 59.9379 30.5854 59.9379 30.0564C59.9379 29.6654 60.0069 29.0674 60.0069 26.7444C60.0069 25.5944 60.0069 25.0424 59.9149 24.1454C60.7429 24.4904 61.0879 24.6744 61.9159 25.1344H69.8509C70.5639 24.3754 70.6789 24.3064 70.8169 24.3064C71.0009 24.3064 71.1619 24.3524 71.8979 24.9964C72.2429 25.2954 72.3119 25.4334 72.3119 25.5714C72.3119 25.7554 72.1969 25.8704 71.6909 26.2154V27.0434C71.6909 28.8374 71.7599 29.5734 71.7599 29.8034C71.7599 30.2634 71.4149 30.5164 70.7709 30.5164C70.2189 30.5164 70.0349 30.3324 70.0349 29.7804H66.5159C65.9639 30.9074 65.3199 32.0114 64.5839 33.0234H71.5759C72.2889 32.2184 72.4039 32.1494 72.5419 32.1494C72.7029 32.1494 72.8639 32.1724 73.6459 32.8854C74.0139 33.2074 74.0829 33.3454 74.0829 33.4834C74.0829 33.6904 73.9679 33.8054 73.4389 34.1274V35.3694C73.4389 37.7154 73.5309 38.7734 73.5309 39.1184C73.5309 39.6704 73.1629 39.9234 72.4959 39.9234C71.9209 39.9234 71.7369 39.7394 71.7369 39.2104V38.7274H59.8919V39.2334C59.8919 39.8544 59.6389 40.1074 58.9259 40.1074C58.3739 40.1074 58.1439 39.8774 58.1439 39.3944C58.1439 38.9574 58.2359 38.2214 58.2359 35.5994C58.2359 34.0124 58.2359 33.1614 58.1209 32.0344C58.9719 32.3794 59.3399 32.5634 60.0989 33.0234ZM70.0349 29.2054V25.7094H61.6399V29.2054H70.0349ZM71.7369 38.1524V33.5984H59.8919V38.1524H71.7369ZM73.5539 22.6274H58.6499C58.6499 24.4674 57.7989 25.7324 56.7409 25.7324C56.1889 25.7324 55.7979 25.3414 55.7979 24.7894C55.7979 24.3524 55.9819 24.0764 56.4419 23.8234C57.5689 23.1794 58.0519 22.4434 58.1439 21.0174C58.1439 20.8794 58.4429 20.8794 58.4659 21.0174C58.5579 21.3854 58.6039 21.7304 58.6269 22.0524H64.9289V20.6034C64.9289 20.1434 64.9289 19.7524 64.8139 18.9014C67.2059 19.1544 67.4819 19.3384 67.4819 19.5914C67.4819 19.7984 67.2979 19.9824 66.6769 20.2584V22.0524H73.3009C73.9679 21.2244 74.1289 21.1324 74.2899 21.1324C74.4739 21.1324 74.6579 21.2704 75.6239 22.1674C76.1299 22.6274 76.1759 22.7884 76.1759 22.9494C76.1759 23.2714 76.0149 23.3864 75.2789 23.3864C75.0259 23.3864 74.8879 23.4554 74.7269 23.6164C74.2209 24.1684 73.7379 24.5824 73.0019 25.0884C72.9099 25.1574 72.7489 25.0424 72.7949 24.9274C73.0939 24.3064 73.3469 23.4784 73.5539 22.6274Z" fill="#FFF5F5"/>
<path d="M45.0568 21.7529C45.5398 21.7529 46.3908 22.0749 46.8968 22.3969C47.9088 23.0409 48.2538 23.4089 48.2538 23.9149C48.2538 24.2369 48.0468 24.4669 47.7708 24.6049C47.4488 24.7659 47.2878 25.0419 47.0348 25.5479C45.8158 28.1239 44.5968 30.0789 43.0328 32.0339C40.8018 34.8399 38.3868 36.8179 35.9948 38.0369C35.7418 38.1519 35.6498 38.1749 35.5348 38.1749C35.3738 38.1749 35.2588 38.0139 35.2588 37.8529C35.2588 37.6689 35.3968 37.5769 35.6268 37.4159C38.2028 35.5069 40.1808 33.4599 42.0668 30.8379C43.2858 29.1589 44.4588 27.0199 45.4248 24.7199C45.6088 24.3059 45.7238 23.8919 45.7238 23.5239C45.7238 23.2249 45.6318 23.0409 45.2178 22.7879C44.9418 22.6039 44.6658 22.4889 44.4358 22.3969C44.2978 22.3509 44.2288 22.2819 44.2288 22.1669C44.2288 21.9599 44.8268 21.7529 45.0568 21.7529Z" fill="#FFF5F5"/>
<path d="M11.8449 22.6269L11.5919 21.7759C12.4429 21.9139 13.0409 21.9369 13.8229 21.9369H24.8629C25.9899 20.5799 26.2889 20.4189 26.4269 20.4189C26.5879 20.4189 26.8179 20.5339 27.9679 21.4999C28.5429 21.9829 28.6349 22.1439 28.6349 22.2819C28.6349 22.4429 28.5659 22.5119 28.3359 22.5119H13.8229C13.0869 22.5119 12.5809 22.5579 11.8449 22.6269ZM13.0179 29.7339L12.7879 28.8829C13.5699 29.0209 14.1449 29.0439 14.8579 29.0439H23.3909C24.4719 27.7329 24.7479 27.5719 24.9089 27.5719C25.0699 27.5719 25.2539 27.6639 26.4039 28.6299C26.9329 29.0669 27.0249 29.2509 27.0249 29.3889C27.0249 29.5499 26.9559 29.6189 26.7259 29.6189H14.8809C14.2369 29.6189 13.7309 29.6649 13.0179 29.7339ZM10.0279 37.7379L9.79785 36.8869C10.6029 37.0249 11.2699 37.0479 12.0519 37.0479H26.1969C27.4159 35.6219 27.6919 35.4609 27.8299 35.4609C27.9909 35.4609 28.1979 35.5989 29.4399 36.5879C30.0609 37.0709 30.1529 37.2549 30.1529 37.3929C30.1529 37.5539 30.0839 37.6229 29.8539 37.6229H12.0519C11.3159 37.6229 10.7409 37.6689 10.0279 37.7379Z" fill="#FFF5F5"/>
<path d="M7.314 18.625V19.499H0.920001V37.715H0V18.625H7.314Z" fill="#FFF5F5"/>
</svg>
