<svg width="98" height="38" viewBox="0 0 98 38" fill="none" xmlns="http://www.w3.org/2000/svg">
<path d="M92.0635 16.9622V16.347H96.564V3.52539H97.2116V16.9622H92.0635Z" fill="#FFF5F5"/>
<path d="M85.1014 0.035779C86.6041 1.18073 87.7312 2.48669 88.5362 3.97156C89.3413 5.47431 89.6991 7.03073 89.6991 8.64082C89.6991 10.2509 89.3413 11.8073 88.5362 13.3101C87.7312 14.7949 86.6041 16.1009 85.1014 17.2459C85.0477 17.2816 84.9761 17.2995 84.9225 17.2995C84.8688 17.2995 84.833 17.2459 84.833 17.1922C84.833 17.1385 84.8688 17.0848 84.9046 17.0491C87.3197 14.5982 88.4468 11.8252 88.4468 8.64082C88.4468 5.45642 87.3197 2.68348 84.9046 0.232569C84.8688 0.196788 84.8509 0.143118 84.8509 0.0894494C84.8509 0.0357794 84.8867 0 84.9403 0C84.994 0 85.0656 0.0178893 85.1014 0.035779Z" fill="#FFF5F5"/>
<path d="M70.9147 11.3955H73.8129C74.0634 10.5726 74.2423 9.73177 74.3317 8.87305H72.1134V8.99828C72.1134 9.46342 71.8987 9.64232 71.362 9.64232C70.9326 9.64232 70.7895 9.4992 70.7895 9.08773C70.7895 8.7836 70.8432 8.31846 70.8432 6.51159C70.8432 5.61709 70.8432 5.18773 70.7716 4.49003C71.4157 4.75838 71.684 4.90149 72.328 5.25929H78.5001C79.0546 4.66893 79.1441 4.61526 79.2514 4.61526C79.3946 4.61526 79.5198 4.65104 80.0923 5.15195C80.3606 5.38452 80.4143 5.49186 80.4143 5.5992C80.4143 5.74232 80.3248 5.83177 79.9313 6.10012V6.74415C79.9313 8.13957 79.9849 8.71204 79.9849 8.89094C79.9849 9.24874 79.7166 9.44553 79.2157 9.44553C78.7863 9.44553 78.6432 9.30241 78.6432 8.87305H75.906C75.4767 9.74966 74.9758 10.6084 74.4033 11.3955H79.8418C80.3964 10.7694 80.4858 10.7157 80.5932 10.7157C80.7184 10.7157 80.8436 10.7336 81.4519 11.2882C81.7381 11.5386 81.7918 11.646 81.7918 11.7533C81.7918 11.9143 81.7023 12.0038 81.2909 12.2542V13.2203C81.2909 15.0451 81.3624 15.868 81.3624 16.1363C81.3624 16.5657 81.0762 16.7625 80.5574 16.7625C80.1101 16.7625 79.967 16.6194 79.967 16.2079V15.8322H70.7537V16.2258C70.7537 16.7088 70.5569 16.9056 70.0024 16.9056C69.573 16.9056 69.3941 16.7267 69.3941 16.351C69.3941 16.0111 69.4657 15.4386 69.4657 13.3992C69.4657 12.1648 69.4657 11.5029 69.3762 10.6263C70.0381 10.8946 70.3244 11.0377 70.9147 11.3955ZM78.6432 8.4258V5.70654H72.1134V8.4258H78.6432ZM79.967 15.385V11.8428H70.7537V15.385H79.967ZM81.3803 3.30929H69.7877C69.7877 4.74049 69.1258 5.72443 68.3028 5.72443C67.8735 5.72443 67.5693 5.4203 67.5693 4.99094C67.5693 4.65104 67.7125 4.43636 68.0703 4.23957C68.9469 3.73865 69.3225 3.16618 69.3941 2.057C69.3941 1.94966 69.6267 1.94966 69.6446 2.057C69.7161 2.34324 69.7519 2.61159 69.7698 2.86205H74.6716V1.73498C74.6716 1.37719 74.6716 1.07306 74.5822 0.411133C76.4427 0.607921 76.6574 0.75104 76.6574 0.947829C76.6574 1.10884 76.5143 1.25196 76.0313 1.46664V2.86205H81.1835C81.7023 2.21801 81.8276 2.14645 81.9528 2.14645C82.0959 2.14645 82.239 2.25379 82.9904 2.9515C83.384 3.3093 83.4198 3.43452 83.4198 3.55975C83.4198 3.81021 83.2946 3.89966 82.7221 3.89966C82.5253 3.89966 82.4179 3.95333 82.2927 4.07856C81.8991 4.50792 81.5235 4.82994 80.951 5.22351C80.8794 5.27718 80.7542 5.18773 80.79 5.09828C81.0225 4.61526 81.2193 3.97122 81.3803 3.30929Z" fill="#FFF5F5"/>
<path d="M51.2719 3.30923L51.0751 2.6473C51.737 2.75464 52.2022 2.77253 52.8104 2.77253H61.3976C62.2742 1.71703 62.5067 1.5918 62.6141 1.5918C62.7393 1.5918 62.9182 1.68125 63.8127 2.43262C64.2599 2.80831 64.3315 2.93354 64.3315 3.04088C64.3315 3.16611 64.2778 3.21978 64.0989 3.21978H52.8104C52.2379 3.21978 51.8444 3.25556 51.2719 3.30923ZM52.1843 8.8372L52.0054 8.17528C52.6136 8.28262 53.0609 8.30051 53.6155 8.30051H60.2526C61.0934 7.28078 61.3081 7.15555 61.4333 7.15555C61.5586 7.15555 61.7017 7.22711 62.5962 7.97849C63.0077 8.3184 63.0792 8.46151 63.0792 8.56885C63.0792 8.69408 63.0255 8.74775 62.8466 8.74775H53.6334C53.1324 8.74775 52.7389 8.78353 52.1843 8.8372ZM49.8586 15.0629L49.6797 14.401C50.3058 14.5083 50.8246 14.5262 51.4329 14.5262H62.4352C63.3833 13.417 63.598 13.2918 63.7054 13.2918C63.8306 13.2918 63.9916 13.3991 64.9577 14.1684C65.4407 14.5441 65.5122 14.6872 65.5122 14.7945C65.5122 14.9198 65.4586 14.9734 65.2797 14.9734H51.4329C50.8604 14.9734 50.4132 15.0092 49.8586 15.0629Z" fill="#FFF5F5"/>
<path d="M47.8946 0.035779C47.9304 0.0178893 48.0019 0 48.0556 0C48.1093 0 48.145 0.0357794 48.145 0.0894494C48.145 0.143118 48.1271 0.196788 48.0914 0.232569C45.6762 2.68348 44.5492 5.45642 44.5492 8.64082C44.5492 11.8252 45.6762 14.5982 48.0914 17.0491C48.1271 17.0848 48.1629 17.1385 48.1629 17.1922C48.1629 17.2459 48.1271 17.2995 48.0735 17.2995C48.0198 17.2995 47.9482 17.2816 47.8946 17.2459C46.3918 16.1009 45.2648 14.7949 44.4597 13.3101C43.6547 11.8073 43.2969 10.2509 43.2969 8.64082C43.2969 7.03073 43.6547 5.47431 44.4597 3.97156C45.2648 2.48669 46.3918 1.18073 47.8946 0.035779Z" fill="#FFF5F5"/>
<path d="M37.2142 9.49944H28.2156C28.1262 10.6265 27.9473 11.5747 27.6431 12.4513C27.0349 14.1508 26.1225 15.4747 24.6019 16.8343C24.5303 16.9059 24.3335 16.7449 24.4051 16.6554C25.4963 15.2063 26.1404 13.7393 26.534 11.9861C26.8739 10.4834 26.9275 8.78385 26.9275 6.36871C26.9275 5.17009 26.8918 4.72284 26.8202 3.9178C27.5537 4.22193 27.8578 4.38294 28.5555 4.75862H37.0532C37.6436 4.11459 37.733 4.04303 37.8404 4.04303C37.9835 4.04303 38.0908 4.11459 38.717 4.65128C38.9853 4.86596 39.0569 4.9733 39.0569 5.08064C39.0569 5.24165 38.9674 5.36688 38.5739 5.61734V6.83385C38.5739 8.78385 38.6454 9.87513 38.6454 10.2508C38.6454 10.6981 38.3771 10.8949 37.7688 10.8949C37.3573 10.8949 37.2142 10.7338 37.2142 10.3224V9.49944ZM37.2142 9.0522V5.20587H28.3229V6.54761C28.3229 7.49578 28.3051 8.31871 28.2514 9.0522H37.2142ZM25.3532 2.36138L25.1564 1.66367C25.7826 1.77101 26.1583 1.80679 26.695 1.80679H37.8762C38.7528 0.822848 38.878 0.733398 38.9853 0.733398C39.1106 0.733398 39.2537 0.822848 40.1482 1.52055C40.5775 1.87835 40.6491 1.98569 40.6491 2.09303C40.6491 2.20037 40.5954 2.25404 40.4165 2.25404H26.7129C26.2119 2.25404 25.872 2.28982 25.3532 2.36138Z" fill="#FFF5F5"/>
<path d="M14.9054 3.86419H17.1953C17.1953 1.87842 17.1774 1.35961 17.1059 0.393555C18.8233 0.590344 19.0559 0.661904 19.0559 0.930252C19.0559 1.10915 18.9485 1.23438 18.4476 1.43117V3.86419H20.9343C21.4889 3.23805 21.5783 3.18438 21.7036 3.18438C21.8288 3.18438 21.9182 3.23805 22.4907 3.72108C22.7412 3.95364 22.7948 4.06098 22.7948 4.18621C22.7948 4.32933 22.7054 4.45456 22.3118 4.68713V6.49401C22.3118 9.64263 22.4013 11.3064 22.4013 11.8073C22.4013 12.2009 22.1508 12.3798 21.632 12.3798C21.2205 12.3798 21.0774 12.2367 21.0774 11.8789V11.4137H18.4655C18.4834 14.2582 18.5192 15.6894 18.5192 16.2798C18.5192 16.727 18.2866 16.9417 17.732 16.9417C17.2669 16.9417 17.1059 16.8165 17.1059 16.3692C17.1059 15.8325 17.1416 14.5087 17.1774 11.4137H14.7444V11.7536C14.7444 12.1651 14.5118 12.3261 14.0288 12.3261C13.6173 12.3261 13.4384 12.183 13.4384 11.8789C13.4384 11.2706 13.5279 10.2151 13.5279 6.85181C13.5279 5.04493 13.51 4.11465 13.4384 3.09493C14.0467 3.39906 14.315 3.52429 14.9054 3.86419ZM14.7444 10.9665H17.1774C17.1953 9.71419 17.1953 8.12199 17.1953 7.72841H14.7444V10.9665ZM18.4655 10.9665H21.0774V7.72841H18.4476C18.4476 8.8018 18.4476 9.89309 18.4655 10.9665ZM18.4476 4.31144V7.28116H21.0774V4.31144H18.4476ZM17.1953 4.31144H14.7444V7.28116H17.1953V4.31144ZM10.3435 7.99676V8.15777C11.9715 8.69446 12.9375 9.57107 12.9375 10.3224C12.9375 10.7339 12.6692 11.038 12.3471 11.038C12.0788 11.038 11.9536 10.8949 11.721 10.394C11.3274 9.57107 10.9875 9.01648 10.3435 8.51557V11.8252C10.3435 14.5802 10.3971 15.761 10.3971 16.3334C10.3971 16.7449 10.1109 16.9417 9.62788 16.9417C9.19852 16.9417 9.01962 16.7807 9.01962 16.405C9.01962 16.083 9.09118 14.9201 9.12696 11.6105C9.12696 10.8055 9.14485 10.0183 9.16274 9.19538C8.33981 9.91098 7.44531 10.5371 6.44348 11.0559C6.33614 11.1096 6.17513 10.8949 6.28247 10.8234C8.37559 9.19538 10.2182 6.81603 11.2022 4.40089H8.12513C7.62421 4.40089 7.26641 4.41878 6.85495 4.52612L6.67605 3.82841C7.17696 3.91786 7.57054 3.95364 8.12513 3.95364H9.12696V2.00365C9.12696 1.48484 9.09118 1.03759 9.00173 0.393555C10.7192 0.590344 10.9875 0.733464 10.9875 0.930252C10.9875 1.09126 10.8265 1.23438 10.3614 1.43117V3.95364H11.1664C11.6315 3.45273 11.721 3.38117 11.8283 3.38117C11.9536 3.38117 12.043 3.45273 12.6334 4.0252C12.9017 4.31144 12.9733 4.41878 12.9733 4.54401C12.9733 4.70502 12.8123 4.79447 12.3471 4.9197C11.8104 6.04676 11.1485 7.08437 10.3435 7.99676Z" fill="#FFF5F5"/>
<path d="M5.14808 1.64746V2.26264H0.647557V15.0843H0V1.64746H5.14808Z" fill="#FFF5F5"/>
<path d="M87.744 31.0539H84.749C84.6697 32.2423 84.5271 33.1456 84.2894 33.9696C83.9091 35.3007 83.3386 36.2991 82.3086 37.4875C82.2452 37.5668 82.0709 37.4242 82.1185 37.3449C82.784 36.1723 83.1009 35.174 83.3862 33.7002C83.608 32.5593 83.6714 31.2916 83.6714 28.6135C83.6714 27.2824 83.6556 26.8704 83.5922 26.1414C84.1627 26.4108 84.3845 26.5376 84.9391 26.8545H87.6014C88.1084 26.3316 88.1877 26.2682 88.2986 26.2682C88.3937 26.2682 88.4888 26.3316 88.98 26.7595C89.2177 26.9813 89.2811 27.0764 89.2811 27.1715C89.2811 27.2824 89.2019 27.3775 88.8532 27.6152V28.6452C88.8532 30.3883 88.9008 31.1648 88.9008 31.4817C88.9008 31.8145 88.6789 31.973 88.2511 31.973C87.8866 31.973 87.744 31.862 87.744 31.5609V31.0539ZM87.744 30.6577V27.2507H84.8282V28.4392C84.8282 29.279 84.8124 30.008 84.7648 30.6577H87.744ZM94.7957 28.8829V32.5434C94.7957 34.5876 94.8432 36.3149 94.8432 36.8537C94.8432 37.2657 94.6531 37.4242 94.1301 37.4242C93.734 37.4242 93.5913 37.2815 93.5913 36.9646C93.5913 36.6635 93.6547 35.6177 93.6547 33.4308V28.8829H91.5154C91.4362 30.832 91.2144 32.1948 90.8024 33.3358C90.2319 34.9996 89.2494 36.1723 87.427 37.5034C87.332 37.5668 87.1577 37.3925 87.2369 37.3132C88.6314 35.8712 89.4237 34.6827 89.8516 33.0822C90.216 31.767 90.3903 30.1506 90.3903 27.5993C90.3903 26.3633 90.3745 25.9037 90.2794 25.0005C90.8499 25.2223 91.1193 25.3491 91.6264 25.6343C92.6406 25.2699 93.7498 24.636 94.5263 24.0655C94.8749 23.812 95.1443 23.5585 95.3662 23.2891C96.5388 24.224 96.6497 24.3666 96.6497 24.5092C96.6497 24.636 96.4596 24.7311 95.8732 24.6043C94.5897 25.2382 93.211 25.7136 91.5471 26.0305V27.2348C91.5471 27.6785 91.5471 28.0906 91.5313 28.4867H95.176C95.8257 27.6944 95.9366 27.6152 96.0317 27.6152C96.1426 27.6152 96.2536 27.6944 96.9667 28.2649C97.2836 28.5343 97.3628 28.6293 97.3628 28.7244C97.3628 28.8195 97.2994 28.8829 97.141 28.8829H94.7957ZM83.0217 24.7945L82.8474 24.1765C83.3545 24.2557 83.6556 24.2874 84.0834 24.2874H87.95C88.5997 23.5268 88.7265 23.4634 88.8215 23.4634C88.9166 23.4634 89.0434 23.5268 89.7406 24.0655C90.0417 24.3349 90.121 24.43 90.121 24.5251C90.121 24.6202 90.0734 24.6836 89.915 24.6836H84.0993C83.7348 24.6836 83.4496 24.6994 83.0217 24.7945Z" fill="#FFF5F5"/>
<path d="M69.3463 25.1744L69.4731 28.7082C70.3922 28.4864 71.3113 28.2328 72.2145 27.9C71.961 27.2186 71.5648 26.4897 71.137 26.046C71.0894 25.9826 71.2004 25.8875 71.2796 25.9192C72.579 26.5214 73.4823 27.5356 73.4823 28.2962C73.4823 28.7082 73.2287 29.041 72.8959 29.041C72.6107 29.041 72.4681 28.8667 72.3572 28.3596L72.3096 28.217C70.9468 29.0251 70.0119 29.4213 68.142 30.1502C68.0786 30.5147 68.0152 30.6256 67.8567 30.6256C67.6983 30.6256 67.6032 30.4989 67.207 29.0885C67.5398 29.0727 67.8884 29.0251 68.4114 28.9301L68.3004 26.0301C68.2687 25.2854 68.2371 24.8892 68.1737 24.2395C68.7124 24.4455 68.9501 24.5564 69.4414 24.8417C70.2179 24.493 70.9785 24.081 71.4856 23.7324C71.8659 23.4789 72.0719 23.2729 72.2621 23.0352C73.3396 23.7799 73.4347 23.8909 73.4347 24.0652C73.4347 24.2078 73.2287 24.3029 72.7216 24.192C71.6757 24.6357 70.6457 24.9367 69.3463 25.1744ZM69.996 36.6949V37.0435C69.996 37.408 69.8059 37.5823 69.3146 37.5823C68.9343 37.5823 68.8234 37.4555 68.8234 37.1386C68.8234 36.5522 68.8868 35.7441 68.8868 32.8125C68.8868 31.6557 68.8709 31.0377 68.7917 30.3563C69.3622 30.5781 69.6157 30.689 70.1386 30.9743H77.7767C78.2521 30.4513 78.3313 30.3879 78.4264 30.3879C78.5373 30.3879 78.6324 30.4513 79.1553 30.8633C79.4089 31.0693 79.4722 31.1803 79.4722 31.2753C79.4722 31.418 79.393 31.513 79.0127 31.7191V33.066C79.0127 35.4588 79.0761 36.6473 79.0761 36.9959C79.0761 37.3763 78.8384 37.5189 78.363 37.5189C78.0302 37.5189 77.8876 37.408 77.8876 37.1069V36.6949H69.996ZM69.996 36.2987H73.2921V33.9217H69.996V36.2987ZM77.8876 36.2987V33.9217H74.3697V36.2987H77.8876ZM77.8876 33.5256V31.3704H74.3697V33.5256H77.8876ZM73.2921 31.3704H69.996V33.5256H73.2921V31.3704ZM75.574 24.6515H75.0986C74.7024 24.6515 74.433 24.6832 74.0369 24.7941L73.8626 24.1444C74.3538 24.2395 74.6707 24.2553 75.0828 24.2553H78.9493C79.4405 23.7482 79.5198 23.7007 79.6149 23.7007C79.7258 23.7007 79.805 23.7482 80.2963 24.1761C80.534 24.3663 80.5973 24.4772 80.5973 24.5723C80.5973 24.6673 80.534 24.7307 80.1853 24.9843C80.0586 26.8225 79.8526 28.106 79.5673 28.8667C79.393 29.3104 79.1712 29.6432 78.8542 29.8492C78.6165 30.0076 78.3313 30.1186 78.0461 30.1186C77.8242 30.1186 77.745 30.071 77.7133 29.8809C77.6182 29.3896 77.4756 29.2628 76.3029 28.9934C76.2079 28.9776 76.2079 28.7558 76.3029 28.7716C77.222 28.8667 77.634 28.8984 77.9351 28.8984C78.2838 28.8984 78.4264 28.6924 78.6324 28.1536C78.8542 27.5039 78.9968 26.4422 79.0919 24.6515H76.7783C76.6199 27.6306 75.2888 29.4847 72.5473 30.5147C72.4681 30.5464 72.3888 30.3879 72.4522 30.3404C74.6391 28.8825 75.4472 27.3296 75.574 24.6515Z" fill="#FFF5F5"/>
<path d="M53.5475 28.8507V31.1326C53.5475 34.8724 53.5633 36.6313 53.5633 37.1543C53.5633 37.5346 53.3415 37.7089 52.8661 37.7089C52.4699 37.7089 52.3273 37.5821 52.3273 37.2335C52.3273 36.8849 52.3907 35.7598 52.4382 32.0834C52.4382 31.0692 52.4382 30.0709 52.4541 29.0409C51.947 29.8015 51.3765 30.4987 50.7426 31.1326C50.6793 31.196 50.5208 31.0534 50.5683 30.9741C51.8361 29.1518 52.8502 26.6639 53.3098 24.5563C53.4207 24.065 53.4999 23.5897 53.5316 23.1301C55.0371 23.5421 55.2589 23.6213 55.2589 23.8274C55.2589 23.9858 55.1321 24.0492 54.6409 24.1601C54.2289 25.6022 53.6901 26.9174 53.0245 28.0901C53.8803 28.2327 54.007 28.2802 54.007 28.4545C54.007 28.5813 53.9436 28.6764 53.5475 28.8507ZM55.56 30.4987H63.5783C64.0537 29.9441 64.133 29.8807 64.2597 29.8807C64.3707 29.8807 64.4974 29.96 65.0996 30.4829C65.3848 30.7523 65.4482 30.8474 65.4482 30.9583C65.4482 31.1484 65.3214 31.2277 64.8777 31.2277C64.6876 31.2277 64.6084 31.2752 64.4182 31.4178C64.133 31.6397 63.8319 31.8298 63.4674 32.02C63.5466 32.0675 63.6259 32.1309 63.7209 32.2102C63.9903 32.432 64.0696 32.5271 64.0696 32.638C64.0696 32.7331 64.0062 32.7965 63.8636 32.7965H60.4883V34.4604C60.4883 35.4587 60.5199 36.045 60.5199 36.362C60.5199 36.7898 60.3298 37.0434 60.0921 37.2494C59.8544 37.4554 59.4582 37.598 58.9511 37.598C58.7927 37.598 58.7451 37.5504 58.6976 37.3127C58.6184 36.9324 58.4282 36.7106 57.002 36.4095C56.9069 36.3936 56.9069 36.1559 57.002 36.1718C58.0004 36.2669 58.5867 36.2827 59.0779 36.2827C59.2681 36.2827 59.3315 36.2193 59.3315 36.0133V32.7965H56.796C56.4949 32.7965 56.2731 32.8282 55.8928 32.8916L55.7343 32.2894C56.178 32.3845 56.4474 32.4003 56.8119 32.4003H62.0888C62.6751 31.7348 62.8018 31.6555 62.8969 31.6555C62.9603 31.6555 63.0554 31.7031 63.3089 31.8932C63.4991 31.4971 63.5783 31.2752 63.6734 30.8949H55.5758C55.5917 31.8774 55.148 32.5588 54.5458 32.5588C54.2289 32.5588 54.007 32.3211 54.007 31.9883C54.007 31.7031 54.0863 31.608 54.53 31.3386C54.9578 31.0534 55.2114 30.578 55.2589 29.9283C55.2589 29.849 55.4174 29.8173 55.4332 29.8966C55.4966 30.1026 55.5283 30.3086 55.56 30.4987ZM57.1605 29.2469V29.2944C57.1605 29.6272 56.9386 29.7698 56.5425 29.7698C56.2097 29.7698 56.0512 29.6589 56.0512 29.3578C56.0512 29.1993 56.0829 28.9299 56.0829 27.8999C56.0829 27.2185 56.0671 26.7273 56.0037 26.1726C56.5583 26.3945 56.7802 26.4896 57.2714 26.7431H62.1521C62.6117 26.2519 62.7068 26.1885 62.8018 26.1885C62.8969 26.1885 63.0079 26.2519 63.4516 26.6322C63.7051 26.8223 63.7526 26.9333 63.7526 27.0283C63.7526 27.1393 63.6893 27.2185 63.3723 27.4404V27.8365C63.3723 28.7556 63.404 29.1359 63.404 29.2627C63.404 29.5796 63.198 29.7381 62.7543 29.7381C62.4057 29.7381 62.2789 29.6272 62.2789 29.3578V29.2469H57.1605ZM62.2789 28.8507V27.1393H57.1605V28.8507H62.2789ZM60.2664 25.1426H63.1505C63.7685 24.3344 63.8794 24.2552 63.9903 24.2552C64.0854 24.2552 64.2122 24.3344 64.8936 24.9208C65.2105 25.1902 65.2898 25.2852 65.2898 25.3803C65.2898 25.4754 65.2264 25.5388 65.0837 25.5388H56.2255C55.8294 25.5388 55.5441 25.5546 55.1004 25.6339L54.942 25.0317C55.4491 25.1109 55.7818 25.1426 56.2255 25.1426H59.1255V24.2077C59.1255 23.8749 59.1096 23.6055 59.0621 23.1143C60.615 23.2727 60.7893 23.3995 60.7893 23.5738C60.7893 23.6847 60.6784 23.7957 60.2664 23.97V25.1426Z" fill="#FFF5F5"/>
</svg>
