<svg width="43" height="101" viewBox="0 0 43 101" fill="none" xmlns="http://www.w3.org/2000/svg">
<path d="M17.8148 47.3653V47.6393C17.8148 48.37 17.3333 48.6745 16.1852 48.6745C15.3704 48.6745 15.0741 48.4005 15.0741 47.8525C15.0741 46.6347 15.2222 44.7166 15.2222 38.3232C15.2222 36.0094 15.2222 35.096 15 34C16.3333 34.4262 16.8889 34.6089 18.1481 35.1874H36.037C37.1481 34.1827 37.3704 34.0609 37.5926 34.0609C37.8148 34.0609 38.037 34.1827 39.2963 35.0351C39.8889 35.4309 40.037 35.5831 40.037 35.7658C40.037 36.0094 39.8889 36.192 38.963 36.6487V39.3888C38.963 44.2904 39.1481 46.7869 39.1481 47.5176C39.1481 48.2178 38.5556 48.5222 37.4444 48.5222C36.6296 48.5222 36.3333 48.3091 36.3333 47.7307V47.3653H17.8148ZM17.8148 46.6042H25.6296V41.5808H17.8148V46.6042ZM36.3333 46.6042V41.5808H28.2222V46.6042H36.3333ZM36.3333 40.8197V35.9485H28.2222V40.8197H36.3333ZM25.6296 35.9485H17.8148V40.8197H25.6296V35.9485ZM41.4815 57.9602C40.7037 57.9602 40.4074 57.6557 40 56.2857C39.2593 54.2459 38.5556 53.089 36.8519 51.6276C36.7407 51.5363 36.9259 51.3536 37.0741 51.3841C40.8519 52.5714 43 54.5199 43 56.2857C43 57.2599 42.3333 57.9602 41.4815 57.9602ZM29.5556 54.1546C28.8148 54.1546 28.5556 53.8806 28.0741 52.6932C27.4444 51.4145 26.6667 50.5621 25.1481 49.4356C25.037 49.3443 25.2222 49.1616 25.3704 49.192C28.8148 49.8314 30.963 51.2319 30.963 52.7541C30.963 53.5457 30.4074 54.1546 29.5556 54.1546ZM12.4815 58.4169C11.6296 58.4169 11 57.808 11 57.0468C11 56.4379 11.3704 56.103 12.4444 55.6464C14.1852 54.9461 15.4074 53.4543 15.6667 51.8407C15.7037 51.6885 16.1111 51.719 16.1111 51.8712C16.4815 55.3724 14.8148 58.4169 12.4815 58.4169ZM22.3704 51.2623V56.5597C22.3704 57.808 23.1852 58.082 27.5556 58.082C30.8519 58.082 32.1111 57.9602 33 57.3817C33.8889 56.8946 34.1852 56.2248 35.1111 53.911C35.1852 53.7588 35.5185 53.8197 35.5185 53.9719C35.4444 54.7939 35.3704 55.7377 35.3704 56.4684C35.3704 56.9555 35.4074 57.0773 36.0741 57.3208C36.4074 57.4426 36.5926 57.7166 36.5926 58.082C36.5926 58.6909 35.9259 59.1475 34.7037 59.452C33.4444 59.7869 31.2222 60 27.1481 60C21.0741 60 19.7037 59.3302 19.7037 56.7119C19.7037 56.3771 19.7778 55.9813 19.7778 54.3068C19.7778 52.3583 19.7407 51.1405 19.6296 49.6487C23.1852 50.0141 23.5556 50.1054 23.5556 50.4707C23.5556 50.7143 23.3704 50.897 22.3704 51.2623Z" fill="#FFF5F5"/>
<path d="M22.8309 85.5198V83.4423C21.7332 83.6283 20.4787 83.7524 19.0674 83.8454C18.9106 83.8454 18.8165 83.5353 18.9733 83.5043C20.9491 83.0702 22.5486 82.481 23.8031 81.8918C24.744 81.4577 25.434 81.0236 25.7789 80.6205C27.3784 82.0469 27.5352 82.2329 27.5352 82.512C27.5352 82.6671 27.4098 82.7601 27.1275 82.7601C26.908 82.7601 26.6571 82.7291 26.2807 82.605C25.8417 82.7601 25.3399 82.9151 24.7753 83.0702V85.4888L28.8211 85.4268C28.7584 84.7446 28.6957 84.0624 28.6643 83.2872C28.6016 82.1089 28.5388 81.8298 28.4134 80.9926C30.9224 81.2096 31.3928 81.3337 31.3928 81.7368C31.3928 82.0159 31.2674 82.2019 30.5774 82.481C30.5774 83.5663 30.6401 84.5276 30.7029 85.3958L34.8113 85.3338C35.7836 84.0624 35.9718 83.9384 36.1599 83.9384C36.3795 83.9384 36.5676 84.0624 37.6026 84.9927C38.0417 85.3648 38.1671 85.5819 38.1671 85.7989C38.1671 85.923 38.0417 86.016 37.8222 86.016L30.7656 86.14C30.9538 87.5664 31.236 88.8688 32.0201 90.2642C32.5846 89.5199 32.8669 89.1168 33.0864 88.7447C33.4 88.2176 33.6509 87.6904 33.8391 87.1633C35.5954 88.0315 36.1599 88.3726 36.1599 88.7447C36.1599 88.9928 35.8777 89.1168 35.0623 89.1478C34.435 90.1091 33.7137 90.9773 32.961 91.7526C33.3687 92.2487 33.9018 92.7448 34.5918 93.148C35.1877 93.489 35.8463 93.7681 36.0972 93.7681C36.3481 93.7681 36.6931 93.179 37.8849 90.7293C37.9476 90.6052 38.1671 90.7293 38.1358 90.8533C37.8222 92.8689 37.6967 93.6441 37.6967 93.8922C37.6967 94.1092 37.7594 94.2953 37.979 94.5123C38.324 94.8534 38.418 95.0705 38.418 95.4116C38.418 96.0317 37.979 96.4969 37.3517 96.4969C36.4736 96.4969 35.0622 95.9387 33.8077 95.1325C32.961 94.5743 32.2083 93.8922 31.5183 93.0239C29.8874 94.3263 27.943 95.2875 25.6535 96.0317C25.434 96.0938 25.2771 95.6906 25.4653 95.5976C27.4412 94.6364 29.2288 93.334 30.7029 91.8146C30.5147 91.5355 30.3579 91.2254 30.2011 90.9153C29.4797 89.4579 29.1034 87.9695 28.8838 86.171L24.7753 86.233V88.8688C25.9985 88.6827 27.253 88.4657 28.4761 88.2176C28.6643 88.1866 28.727 88.5587 28.5702 88.6207C27.253 89.1789 26.0298 89.644 24.7753 90.0781C24.7753 92.3727 24.8381 93.365 24.8381 94.3883C24.8381 95.2565 24.5558 95.6596 24.1795 96.0007C23.8031 96.4038 23.019 96.7449 22.2977 96.7449C21.9841 96.7449 21.9214 96.7139 21.8273 96.0628C21.6705 95.3496 21.2941 95.0395 19.4437 94.6364C19.2869 94.6054 19.2869 94.2643 19.4437 94.2643C20.6041 94.3573 21.7018 94.3883 22.3604 94.3883C22.7368 94.3883 22.8309 94.2643 22.8309 93.9232V90.6673C22.0468 90.8843 21.2314 91.0704 20.3532 91.2874C20.1651 91.9696 20.0082 92.1247 19.7573 92.1247C19.4751 92.1247 19.2869 91.7216 18.691 89.3339C19.1615 89.3649 19.5378 89.3649 20.3532 89.3339C21.0746 89.3029 21.9214 89.2099 22.8309 89.1168V86.264L20.4473 86.2951C19.7887 86.2951 19.4437 86.3571 18.7224 86.5121L18.4088 85.3648C19.1301 85.5198 19.6319 85.5509 20.416 85.5509L22.8309 85.5198ZM12.3244 98.9224V100.07C12.3244 100.69 11.9167 101 11.1327 101C10.474 101 10.1918 100.783 10.1918 100.225C10.1918 99.5426 10.3172 94.1402 10.3172 90.3572C10.3172 88.3106 10.3172 87.2563 10.1291 85.8919C11.164 86.264 11.5717 86.4501 12.544 87.0083H15.5548C16.3388 86.109 16.4956 86.016 16.7152 86.016C16.9347 86.016 17.1229 86.109 17.907 86.7602C18.3147 87.1013 18.4401 87.2873 18.4401 87.5044C18.4401 87.7215 18.2833 87.8765 17.6874 88.3106V89.9851C17.6874 93.241 17.7501 99.1395 17.7501 99.6046C17.7501 100.194 17.3424 100.473 16.5897 100.473C15.9625 100.473 15.7429 100.256 15.7429 99.7597V98.9224H12.3244ZM15.7429 98.1472V87.7835H12.3244V98.1472H15.7429ZM28.8525 79.3181H34.4664C35.47 78.1088 35.6895 77.9537 35.8777 77.9537C36.1286 77.9537 36.3481 78.1088 37.4458 79.008C37.9162 79.3801 38.0731 79.5972 38.0731 79.7833C38.0731 79.9693 37.979 80.0933 37.6653 80.0933H21.3568C20.7609 80.0933 20.2905 80.1243 19.5064 80.2484L19.1615 79.1011C20.0082 79.2561 20.5414 79.3181 21.2627 79.3181H26.7825V76.4653H22.9877C22.4232 76.4653 21.9841 76.5274 21.2941 76.6514L20.9805 75.4731C21.7332 75.6591 22.2036 75.6901 22.8936 75.6901H26.7825V73.0234H21.9527C21.3255 73.0234 20.855 73.0544 20.0082 73.1784L19.6946 72.0311C20.6041 72.1862 21.1373 72.2482 21.89 72.2482H25.1517C24.6185 72.1862 24.4304 71.9691 24.2735 71.2559C23.9913 70.2016 23.709 69.5194 22.7368 68.4961C22.6427 68.4031 22.8309 68.2171 22.9563 68.2481C25.2771 68.9613 26.3435 69.8915 26.3435 70.9458C26.3435 71.69 25.9044 72.1862 25.3399 72.2482H29.5111C29.9815 71.3489 30.2951 70.6357 30.546 69.9225C30.7969 69.2093 30.9538 68.6202 31.0478 68C33.6509 69.0543 33.8705 69.2093 33.8705 69.5504C33.8705 69.8295 33.6196 69.9535 32.7101 69.9845C31.8946 70.8838 31.1733 71.597 30.3265 72.2482H33.6196C34.6545 71.0078 34.8741 70.8528 35.0623 70.8528C35.2818 70.8528 35.5013 71.0078 36.6617 71.9691C37.1635 72.3412 37.3204 72.5273 37.3204 72.7133C37.3204 72.9304 37.1949 73.0234 36.9126 73.0234H28.8525V75.6901H39.4874C40.4283 74.5738 40.6478 74.4188 40.8673 74.4188C41.0555 74.4188 41.2751 74.5738 42.3414 75.4111C42.8432 75.7832 43 76.0002 43 76.1863C43 76.3723 42.9059 76.4653 42.5609 76.4653H28.8525V79.3181ZM34.435 84.3725C34.1214 84.3725 33.9332 84.2175 33.6823 83.7213C33.2119 82.7601 32.7728 82.2019 31.8946 81.5818C31.8005 81.5197 31.8946 81.3647 32.0201 81.3647C34.1841 81.6128 35.2818 82.388 35.2818 83.3492C35.2818 83.9384 34.9054 84.3725 34.435 84.3725ZM10.3172 71.2559L9.97224 70.0776C10.8504 70.2636 11.3836 70.2946 12.1363 70.2946H15.0216C15.9311 69.1473 16.1507 68.9923 16.3702 68.9923C16.5584 68.9923 16.7779 69.1473 17.907 70.0156C18.346 70.3567 18.5028 70.6047 18.5028 70.7908C18.5028 70.9768 18.3774 71.0699 18.0951 71.0699H12.1363C11.5404 71.0699 11.1013 71.1319 10.3172 71.2559ZM9.31363 75.5661L9 74.3878C9.84679 74.5738 10.4113 74.6048 11.164 74.6048H15.7116C16.7152 73.3645 16.9661 73.2094 17.1543 73.2094C17.3738 73.2094 17.5933 73.3645 18.7537 74.2947C19.2242 74.6978 19.3496 74.9149 19.3496 75.101C19.3496 75.287 19.2555 75.38 18.9419 75.38H11.164C10.5368 75.38 10.0663 75.4421 9.31363 75.5661ZM10.3172 79.6282L9.97224 78.4499C10.8504 78.6049 11.3836 78.6669 12.1049 78.6669H14.8962C15.8057 77.4886 16.0252 77.3336 16.2134 77.3336C16.4329 77.3336 16.6525 77.4886 17.7188 78.4189C18.1579 78.76 18.2833 78.946 18.2833 79.1321C18.2833 79.3491 18.1892 79.4422 17.8756 79.4422H12.1049C11.5404 79.4422 11.1013 79.5042 10.3172 79.6282ZM10.38 83.6903L10.0663 82.543C10.9445 82.6981 11.4776 82.7601 12.199 82.7601H14.9902C15.8684 81.6438 16.0879 81.5197 16.2761 81.5197C16.4956 81.5197 16.7152 81.6438 17.7815 82.481C18.1892 82.8221 18.346 83.0392 18.346 83.2252C18.346 83.4113 18.2519 83.5353 17.9383 83.5353H12.199C11.6345 83.5353 11.164 83.5663 10.38 83.6903Z" fill="#FFF5F5"/>
<path d="M36.5377 2.80251H24.1489C26.1213 3.58098 26.7068 3.89237 26.7068 4.2349C26.7068 4.57743 26.4603 4.67084 25.4433 4.82654C24.5495 6.44577 23.5634 7.9093 22.5156 9.27941C24.4263 9.52852 24.7345 9.71536 24.7345 9.99561C24.7345 10.2759 24.5495 10.4938 23.7791 10.8052V15.1024C23.7791 22.1709 23.8715 25.5028 23.8715 26.5304C23.8715 27.2777 23.3785 27.6203 22.3615 27.6203C21.591 27.6203 21.2828 27.34 21.2828 26.6861C21.2828 25.7208 21.4677 22.4823 21.4677 14.2616C21.4677 12.767 21.4677 11.6771 21.4369 10.5872C18.1702 14.3239 5.22243 26.1256 0.291562 27.9939C0.0758362 28.0562 -0.109071 27.6203 0.0758363 27.5268C5.31489 24.5686 18.6633 11.3657 21.4061 6.97513C22.269 5.57387 23.0086 4.20376 23.5017 2.80251H12.5613C11.606 2.80251 10.8972 2.83364 9.91098 2.98934L9.6028 1.77492C10.7123 1.96175 11.5752 2.02403 12.5922 2.02403H32.0075C33.5792 0.155695 33.7949 0 34.0107 0C34.1956 0 34.4113 0.155695 36.0446 1.46353C36.8151 2.08631 36.9692 2.27314 36.9692 2.45998C36.9692 2.67795 36.8459 2.80251 36.5377 2.80251Z" fill="#FFF5F5"/>
<path d="M34.1339 18.1229C34.8119 19.2127 35.2126 19.5553 35.7673 19.5553C36.5069 19.5553 37 18.8079 37 17.936C37 15.6006 32.6855 12.3933 26.9225 10.4316C26.7376 10.3693 26.5527 10.7118 26.7068 10.8052C29.8502 12.7981 32.4389 15.3204 34.1339 18.1229Z" fill="#FFF5F5"/>
</svg>
