<svg width="16" height="36" viewBox="0 0 16 36" fill="none" xmlns="http://www.w3.org/2000/svg">
<path d="M3.29559 6.10454V5.94454L3.35935 5.58697L4.50696 5.99856L4.3157 6.0153V9.3433C4.3157 11.7113 3.96503 14.542 0.793151 16.6435L0.601881 16.4522C2.89711 14.3634 3.29559 11.9445 3.29559 9.44854V6.10454ZM3.8694 6.05434L12.7315 5.279V5.743L3.8694 6.51834V6.05434ZM3.85346 8.88774L12.6837 8.11519V8.57919L3.85346 9.35174V8.88774ZM3.72595 11.8269L12.6837 11.0432V11.5232L3.72595 12.3069V11.8269ZM12.3649 5.31108L12.2215 5.32363L12.7475 4.63761L14.0226 5.48605C13.927 5.62242 13.6879 5.75533 13.401 5.82844V13.9884C13.401 14.8044 13.2257 15.3958 11.5839 15.6994C11.5202 15.353 11.4086 15.0907 11.1536 14.9371C10.8667 14.7862 10.3885 14.7 9.54373 14.6619V14.3899C9.54373 14.3899 11.5361 14.3916 11.9187 14.3581C12.2693 14.3274 12.3649 14.2071 12.3649 13.9191V5.31108ZM7.69479 5.71966L8.71489 5.63042V11.6784L7.69479 11.7677V5.71966ZM5.08077 3.34036L10.006 2.90946V3.38946L4.76199 3.84825L5.08077 3.34036ZM9.2887 2.97221L9.09743 2.98895L9.78281 2.27299L10.9623 3.25779C10.8348 3.39695 10.6595 3.42829 10.3247 3.47357C9.75093 4.16377 8.79459 5.27144 7.94981 5.88935L7.67885 5.91306C8.2686 5.12546 8.96992 3.7041 9.2887 2.97221ZM5.44737 1.58029L7.12098 1.92987C7.04128 2.09684 6.91377 2.18799 6.49935 2.17625C5.30392 4.24884 3.16808 6.6437 0.856907 8.0299L0.681577 7.83724C2.62615 6.32311 4.53884 3.77177 5.44737 1.58029ZM6.02118 29.6341C7.5354 32.3976 10.9623 33.2818 15.3774 33.2475L15.3615 33.4409C14.8993 33.5614 14.5805 33.9252 14.4689 34.463C10.1335 34.1703 7.23255 33.0161 5.76615 29.8484L6.02118 29.6341ZM11.4564 29.1586L11.2651 29.1753L12.0302 28.5164L13.146 29.4427C13.0025 29.5993 12.8431 29.6612 12.4287 29.6975C10.4682 32.605 7.07316 34.486 2.403 35.5026L2.29143 35.2404C6.53123 34.0055 9.92626 32.0124 11.4564 29.1586ZM3.88534 29.8209L12.1259 29.1V29.58L4.02879 30.2884L3.88534 29.8209ZM6.21245 23.5374L7.77448 23.5767C7.74261 23.7715 7.59915 23.928 7.21661 24.0255V28.5535C7.21661 28.6815 6.77032 28.9445 6.40372 28.9766L6.21245 28.9934V23.5374ZM10.3088 23.179L11.8868 23.2169C11.8549 23.4117 11.7114 23.5683 11.3289 23.6657V28.0977C11.3289 28.2257 10.8826 28.5048 10.4841 28.5396L10.3088 28.555V23.179ZM6.51529 27.7029L11.0101 27.3096V27.7576L6.51529 28.1509V27.7029ZM3.26371 25.4433L13.0503 24.5871L13.7676 23.5964C13.7676 23.5964 14.5805 24.1812 15.0905 24.6166C15.0427 24.7968 14.8993 24.8894 14.6761 24.9089L3.39123 25.8962L3.26371 25.4433ZM7.8223 20.4045L9.43215 20.4237C9.40027 20.6505 9.24088 20.8244 8.85834 20.9059V22.6179L7.8223 22.7085V20.4045ZM2.59427 22.8619L12.9547 21.9555L13.7198 20.8965C13.7198 20.8965 14.5964 21.5078 15.1384 21.9724C15.1065 22.1352 14.9471 22.2292 14.7239 22.2487L2.59427 23.3099V22.8619ZM2.17985 22.8982V22.7382V22.3222L3.40717 22.7908L3.19996 22.8089V26.8089C3.19996 29.4489 3.07244 32.9641 0.904724 35.6017L0.649698 35.464C2.06828 32.8439 2.17985 29.7462 2.17985 26.8982V22.8982Z" fill="#FFF5F5"/>
</svg>
