<svg width="26" height="26" viewBox="0 0 26 26" fill="none" xmlns="http://www.w3.org/2000/svg">
<rect x="2.85059" y="5.51758" width="21.3065" height="16.9318" transform="rotate(3.76109 2.85059 5.51758)" fill="#6B0000"/>
<path fill-rule="evenodd" clip-rule="evenodd" d="M15.4879 18.8127L15.0782 14.1603C15.0345 13.6629 15.4021 13.2243 15.8994 13.1805L16.3711 13.139C16.6079 13.1181 16.8168 13.2932 16.8377 13.53V13.53C16.8735 13.9374 17.1245 14.0881 17.6605 14.0409C18.2608 13.9881 18.583 13.722 18.5396 13.2289C18.5236 13.0472 18.4181 12.784 18.2647 12.4015V12.4015C17.7289 11.065 15.9734 10.5246 14.9017 11.4863L14.6327 11.7276C13.2978 12.9255 11.3325 13.0985 9.80876 12.1523L9.65871 12.0592C8.46833 11.32 6.88533 12.1533 6.67601 13.5388V13.5388C6.60661 13.9982 6.55796 14.3201 6.57744 14.5414C6.61519 14.9702 6.82136 15.1033 7.31448 15.0598C8.00055 14.9994 8.28183 14.7586 8.24219 14.3084V14.3084C8.2203 14.0597 8.40413 13.8404 8.65279 13.8185L10.8182 13.6279C12.2628 13.5007 13.537 14.5686 13.6642 16.0132L13.7208 16.6564C13.7865 17.4031 13.8032 17.8216 13.8138 18.087C13.8187 18.2103 13.8223 18.3006 13.8289 18.3754C13.9573 19.8333 14.6363 20.184 17.5521 19.9273C19.9963 19.7121 21.207 19.4759 21.8742 19.2011C22.479 18.9534 22.8366 18.5978 22.7988 18.169C22.7743 17.8903 22.6249 17.6658 22.3348 17.5617C22.0681 17.4771 21.9748 17.3989 21.9484 17.0988C21.9265 16.8506 21.9084 16.5539 21.8833 16.1414C21.8671 15.8768 21.8481 15.5646 21.8233 15.1869C21.8119 15.0582 21.5723 15.0361 21.5408 15.1685C21.2189 16.6661 21.0946 17.2172 20.8694 17.6043C20.8406 17.6569 20.811 17.7159 20.779 17.7796C20.4796 18.3752 19.9707 19.3875 17.9952 19.5614C17.9488 19.5655 17.9032 19.5696 17.8585 19.5735C16.0221 19.7357 15.5726 19.7755 15.4879 18.8127ZM5.97511 3.57774C6.38554 4.53498 7.68977 4.94487 8.46497 4.24929L9.06552 3.71042C10.4005 2.5126 12.3658 2.33957 13.8895 3.28572L15.446 4.25222C16.2122 4.72803 17.2189 4.30641 17.4174 3.42657V3.42657C17.478 3.158 17.6291 2.92255 17.8183 2.72246C18.0067 2.52303 18.0412 2.4142 18.0291 2.27644C18.0178 2.1478 17.944 2.04626 17.596 1.77442C16.8161 1.25972 16.6799 1.18529 16.5298 1.1985V1.1985C15.7493 1.26722 15.1894 2.02677 14.4099 1.94655L12.5852 1.75875C11.8485 1.68293 11.1041 1.74847 10.392 1.95185L7.79834 2.69258C7.55642 2.76167 7.29808 2.74062 7.06794 2.63895C7.03889 2.62611 7.01041 2.61362 6.98242 2.60145C6.30694 2.30755 5.68483 2.90069 5.97511 3.57774V3.57774V3.57774ZM3.64903 21.281C3.52417 21.3352 3.6559 21.6045 3.78266 21.5717C7.66064 20.7437 10.0504 18.9423 10.986 16.1959C11.1815 15.6221 11.9791 15.2793 11.9259 14.6755V14.6755C11.9241 14.6548 11.9196 14.6351 11.9111 14.6159C11.4139 13.4889 9.75531 15.2369 9.28854 16.3769V16.3769C8.4993 18.4557 6.51267 20.1862 3.64903 21.281Z" fill="#FFF5F5"/>
<path d="M14.3824 7.49566C15.2035 7.42338 15.9539 8.06753 15.6148 8.81872C15.496 9.08189 15.3382 9.33452 15.1437 9.57031C14.6064 10.2214 13.8215 10.7037 12.9226 10.9353C12.0237 11.1668 11.0666 11.1331 10.2142 10.8399C9.3618 10.5468 8.66693 10.0124 8.24798 9.32766C7.82903 8.64296 7.71192 7.85037 7.9166 7.08494C8.12128 6.31951 8.63509 5.6286 9.37048 5.12993C10.1059 4.63127 11.0173 4.3557 11.9496 4.35017C12.3093 4.34804 12.6635 4.38616 13.0034 4.46194C13.8269 4.64553 13.9317 5.64791 13.3334 6.24285L13.0304 6.54409C12.7434 6.82947 12.28 6.83918 11.8752 6.84157V6.84157C11.6325 6.84301 11.3952 6.91477 11.2037 7.04461C11.0122 7.17446 10.8784 7.35437 10.8251 7.55368C10.7718 7.75299 10.8023 7.95937 10.9114 8.13766C11.0205 8.31595 11.2014 8.45511 11.4234 8.53144C11.6453 8.60777 11.8946 8.61654 12.1286 8.55626C12.3627 8.49597 12.5671 8.37037 12.7069 8.20084V8.20084C12.925 7.93664 13.1725 7.60219 13.5137 7.57215L14.3824 7.49566Z" fill="#FFF5F5"/>
</svg>
