<svg width="138" height="38" viewBox="0 0 138 38" fill="none" xmlns="http://www.w3.org/2000/svg">
<rect x="2.15332" y="2.93262" width="29.9244" height="32.8213" transform="rotate(3.76109 2.15332 2.93262)" fill="#6B0000"/>
<rect x="103.008" y="11.7998" width="24.1983" height="27.8972" transform="rotate(-29.0653 103.008 11.7998)" fill="#6B0000"/>
<rect x="70.6514" y="6.11816" width="28.3787" height="27.3454" transform="rotate(-0.237889 70.6514 6.11816)" fill="#6B0000"/>
<rect x="36.2871" y="6.82812" width="25.7404" height="29.9093" transform="rotate(-9.1639 36.2871 6.82812)" fill="#6B0000"/>
<path d="M26.3414 17.4055L23.1018 17.3523C22.9689 19.9605 22.7579 21.8472 22.3673 23.7011C21.3246 28.7246 19.36 31.4227 16.0225 33.6781C15.901 33.7661 15.576 33.4608 15.668 33.3423C18.2374 30.3541 19.4871 27.3442 20.1453 21.9843C20.4232 19.6786 20.4686 16.9189 20.5238 13.5594C20.5504 11.9396 20.5042 11.0987 20.4084 9.62697C21.8384 10.2506 22.1368 10.3455 23.5353 11.0586C24.8655 10.4503 26.2906 9.54365 27.4772 8.54302C28.1155 8.04344 28.6948 7.48289 29.1536 6.95036C31.1736 8.18373 32.1211 8.9494 32.1147 9.33935C32.1103 9.60931 31.8969 9.81583 30.789 9.67761C28.462 10.6895 25.2662 11.6271 23.2825 11.8345L23.2707 12.5544C23.245 14.1142 23.1928 15.4635 23.1431 16.6629L29.1723 16.762C30.4278 15.2224 30.7917 14.9884 31.0017 14.9918C31.2716 14.9963 31.5676 15.2412 32.7807 16.2812C33.3132 16.7401 33.5488 17.014 33.5453 17.2239C33.5419 17.4339 33.4504 17.5224 33.1504 17.5175L29.071 17.4504L28.9793 23.0297C28.9157 26.8991 28.8967 31.6995 28.8706 33.2893C28.8583 34.0392 28.2229 34.3588 27.1431 34.341C26.3632 34.3282 25.9472 34.0813 25.958 33.4214C25.9704 32.6715 26.1283 30.3638 26.2043 25.7444L26.3414 17.4055ZM13.4433 24.4845L13.423 25.7143C13.3367 30.9636 13.4036 32.3749 13.3937 32.9748C13.3794 33.8447 12.8645 34.1363 11.7547 34.118C10.9148 34.1042 10.6193 33.8293 10.6321 33.0494C10.6439 32.3295 10.8703 29.5129 10.9791 26.5443C8.83595 29.1494 7.52838 30.208 4.92604 31.5455C4.80507 31.6035 4.62953 31.3305 4.7215 31.212C7.55895 28.3483 9.1577 26.0043 10.5952 22.5174L7.71559 22.4701C7.17566 22.4612 6.60475 22.5118 5.88288 22.62L5.57117 21.5047C6.3781 21.698 7.00703 21.7683 7.60695 21.7782L10.9965 21.8339L11.0113 20.934C11.0261 20.0342 11.003 19.6137 10.9303 18.5624C13.4765 18.8143 14.3729 19.039 14.3655 19.489C14.3611 19.7589 14.1481 19.9355 13.5138 20.1951L13.4862 21.8748L15.5859 21.9094C16.6569 20.6368 17.0208 20.4027 17.2308 20.4062C17.5008 20.4106 17.8268 20.656 18.8328 21.5127C19.2769 21.88 19.5124 22.1539 19.5089 22.3639C19.5055 22.5739 19.414 22.6624 19.1141 22.6575L13.4748 22.5648L13.4507 24.0346C16.3214 24.6218 17.8029 25.7563 17.7793 27.1961C17.7655 28.036 17.2162 28.5971 16.4963 28.5852C15.7764 28.5734 15.4813 28.2685 15.1096 27.1522C14.7084 26.0055 14.1828 25.1267 13.4433 24.4845ZM11.1794 10.7054L11.212 8.72569C11.2248 7.9458 11.2066 7.2254 11.159 6.47451C14.4241 6.79823 14.8096 7.0746 14.8052 7.34456C14.8007 7.61453 14.4968 7.84957 13.863 8.07918L13.8191 10.7488L15.7988 10.7814C16.7499 9.50682 17.1138 9.27277 17.3238 9.27622C17.5937 9.28066 17.8897 9.52556 18.8958 10.3822C19.3098 10.7491 19.5453 11.023 19.5419 11.2329C19.5384 11.4429 19.447 11.5314 19.147 11.5265L8.49845 11.3514C7.95853 11.3426 7.41761 11.3937 6.69574 11.5018L6.38403 10.3866C7.19096 10.5798 7.81989 10.6502 8.41981 10.6601L11.1794 10.7054ZM7.65092 17.2783L13.0502 17.3671C13.6443 15.9066 14.022 14.8327 14.3097 13.7573C14.47 13.1298 14.6009 12.4719 14.7032 11.7235C17.0315 12.4518 17.954 12.9171 17.9471 13.337C17.9417 13.667 17.6997 13.783 16.8589 13.8292C15.6924 15.4302 15.0197 16.1993 13.8301 17.3799L15.7498 17.4115C17.0043 15.9319 17.3682 15.6978 17.5782 15.7013C17.8481 15.7057 18.1442 15.9506 19.2982 16.9297C19.8008 17.388 20.0363 17.6619 20.0328 17.8719C20.0294 18.0819 19.9379 18.1704 19.638 18.1655L7.66957 17.9687C7.12965 17.9598 6.61873 18.0114 5.89685 18.1196L5.58514 17.0043C6.42207 17.1981 7.021 17.268 7.65092 17.2783ZM11.5559 15.1822C11.5406 16.1121 10.9903 16.7331 10.1804 16.7198C9.31056 16.7055 9.19452 16.4636 8.98414 14.6599C8.85142 13.6075 8.68229 12.9447 8.24419 12.2174C8.15617 12.0959 8.30911 11.9184 8.4581 11.9809C10.515 12.7948 11.5766 13.9224 11.5559 15.1822Z" fill="#FFF5F5"/>
<path d="M122.359 19.0835L122.904 32.9328C122.939 33.8321 122.441 34.1519 121.362 34.1944C120.493 34.2286 120.121 33.943 120.095 33.2835C120.065 32.5041 120.031 27.0713 119.58 15.6201C119.376 10.4341 119.283 8.84655 119.067 7.17376C120.559 7.68548 120.802 7.76597 122.242 8.48989L128.537 8.24201C129.542 7.09156 129.775 6.90225 130.015 6.89281C130.315 6.88101 130.591 7.05024 131.641 7.78951C132.135 8.13034 132.323 8.3331 132.333 8.57291C132.346 8.90266 132.203 9.08842 131.498 9.47647C131.297 12.7569 131.203 13.4211 130.846 14.2758C130.572 14.9471 130.051 15.448 129.405 15.8037C128.934 16.0324 128.369 16.1748 127.769 16.1984C127.409 16.2125 127.286 16.1273 127.243 15.7988C127.048 14.6655 126.646 14.3511 124.734 13.826C124.581 13.7719 124.628 13.4398 124.779 13.4639C126.044 13.5642 127.308 13.6345 127.668 13.6204C128.057 13.605 128.292 13.4757 128.449 12.8691C128.604 12.2325 128.708 11.0575 128.774 8.92321L121.969 9.19115L122.331 18.394L128.656 18.145C129.656 16.8446 129.889 16.6553 130.129 16.6459C130.428 16.6341 130.675 16.8045 131.85 17.6589C132.376 18.0586 132.564 18.2613 132.574 18.5011C132.589 18.8908 132.444 19.0166 131.56 19.4417C131.01 22.2555 130.09 24.8137 128.886 27.0228C130.313 28.1976 132.004 29.2118 134.02 30.0632C134.172 30.1172 134.15 30.3283 134.001 30.3641C133.024 30.7029 132.766 31.0132 132.285 32.5333C132.178 32.8678 132.063 32.9924 131.853 33.0007C131.704 33.0066 131.366 32.8097 130.933 32.4965C129.667 31.6156 128.482 30.4914 127.472 29.2402C126.276 30.8785 124.854 32.1354 123.355 32.945C123.207 33.0109 123.053 32.8969 123.138 32.7734C124.317 31.466 125.417 29.6513 126.328 27.6339C124.76 25.1737 124.005 22.7716 123.348 19.0445L122.359 19.0835ZM128.834 18.8285L123.947 19.0209C124.639 21.3355 125.657 23.5472 127.26 25.3755C128.017 23.2441 128.589 20.9998 128.834 18.8285ZM113.045 12.0645L113.201 16.0214L115.449 15.9329C116.331 14.6972 116.682 14.4433 116.891 14.435C117.161 14.4244 117.5 14.6512 118.46 15.394C118.863 15.7084 119.113 15.9688 119.122 16.1786C119.13 16.3884 119.044 16.4819 118.744 16.4937L106.843 16.9623C106.363 16.9812 105.886 17.06 105.231 17.2059L104.858 16.1097C105.614 16.2601 106.156 16.2988 106.726 16.2764L110.503 16.1277L110.347 12.1707L107.769 12.2722C107.26 12.2923 106.782 12.3711 106.128 12.517L105.754 11.4209C106.511 11.5712 107.053 11.6099 107.622 11.5875L110.32 11.4813L110.249 9.68265C110.223 9.02316 110.124 8.03629 109.996 7.0506C113.456 7.2446 113.797 7.53138 113.809 7.83115C113.819 8.07096 113.5 8.35374 112.909 8.61716L113.018 11.375L114.577 11.3136C115.459 10.078 115.809 9.824 116.019 9.81574C116.289 9.80512 116.598 10.0331 117.558 10.7759C117.961 11.0903 118.211 11.3507 118.219 11.5605C118.228 11.7704 118.141 11.8638 117.841 11.8756L113.045 12.0645ZM113.461 22.6163L113.62 26.6632L115.329 26.5959C116.238 25.2991 116.589 25.0451 116.798 25.0369C117.068 25.0262 117.407 25.2531 118.429 26.0235C118.862 26.3667 119.113 26.627 119.121 26.8369C119.129 27.0467 119.043 27.1402 118.743 27.152L113.647 27.3526L113.711 28.9714C113.814 31.5794 113.947 32.685 113.972 33.3145C113.994 33.884 113.595 34.4102 112.336 34.4597C111.466 34.494 111.125 34.2072 111.102 33.6376C111.08 33.0681 111.122 31.8355 111.012 29.0476L110.949 27.4589L108.041 27.5734C107.562 27.5923 107.085 27.6711 106.43 27.817L106.056 26.7208C106.813 26.8712 107.355 26.9099 107.924 26.8874L110.922 26.7694L110.763 22.7225L107.195 22.863C106.716 22.8819 106.239 22.9607 105.584 23.1066L105.21 22.0105C105.967 22.1608 106.509 22.1995 107.078 22.1771L112.864 21.9493C113.181 20.8559 113.419 20.036 113.598 19.2483C113.777 18.4606 113.87 17.7664 113.898 16.9547C116.141 17.4969 117.148 17.9076 117.164 18.2973C117.175 18.597 116.999 18.6941 116.103 18.8194C115.114 20.3895 114.687 20.9768 113.763 21.9139L115.622 21.8407C116.504 20.605 116.854 20.351 117.064 20.3428C117.334 20.3322 117.643 20.5602 118.633 21.3018C119.036 21.6162 119.286 21.8765 119.294 22.0864C119.303 22.2962 119.216 22.3897 118.916 22.4015L113.461 22.6163ZM110.938 20.3138C110.97 21.1232 110.455 21.7739 109.676 21.8046C108.926 21.8341 108.611 21.4562 108.512 20.4693C108.335 19.0052 108.197 18.5603 107.647 17.5611C107.583 17.4436 107.638 17.3213 107.79 17.3754C109.768 18.0481 110.889 19.0548 110.938 20.3138Z" fill="#FFF5F5"/>
<path d="M90.1313 10.4721L90.0839 12.7358L93.3232 12.8037C94.3964 11.7068 94.7607 11.5062 94.9706 11.5106C95.2406 11.5162 95.5661 11.7313 96.6306 12.4825C97.074 12.8042 97.309 13.0434 97.3052 13.2255C97.3014 13.4077 97.2098 13.4838 96.9099 13.4776L90.0714 13.3343L90.0196 15.8063L94.9085 15.9087C96.1644 14.6854 96.5287 14.4848 96.7386 14.4892C97.0086 14.4949 97.3042 14.7093 98.427 15.5398C98.8993 15.9142 99.1343 16.1534 99.1305 16.3355C99.1267 16.5177 99.0351 16.5938 98.7351 16.5875L81.5189 16.2269C81.069 16.2175 80.618 16.2601 80.016 16.3516L79.7062 15.382C80.4528 15.5538 81.0216 15.6178 81.5914 15.6297L87.2902 15.7491L87.342 13.2771L83.4128 13.1948C83.0229 13.1867 82.6319 13.2305 82.0898 13.3233L81.7801 12.3536C82.3767 12.5223 82.8555 12.5844 83.3054 12.5939L87.3545 12.6787L87.4019 10.4149L82.303 10.3081C81.8831 10.2993 81.4921 10.3432 80.9501 10.4359L80.6403 9.46627C81.2669 9.63559 81.7157 9.69705 82.1956 9.70711L87.4144 9.81643L87.4275 9.19194C87.4488 8.17714 87.4062 7.34323 87.3615 6.61341C90.8348 6.97251 91.1592 7.23962 91.1538 7.49983C91.15 7.68197 90.8446 7.93589 90.1787 8.20829L90.1439 9.8736L94.4929 9.9647C95.6904 8.66216 96.0547 8.46154 96.2647 8.46594C96.5346 8.47159 96.8602 8.68666 98.0719 9.5711C98.6036 9.97271 98.8387 10.2119 98.8349 10.3941C98.831 10.5762 98.7394 10.6524 98.4395 10.6461L90.1313 10.4721ZM92.8243 25.1584L84.1862 24.9774C84.1694 27.2158 84.1448 28.3867 84.1203 29.5576C84.1045 30.3122 83.5886 30.5878 82.4189 30.5633C81.609 30.5463 81.2851 30.2532 81.2971 29.6807C81.3211 28.5358 81.4672 27.2894 81.5642 22.6577C81.6024 20.8363 81.6106 19.0142 81.5593 17.1649C82.987 17.7675 83.1953 17.85 84.503 18.4501L92.7812 18.6235C93.6684 17.809 93.9117 17.6579 94.1516 17.663C94.4515 17.6693 94.7182 17.831 95.7827 18.5822C96.2555 18.9305 96.4317 19.1164 96.4273 19.3246C96.4229 19.5328 96.3013 19.6083 95.6022 20.0362L95.5744 21.3633C95.4627 26.6974 95.5374 27.4279 95.5238 28.0784C95.5014 29.1452 95.2506 29.6606 94.6115 30.0898C93.9723 30.5189 93.1581 30.7101 92.4083 30.6944C91.9884 30.6856 91.8406 30.5784 91.7861 30.3169C91.6895 29.1956 91.2195 28.7171 88.8609 28.1471C88.7115 28.1179 88.7175 27.8317 88.8674 27.8348C90.3355 27.9437 91.3547 27.9911 92.4644 28.0143C92.6744 28.0187 92.7666 27.9165 92.772 27.6563L92.8243 25.1584ZM92.8369 24.5599L92.8865 22.192L84.2484 22.0111L84.1988 24.3789L92.8369 24.5599ZM92.899 21.5936L92.9486 19.2257L84.3105 19.0448L84.2609 21.4126L92.899 21.5936ZM73.9921 11.6959C74.3024 12.6396 74.4622 13.6061 74.4443 14.4648C74.4083 16.1821 73.6906 17.4947 72.3109 17.4658C71.5611 17.4501 71.0627 16.893 71.079 16.1124C71.091 15.5399 71.3086 15.18 71.8856 14.8537C73.1611 14.1255 73.5335 13.5346 73.6611 11.741C73.6639 11.6109 73.9649 11.5652 73.9921 11.6959ZM78.0041 7.82311L77.9295 11.3879C77.7316 20.8333 77.657 27.2616 77.6117 29.4213C77.597 30.1239 77.02 30.4502 75.9103 30.4269C75.1305 30.4106 74.746 30.1422 74.7596 29.4917C74.7912 27.9825 75.0704 21.8188 75.2622 12.6597C75.338 9.04282 75.3369 7.66312 75.2453 6.30754C78.5974 6.71617 78.9557 6.80177 78.9481 7.16606C78.9426 7.42626 78.6683 7.62877 78.0041 7.82311ZM81.1508 13.7462C81.1372 14.3967 80.6474 14.855 79.9276 14.8399C79.1178 14.823 78.8849 14.4797 78.91 13.2827C78.9296 12.346 78.7104 11.3522 78.3314 10.8236C78.2436 10.7177 78.3657 10.6161 78.4846 10.6706C80.2657 11.593 81.1742 12.6273 81.1508 13.7462Z" fill="#FFF5F5"/>
<path d="M50.3965 16.7723L50.084 13.7585L44.9585 14.29C44.3861 14.3493 43.846 14.4656 43.1038 14.6632L42.7032 13.5888C43.5543 13.6815 44.1849 13.6765 44.8093 13.6117L50.0128 13.0722L49.7158 10.2075L42.8472 10.9197C42.2748 10.9791 41.7086 11.0981 40.9404 11.2984L40.5398 10.224C41.4169 10.314 42.0475 10.309 42.6979 10.2415L47.1209 9.78289C46.8713 9.65797 46.7133 9.4029 46.5338 8.93895C46.021 7.5444 45.837 7.29203 44.9773 6.3557C44.8869 6.24443 44.9495 6.08714 45.0827 6.10349C47.4415 6.28115 48.7021 7.02511 48.8289 8.24855C48.8908 8.84535 48.6052 9.3877 48.1356 9.67768L52.9748 9.17589C53.2097 8.39752 53.4155 7.592 53.5753 6.85156C53.7322 6.08128 53.8431 5.37608 53.8456 4.89324C56.7149 5.68152 57.1299 5.87977 57.1732 6.29753C57.2134 6.68545 56.9886 6.79925 56.081 6.92352C55.4497 7.68268 54.6165 8.5231 53.9375 9.07608L57.8141 8.67411C58.8302 7.06071 59.1176 6.78961 59.2998 6.77073C59.5339 6.74645 59.8449 6.95549 61.0366 7.79707C61.5804 8.22325 61.8133 8.44039 61.835 8.64927C61.8567 8.85815 61.7879 8.95576 61.5277 8.98274L52.1614 9.95394L52.4585 12.8186L56.4651 12.4031C57.4812 10.7897 57.7687 10.5186 57.9508 10.4997C58.185 10.4755 58.4959 10.6845 59.6356 11.5315C60.1504 11.9305 60.3863 12.1775 60.408 12.3864C60.4297 12.5953 60.3609 12.6929 60.1007 12.7198L52.5296 13.5049L52.8421 16.5187L59.5807 15.82C60.5645 14.1496 60.852 13.8785 61.0341 13.8597C61.2683 13.8354 61.5792 14.0444 62.8552 14.9376C63.4251 15.3611 63.658 15.5782 63.6796 15.7871C63.7013 15.996 63.6325 16.0936 63.3723 16.1206L48.7245 17.6394C48.5739 18.4694 48.4232 19.2993 48.1915 20.1075C48.3309 20.1836 48.4993 20.2867 48.7199 20.3845L57.7739 19.4457C58.4858 18.1956 58.7274 17.9896 58.9356 17.968C59.1957 17.941 59.4225 18.0985 60.4259 18.8993C60.8855 19.2739 61.0633 19.4666 61.088 19.7053C61.1189 20.0037 60.9845 20.2287 60.4784 20.6733L60.6516 22.3444C61.1096 26.7607 61.5553 29.7909 61.6574 30.7756C61.7471 31.6409 61.267 32.0828 60.3303 32.1799C59.6018 32.2555 59.2587 31.9895 59.1751 31.1838L59.1133 30.587L49.773 31.5555L49.8411 32.212C49.9246 33.0176 49.4123 33.4025 48.5017 33.497C47.7732 33.5725 47.4331 33.3363 47.3588 32.6201C47.2722 31.7846 47.2445 30.2493 46.8856 26.7879L46.6319 24.341C45.3338 27.0392 43.5762 29.3629 41.4643 31.0598C41.3664 31.1302 41.1075 30.9158 41.2023 30.8155C43.6996 27.5103 45.6317 22.3033 46.1227 17.9092L42.9226 18.241C42.2721 18.3085 41.6279 18.4356 40.7557 18.6467L40.355 17.5723C41.3362 17.6515 42.0449 17.6383 42.7734 17.5628L50.3965 16.7723ZM58.7296 26.8868L49.3893 27.8553L49.7018 30.8692L59.0421 29.9007L58.7296 26.8868ZM58.6584 26.2005L58.3738 23.4552L49.0335 24.4237L49.3181 27.169L58.6584 26.2005ZM58.3026 22.7689L58.0272 20.1131L48.6869 21.0816L48.9623 23.7374L58.3026 22.7689Z" fill="#FFF5F5"/>
</svg>
