<svg width="236" height="78" viewBox="0 0 236 78" fill="none" xmlns="http://www.w3.org/2000/svg">
<path d="M71.694 18.788C72.156 19.294 72.398 19.91 72.398 20.504C72.398 21.208 72.112 22.308 71.826 23.078C71.034 25.168 69.912 27.214 68.68 28.776C68.064 29.568 67.382 30.206 66.458 30.206C65.82 30.206 65.27 29.92 64.808 29.326C64.192 28.556 63.796 27.61 63.796 26.07C63.796 24.376 64.5 22.374 65.864 20.878C67.294 19.316 69.692 17.996 72.904 17.996C75.17 17.996 76.93 18.81 78.008 19.69C79.724 21.076 80.45 22.88 80.45 24.684C80.45 27.17 79.504 28.578 78.074 29.832C76.446 31.24 73.432 32.164 70.748 32.296C70.594 32.296 70.44 32.164 70.44 32.032C70.44 31.856 70.55 31.79 70.836 31.724C73.124 31.284 75.456 30.272 76.82 28.93C78.008 27.72 78.8 26.312 78.8 24.376C78.8 23.1 78.316 21.274 76.952 20.174C75.918 19.36 74.62 18.744 72.86 18.744C72.398 18.744 72.068 18.744 71.694 18.788ZM71.1 18.854C69.142 19.184 67.756 20.13 66.854 21.032C65.622 22.264 64.94 24.068 64.94 25.784C64.94 26.73 65.116 27.28 65.424 27.83C65.666 28.27 66.018 28.578 66.458 28.578C66.92 28.578 67.36 28.182 67.998 27.324C69.296 25.608 70.506 23.386 71.144 21.604C71.408 20.878 71.452 20.328 71.452 19.866C71.452 19.338 71.276 19.03 71.1 18.854ZM96.748 20.472H92.452V32.496H104.74C105.964 31.032 106.132 30.912 106.276 30.912C106.444 30.912 106.612 31.032 107.836 32.04C108.436 32.544 108.556 32.712 108.556 32.856C108.556 33 108.46 33.096 108.244 33.096H92.452V34.104C92.452 34.704 92.116 34.968 91.372 34.968C90.772 34.968 90.556 34.752 90.556 34.248C90.556 33.528 90.7 31.224 90.7 21.096V20.472H89.548C88.828 20.472 88.276 20.496 87.508 20.616L87.268 19.704C88.18 19.824 88.78 19.872 89.548 19.872H90.7C90.7 16.2 90.676 14.832 90.556 13.584C93.124 13.896 93.268 13.944 93.268 14.304C93.268 14.496 93.124 14.664 92.452 14.928V19.872H96.748V19.2C96.748 15.72 96.748 14.64 96.652 13.344C98.836 13.584 99.22 13.68 99.22 14.016C99.22 14.208 99.1 14.352 98.476 14.616V19.872H102.964V17.04C102.964 15.048 102.916 14.256 102.844 13.344C105.004 13.56 105.484 13.68 105.484 14.016C105.484 14.208 105.34 14.352 104.692 14.64V19.872H106.156C107.26 18.552 107.452 18.432 107.596 18.432C107.764 18.432 107.956 18.552 109.108 19.464C109.66 19.896 109.78 20.064 109.78 20.208C109.78 20.376 109.684 20.472 109.444 20.472H104.692C104.716 25.08 104.788 27.36 104.788 28.128C104.788 28.656 104.428 28.896 103.732 28.896C103.18 28.896 102.964 28.704 102.964 28.248V27.216H98.476V28.2C98.476 28.752 98.092 28.992 97.396 28.992C96.844 28.992 96.652 28.8 96.652 28.368C96.652 27.936 96.724 26.184 96.748 20.472ZM98.476 20.472V26.616H102.964V20.472H98.476ZM132.052 22.752H127.564C128.812 24.24 130.132 25.224 131.644 25.92C133.084 26.592 135.004 27.144 137.356 27.36C137.5 27.384 137.476 27.648 137.332 27.672C136.684 27.792 136.396 28.056 136.108 28.8C135.988 29.16 135.916 29.232 135.724 29.232C135.46 29.232 135.148 29.16 134.74 29.04C133.66 28.704 132.364 28.056 131.26 27.312C131.02 27.144 130.756 26.976 130.54 26.808C130.492 26.952 130.348 27.096 129.844 27.288V29.04C129.844 32.112 129.94 33.72 129.94 34.176C129.94 34.728 129.58 34.992 128.836 34.992C128.212 34.992 128.044 34.752 128.044 34.272C128.044 33.912 128.14 32.688 128.14 29.88C128.14 27.864 128.14 27.192 128.02 26.088C129.028 26.208 129.652 26.304 130.012 26.4C128.788 25.344 127.828 24.096 126.964 22.752H125.236C124.444 24.072 123.412 25.176 122.212 26.136C124.036 26.352 124.348 26.448 124.348 26.736C124.348 26.904 124.204 27.048 123.628 27.288C123.484 29.664 122.956 31.224 121.852 32.472C120.748 33.72 119.02 34.536 116.5 35.112C116.356 35.136 116.236 34.824 116.38 34.776C118.42 33.888 119.788 32.856 120.676 31.536C121.468 30.336 121.804 28.872 121.804 27.384C121.804 27.096 121.804 26.808 121.756 26.496C120.004 27.744 117.82 28.704 115.204 29.304C115.036 29.352 114.892 28.944 115.06 28.896C118.708 27.6 121.66 25.272 123.1 22.752H119.932V23.088C119.932 23.664 119.596 23.856 118.9 23.856C118.348 23.856 118.156 23.688 118.156 23.208C118.156 22.512 118.228 21.408 118.228 17.544C118.228 15.6 118.204 14.568 118.132 13.392C119.02 13.752 119.38 13.944 120.172 14.4H131.86C132.604 13.608 132.724 13.512 132.868 13.512C133.036 13.512 133.18 13.608 133.972 14.208C134.332 14.52 134.428 14.64 134.428 14.784C134.428 15 134.356 15.12 133.78 15.552V17.4C133.78 20.832 133.876 22.488 133.876 23.016C133.876 23.616 133.54 23.856 132.844 23.856C132.316 23.856 132.052 23.688 132.052 23.184V22.752ZM132.052 22.152V18.816H126.748V22.152H132.052ZM132.052 18.216V15H126.748V18.216H132.052ZM125.068 15H119.932V18.216H125.068V15ZM119.932 18.816V22.152H125.068V18.816H119.932ZM154.218 19.954L154.196 19.866C151.776 20.614 149.29 21.45 147.596 22.044C147.288 22.154 146.936 22.308 146.65 22.55C146.496 22.682 146.342 22.77 146.056 22.77C145.682 22.792 145.154 22.506 144.582 21.846C144.23 21.428 143.944 21.01 143.922 20.614C143.922 20.306 144.01 20.064 144.12 20.064C144.23 20.064 144.318 20.152 144.406 20.24C145.044 20.878 145.374 21.01 146.056 21.01C146.32 20.988 146.804 20.922 147.376 20.768C150.566 19.954 153.866 19.096 157.1 18.26C157.562 18.15 157.782 18.04 157.958 17.93C158.178 17.798 158.376 17.732 158.706 17.71C159.146 17.71 159.674 17.864 160.136 18.084C160.444 18.216 160.73 18.436 160.73 18.766C160.752 19.228 160.51 19.426 159.96 19.448C158.53 19.492 157.254 19.558 156.088 19.932C154.768 20.35 153.8 21.032 152.92 21.978C151.798 23.188 151.182 24.728 151.182 26.246C151.204 27.676 151.776 28.82 152.7 29.546C153.91 30.492 155.648 30.844 156.726 30.888C157.298 30.91 157.694 30.954 158.244 31.262C158.706 31.526 158.838 31.834 158.838 32.208C158.838 32.582 158.596 32.846 157.672 32.846C156.088 32.846 153.954 32.23 152.524 31.218C151.204 30.272 150.17 28.798 150.17 26.862C150.17 25.454 150.478 24.222 151.16 23.1C151.776 21.956 152.898 20.834 154.218 19.954ZM157.496 22.726C157.628 22.726 157.782 22.77 157.848 22.792C158.442 22.968 159.102 23.298 159.762 23.892C160.29 24.354 160.598 24.75 160.598 25.212C160.598 25.564 160.378 25.872 159.982 25.872C159.696 25.872 159.454 25.674 159.256 25.278C158.926 24.618 158.046 23.65 157.408 23.166C157.32 23.1 157.254 23.012 157.254 22.946C157.254 22.836 157.342 22.726 157.496 22.726ZM159.278 21.23C159.388 21.23 159.564 21.274 159.762 21.318C160.356 21.472 160.906 21.736 161.522 22.176C162.05 22.55 162.534 23.056 162.534 23.562C162.534 24.002 162.27 24.266 161.94 24.266C161.654 24.266 161.478 24.156 161.236 23.738C160.84 23.056 159.96 22.11 159.212 21.67C159.124 21.626 159.058 21.538 159.058 21.45C159.058 21.34 159.146 21.23 159.278 21.23ZM168.54 29.194C170.058 29.458 171.466 30.052 172.456 30.866C173.49 31.724 173.886 32.516 173.886 33.33C173.886 34.012 173.424 34.54 172.742 34.54C172.148 34.54 171.906 34.122 171.664 33.594C170.96 31.79 169.97 30.624 168.408 29.678C168.32 29.612 168.298 29.524 168.298 29.414C168.298 29.282 168.386 29.194 168.54 29.194ZM13.272 61.776V62.832C15.528 63.432 16.752 64.488 16.752 65.496C16.752 66.072 16.44 66.432 15.984 66.432C15.576 66.432 15.384 66.216 15.072 65.496C14.664 64.608 14.016 63.84 13.272 63.288V64.104C13.272 68.616 13.344 69.84 13.344 70.248C13.344 70.824 13.032 71.04 12.288 71.04C11.76 71.04 11.568 70.848 11.568 70.344C11.568 69.624 11.712 66.768 11.76 64.32C10.272 66.48 9.024 67.728 6.864 69.024C6.72 69.12 6.528 68.832 6.648 68.712C8.88 66.696 10.416 64.464 11.424 61.776H8.88C8.4 61.776 8.016 61.824 7.368 61.92L7.128 60.984C7.8 61.152 8.256 61.176 8.832 61.176H11.712V60.888C11.712 59.856 11.664 59.376 11.592 58.656C13.44 58.848 13.944 59.016 13.944 59.304C13.944 59.472 13.8 59.616 13.272 59.856V61.176H15.456C16.248 60.192 16.416 60.096 16.56 60.096C16.728 60.096 16.896 60.192 17.784 60.888C18.144 61.248 18.264 61.416 18.264 61.56C18.264 61.704 18.192 61.776 17.952 61.776H13.272ZM25.728 57.48V63.384C25.728 66.648 25.776 69.36 25.776 70.2C25.776 70.704 25.392 70.968 24.648 70.968C24.144 70.968 23.904 70.776 23.904 70.32C23.904 69.84 24 68.136 24 64.584V57.48H20.904C20.832 60.12 20.592 61.872 20.184 63.552C19.464 66.624 18.192 68.568 15.72 70.512C15.576 70.608 15.312 70.368 15.408 70.248C17.352 67.92 18.312 65.856 18.792 62.688C19.104 60.792 19.224 58.656 19.224 55.56C19.224 53.256 19.2 52.68 19.08 51.528C19.92 51.864 20.328 52.032 21.144 52.464C22.632 51.912 23.856 51.12 25.056 50.184C25.416 49.896 25.752 49.584 26.088 49.176C27.576 50.112 28.08 50.568 28.08 50.808C28.08 51.024 27.816 51.168 26.928 51C25.056 52.008 22.992 52.704 20.952 53.04V55.104C20.952 55.728 20.928 56.328 20.928 56.88H26.28C27.216 55.728 27.408 55.608 27.552 55.608C27.72 55.608 27.864 55.728 28.872 56.592C29.304 56.952 29.424 57.096 29.424 57.24C29.424 57.408 29.328 57.48 29.088 57.48H25.728ZM13.368 52.224H15.48C16.2 51.264 16.368 51.144 16.512 51.144C16.68 51.144 16.848 51.264 17.688 51.96C18.048 52.248 18.168 52.44 18.168 52.584C18.168 52.728 18.096 52.824 17.856 52.824H9.36C8.88 52.824 8.52 52.848 7.92 52.968L7.656 52.056C8.328 52.176 8.76 52.224 9.312 52.224H11.712V50.664C11.712 50.112 11.688 49.68 11.616 48.912C13.824 49.152 14.136 49.32 14.136 49.56C14.136 49.728 13.968 49.92 13.368 50.16V52.224ZM13.704 57.528H15.672C16.536 56.472 16.704 56.376 16.848 56.376C17.016 56.376 17.16 56.472 18.096 57.216C18.504 57.576 18.624 57.744 18.624 57.888C18.624 58.056 18.552 58.128 18.312 58.128H8.784C8.304 58.128 7.944 58.176 7.32 58.272L7.08 57.36C7.752 57.48 8.184 57.528 8.784 57.528H13.152C13.632 56.424 13.968 55.488 14.208 54.672C14.352 54.12 14.448 53.592 14.496 53.112C16.032 53.592 16.704 53.952 16.704 54.216C16.704 54.48 16.512 54.576 15.864 54.624C15.048 55.872 14.544 56.592 13.704 57.528ZM10.728 57.048C10.224 57.048 10.08 56.88 9.96 55.872C9.864 55.008 9.624 54.312 9.216 53.544C9.168 53.448 9.312 53.352 9.408 53.4C10.728 54.048 11.592 55.08 11.592 55.944C11.592 56.592 11.208 57.048 10.728 57.048ZM42.994 56.24C43.72 55.976 44.534 55.646 45.238 55.294C45.568 55.14 45.854 55.074 46.03 55.052C46.382 55.052 46.822 55.272 46.822 55.69C46.844 56.064 46.602 56.284 46.118 56.46C45.128 56.856 43.588 57.362 42.51 57.648C41.19 61.256 39.914 64.886 38.44 68.428C38.22 68.978 37.89 69.176 37.538 69.176C37.362 69.176 37.164 69.066 37.032 68.934C36.9 68.758 36.834 68.604 36.812 68.34C36.812 68.12 36.922 67.856 37.098 67.504C38.638 64.38 39.936 61.278 41.212 57.934C40.222 58.154 39.452 58.264 38.88 58.264C38.132 58.264 37.318 58 36.746 57.538C36.394 57.252 36.152 57.01 36.152 56.768C36.152 56.636 36.284 56.548 36.35 56.548C36.46 56.548 36.526 56.57 36.68 56.658C37.274 57.054 37.846 57.186 38.55 57.186C39.254 57.186 40.64 56.878 41.674 56.592C41.938 55.734 42.136 55.096 42.29 54.502C42.4 54.15 42.466 53.732 42.466 53.424C42.466 53.182 42.356 52.962 42.07 52.83C41.74 52.676 41.498 52.61 41.19 52.544C41.036 52.5 40.992 52.434 40.992 52.346C40.992 52.236 41.102 52.17 41.19 52.126C41.52 51.928 41.828 51.884 42.026 51.884C42.4 51.884 43.434 52.236 44.006 52.72C44.38 53.006 44.424 53.204 44.424 53.402C44.424 53.644 44.314 53.82 44.138 53.952C43.83 54.194 43.72 54.392 43.5 54.92C43.214 55.58 43.104 55.888 42.994 56.24ZM43.808 65.92C43.808 65.282 43.962 64.732 44.16 64.402C44.292 64.16 44.424 64.006 44.556 64.006C44.644 64.006 44.732 64.072 44.732 64.16C44.732 64.27 44.688 64.402 44.666 64.512C44.578 64.82 44.556 65.216 44.556 65.524C44.556 66.14 44.798 66.69 45.282 67.064C45.964 67.592 47.086 67.812 48.142 67.812C49.308 67.812 50.078 67.702 50.43 67.592C50.76 67.482 51.002 67.416 51.354 67.416C51.662 67.416 52.058 67.482 52.344 67.636C52.652 67.812 52.806 68.032 52.806 68.384C52.806 68.802 52.388 69 51.64 69.11C51.046 69.176 50.012 69.242 49.264 69.242C47.79 69.264 46.118 69.044 44.974 68.208C44.248 67.68 43.808 66.998 43.808 65.92ZM48.868 59.606C48.626 59.606 48.098 59.584 47.68 59.628C46.866 59.716 45.986 59.87 44.886 60.376C44.82 60.398 44.71 60.442 44.644 60.442C44.534 60.442 44.424 60.354 44.424 60.266C44.424 60.156 44.468 60.068 44.578 59.98C44.996 59.628 45.436 59.32 46.052 59.078C46.976 58.704 47.922 58.55 48.736 58.55C49.704 58.528 50.694 58.726 51.31 58.99C51.816 59.21 52.102 59.408 52.102 59.892C52.102 60.222 51.86 60.442 51.486 60.442C51.266 60.442 51.09 60.376 50.98 60.332C50.716 60.244 50.518 60.178 50.276 60.178C50.078 60.178 49.77 60.244 49.374 60.486C48.824 60.816 47.966 61.41 47.218 61.872C47.086 61.96 46.998 62.004 46.888 62.004C46.822 62.004 46.69 61.85 46.69 61.762C46.69 61.718 46.734 61.608 46.844 61.52C47.35 61.058 48.098 60.376 48.934 59.738C49.022 59.672 49 59.606 48.868 59.606ZM66.468 57.296C65.918 57.362 65.082 57.472 64.488 57.472C63.938 57.472 63.41 57.406 62.948 57.164C62.486 56.922 62.156 56.658 61.848 56.108C61.804 56.02 61.804 55.954 61.804 55.888C61.804 55.8 61.914 55.712 61.98 55.712C62.068 55.712 62.134 55.734 62.244 55.844C62.772 56.284 63.432 56.438 64.092 56.438C64.972 56.438 65.962 56.284 66.974 56.064C67.304 55.206 67.546 54.458 67.722 53.754C67.81 53.424 67.854 53.182 67.854 52.984C67.854 52.786 67.744 52.588 67.436 52.456C67.128 52.324 66.776 52.214 66.534 52.17C66.446 52.148 66.402 52.126 66.402 52.06C66.402 51.972 66.49 51.884 66.578 51.818C66.82 51.664 67.018 51.62 67.392 51.62C67.722 51.62 68.668 51.862 69.262 52.236C69.592 52.456 69.79 52.61 69.79 52.94C69.79 53.16 69.702 53.314 69.438 53.512C69.196 53.688 69.042 54.04 68.844 54.48C68.69 54.81 68.492 55.272 68.316 55.712C68.888 55.536 69.482 55.316 70.098 55.03C70.582 54.81 70.934 54.7 71.154 54.7C71.726 54.7 72.034 54.986 72.034 55.36C72.034 55.734 71.814 55.91 71.22 56.108C70.45 56.372 69.108 56.746 67.766 57.054C66.49 60.156 65.17 62.928 63.718 65.876C63.542 66.25 63.278 66.47 62.926 66.47C62.552 66.47 62.134 66.25 62.134 65.678C62.134 65.502 62.178 65.304 62.42 64.952C63.96 62.51 65.302 59.936 66.468 57.296ZM74.476 58.858V58.77C73.882 58.462 73.244 58.418 72.54 58.396C72.166 58.396 71.792 58.418 71.506 58.462C71.374 58.484 71.286 58.484 71.22 58.484C71.11 58.484 71.022 58.374 71.022 58.242C71.022 58.154 71.11 58.066 71.242 58.022C71.924 57.758 72.672 57.648 73.288 57.648C74.652 57.648 76.126 58.088 77.072 58.704C77.622 59.056 78.062 59.518 78.062 60.002C78.062 60.354 77.798 60.684 77.402 60.684C77.16 60.684 76.918 60.552 76.742 60.398C76.082 59.804 75.466 59.452 74.916 59.452C73.86 59.452 72.782 59.76 72.782 61.498C72.782 62.312 73.178 64.138 73.53 65.612C75.268 66.206 76.83 66.888 77.534 67.482C77.886 67.768 77.974 68.076 77.974 68.34C77.974 68.802 77.688 69.066 77.248 69.088C77.006 69.088 76.742 68.978 76.434 68.714C75.62 68.01 74.718 67.438 73.574 66.91C73.574 67.9 73.288 68.56 72.738 69.022C72.166 69.528 71.44 69.792 70.164 69.792C68.36 69.792 67.084 68.868 67.084 67.482C67.084 66.052 68.536 65.216 70.428 65.216C70.956 65.216 71.506 65.238 72.144 65.348C72.056 64.204 71.858 63.016 71.858 61.938C71.858 59.892 72.914 59.21 74.476 58.858ZM72.254 66.492C71.682 66.272 70.78 66.118 70.12 66.118C68.888 66.118 67.81 66.602 67.81 67.504C67.81 68.164 68.426 68.714 69.944 68.714C70.714 68.714 71.264 68.538 71.682 68.164C72.122 67.768 72.276 67.306 72.276 66.822C72.276 66.734 72.276 66.624 72.254 66.492ZM104.99 53.468H103.142C102.592 54.7 101.844 55.8 100.898 56.746C102.416 57.67 104 58 105.584 58.176C105.672 58.176 105.672 58.374 105.584 58.396C104.99 58.528 104.726 58.77 104.55 59.386C104.484 59.606 104.374 59.694 104.198 59.694C104.088 59.694 103.89 59.65 103.67 59.562C102.636 59.144 101.558 58.594 100.15 57.384C98.852 58.352 97.268 59.012 95.222 59.386C95.112 59.408 95.024 59.188 95.134 59.144C96.916 58.462 98.302 57.626 99.402 56.592C98.808 55.866 98.28 55.096 97.862 54.26C97.29 54.986 96.63 55.646 95.794 56.24C95.706 56.306 95.552 56.152 95.618 56.064C96.476 54.964 97.18 53.556 97.664 52.258C97.862 51.686 97.994 51.136 98.06 50.608C99.842 51.048 100.062 51.158 100.062 51.378C100.062 51.554 99.864 51.686 99.292 51.774C99.116 52.17 98.918 52.566 98.72 52.918H102.614C103.362 51.972 103.538 51.862 103.67 51.862C103.824 51.862 104.044 51.972 104.836 52.654C105.188 52.962 105.276 53.138 105.276 53.27C105.276 53.402 105.21 53.468 104.99 53.468ZM101.514 53.468H98.39C98.302 53.622 98.192 53.776 98.104 53.93C98.61 54.7 99.204 55.448 99.93 56.042C100.59 55.272 101.118 54.392 101.514 53.468ZM87.302 56.614V55.932C86.73 56.57 86.07 57.12 85.256 57.604C85.146 57.67 84.97 57.472 85.058 57.384C85.982 56.372 86.84 55.184 87.28 54.194C87.5 53.71 87.588 53.424 87.654 53.05C87.984 53.138 88.248 53.204 88.446 53.248V53.182C88.446 53.138 88.446 52.984 88.468 52.676H86.928C86.532 52.676 86.224 52.72 85.674 52.808L85.454 51.972C86.026 52.082 86.444 52.126 86.928 52.126H88.468V51.752C88.468 51.246 88.468 51.07 88.358 50.498C90.184 50.696 90.316 50.784 90.316 50.982C90.316 51.092 90.228 51.202 89.744 51.4V52.126H91.702V51.862C91.702 51.268 91.702 51.092 91.636 50.498C93.374 50.696 93.572 50.762 93.572 50.982C93.572 51.114 93.506 51.18 93 51.4V52.126H94.32C94.87 51.422 95.024 51.312 95.178 51.312C95.31 51.312 95.464 51.422 96.19 51.994C96.432 52.192 96.542 52.346 96.542 52.478C96.542 52.61 96.454 52.676 96.256 52.676H93C93.022 52.94 93.022 53.072 93.022 53.138C93.022 53.534 92.714 53.666 92.23 53.666C91.834 53.666 91.658 53.556 91.658 53.226C91.658 53.16 91.68 52.984 91.68 52.676H89.744C89.766 52.918 89.766 53.028 89.766 53.094C89.766 53.468 89.524 53.666 89.018 53.666H88.842C88.732 53.82 88.644 53.996 88.556 54.172H93.792C94.276 53.578 94.386 53.49 94.54 53.49C94.672 53.49 94.804 53.578 95.398 54.062C95.684 54.304 95.75 54.436 95.75 54.568C95.75 54.7 95.662 54.788 95.222 55.14C95.112 56.592 94.914 57.692 94.606 58.462C94.408 58.946 94.166 59.298 93.858 59.496C93.594 59.694 93.198 59.782 92.912 59.782C92.626 59.782 92.538 59.738 92.494 59.496C92.406 59.056 92.186 58.924 91.196 58.726C91.086 58.704 91.086 58.44 91.196 58.462C91.966 58.55 92.362 58.572 92.626 58.572C93.088 58.572 93.242 58.44 93.396 58.022C93.682 57.318 93.836 56.13 93.902 54.722H88.204C88.094 54.92 87.94 55.118 87.808 55.316C88.028 55.382 88.226 55.47 88.512 55.602H91.02C91.372 55.228 91.482 55.118 91.614 55.118C91.768 55.118 91.9 55.184 92.318 55.492C92.582 55.712 92.67 55.822 92.67 55.954C92.67 56.108 92.582 56.218 92.252 56.438V56.658C92.252 57.384 92.274 57.67 92.274 57.758C92.274 58.066 92.054 58.22 91.636 58.22C91.328 58.22 91.152 58.132 91.108 57.956H88.49V58.066C88.49 58.418 88.248 58.572 87.786 58.572C87.434 58.572 87.28 58.418 87.28 58.11C87.28 57.956 87.302 57.692 87.302 56.614ZM91.108 57.406V56.152H88.49V57.406H91.108ZM102.02 66.426H89.656C89.656 66.822 89.392 67.042 88.754 67.042C88.27 67.042 88.094 66.888 88.094 66.558C88.094 66.074 88.182 65.37 88.182 62.796C88.182 61.212 88.16 60.354 88.072 59.276C88.82 59.54 89.15 59.694 89.788 60.046H100.15C100.832 59.232 100.942 59.166 101.096 59.166C101.228 59.166 101.382 59.232 102.24 59.914C102.548 60.134 102.614 60.244 102.614 60.398C102.614 60.53 102.526 60.596 102.306 60.596H95.772V62.004H99.512C100.106 61.3 100.282 61.19 100.392 61.19C100.524 61.19 100.7 61.3 101.382 61.85C101.624 62.048 101.756 62.224 101.756 62.334C101.756 62.488 101.668 62.554 101.448 62.554H95.772V63.874H99.534C100.106 63.192 100.26 63.082 100.392 63.082C100.524 63.082 100.678 63.192 101.404 63.72C101.646 63.918 101.778 64.094 101.778 64.204C101.778 64.336 101.668 64.424 101.47 64.424H95.772V65.876H101.91C102.46 65.282 102.614 65.172 102.768 65.172C102.9 65.172 103.076 65.26 103.736 65.766C104.11 66.03 104.176 66.162 104.176 66.316C104.176 66.448 104.066 66.58 103.516 66.866C103.34 67.966 103.186 68.692 102.988 69.242C102.812 69.814 102.614 70.21 102.262 70.496C101.822 70.914 101.272 71.024 100.524 71.024C100.304 71.024 100.238 70.936 100.194 70.716C100.084 70.21 99.732 69.99 98.258 69.704C98.148 69.682 98.17 69.44 98.28 69.44C99.424 69.55 99.93 69.594 100.634 69.572C101.074 69.572 101.272 69.374 101.514 68.802C101.712 68.34 101.844 67.658 102.02 66.426ZM89.656 65.876H94.32V64.424H89.656V65.876ZM89.656 63.874H94.32V62.554H89.656V63.874ZM89.656 62.004H94.32V60.596H89.656V62.004ZM98.566 69.132C98.258 69.132 98.082 68.934 97.928 68.516C97.708 67.878 97.4 67.328 96.916 66.976C96.85 66.932 96.96 66.778 97.048 66.8C98.434 67.02 99.27 67.724 99.27 68.362C99.27 68.824 99.006 69.132 98.566 69.132ZM94.98 69.924C94.584 69.924 94.408 69.704 94.298 69.088C94.166 68.318 93.946 67.636 93.506 67.174C93.44 67.108 93.55 66.998 93.638 67.02C95.112 67.548 95.772 68.318 95.772 69.066C95.772 69.572 95.42 69.924 94.98 69.924ZM91.262 70.32C90.844 70.32 90.646 70.034 90.624 69.616C90.624 69.352 90.602 69.044 90.58 68.758C90.536 68.208 90.47 67.834 90.294 67.35C90.272 67.262 90.382 67.196 90.47 67.24C91.614 67.812 92.12 68.692 92.12 69.352C92.142 69.88 91.79 70.32 91.262 70.32ZM86.378 70.694C85.916 70.694 85.564 70.364 85.564 69.88C85.564 69.484 85.828 69.176 86.378 69.022C87.302 68.714 87.83 68.23 88.072 67.306C88.094 67.196 88.292 67.218 88.314 67.328C88.578 69.352 87.544 70.694 86.378 70.694ZM120.984 56.108C121.248 57.032 121.622 57.978 122.04 58.946C122.832 58.616 123.69 58.198 124.174 57.89C124.262 57.824 124.284 57.78 124.284 57.714C124.284 57.67 124.24 57.604 124.174 57.538C123.932 57.274 123.69 57.076 123.338 56.768C123.228 56.68 123.184 56.614 123.184 56.526C123.184 56.46 123.294 56.35 123.382 56.35C123.47 56.35 123.536 56.394 123.69 56.482C123.998 56.658 124.328 56.79 124.636 56.9C124.834 56.966 125.032 57.032 125.318 57.032C125.604 57.01 125.802 56.966 126.044 56.988C126.396 57.01 126.572 57.208 126.572 57.45C126.572 57.692 126.462 57.868 126.176 58.066C125.186 58.748 123.888 59.408 122.502 59.958C123.14 61.19 123.888 62.312 124.504 63.016C125.076 63.654 125.23 63.962 125.23 64.6C125.23 65.392 124.878 65.656 124.658 65.656C124.438 65.656 124.284 65.612 124.064 65.392C123.558 64.886 123.14 64.644 122.656 64.49C121.622 64.182 120.456 64.006 119.356 64.006C118.19 64.006 117.288 64.248 116.716 64.6C116.188 64.908 115.792 65.414 115.792 65.964C115.792 66.8 116.144 67.438 117.552 67.856C118.454 68.12 119.466 68.274 120.566 68.274C120.896 68.274 121.798 68.252 122.15 68.252C122.48 68.252 122.678 68.274 122.964 68.472C123.206 68.648 123.294 68.934 123.294 69.198C123.294 69.484 123.162 69.748 122.81 69.836C122.436 69.924 121.908 69.946 121.402 69.946C119.95 69.946 118.454 69.594 117.332 69.198C115.726 68.604 114.824 67.592 114.824 66.25C114.824 65.304 115.286 64.534 116.166 64.006C117.046 63.5 118.234 63.192 119.972 63.192C120.698 63.192 122.062 63.302 123.228 63.434C122.788 62.576 122.238 61.564 121.6 60.288C120.236 60.75 118.784 61.058 117.574 61.058C116.32 61.058 115.462 60.64 115.462 59.65C115.462 59.232 115.616 58.858 115.88 58.484C116.012 58.308 116.122 58.286 116.188 58.286C116.276 58.286 116.386 58.352 116.386 58.44C116.386 58.506 116.364 58.594 116.32 58.682C116.232 58.902 116.188 59.1 116.188 59.364C116.188 59.826 116.364 60.024 117.288 60.024C118.652 60.024 119.906 59.672 121.16 59.254C120.786 58.308 120.456 57.45 120.06 56.438C118.982 56.746 117.728 57.076 116.518 57.076C115.902 57.076 115.264 57.01 114.758 56.812C114.186 56.592 113.988 56.482 113.614 56.02C113.548 55.932 113.504 55.822 113.504 55.756C113.504 55.646 113.614 55.58 113.702 55.58C113.768 55.58 113.856 55.624 113.966 55.69C114.494 55.976 115.066 56.064 116.144 56.064C117.09 56.064 118.41 55.756 119.73 55.338C119.532 54.656 119.18 53.666 118.938 52.94C118.762 52.434 118.608 52.214 118.058 52.17C117.816 52.148 117.552 52.17 117.398 52.17C117.31 52.17 117.244 52.126 117.244 52.06C117.244 51.95 117.31 51.818 117.398 51.752C117.772 51.444 118.19 51.334 118.542 51.334C118.872 51.334 119.444 51.488 119.928 51.664C120.368 51.818 120.61 52.104 120.61 52.302C120.61 52.544 120.522 52.72 120.478 52.808C120.39 52.962 120.39 53.116 120.412 53.38C120.478 53.93 120.61 54.524 120.72 54.964C121.49 54.678 121.908 54.436 122.414 54.15C122.766 53.952 122.942 53.776 123.228 53.6C123.47 53.446 123.822 53.292 124.086 53.292C124.614 53.314 124.856 53.556 124.856 53.886C124.856 54.194 124.768 54.414 124.328 54.612C123.382 55.096 122.216 55.646 120.984 56.108ZM145.316 62.246V61.19C145.316 59.936 145.008 59.408 144.216 59.408C143.314 59.408 142.39 60.068 141.51 60.948C140.806 61.674 140.3 62.4 139.772 63.148C139.596 63.39 139.31 63.676 139.024 63.676C138.606 63.676 138.298 63.412 138.298 62.796C138.298 62.466 138.54 62.158 138.98 61.718C139.618 61.058 140.454 60.112 141.114 59.188C141.708 58.374 142.236 57.472 142.742 56.592C142.148 56.68 141.532 56.724 140.85 56.724C139.75 56.724 138.87 56.35 138.298 55.316C138.232 55.206 138.21 55.118 138.21 55.03C138.21 54.898 138.298 54.832 138.386 54.832C138.452 54.832 138.562 54.898 138.65 55.008C139.178 55.58 139.97 55.734 140.828 55.734C141.466 55.734 142.346 55.602 143.314 55.382C143.6 54.81 143.886 54.04 144.04 53.512C144.106 53.27 144.15 53.072 144.15 52.94C144.15 52.654 143.996 52.522 143.71 52.434C143.424 52.346 143.138 52.302 142.808 52.258C142.698 52.236 142.632 52.192 142.632 52.126C142.632 52.06 142.72 51.95 142.808 51.884C143.116 51.664 143.358 51.598 143.666 51.598C144.15 51.598 144.81 51.818 145.316 52.104C145.844 52.412 146.042 52.698 146.042 52.962C146.042 53.248 145.91 53.38 145.8 53.468C145.624 53.6 145.404 53.798 145.25 54.062C145.118 54.282 144.876 54.722 144.7 55.074C145.514 54.832 146.152 54.568 146.614 54.304C146.966 54.106 147.318 53.93 147.736 53.93C148.22 53.93 148.572 54.194 148.572 54.59C148.572 54.986 148.264 55.118 147.846 55.272C146.658 55.69 145.558 55.998 143.996 56.372C143.314 57.516 142.632 58.682 141.884 59.738C142.764 59.1 143.754 58.682 144.524 58.682C145.69 58.682 146.438 59.386 146.548 60.552C146.592 60.816 146.592 61.212 146.614 61.586C148.374 60.574 149.584 59.848 151.014 58.836C151.234 58.682 151.344 58.506 151.344 58.374C151.344 58.264 151.256 58.176 151.08 58.066C150.904 57.956 150.64 57.89 150.42 57.824C150.288 57.78 150.2 57.736 150.2 57.67C150.2 57.582 150.354 57.45 150.53 57.384C150.684 57.318 150.86 57.296 151.08 57.296C151.498 57.296 152.18 57.516 152.752 57.846C153.412 58.198 153.764 58.572 153.764 59.012C153.764 59.386 153.478 59.562 153.192 59.584C153.016 59.606 152.752 59.65 152.334 59.826C151.256 60.288 150.156 60.794 148.638 61.586C148 61.916 147.274 62.356 146.658 62.686C146.658 63.72 146.658 64.622 146.658 65.766C146.658 66.382 146.416 66.69 145.976 66.69C145.536 66.69 145.228 66.448 145.228 65.898C145.228 65.37 145.272 64.446 145.316 63.368C143.38 64.468 142.236 65.326 142.236 66.69C142.236 67.592 143.028 68.296 145.074 68.296C146.372 68.296 147.274 68.252 148.154 68.142C148.704 68.054 149.122 67.966 149.452 67.878C149.738 67.812 149.98 67.746 150.2 67.746C150.97 67.746 151.718 68.186 151.718 68.714C151.718 69.066 151.476 69.286 150.618 69.418C149.936 69.55 148.242 69.638 146.46 69.638C143.468 69.638 141.444 68.912 141.444 66.822C141.444 64.908 142.962 63.654 145.316 62.246ZM165.356 57.552V61.008C165.356 66.696 165.38 69.336 165.38 70.152C165.38 70.728 165.044 70.992 164.348 70.992C163.868 70.992 163.532 70.776 163.532 70.248C163.532 69.744 163.628 68.04 163.652 62.448C163.676 60.936 163.676 59.448 163.7 57.936C162.86 59.016 161.924 60.048 160.844 61.032C160.724 61.152 160.46 60.888 160.556 60.768C162.452 58.44 164.156 55.032 165.068 52.032C165.404 50.952 165.62 49.944 165.74 49.008C167.828 49.632 168.404 49.92 168.404 50.16C168.404 50.4 168.164 50.544 167.492 50.64C166.676 52.872 165.812 54.744 164.732 56.424C165.884 56.616 166.076 56.712 166.076 56.952C166.076 57.144 165.956 57.288 165.356 57.552ZM170.828 64.728H173.3C173.348 62.856 173.372 60.984 173.42 57.288C171.62 60.912 169.436 63.576 166.124 65.832C165.98 65.928 165.716 65.664 165.836 65.544C168.788 62.76 171.044 59.232 172.364 55.464H168.596C168.02 55.464 167.636 55.512 167.012 55.608L166.772 54.696C167.492 54.84 167.924 54.864 168.548 54.864H173.324V52.344C173.324 50.688 173.3 50.112 173.18 49.104C175.412 49.344 175.892 49.512 175.892 49.824C175.892 50.04 175.724 50.208 175.028 50.52V54.864H179.66C180.716 53.592 180.884 53.472 181.028 53.472C181.22 53.472 181.34 53.544 182.372 54.456C182.852 54.888 183.044 55.104 183.044 55.248C183.044 55.392 182.948 55.464 182.708 55.464H175.268C176.156 57.696 177.476 59.448 179.132 61.008C180.572 62.376 182.108 63.312 183.62 63.984C183.74 64.032 183.644 64.224 183.524 64.248C183.02 64.344 182.732 64.656 182.444 65.352C182.324 65.712 182.228 65.784 182.012 65.784C181.868 65.784 181.604 65.64 181.244 65.376C179.924 64.464 178.796 63.168 177.86 61.872C176.756 60.288 175.7 58.248 174.98 55.824C175.004 58.776 175.052 61.752 175.1 64.728H176.708C177.524 63.72 177.716 63.6 177.86 63.6C178.004 63.6 178.172 63.72 179.084 64.488C179.468 64.8 179.564 64.968 179.564 65.112C179.564 65.256 179.492 65.328 179.252 65.328H175.1C175.148 67.68 175.172 69.6 175.172 70.152C175.172 70.68 174.836 70.92 174.044 70.92C173.468 70.92 173.228 70.704 173.228 70.296C173.228 69.672 173.252 67.704 173.3 65.328H170.876C170.372 65.328 169.988 65.376 169.364 65.472L169.124 64.56C169.796 64.704 170.228 64.728 170.828 64.728ZM204.644 50.304C205.604 51.672 206.636 52.536 207.836 53.208C208.964 53.856 210.188 54.288 211.388 54.528C211.484 54.552 211.436 54.744 211.34 54.768C210.86 54.912 210.548 55.272 210.356 55.92C210.284 56.16 210.236 56.304 210.044 56.304C209.948 56.304 209.756 56.184 209.444 56.016C208.556 55.512 207.716 54.912 206.996 54.24C205.988 53.328 205.22 52.344 204.236 50.544C202.676 53.208 200.732 54.96 197.636 56.592C197.54 56.64 197.348 56.448 197.444 56.376C199.22 54.96 200.924 52.992 202.028 51.144C202.484 50.352 202.82 49.584 202.988 48.864C205.196 49.56 205.34 49.632 205.34 49.896C205.34 50.064 205.172 50.184 204.644 50.304ZM207.62 63.696H204.524C205.1 65.232 205.94 66.264 207.14 67.152C208.244 67.992 209.66 68.496 211.124 68.736C211.244 68.76 211.22 68.952 211.1 69C210.548 69.192 210.284 69.552 209.996 70.392C209.924 70.632 209.804 70.704 209.66 70.704C209.516 70.704 209.324 70.608 209.108 70.488C207.956 69.864 206.972 69.048 206.132 68.064C205.292 67.056 204.572 65.76 204.092 63.984C203.996 64.392 203.852 64.776 203.684 65.208C202.628 67.92 200.348 69.768 196.748 70.872C196.604 70.92 196.484 70.632 196.604 70.56C198.524 69.624 199.82 68.64 200.852 67.296C201.716 66.264 202.268 65.184 202.604 63.696H200.324V64.032C200.324 64.536 200.012 64.752 199.412 64.752C198.884 64.752 198.692 64.584 198.692 64.152C198.692 63.744 198.764 63.072 198.764 60.696C198.764 59.496 198.74 58.848 198.668 57.864C199.436 58.176 199.772 58.344 200.468 58.776H203.036C203.06 57.912 203.06 57.048 203.06 56.184H201.524C201.068 56.184 200.66 56.208 200.132 56.352L199.868 55.416C200.492 55.536 200.9 55.584 201.452 55.584H205.436C206.108 54.672 206.276 54.504 206.444 54.504C206.588 54.504 206.756 54.624 207.596 55.32C207.932 55.608 208.028 55.8 208.028 55.944C208.028 56.112 207.956 56.184 207.716 56.184H204.644C204.644 57.144 204.62 58.152 204.596 58.776H207.38C208.076 58.008 208.196 57.912 208.34 57.912C208.508 57.912 208.7 57.984 209.348 58.584C209.684 58.896 209.756 59.064 209.756 59.208C209.756 59.376 209.684 59.472 209.204 59.784V60.72C209.204 62.76 209.276 63.672 209.276 63.936C209.276 64.464 208.964 64.68 208.292 64.68C207.788 64.68 207.62 64.536 207.62 64.08V63.696ZM207.62 59.376H204.596C204.572 60.624 204.524 61.872 204.308 63.096H207.62V59.376ZM203.036 59.376H200.324V63.096H202.724C202.916 62.064 203.012 60.576 203.036 59.376ZM191.276 61.704V61.896C191.276 62.352 190.988 62.568 190.388 62.568C189.908 62.568 189.692 62.4 189.692 62.016C189.692 61.488 189.788 59.904 189.788 54.6C189.788 51.864 189.788 50.88 189.668 49.512C190.436 49.824 190.772 49.992 191.468 50.424H195.836C196.604 49.416 196.748 49.32 196.892 49.32C197.084 49.32 197.204 49.416 198.116 50.232C198.428 50.52 198.524 50.64 198.524 50.808C198.524 50.952 198.428 51.024 198.188 51.024H194.78V53.976H195.596C196.244 53.184 196.412 53.064 196.532 53.064C196.724 53.064 196.868 53.184 197.588 53.784C197.828 54 197.948 54.216 197.948 54.336C197.948 54.504 197.852 54.576 197.636 54.576H194.78V57.432H195.62C196.22 56.664 196.412 56.544 196.532 56.544C196.7 56.544 196.868 56.664 197.588 57.264C197.804 57.456 197.9 57.672 197.9 57.792C197.9 57.96 197.828 58.032 197.588 58.032H194.78V61.104H195.932C196.508 60.408 196.652 60.312 196.796 60.312C196.964 60.312 197.108 60.408 197.756 60.984C198.068 61.272 198.164 61.44 198.164 61.584C198.164 61.728 198.068 61.824 197.636 62.088C197.468 65.04 197.108 67.2 196.58 68.64C196.316 69.384 195.98 69.936 195.5 70.296C195.092 70.608 194.66 70.728 194.18 70.728C193.844 70.728 193.772 70.68 193.7 70.296C193.556 69.648 193.316 69.456 191.684 68.976C191.54 68.928 191.564 68.64 191.708 68.664C193.076 68.832 193.676 68.904 194.18 68.904C194.708 68.904 194.948 68.544 195.188 67.776C195.62 66.672 195.956 64.656 196.076 61.704H191.276ZM191.276 61.104H193.292V58.032H191.276V61.104ZM191.276 57.432H193.292V54.576H191.276V57.432ZM191.276 53.976H193.292V51.024H191.276V53.976ZM195.068 65.28C194.828 65.28 194.708 65.136 194.588 64.728C194.324 64.008 194.012 63.552 193.436 62.952C193.364 62.88 193.46 62.76 193.556 62.784C194.78 63.144 195.572 63.792 195.572 64.488C195.572 64.944 195.356 65.28 195.068 65.28ZM188.876 68.4C188.444 68.4 188.156 68.04 188.156 67.56C188.156 67.248 188.276 67.008 188.564 66.72C189.308 66.048 189.716 65.16 189.788 63.816C189.788 63.72 190.028 63.72 190.052 63.816C190.148 64.392 190.196 64.944 190.196 65.448C190.196 67.128 189.692 68.4 188.876 68.4ZM191.564 67.44C191.276 67.44 191.108 67.248 191.108 66.888C191.108 66.672 191.156 66.312 191.156 65.784C191.18 65.208 191.108 64.56 190.868 63.792C190.844 63.696 191.012 63.6 191.084 63.672C191.948 64.488 192.308 65.472 192.308 66.24C192.308 66.696 192.164 67.44 191.564 67.44ZM193.436 66.576C193.172 66.576 193.076 66.408 192.98 65.832C192.836 64.824 192.716 64.392 192.212 63.456C192.164 63.36 192.308 63.264 192.38 63.312C193.508 64.128 194.084 64.92 194.084 65.616C194.084 66.168 193.796 66.576 193.436 66.576ZM219.1 65.12C220.52 65.12 221.74 66.34 221.74 67.76C221.74 69.18 220.52 70.4 219.1 70.4C217.68 70.4 216.46 69.18 216.46 67.76C216.46 66.34 217.68 65.12 219.1 65.12ZM219.1 65.82C218.06 65.82 217.16 66.72 217.16 67.76C217.16 68.8 218.06 69.7 219.1 69.7C220.14 69.7 221.04 68.8 221.04 67.76C221.04 66.72 220.14 65.82 219.1 65.82Z" fill="#FFF5F5"/>
<path d="M5.79763 24.0417C4.84399 24.0207 3.89035 23.9996 2.93671 23.9786C2.29786 23.947 1.79789 24.0732 0.95072 24.2941C0.839616 23.5159 0.728512 22.7376 0.617408 21.9593C1.47846 22.3695 2.10343 22.4642 2.86727 22.4957C3.83943 22.5588 4.81622 22.6219 5.79763 22.685C5.79763 20.2451 5.79763 17.8262 5.79763 15.4283C5.43655 15.3442 5.08009 15.2601 4.72826 15.1759C4.15885 15.0497 3.70055 14.9866 2.96448 15.1128C2.87189 14.4397 2.78394 13.7772 2.70061 13.1251C1.96454 14.0401 1.2007 14.892 0.381312 15.7123C0.18688 15.9016 -0.118657 15.1759 0.0479996 14.892C2.25619 11.4845 3.89498 7.63529 5.03379 4.35401C5.61709 2.87112 6.00595 1.38823 6.21427 0C8.81133 2.80802 9.45018 3.59679 9.45018 4.1016C9.45018 4.51176 9.14464 4.54331 8.17248 4.1647C8.11693 4.26987 8.06138 4.37504 8.00583 4.48021C11.3112 7.8877 13.0749 10.538 13.0749 12.4626C13.0611 13.3775 12.6305 13.8823 12.0333 13.693C11.4917 13.5037 11.1306 12.9674 10.7001 11.3898C10.0057 8.96042 9.17242 7.09893 7.8114 4.98502C6.49204 7.85615 4.82547 10.4749 2.86727 12.9358C3.53389 13.346 3.99219 13.5984 4.65882 13.7877C6.0291 14.1663 7.39939 14.5449 8.76967 14.9235C9.70016 13.4722 9.93626 13.3144 10.1307 13.3775C10.3668 13.4722 10.589 13.7561 11.7 15.239C12.2 15.9016 12.3667 16.2802 12.3667 16.5642C12.3667 16.8481 12.2694 16.9743 11.9361 16.9112C10.6121 16.5957 9.28815 16.2802 7.96416 15.9647C7.96416 18.2153 7.96416 20.487 7.96416 22.7797C8.5382 22.8217 9.11687 22.8638 9.70016 22.9059C10.7001 21.0759 10.9362 20.9182 11.1306 20.9497C11.3667 20.9497 11.6028 21.1706 12.7277 22.5904C13.1999 23.1583 13.3666 23.4738 13.3666 23.7893C13.3666 24.0732 13.2555 24.1995 12.9361 24.1995C11.2788 24.1574 9.62147 24.1153 7.96416 24.0733C7.96416 29.2896 7.96416 34.4535 7.96416 39.5647C9.70017 38.3973 11.4362 37.1668 12.9777 35.9994C13.1444 35.9048 13.2416 36.3465 13.1166 36.4727C10.4501 39.3754 6.38093 43.5716 2.96448 46.916C2.8256 48.4305 2.67283 48.9037 2.32563 49.093C1.96454 49.3139 1.70067 48.9984 0.728512 44.1711C1.46458 43.824 2.15898 43.4454 2.86727 43.0353C3.79776 42.4358 4.7977 41.7732 5.79763 41.1107C5.79763 35.4736 5.79763 29.7839 5.79763 24.0417ZM17.3802 39.5016C17.3802 39.8171 17.3802 40.1326 17.3802 40.4481C17.3802 41.2053 16.8803 41.7732 15.9498 42.3096C15.2831 42.7198 14.9498 42.6567 14.9498 41.9941C14.9498 41.016 15.0748 38.4289 15.0609 32.3711C15.0609 28.4904 15.0332 27.1021 14.8943 24.6096C16.0609 25.2722 16.5331 25.5561 17.6024 26.3134C20.306 26.2082 23.0141 26.103 25.7269 25.9978C26.6991 25.0198 26.8935 24.8936 27.1018 24.8936C27.324 24.8936 27.4907 24.9882 28.4906 25.7454C29.0323 26.1871 29.1573 26.3765 29.1573 26.5342C29.1573 26.7551 29.0323 26.9128 28.2684 27.3545C28.2684 28.1328 28.2684 28.911 28.2684 29.6893C28.2823 33.5385 28.4073 35.2422 28.4073 35.6839C28.4073 36.1256 27.9073 36.4727 26.9768 36.7882C26.2408 37.0406 25.9769 36.946 25.9769 36.5358C25.9769 36.3255 25.9769 36.1151 25.9769 35.9048C23.1067 36.9775 20.2412 38.1764 17.3802 39.5016ZM17.3802 33.3807C17.3802 35.1686 17.3802 36.9144 17.3802 38.6182C20.2412 37.3982 23.1067 36.2939 25.9769 35.3053C25.9769 34.0854 25.9769 32.8023 25.9769 31.4561C23.1067 32.024 20.2412 32.6656 17.3802 33.3807ZM25.963 30.7305C25.963 29.4264 25.963 28.1117 25.963 26.7866C23.0928 26.9339 20.2273 27.1126 17.3663 27.323C17.3663 29.0267 17.371 30.7305 17.3802 32.4342C20.2412 31.8032 23.1021 31.2353 25.963 30.7305ZM25.7686 21.77C26.3426 21.7911 26.9167 21.8226 27.4907 21.8647C28.6573 20.6658 28.9628 20.5711 29.1573 20.5711C29.3656 20.6027 29.6017 20.7289 30.8238 21.6754C31.3932 22.1171 31.5599 22.2749 31.5599 22.4642C31.5599 22.6535 31.4627 22.7481 31.1294 22.7481C25.6853 22.4747 20.2412 22.1171 14.7971 21.6754C14.1304 21.6123 13.6582 21.6438 12.8666 21.7385C12.7555 21.1495 12.6444 20.5711 12.5333 20.0032C13.3944 20.3818 13.9638 20.508 14.7276 20.6027C15.5609 20.7078 16.3942 20.813 17.2275 20.9182C17.2275 18.6044 17.2321 16.3328 17.2414 14.1032C16.834 13.977 16.422 13.8403 16.0053 13.693C15.3804 13.4722 14.8804 13.3144 14.1165 13.2513C14.0054 12.6834 13.8943 12.1155 13.7832 11.5476C14.6443 12.1155 15.172 12.3995 15.9498 12.715C16.3757 12.8832 16.8062 13.041 17.2414 13.1882C17.2414 12.6834 17.2414 12.1891 17.2414 11.7053C17.2414 9.84385 17.2136 8.67647 17.0747 7.44599C20.1717 9.55989 20.5467 9.9385 20.5467 10.254C20.5467 10.4433 20.38 10.5695 19.5051 10.4749C19.5051 11.6317 19.5051 12.8096 19.5051 14.0085C20.8291 14.4713 22.1531 14.9025 23.4771 15.3021C23.4771 14.8394 23.4771 14.3977 23.4771 13.977C23.4771 12.6519 23.4771 11.8315 23.3382 10.9481C26.4769 12.4941 26.8102 12.7781 26.8102 12.9989C26.8102 13.1251 26.6435 13.2513 25.7825 13.1882C25.7825 14.0506 25.7825 14.9551 25.7825 15.9016C26.1343 15.9857 26.4861 16.0593 26.838 16.1225C27.8796 15.3968 28.1712 15.3021 28.3795 15.3337C28.6156 15.3968 28.9073 15.5861 30.0739 16.4695C30.5322 16.785 30.7266 16.9743 30.7266 17.1321C30.7266 17.2898 30.6016 17.3529 30.2683 17.3214C28.7777 17.111 27.2824 16.8586 25.7825 16.5642C25.7732 18.2469 25.7686 19.9822 25.7686 21.77ZM23.4771 16.0278C22.1531 15.6492 20.8291 15.2601 19.5051 14.8604C19.4958 16.9217 19.4912 19.0251 19.4912 21.1706C20.8152 21.3178 22.1392 21.4545 23.4632 21.5807C23.4632 19.6667 23.4678 17.8157 23.4771 16.0278ZM3.32557 38.839C2.77005 39.0283 2.49229 38.3658 2.46451 36.6305C2.3673 33.0021 2.06176 30.8567 1.39514 28.1748C1.31181 27.9224 1.60346 27.7016 1.70067 27.8593C3.63111 30.5412 4.5616 33.3176 4.5616 35.6839C4.5616 37.2299 4.06163 38.6182 3.32557 38.839ZM9.2002 36.8513C9.06132 37.1353 8.728 37.0091 8.79744 36.6936C9.36685 34.4219 9.79738 32.1503 10.0335 30.131C10.2279 28.9321 10.3251 27.7647 10.3946 26.692C12.6028 27.7016 13.1305 27.9855 13.1305 28.4588C13.1305 28.9321 12.825 29.1529 12.1306 29.3422C11.2278 32.024 10.3668 34.3904 9.2002 36.8513ZM54.2884 33.4123C54.2977 35.5157 54.3023 37.6085 54.3023 39.6909C54.3023 41.3631 74.4726 44.6759 77.7086 46.3481C79.9584 47.4839 81.1528 47.831 81.8472 47.2946C82.5416 46.7267 82.8471 45.4962 83.5832 41.1107C83.6526 40.7636 84.0554 40.9845 84.0554 41.3631C84.0276 42.9091 83.9582 44.8337 83.9582 46.3797C83.9582 47.2946 84.0276 47.5786 84.4581 48.1149C84.8331 48.5567 84.9998 49.2823 84.9998 50.1657C85.0136 51.4278 84.4165 52.0588 83.2915 51.9957C82.2638 51.9326 80.5 51.1438 77.4447 49.3139C72.82 46.5059 51.8858 42.3096 51.8858 39.5016C51.8858 38.9968 51.9274 38.4289 51.9274 36.6305C51.9274 35.3684 51.9274 34.0959 51.9274 32.8128C49.3072 32.2239 46.6778 31.656 44.039 31.1091C44.039 31.8978 43.5807 32.1187 42.6086 31.9294C41.8864 31.7716 41.6086 31.4877 41.6086 30.9513C41.6086 29.9417 41.7475 28.2695 41.7475 22.338C41.7475 19.9716 41.7475 18.9305 41.5809 17.7946C42.7475 17.9839 43.2474 18.1102 44.414 18.5203C48.3675 17.679 52.3256 16.7745 56.2883 15.8069C57.2882 14.0401 57.4826 13.7877 57.6771 13.7246C57.8993 13.6299 58.0659 13.8192 59.1353 14.7973C59.6075 15.3652 59.7325 15.7123 59.7325 16.0594C59.7325 16.3749 59.6075 16.7219 58.8714 17.6053C58.8714 19.0567 58.8714 20.508 58.8714 21.9593C58.8714 29.6577 59.0103 33.3492 59.0103 34.5166C59.0103 35.6208 58.4687 35.9679 57.6215 35.7155C56.816 35.4946 56.5521 34.9898 56.5521 33.9486C55.7929 33.7593 55.0384 33.5805 54.2884 33.4123ZM44.039 23.2214C44.039 24.21 44.039 25.2091 44.039 26.2187C48.2147 26.408 52.3811 26.6078 56.5383 26.8182C56.5383 25.3668 56.5383 23.926 56.5383 22.4957C52.3811 22.7691 48.2147 23.011 44.039 23.2214ZM56.5383 21.2337C56.5383 19.8034 56.5429 18.3836 56.5521 16.9743C52.3857 17.8577 48.2147 18.6781 44.039 19.4353C44.039 20.4028 44.039 21.3809 44.039 22.3695C48.2147 22.0119 52.3811 21.6333 56.5383 21.2337ZM44.039 27.0706C44.039 28.1433 44.039 29.2055 44.039 30.2572C48.2147 31.0144 52.3857 31.8242 56.5521 32.6866C56.5521 31.1511 56.5475 29.6051 56.5383 28.0486C52.3811 27.7121 48.2147 27.3861 44.039 27.0706ZM61.8435 9.05508C54.5106 11.8526 47.1824 14.3556 39.8588 16.5642C39.9004 18.8358 38.6227 20.4449 37.1923 20.5711C36.4562 20.6027 35.9284 20.1925 35.9284 19.5615C35.9284 19.0567 36.1229 18.8358 37.2895 18.1732C38.5255 17.3845 39.0255 16.4695 39.1921 15.0813C39.1921 14.9866 39.5254 14.8604 39.5671 14.9866C39.6643 15.3021 39.7615 15.6176 39.7893 15.9331C44.8075 14.3766 49.8211 12.6098 54.83 10.6326C55.7327 8.48716 56.4271 6.46791 56.9271 4.66952C57.3021 3.40748 57.5937 2.27166 57.8021 1.19893C60.4824 1.23048 61.1491 1.35668 61.1491 1.95615C61.1491 2.58717 60.913 2.87112 59.5797 3.62834C58.0243 6.68877 57.0799 8.36096 55.8577 10.1909C57.7465 9.39162 59.6307 8.59233 61.5102 7.79304C62.6073 5.17433 62.774 4.92192 63.0101 4.82727C63.2323 4.70107 63.5517 4.92192 64.8572 6.59411C65.4405 7.44599 65.6071 7.79304 65.6071 8.29786C65.6071 9.08663 65.2738 9.49679 64.4128 9.90695C63.9822 10.0963 63.7739 10.1278 63.1906 11.3583C62.6629 12.4626 61.9546 13.5037 60.8852 14.9551C60.7602 15.1444 60.4547 14.9551 60.5241 14.7342C61.1907 12.5257 61.5935 10.8535 61.8435 9.05508ZM50.9414 11.3898C50.3442 11.6422 50.0803 11.4214 49.8442 10.6642C49.4415 9.02352 49.011 8.39251 48.0666 7.72994C47.9971 7.66684 48.1221 7.38288 48.261 7.35133C50.6775 6.62567 52.2746 7.22513 52.2746 8.92887C52.2607 10.0016 51.8024 11.0112 50.9414 11.3898ZM44.2474 14.2925C43.6085 14.5134 43.3308 14.261 43.1224 13.6299C42.7336 12.5257 42.1225 11.9262 41.2892 11.7053C41.192 11.7053 41.3587 11.4845 41.4975 11.4529C43.9002 10.7904 45.5667 11.1059 45.5528 12.3364C45.5528 13.1251 45.0529 14.0085 44.2474 14.2925ZM35.6785 36.031C35.4424 35.9994 35.3729 35.7155 35.609 35.747C40.0949 36.5358 43.0669 36.315 44.8168 34.6112C45.4417 33.8855 45.8167 32.9706 45.9417 31.8663C48.6082 33.1283 49.3304 33.6647 49.3443 34.1695C49.3443 34.6112 49.011 34.7059 48.0805 34.6743C46.1639 38.3027 42.8308 38.2396 35.6785 36.031Z" fill="#7B1D1A"/>
<path d="M10.8427 24.4936C10.0462 24.4774 9.24959 24.4613 8.45301 24.4451C7.91939 24.4208 7.50177 24.5179 6.79413 24.6878C6.70133 24.0891 6.60852 23.4905 6.51572 22.8918C7.23495 23.2073 7.75698 23.2801 8.39501 23.3044C9.20705 23.3529 10.023 23.4015 10.8427 23.45C10.8427 21.5731 10.8427 19.7125 10.8427 17.8679C10.5411 17.8032 10.2434 17.7385 9.94949 17.6738C9.47386 17.5767 9.09104 17.5282 8.47621 17.6253C8.39888 17.1075 8.32541 16.5978 8.2558 16.0963C7.64097 16.8001 7.00294 17.4554 6.31851 18.0864C6.1561 18.232 5.90089 17.6738 6.04009 17.4554C7.88458 14.8342 9.25345 11.8733 10.2047 9.34924C10.6919 8.20856 11.0167 7.06787 11.1907 6C13.3601 8.16002 13.8937 8.76676 13.8937 9.15508C13.8937 9.47059 13.6385 9.49486 12.8264 9.20362C12.78 9.28452 12.7336 9.36542 12.6872 9.44632C15.4482 12.0675 16.9214 14.1061 16.9214 15.5866C16.9098 16.2904 16.5502 16.6787 16.0514 16.5331C15.599 16.3875 15.2973 15.9749 14.9377 14.7614C14.3577 12.8926 13.6617 11.4607 12.5248 9.83463C11.4228 12.0432 10.0307 14.0576 8.39501 15.9506C8.95184 16.2661 9.33466 16.4603 9.89148 16.6059C11.0361 16.8972 12.1807 17.1884 13.3253 17.4796C14.1025 16.3632 14.2997 16.2419 14.4621 16.2904C14.6593 16.3632 14.8449 16.5816 15.773 17.7223C16.1906 18.232 16.3298 18.5232 16.3298 18.7417C16.3298 18.9601 16.2486 19.0572 15.9702 19.0086C14.8643 18.7659 13.7583 18.5232 12.6524 18.2805C12.6524 20.0118 12.6524 21.7592 12.6524 23.5228C13.1319 23.5552 13.6153 23.5875 14.1025 23.6199C14.9377 22.2122 15.1349 22.0909 15.2973 22.1152C15.4946 22.1152 15.6918 22.2851 16.6314 23.3772C17.0258 23.8141 17.165 24.0568 17.165 24.2995C17.165 24.5179 17.0722 24.615 16.8054 24.615C15.4211 24.5826 14.0368 24.5502 12.6524 24.5179C12.6524 28.5305 12.6524 32.5027 12.6524 36.4344C14.1025 35.5364 15.5526 34.5899 16.8402 33.6919C16.9794 33.6191 17.0606 33.9589 16.9562 34.0559C14.7289 36.2888 11.33 39.5166 8.47621 42.0892C8.36021 43.2542 8.2326 43.6182 7.94259 43.7639C7.64097 43.9338 7.42056 43.6911 6.60852 39.9778C7.22335 39.7108 7.80338 39.4196 8.39501 39.1041C9.17225 38.6429 10.0075 38.1333 10.8427 37.6236C10.8427 33.2874 10.8427 28.9107 10.8427 24.4936ZM20.5176 36.3858C20.5176 36.6285 20.5176 36.8712 20.5176 37.1139C20.5176 37.6964 20.1 38.1333 19.3227 38.5458C18.7659 38.8614 18.4875 38.8128 18.4875 38.3032C18.4875 37.5508 18.5919 35.5607 18.5803 30.9008C18.5803 27.9157 18.5571 26.8478 18.4411 24.9305C19.4156 25.4401 19.81 25.6586 20.7032 26.241C22.9615 26.1601 25.2236 26.0792 27.4895 25.9983C28.3016 25.246 28.464 25.1489 28.638 25.1489C28.8236 25.1489 28.9628 25.2217 29.7981 25.8042C30.2505 26.144 30.3549 26.2896 30.3549 26.4109C30.3549 26.5808 30.2505 26.7022 29.6125 27.0419C29.6125 27.6406 29.6125 28.2393 29.6125 28.8379C29.6241 31.7988 29.7285 33.1094 29.7285 33.4492C29.7285 33.789 29.3108 34.0559 28.5336 34.2986C27.9188 34.4928 27.6984 34.42 27.6984 34.1045C27.6984 33.9427 27.6984 33.7809 27.6984 33.6191C25.3009 34.4442 22.9073 35.3665 20.5176 36.3858ZM20.5176 31.6775C20.5176 33.0528 20.5176 34.3957 20.5176 35.7063C22.9073 34.7678 25.3009 33.9184 27.6984 33.1579C27.6984 32.2195 27.6984 31.2325 27.6984 30.197C25.3009 30.6339 22.9073 31.1274 20.5176 31.6775ZM27.6868 29.6388C27.6868 28.6357 27.6868 27.6244 27.6868 26.6051C25.2893 26.7183 22.8957 26.8559 20.506 27.0177C20.506 28.3282 20.5099 29.6388 20.5176 30.9494C22.9073 30.464 25.297 30.0271 27.6868 29.6388ZM27.5243 22.7462C28.0038 22.7624 28.4833 22.7866 28.9628 22.819C29.9373 21.8967 30.1925 21.8239 30.3549 21.8239C30.5289 21.8482 30.7261 21.9453 31.747 22.6734C32.2226 23.0132 32.3618 23.1345 32.3618 23.2801C32.3618 23.4257 32.2806 23.4986 32.0022 23.4986C27.4547 23.2882 22.9073 23.0132 18.3599 22.6734C17.8031 22.6248 17.4087 22.6491 16.7474 22.7219C16.6546 22.2689 16.5618 21.8239 16.469 21.3871C17.1882 21.6783 17.6639 21.7754 18.3019 21.8482C18.9979 21.9291 19.694 22.01 20.39 22.0909C20.39 20.3111 20.3939 18.5637 20.4016 16.8486C20.0613 16.7515 19.7172 16.6464 19.3691 16.5331C18.8471 16.3632 18.4295 16.2419 17.7915 16.1933C17.6987 15.7565 17.6059 15.3196 17.5131 14.8828C18.2323 15.3196 18.6731 15.538 19.3227 15.7807C19.6785 15.9102 20.0381 16.0315 20.4016 16.1448C20.4016 15.7565 20.4016 15.3762 20.4016 15.0041C20.4016 13.5722 20.3784 12.6742 20.2624 11.7277C22.8493 13.3538 23.1625 13.645 23.1625 13.8877C23.1625 14.0333 23.0233 14.1304 22.2925 14.0576C22.2925 14.9475 22.2925 15.8536 22.2925 16.7758C23.3984 17.1318 24.5043 17.4635 25.6103 17.7709C25.6103 17.4149 25.6103 17.0751 25.6103 16.7515C25.6103 15.7322 25.6103 15.1012 25.4942 14.4216C28.116 15.6109 28.3944 15.8293 28.3944 15.9992C28.3944 16.0963 28.2552 16.1933 27.5359 16.1448C27.5359 16.8082 27.5359 17.5039 27.5359 18.232C27.8298 18.2967 28.1237 18.3533 28.4176 18.4019C29.2876 17.8437 29.5312 17.7709 29.7053 17.7951C29.9025 17.8437 30.1461 17.9893 31.1205 18.6689C31.5033 18.9116 31.6658 19.0572 31.6658 19.1785C31.6658 19.2999 31.5613 19.3484 31.2829 19.3241C30.0378 19.1623 28.7888 18.9682 27.5359 18.7417C27.5282 20.0361 27.5243 21.3709 27.5243 22.7462ZM25.6103 18.3291C24.5043 18.0378 23.3984 17.7385 22.2925 17.4311C22.2848 19.0167 22.2809 20.6347 22.2809 22.2851C23.3868 22.3983 24.4927 22.5035 25.5987 22.6006C25.5987 21.1282 25.6025 19.7044 25.6103 18.3291ZM8.77783 35.8762C8.31381 36.0218 8.08179 35.5121 8.05859 34.1773C7.97739 31.3862 7.72218 29.7359 7.16535 27.673C7.09575 27.4788 7.33936 27.3089 7.42056 27.4303C9.03304 29.4932 9.81028 31.6289 9.81028 33.4492C9.81028 34.6384 9.39266 35.7063 8.77783 35.8762ZM13.6849 34.3472C13.5689 34.5656 13.2905 34.4685 13.3485 34.2258C13.8241 32.4784 14.1837 30.731 14.3809 29.1777C14.5433 28.2554 14.6245 27.3575 14.6825 26.5323C16.527 27.3089 16.9678 27.5273 16.9678 27.8914C16.9678 28.2554 16.7126 28.4253 16.1326 28.5709C15.3786 30.6339 14.6593 32.4541 13.6849 34.3472ZM51.3468 31.7018C51.3545 33.3197 51.3584 34.9296 51.3584 36.5315C51.3584 37.8178 68.2066 40.3661 70.9095 41.6524C72.7888 42.5261 73.7864 42.7931 74.3665 42.3805C74.9465 41.9436 75.2017 40.9971 75.8165 37.6236C75.8745 37.3566 76.211 37.5265 76.211 37.8178C76.1878 39.007 76.1298 40.4874 76.1298 41.6767C76.1298 42.3805 76.1878 42.5989 76.5474 43.0115C76.8606 43.3513 76.9998 43.9095 76.9998 44.589C77.0114 45.5598 76.5126 46.0452 75.5729 45.9967C74.7145 45.9481 73.2412 45.3414 70.6891 43.9337C66.8261 41.7737 49.3399 38.5458 49.3399 36.3858C49.3399 35.9975 49.3747 35.5607 49.3747 34.1773C49.3747 33.2065 49.3747 32.2276 49.3747 31.2406C47.186 30.7876 44.9897 30.3507 42.7856 29.9301C42.7856 30.5368 42.4027 30.7067 41.5907 30.5611C40.9875 30.4397 40.7555 30.2213 40.7555 29.8087C40.7555 29.0321 40.8715 27.7458 40.8715 23.183C40.8715 21.3628 40.8715 20.5619 40.7323 19.6882C41.7067 19.8338 42.1243 19.9309 43.0988 20.2464C46.4011 19.5992 49.7072 18.9035 53.0173 18.1592C53.8525 16.8001 54.0149 16.6059 54.1773 16.5574C54.3629 16.4846 54.5021 16.6302 55.3954 17.3826C55.7898 17.8194 55.8942 18.0864 55.8942 18.3533C55.8942 18.596 55.7898 18.863 55.175 19.5426C55.175 20.659 55.175 21.7754 55.175 22.8918C55.175 28.8136 55.291 31.6532 55.291 32.5512C55.291 33.4006 54.8385 33.6676 54.1309 33.4735C53.4581 33.3036 53.2377 32.9152 53.2377 32.1143C52.6035 31.9687 51.9732 31.8312 51.3468 31.7018ZM42.7856 23.8626C42.7856 24.6231 42.7856 25.3916 42.7856 26.1682C46.2735 26.3138 49.7536 26.4676 53.2261 26.6294C53.2261 25.5129 53.2261 24.4046 53.2261 23.3044C49.7536 23.5147 46.2735 23.7008 42.7856 23.8626ZM53.2261 22.3336C53.2261 21.2334 53.2299 20.1412 53.2377 19.0572C49.7575 19.7367 46.2735 20.3677 42.7856 20.9502C42.7856 21.6945 42.7856 22.4469 42.7856 23.2073C46.2735 22.9323 49.7536 22.641 53.2261 22.3336ZM42.7856 26.8235C42.7856 27.6487 42.7856 28.4658 42.7856 29.2748C46.2735 29.8572 49.7575 30.4802 53.2377 31.1435C53.2377 29.9624 53.2338 28.7732 53.2261 27.5759C49.7536 27.317 46.2735 27.0662 42.7856 26.8235ZM57.6575 12.9654C51.5324 15.1174 45.4111 17.0428 39.2938 18.7417C39.3286 20.4891 38.2613 21.7269 37.0665 21.8239C36.4516 21.8482 36.0108 21.5327 36.0108 21.0473C36.0108 20.659 36.1732 20.4891 37.1477 19.9794C38.1801 19.3727 38.5977 18.6689 38.737 17.601C38.737 17.5282 39.0154 17.4311 39.0502 17.5282C39.1314 17.7709 39.2126 18.0136 39.2358 18.2563C43.4275 17.059 47.6153 15.6998 51.7992 14.1789C52.5532 12.5286 53.1333 10.9753 53.5509 9.59194C53.8641 8.62114 54.1077 7.74743 54.2817 6.92225C56.5206 6.94652 57.0775 7.0436 57.0775 7.50473C57.0775 7.99013 56.8802 8.20856 55.7666 8.79103C54.4673 11.1452 53.6785 12.4315 52.6576 13.8392C54.2353 13.2243 55.8091 12.6095 57.3791 11.9946C58.2955 9.98025 58.4347 9.78609 58.6319 9.71329C58.8175 9.61621 59.0844 9.78609 60.1748 11.0724C60.662 11.7277 60.8012 11.9946 60.8012 12.383C60.8012 12.9897 60.5228 13.3052 59.8036 13.6207C59.444 13.7663 59.27 13.7906 58.7827 14.7371C58.3419 15.5866 57.7503 16.3875 56.857 17.5039C56.7526 17.6495 56.4974 17.5039 56.5554 17.334C57.1123 15.6351 57.4487 14.3488 57.6575 12.9654ZM48.551 14.7614C48.0522 14.9556 47.8318 14.7857 47.6346 14.2032C47.2982 12.9412 46.9386 12.4558 46.1497 11.9461C46.0917 11.8976 46.1961 11.6791 46.3121 11.6549C48.3306 11.0967 49.6647 11.5578 49.6647 12.8684C49.6531 13.6935 49.2703 14.4702 48.551 14.7614ZM42.9596 16.9942C42.4259 17.1641 42.1939 16.97 42.0199 16.4846C41.6951 15.6351 41.1847 15.174 40.4886 15.0041C40.4074 15.0041 40.5466 14.8342 40.6626 14.81C42.6695 14.3003 44.0616 14.543 44.05 15.4895C44.05 16.0963 43.6324 16.7758 42.9596 16.9942ZM35.802 33.7162C35.6048 33.6919 35.5468 33.4735 35.744 33.4977C39.491 34.1045 41.9735 33.9346 43.4352 32.624C43.9572 32.0658 44.2704 31.362 44.3748 30.5125C46.6021 31.4833 47.2054 31.8959 47.217 32.2842C47.217 32.624 46.9386 32.6968 46.1613 32.6725C44.5604 35.4636 41.7763 35.415 35.802 33.7162Z" fill="#FFF5F5"/>
</svg>
