<svg width="23" height="25" viewBox="0 0 23 25" fill="none" xmlns="http://www.w3.org/2000/svg">
<rect x="0.181641" y="3.24707" width="18.2282" height="21.3131" transform="rotate(-8.39391 0.181641 3.24707)" fill="#6B0000"/>
<path d="M9.63639 18.7912C9.767 17.5164 8.83944 16.3771 7.56461 16.2465L7.1398 16.203C6.23484 16.1102 5.43993 16.7111 5.12179 17.5634V17.5634C4.57608 19.1153 3.80981 20.2376 2.25498 21.7065C2.16409 21.799 1.95905 21.6151 2.02979 21.5206C3.18799 19.95 3.71876 18.7425 4.13173 17.0956C4.44713 15.805 4.71293 14.204 4.96262 11.7669C4.99465 11.4543 5.02214 11.1762 5.04617 10.9264C5.11222 10.24 4.28308 9.78613 3.6853 10.1299V10.1299C3.57634 10.2002 3.41158 10.0205 3.50246 9.92802C4.72009 8.77055 5.88654 7.11938 6.63573 5.56793V5.56793C7.1286 4.52095 9.36724 3.34126 9.2493 4.49243V4.49243C9.23248 4.65659 9.13022 4.73087 8.7689 4.79667C8.58932 4.82937 8.43111 4.93989 8.34439 5.1005V5.1005C8.15021 5.46014 8.37572 5.90902 8.78231 5.95068L9.29808 6.00352C9.55388 6.02973 9.807 5.94143 9.99923 5.77066C10.3374 5.4703 10.4395 5.42848 10.5364 5.4384C10.6572 5.45078 10.7698 5.54373 11.3725 6.21606C11.6096 6.48459 11.6778 6.61369 11.6634 6.75468C11.648 6.90483 11.5611 6.97979 11.2774 7.05105C11.0441 7.10963 10.8279 7.22569 10.6681 7.40546C10.3962 7.7114 10.1351 7.98859 9.87726 8.2469C9.54067 8.5841 9.73468 9.18256 10.2086 9.23112V9.23112C10.3626 9.24689 10.5158 9.19572 10.6317 9.09314C11.0631 8.71107 11.1768 8.65868 11.284 8.66966C11.4048 8.68204 11.5396 8.75691 12.0339 9.29602C12.2911 9.5666 12.319 9.69158 12.3067 9.81243V9.81243C12.2586 10.2816 11.7198 10.5741 11.6717 11.0432L11.4482 13.2251C10.7672 19.8717 10.758 20.3593 10.7064 20.8628C10.6465 21.4469 10.3878 21.7867 10.0207 21.9933C9.76039 22.1498 9.40561 22.2356 9.02293 22.1964C8.78123 22.1716 8.72906 22.0849 8.70372 21.7363C8.67681 21.2044 8.46557 21.081 7.09489 20.5538C6.99625 20.5234 7.01895 20.3018 7.11966 20.3121C8.10039 20.4737 8.58171 20.5433 9.10538 20.597C9.36722 20.6238 9.45604 20.5515 9.4808 20.3098L9.63639 18.7912ZM9.10911 7.84459C9.42302 7.20537 8.97437 6.47917 8.26594 6.40659V6.40659C7.86561 6.36557 7.48177 6.56854 7.1445 6.78806C6.97408 6.89898 6.78533 6.99054 6.59247 7.079C5.96871 7.36509 5.99896 8.23879 6.50147 8.70614V8.70614C6.65457 8.84852 6.7951 8.88139 7.00309 8.9027L7.54235 8.95795C8.09028 9.01409 8.62885 8.75886 8.88908 8.27341C8.96465 8.13242 9.03801 7.98938 9.10911 7.84459ZM5.8462 14.5762C5.75884 15.0983 6.12583 15.5903 6.65249 15.6442V15.6442C7.01247 15.6811 7.35987 15.5002 7.53609 15.1842L8.09582 14.1803C8.5246 13.4114 7.9295 12.4734 7.05112 12.5337V12.5337C6.51253 12.5707 6.08065 12.9904 6.00719 13.5253C5.959 13.8761 5.90473 14.2264 5.8462 14.5762ZM8.94856 15.7967C9.49265 15.8194 9.94992 15.3922 9.96423 14.8478L9.9857 14.0314C9.99114 13.8247 9.91962 13.6234 9.78502 13.4665V13.4665C9.37448 12.9878 8.60178 13.1204 8.37422 13.7085L8.07948 14.4702C7.83835 15.0933 8.28097 15.7689 8.94856 15.7967V15.7967ZM9.83651 12.8966C10.1054 12.7662 10.3032 12.5238 10.3769 12.2341L10.708 10.9325C10.8571 10.3465 10.4507 9.76475 9.84914 9.70311V9.70311C9.37408 9.65444 8.93194 9.95171 8.79773 10.41L8.42031 11.6989C8.17302 12.5434 9.04476 13.2807 9.83651 12.8966V12.8966ZM8.35753 10.9918C8.57289 10.2649 8.07462 9.5213 7.32049 9.44403V9.44403C6.53419 9.36347 5.88295 10.046 6.0003 10.8277L6.07713 11.3394C6.14537 11.794 6.49015 12.1576 6.94045 12.2499V12.2499C7.49737 12.364 8.04902 12.0331 8.21052 11.488L8.35753 10.9918Z" fill="#FFF5F5"/>
<path fill-rule="evenodd" clip-rule="evenodd" d="M14.0667 8.34441L15.3301 8.34174C16.1607 8.33999 16.9211 7.11733 16.9796 6.2888C17.0518 5.2657 18.055 4.889 18.9311 5.4223C19.065 5.50386 19.0892 5.57919 19.0806 5.66276C19.0539 5.92348 18.8709 6.12029 18.6879 6.31709C18.5049 6.5139 18.322 6.71071 18.2952 6.97143L18.1957 7.94299C18.092 8.95549 18.5882 9.93549 19.4658 10.4511L19.6036 10.5321C20.9741 11.3373 21.4212 13.1079 20.5972 14.4672L18.6281 17.7156C18.6537 17.7108 18.6791 17.7153 18.6987 17.7335C20.2425 19.1535 21.179 20.9387 21.0572 22.1271C20.9974 22.7112 20.6338 23.081 20.2109 23.0376C19.8081 22.9964 19.6335 22.7139 19.6174 21.8778C19.5799 21.2845 18.9956 20.916 18.4167 21.0507C16.8751 21.4095 15.2788 21.6778 13.4409 21.8825C13.1994 21.9094 13.0093 22.0854 12.8221 22.2587C12.6117 22.4535 12.4049 22.6449 12.1333 22.6171C11.9831 22.6017 11.8767 22.4318 11.7404 21.7763C11.608 21.1394 12.18 20.5507 12.8292 20.5921C13.2345 20.6065 13.2883 20.1085 12.8923 20.021L10.751 19.548C10.4409 19.4795 10.2313 19.1895 10.2637 18.8736L11.0642 11.0608C11.222 9.52018 12.5181 8.34767 14.0667 8.34441ZM18.072 10.9474C17.9295 12.3379 14.541 15.6737 13.1506 15.5312C11.8697 15.4 12.0333 13.9103 12.1784 12.5894L12.1784 12.5894C12.1908 12.4764 12.2031 12.3647 12.2143 12.2552C12.3568 10.8647 13.0337 9.15885 14.4241 9.30131C14.5303 9.3122 14.6424 9.32291 14.7589 9.33403L14.7589 9.33403C16.1664 9.46852 18.2036 9.66316 18.072 10.9474ZM12.8272 18.6774C14.5145 19.6016 18.3974 17.3875 19.0521 16.1925C20.0283 14.4104 20.443 12.7344 19.8301 12.3987C19.3551 12.1385 17.4711 13.7112 16.2702 14.7135C16.0681 14.8823 15.8853 15.0349 15.7318 15.1598C15.3937 15.4352 14.9478 15.7303 14.491 16.0325C13.073 16.971 11.5509 17.9783 12.8272 18.6774Z" fill="#FFF5F5"/>
</svg>
