<svg width="272" height="62" viewBox="0 0 272 62" fill="none" xmlns="http://www.w3.org/2000/svg">
<path d="M216.795 34.235L216.795 37.4C217.35 37.49 218.01 37.535 218.79 37.535C219.72 37.535 220.29 37.505 221.475 37.37C221.55 37.355 221.535 37.505 221.475 37.55C221.04 37.835 220.875 38.06 220.77 38.66C220.74 38.825 220.695 38.9 220.59 38.93C220.47 38.96 220.38 38.96 220.2 38.96C217.845 38.96 216.735 38.765 215.61 38.135C214.59 37.535 213.945 36.8 213.33 35.495C212.805 37.01 211.98 38.09 210.66 39.155C210.6 39.2 210.48 39.035 210.525 38.975C211.38 37.88 212.085 35.975 212.37 34.13C212.46 33.53 212.505 32.945 212.505 32.39C214.05 32.645 214.29 32.72 214.29 32.915C214.29 33.05 214.185 33.14 213.885 33.26C213.78 33.905 213.645 34.49 213.48 35.03C213.96 35.84 214.575 36.605 215.445 37.01L215.445 31.265L212.385 31.265C212.13 31.265 211.89 31.295 211.56 31.355L211.395 30.8C211.8 30.89 212.1 30.92 212.4 30.92L215.295 30.92L215.295 28.43L213.18 28.43C212.925 28.43 212.67 28.46 212.34 28.52L212.175 27.965C212.58 28.055 212.88 28.085 213.18 28.085L215.295 28.085L215.295 27.035C215.295 26.495 215.28 26 215.25 25.49C216.96 25.655 217.125 25.805 217.125 25.955C217.125 26.075 216.945 26.21 216.645 26.345L216.645 28.085L218.43 28.085C219.06 27.29 219.24 27.17 219.345 27.17C219.48 27.17 219.645 27.29 220.29 27.815C220.575 28.04 220.695 28.175 220.695 28.28C220.695 28.385 220.65 28.43 220.5 28.43L216.645 28.43L216.645 30.92L219.045 30.92C219.675 30.11 219.855 29.99 219.96 29.99C220.095 29.99 220.26 30.11 220.92 30.635C221.22 30.875 221.34 31.01 221.34 31.115C221.34 31.22 221.295 31.265 221.145 31.265L216.795 31.265L216.795 33.89L218.445 33.89C219.105 33.095 219.255 33.005 219.36 33.005C219.495 33.005 219.66 33.125 220.32 33.635C220.59 33.845 220.71 33.98 220.71 34.085C220.71 34.19 220.665 34.235 220.515 34.235L216.795 34.235ZM209.04 34.82L209.04 32.765C208.545 33.17 208.035 33.53 207.45 33.875C207.39 33.92 207.27 33.785 207.315 33.725C208.17 32.825 208.995 31.64 209.595 30.515C209.925 29.9 210.18 29.3 210.33 28.775C211.86 29.45 212.085 29.57 212.085 29.765C212.085 29.99 211.89 30.08 211.455 30.095C210.99 30.74 210.54 31.28 210.09 31.76C210.675 31.865 210.765 31.94 210.765 32.09C210.765 32.21 210.675 32.3 210.375 32.435L210.375 38.705C210.375 39.14 210.12 39.335 209.595 39.335C209.25 39.335 208.95 39.215 208.95 38.795C208.95 38.405 209.04 37.205 209.04 34.82ZM211.995 26.54C211.995 26.705 211.83 26.795 211.29 26.795C210.135 28.205 208.86 29.195 207.465 29.735C207.39 29.765 207.3 29.615 207.36 29.57C208.185 28.805 208.92 27.875 209.475 26.99C209.805 26.45 210.045 25.925 210.21 25.445C211.545 26.06 211.995 26.33 211.995 26.54ZM230.295 30.86L230.295 32.885C230.295 33.515 230.325 33.98 230.325 34.25C230.325 34.7 230.175 35.06 229.92 35.315C229.635 35.585 229.215 35.72 228.675 35.72C228.39 35.72 228.36 35.675 228.24 35.15C228.15 34.79 227.94 34.64 226.965 34.295C226.89 34.265 226.92 34.115 226.995 34.115C227.58 34.145 228.27 34.16 228.66 34.16C228.81 34.16 228.87 34.085 228.87 33.92L228.87 30.86L223.995 30.86C223.665 30.86 223.335 30.89 222.9 30.95L222.735 30.395C223.23 30.485 223.59 30.515 223.965 30.515L225.255 30.515L225.255 28.67C225.24 27.995 225.21 27.38 225.165 26.84C227.025 26.99 227.19 27.14 227.19 27.29C227.19 27.425 227.025 27.575 226.665 27.74L226.665 30.515L228.855 30.515L228.855 27.395C228.855 26.69 228.825 26.09 228.765 25.565C230.64 25.715 230.82 25.865 230.82 26.015C230.82 26.15 230.64 26.3 230.28 26.465L230.28 28.055L232.335 28.055C233.04 27.245 233.22 27.125 233.325 27.125C233.46 27.125 233.64 27.245 234.33 27.77C234.645 28.025 234.765 28.145 234.765 28.25C234.765 28.355 234.72 28.4 234.57 28.4L230.28 28.4L230.28 30.515L233.88 30.515C234.615 29.705 234.795 29.585 234.9 29.585C235.035 29.585 235.2 29.705 235.89 30.245C236.19 30.485 236.31 30.605 236.31 30.71C236.31 30.815 236.265 30.86 236.115 30.86L230.295 30.86ZM235.71 34.115C235.71 34.565 235.365 34.91 234.945 34.91C234.675 34.91 234.525 34.775 234.195 34.28C233.505 33.17 232.83 32.465 231.9 31.91C231.84 31.865 231.9 31.745 231.975 31.76C234.24 32.15 235.71 33.065 235.71 34.115ZM227.55 32.465C227.55 32.63 227.415 32.705 226.875 32.765C225.855 34.295 224.7 35.33 223.065 36.17C223.005 36.2 222.855 36.065 222.915 36.005C223.83 35.105 224.58 34.1 225.09 33.125C225.375 32.57 225.585 32.03 225.705 31.505C227.235 32.09 227.55 32.255 227.55 32.465ZM233.715 34.79C233.715 35.015 233.595 35.075 232.98 35.075C230.58 37.745 228.015 38.87 223.32 39.32C223.245 39.32 223.185 39.155 223.26 39.14C226.77 38.21 228.945 37.19 230.52 35.6C231.135 35 231.645 34.31 232.11 33.515C233.715 34.595 233.715 34.595 233.715 34.79ZM239.295 28.28L238.71 28.445C238.56 28.49 238.5 28.475 238.455 28.28C238.41 28.115 238.41 28.07 238.59 28.01C239.46 27.695 240.78 27.14 241.785 26.66C241.89 26.66 242.025 26.735 242.025 26.84C242.01 28.04 241.965 28.94 241.965 30.155L241.965 34.85C241.965 36.335 241.98 36.53 242.13 36.845C242.28 37.16 242.775 37.175 243.405 37.235C243.51 37.25 243.54 37.295 243.54 37.46C243.54 37.64 243.51 37.67 243.405 37.67C242.715 37.64 241.89 37.625 241.185 37.625C240.405 37.625 239.61 37.64 238.905 37.67C238.785 37.67 238.755 37.64 238.755 37.46C238.755 37.295 238.8 37.25 238.905 37.235C239.535 37.19 240.03 37.175 240.18 36.845C240.345 36.5 240.33 35.855 240.33 34.85L240.33 29.48C240.33 28.925 240.3 28.49 240.18 28.325C240.075 28.16 239.76 28.145 239.295 28.28ZM246.832 28.52L246.622 31.22C246.607 31.445 246.562 31.685 246.532 32C247.087 31.37 247.822 31.07 248.902 31.07C250.762 31.07 251.932 32.375 251.932 34.325C251.932 36.35 250.747 37.94 248.497 37.94C247.612 37.94 246.892 37.715 246.382 37.43C245.887 37.145 245.362 36.65 245.362 36.155C245.362 35.84 245.737 35.54 246.442 35.54C247.027 35.54 247.252 36.245 247.417 36.65C247.597 37.085 247.897 37.475 248.497 37.475C249.667 37.475 250.147 36.125 250.147 34.34C250.147 32.63 249.307 31.64 248.377 31.64C247.447 31.64 246.892 32.06 246.487 32.735C246.397 32.885 246.337 32.915 246.082 32.81C245.872 32.72 245.872 32.645 245.902 32.51C245.932 32.39 245.977 32.225 245.992 32.09L246.352 27.305C246.352 27.245 246.367 27.2 246.442 27.11C246.517 27.035 246.562 27.02 246.652 27.02C247.252 27.035 248.212 27.035 249.007 27.035C249.622 27.035 250.567 27.02 251.557 26.975C251.662 26.975 251.707 27.035 251.692 27.095L251.197 28.445C251.167 28.52 251.107 28.55 251.047 28.55C250.447 28.535 250.072 28.52 249.532 28.52L246.832 28.52ZM262.859 32.03L259.754 32.03C259.364 35.975 257.504 38.105 253.514 39.185C253.439 39.2 253.379 39.035 253.439 39.005C256.529 37.28 257.864 35.345 258.194 32.03L257.054 32.03C256.679 32.03 256.304 32.06 255.794 32.15L255.629 31.55C256.184 31.655 256.589 31.685 257.009 31.685L262.694 31.685C263.279 31.115 263.399 31.025 263.519 31.025C263.669 31.025 263.789 31.115 264.374 31.625C264.644 31.88 264.734 31.985 264.734 32.105C264.734 32.21 264.704 32.255 264.299 32.54C264.164 34.565 263.984 36.41 263.519 37.595C263.354 38.015 263.144 38.375 262.829 38.615C262.499 38.885 262.034 39.035 261.539 39.035C261.164 39.035 261.074 39.005 260.984 38.615C260.879 38.135 260.459 37.835 259.274 37.475C259.199 37.46 259.229 37.205 259.304 37.22C260.324 37.385 261.029 37.475 261.524 37.475C261.944 37.475 262.109 37.235 262.364 36.23C262.604 35.255 262.754 33.95 262.859 32.03ZM267.374 30.8C267.449 30.815 267.434 31.01 267.359 31.025C266.879 31.13 266.654 31.385 266.474 32.075C266.399 32.42 266.339 32.51 266.219 32.51C266.114 32.51 265.874 32.39 265.559 32.18C264.974 31.775 264.434 31.31 263.939 30.8C262.919 29.72 262.379 28.7 261.539 26.525C261.509 26.45 261.449 26.345 261.344 26.255C261.269 26.21 261.224 26.135 261.224 26.09C261.224 25.97 261.614 25.82 261.809 25.82C261.899 25.82 261.959 25.865 261.959 25.94C261.959 25.97 261.884 26.135 261.884 26.21C261.884 26.285 261.914 26.405 261.974 26.54C262.454 27.605 263.279 28.58 264.179 29.33C265.049 30.035 266.039 30.485 267.374 30.8ZM259.589 26.63C259.589 26.84 259.424 26.93 258.974 26.96C257.459 29.81 255.974 31.325 253.274 32.72C253.214 32.75 253.094 32.6 253.154 32.555C254.669 31.28 255.974 29.585 256.784 27.89C257.144 27.14 257.414 26.405 257.564 25.7C259.109 26.21 259.589 26.435 259.589 26.63Z" fill="#FFF5F5"/>
<line x1="200" y1="7.22695e-08" x2="200" y2="62" stroke="#FFF5F5" stroke-width="4"/>
<line x1="2" y1="7.22695e-08" x2="2" y2="62" stroke="#FFF5F5" stroke-width="4"/>
<path d="M13.245 16.785C13.125 16.695 13.095 16.68 13.095 16.59C13.095 16.53 13.155 16.47 13.35 16.47C13.89 16.47 14.46 16.575 14.955 16.815C15.42 17.055 16.02 17.445 16.02 18.03C16.02 18.525 15.75 18.945 15.225 18.945C14.955 18.945 14.835 18.81 14.595 18.39C14.205 17.7 13.755 17.16 13.245 16.785ZM14.235 26.19C14.1 26.37 13.905 26.49 13.695 26.49C13.395 26.49 13.125 26.31 12.69 25.815C12.255 25.305 11.985 24.795 11.985 24.495C11.985 24.21 12.12 23.955 12.195 23.955C12.3 23.955 12.33 24.045 12.42 24.135C12.645 24.39 12.915 24.735 13.29 24.735C13.425 24.735 13.725 24.66 14.19 24.435C15.18 23.97 16.485 23.205 17.865 22.2C19.275 21.165 20.25 20.385 21.96 18.765C22.11 18.615 22.2 18.51 22.305 18.51C22.41 18.51 22.455 18.57 22.455 18.66C22.455 18.75 22.41 18.825 22.35 18.915C21.57 20.085 20.55 21.345 18.87 22.815C17.61 23.91 16.26 24.885 14.7 25.83C14.445 25.98 14.31 26.085 14.235 26.19ZM11.37 19.98C11.22 19.92 11.16 19.86 11.16 19.785C11.16 19.68 11.325 19.635 11.58 19.635C12.03 19.635 12.525 19.695 13.095 19.875C13.89 20.13 14.28 20.55 14.28 21.03C14.28 21.48 13.995 21.945 13.5 21.945C13.275 21.945 13.05 21.78 12.825 21.42C12.45 20.805 12.015 20.34 11.37 19.98ZM30.825 16.365C31.485 16.29 32.07 16.215 32.55 16.11C32.79 16.065 32.895 15.99 33 15.945C33.21 15.855 33.45 15.78 33.57 15.78C33.93 15.78 34.425 15.84 34.86 16.08C35.025 16.17 35.1 16.35 35.1 16.53C35.1 16.845 34.905 17.04 34.545 17.055C34.215 17.07 33.825 17.07 33.345 17.115C32.43 17.19 30.87 17.31 30.03 17.385C29.745 17.415 29.46 17.445 29.25 17.445C28.815 17.445 28.53 17.445 28.05 16.905C27.75 16.575 27.705 16.35 27.705 16.11C27.705 15.975 27.735 15.885 27.81 15.885C27.855 15.885 27.9 15.945 28.005 16.02C28.35 16.29 28.575 16.485 29.205 16.485C29.505 16.485 30.045 16.455 30.825 16.365ZM28.35 19.59C29.37 19.485 30.24 19.395 31.59 19.29C33.12 19.17 33.66 19.14 34.425 19.05C34.635 19.02 34.89 18.93 34.995 18.885C35.115 18.825 35.385 18.75 35.55 18.75C35.97 18.75 36.51 18.885 36.975 19.155C37.215 19.29 37.305 19.53 37.305 19.74C37.305 19.995 37.14 20.175 36.96 20.19C36.72 20.205 36.525 20.19 36.045 20.13C35.4 20.055 34.83 20.025 34.185 20.025C33.675 20.025 32.835 20.025 32.16 20.07C32.64 20.4 32.85 20.7 32.85 20.91C32.85 20.985 32.82 21.09 32.775 21.15C32.685 21.285 32.61 21.435 32.475 21.825C32.175 22.68 31.725 23.655 30.84 24.78C29.97 25.875 28.98 26.7 27.78 27.315C27.69 27.36 27.6 27.405 27.525 27.405C27.42 27.405 27.375 27.36 27.375 27.255C27.375 27.18 27.495 27.075 27.75 26.85C28.44 26.205 29.28 25.245 29.955 24.09C30.435 23.295 30.81 22.32 31.065 21.435C31.155 21.045 31.2 20.76 31.2 20.64C31.2 20.46 31.17 20.265 31.035 20.13C29.97 20.235 28.86 20.37 28.17 20.505C27.735 20.595 27.585 20.685 27.465 20.76C27.315 20.865 27.195 20.895 27.015 20.895C26.745 20.895 26.475 20.745 26.01 20.22C25.725 19.89 25.62 19.605 25.62 19.395C25.62 19.17 25.695 19.035 25.785 19.035C25.86 19.035 25.92 19.125 26.01 19.2C26.46 19.575 26.76 19.68 27.03 19.68C27.39 19.68 27.915 19.635 28.35 19.59ZM46.08 21.63C44.76 22.98 43.41 23.955 42.06 24.66C41.925 24.735 41.865 24.765 41.805 24.765C41.715 24.765 41.655 24.705 41.655 24.615C41.655 24.555 41.73 24.465 41.865 24.375C43.245 23.34 44.595 21.915 45.555 20.805C46.425 19.8 46.74 19.23 46.905 18.945C47.04 18.69 47.085 18.585 47.085 18.45C47.085 18.345 46.935 18.195 46.71 18.06C46.59 17.985 46.47 17.955 46.47 17.865C46.47 17.7 46.695 17.625 46.98 17.625C47.25 17.625 47.82 17.79 48.33 18.105C48.645 18.3 48.9 18.525 48.9 18.75C48.9 18.93 48.78 19.08 48.51 19.17C48.39 19.2 48.33 19.245 48.255 19.335C47.61 20.04 47.025 20.67 46.59 21.12C47.04 21.435 47.325 21.69 47.325 21.915C47.325 22.005 47.31 22.08 47.28 22.14C47.265 22.185 47.25 22.5 47.25 23.07C47.25 23.595 47.25 24.105 47.25 24.63C47.265 25.695 47.265 26.34 47.265 26.685C47.265 27.225 47.025 27.39 46.755 27.39C46.53 27.39 46.335 27.285 46.215 27.105C46.05 26.895 45.975 26.55 45.975 26.295C45.975 26.19 46.02 26.085 46.035 26.025C46.08 25.875 46.11 25.68 46.125 25.23C46.14 24.885 46.155 24.585 46.155 24.015C46.155 23.595 46.17 22.77 46.17 22.395C46.17 21.87 46.14 21.765 46.08 21.63ZM67.395 21.39C67.395 21.675 67.2 21.99 66.855 21.99C66.39 21.99 65.37 21.915 64.635 21.915C63.45 21.915 60.87 21.975 59.025 22.14C58.305 22.2 57.75 22.29 57.54 22.425C57.435 22.5 57.315 22.545 57.135 22.545C56.745 22.545 56.4 22.185 55.935 21.51C55.71 21.195 55.65 21 55.65 20.7C55.65 20.46 55.74 20.34 55.83 20.34C55.875 20.34 55.95 20.4 56.025 20.475C56.58 21.015 56.85 21.045 57.285 21.045C57.69 21.045 57.975 21.03 58.86 20.97C60.72 20.85 62.7 20.76 64.17 20.73C64.755 20.715 65.145 20.625 65.34 20.52C65.49 20.445 65.64 20.4 65.76 20.4C65.955 20.4 66.195 20.445 66.435 20.55C67.005 20.79 67.395 21.015 67.395 21.39ZM76.485 19.95C77.235 19.95 77.835 20.55 77.835 21.3C77.835 22.035 77.235 22.635 76.485 22.635C75.75 22.635 75.15 22.035 75.15 21.3C75.15 20.55 75.75 19.95 76.485 19.95ZM91.155 18.93C91.155 18.48 91.125 18.12 91.05 17.94C90.975 17.745 90.735 17.55 90.36 17.4C90.24 17.355 90.18 17.34 90.18 17.235C90.18 17.13 90.45 16.905 90.81 16.905C91.17 16.905 91.635 17.085 92.175 17.43C92.445 17.595 92.775 17.85 92.775 18.195C92.775 18.375 92.7 18.48 92.565 18.615C92.505 18.675 92.46 18.78 92.445 18.975C92.415 19.98 92.4 20.895 92.37 22.365C92.37 23.04 92.37 23.385 92.37 23.475C92.37 23.61 92.385 23.67 92.445 23.67C92.505 23.67 92.61 23.64 92.805 23.55C94.455 22.845 95.925 22.125 97.755 20.64C97.935 20.49 98.025 20.4 98.13 20.4C98.22 20.4 98.28 20.445 98.28 20.535C98.28 20.595 98.22 20.67 98.16 20.745C97.155 22.125 95.46 23.55 92.865 25.08C92.715 25.17 92.625 25.275 92.565 25.395C92.49 25.53 92.355 25.605 92.22 25.605C92.04 25.605 91.725 25.425 91.47 25.125C91.185 24.78 91.05 24.435 91.05 24.225C91.05 24.165 91.065 24.075 91.095 23.97C91.14 23.82 91.17 23.415 91.17 23.055C91.17 21.855 91.17 20.835 91.155 18.93ZM88.38 19.62C88.38 19.305 88.035 19.065 87.63 18.9C87.51 18.855 87.435 18.84 87.435 18.765C87.435 18.675 87.72 18.45 88.02 18.45C88.41 18.45 89.07 18.69 89.61 19.035C89.985 19.275 90.06 19.485 90.06 19.68C90.06 19.815 90.03 19.92 89.85 20.07C89.745 20.16 89.685 20.295 89.595 20.58C89.28 21.525 88.935 22.5 88.365 23.37C87.63 24.495 86.64 25.515 85.335 26.16C85.185 26.235 85.095 26.28 85.035 26.28C84.945 26.28 84.9 26.235 84.9 26.13C84.9 26.04 84.93 26.025 85.05 25.92C85.98 25.11 86.565 24.36 87.165 23.295C87.645 22.44 87.96 21.54 88.2 20.685C88.32 20.235 88.38 19.92 88.38 19.62ZM112.395 21.39C112.395 21.675 112.2 21.99 111.855 21.99C111.39 21.99 110.37 21.915 109.635 21.915C108.45 21.915 105.87 21.975 104.025 22.14C103.305 22.2 102.75 22.29 102.54 22.425C102.435 22.5 102.315 22.545 102.135 22.545C101.745 22.545 101.4 22.185 100.935 21.51C100.71 21.195 100.65 21 100.65 20.7C100.65 20.46 100.74 20.34 100.83 20.34C100.875 20.34 100.95 20.4 101.025 20.475C101.58 21.015 101.85 21.045 102.285 21.045C102.69 21.045 102.975 21.03 103.86 20.97C105.72 20.85 107.7 20.76 109.17 20.73C109.755 20.715 110.145 20.625 110.34 20.52C110.49 20.445 110.64 20.4 110.76 20.4C110.955 20.4 111.195 20.445 111.435 20.55C112.005 20.79 112.395 21.015 112.395 21.39ZM126.93 15C127.62 15 128.175 15.54 128.175 16.245C128.175 16.935 127.62 17.49 126.93 17.49C126.24 17.49 125.685 16.935 125.685 16.245C125.685 15.54 126.24 15 126.93 15ZM126.93 15.42C126.48 15.42 126.105 15.795 126.105 16.245C126.105 16.68 126.48 17.055 126.93 17.055C127.365 17.055 127.74 16.68 127.74 16.245C127.74 15.795 127.365 15.42 126.93 15.42ZM123.24 18.51C121.74 18.675 119.985 18.885 118.65 19.14C118.365 19.2 118.245 19.275 118.125 19.35C118.005 19.425 117.84 19.455 117.69 19.455C117.435 19.455 117.15 19.26 116.79 18.81C116.385 18.315 116.295 18.105 116.295 17.76C116.295 17.46 116.37 17.31 116.46 17.31C116.535 17.31 116.595 17.37 116.715 17.49C117.165 17.985 117.435 18.12 118.02 18.09C118.395 18.075 118.755 18.06 119.13 18.03C120.6 17.895 122.1 17.76 123.465 17.595C123.735 17.565 123.96 17.52 124.14 17.385C124.275 17.28 124.395 17.205 124.53 17.205C124.83 17.19 125.07 17.31 125.505 17.64C126.045 18.045 126.18 18.255 126.18 18.6C126.18 18.735 126.075 18.885 125.865 18.99C125.52 19.155 125.385 19.395 125.22 19.71C124.215 21.57 123.42 22.605 122.37 23.7C120.735 25.41 118.86 26.415 117.42 26.94C117.33 26.97 117.24 26.985 117.195 26.985C117.06 26.985 117 26.955 117 26.82C117 26.745 117.075 26.685 117.24 26.58C119.055 25.47 120.375 24.27 121.485 22.86C122.355 21.735 123.105 20.475 123.825 19.035C123.96 18.78 124.02 18.645 124.02 18.525C124.02 18.465 123.945 18.45 123.87 18.45C123.795 18.45 123.57 18.465 123.24 18.51ZM11.295 35.28L10.71 35.445C10.56 35.49 10.5 35.475 10.455 35.28C10.41 35.115 10.41 35.07 10.59 35.01C11.46 34.695 12.78 34.14 13.785 33.66C13.89 33.66 14.025 33.735 14.025 33.84C14.01 35.04 13.965 35.94 13.965 37.155V41.85C13.965 43.335 13.98 43.53 14.13 43.845C14.28 44.16 14.775 44.175 15.405 44.235C15.51 44.25 15.54 44.295 15.54 44.46C15.54 44.64 15.51 44.67 15.405 44.67C14.715 44.64 13.89 44.625 13.185 44.625C12.405 44.625 11.61 44.64 10.905 44.67C10.785 44.67 10.755 44.64 10.755 44.46C10.755 44.295 10.8 44.25 10.905 44.235C11.535 44.19 12.03 44.175 12.18 43.845C12.345 43.5 12.33 42.855 12.33 41.85V36.48C12.33 35.925 12.3 35.49 12.18 35.325C12.075 35.16 11.76 35.145 11.295 35.28ZM18.8319 35.52L18.6219 38.22C18.6069 38.445 18.5619 38.685 18.5319 39C19.0869 38.37 19.8219 38.07 20.9019 38.07C22.7619 38.07 23.9319 39.375 23.9319 41.325C23.9319 43.35 22.7469 44.94 20.4969 44.94C19.6119 44.94 18.8919 44.715 18.3819 44.43C17.8869 44.145 17.3619 43.65 17.3619 43.155C17.3619 42.84 17.7369 42.54 18.4419 42.54C19.0269 42.54 19.2519 43.245 19.4169 43.65C19.5969 44.085 19.8969 44.475 20.4969 44.475C21.6669 44.475 22.1469 43.125 22.1469 41.34C22.1469 39.63 21.3069 38.64 20.3769 38.64C19.4469 38.64 18.8919 39.06 18.4869 39.735C18.3969 39.885 18.3369 39.915 18.0819 39.81C17.8719 39.72 17.8719 39.645 17.9019 39.51C17.9319 39.39 17.9769 39.225 17.9919 39.09L18.3519 34.305C18.3519 34.245 18.3669 34.2 18.4419 34.11C18.5169 34.035 18.5619 34.02 18.6519 34.02C19.2519 34.035 20.2119 34.035 21.0069 34.035C21.6219 34.035 22.5669 34.02 23.5569 33.975C23.6619 33.975 23.7069 34.035 23.6919 34.095L23.1969 35.445C23.1669 35.52 23.1069 35.55 23.0469 35.55C22.4469 35.535 22.0719 35.52 21.5319 35.52H18.8319ZM34.8588 39.03H31.7538C31.3638 42.975 29.5038 45.105 25.5138 46.185C25.4388 46.2 25.3788 46.035 25.4388 46.005C28.5288 44.28 29.8638 42.345 30.1938 39.03H29.0538C28.6788 39.03 28.3038 39.06 27.7938 39.15L27.6288 38.55C28.1838 38.655 28.5888 38.685 29.0088 38.685H34.6938C35.2788 38.115 35.3988 38.025 35.5188 38.025C35.6688 38.025 35.7888 38.115 36.3738 38.625C36.6438 38.88 36.7338 38.985 36.7338 39.105C36.7338 39.21 36.7038 39.255 36.2988 39.54C36.1638 41.565 35.9838 43.41 35.5188 44.595C35.3538 45.015 35.1438 45.375 34.8288 45.615C34.4988 45.885 34.0338 46.035 33.5388 46.035C33.1638 46.035 33.0738 46.005 32.9838 45.615C32.8788 45.135 32.4588 44.835 31.2738 44.475C31.1988 44.46 31.2288 44.205 31.3038 44.22C32.3238 44.385 33.0288 44.475 33.5238 44.475C33.9438 44.475 34.1088 44.235 34.3638 43.23C34.6038 42.255 34.7538 40.95 34.8588 39.03ZM39.3738 37.8C39.4488 37.815 39.4338 38.01 39.3588 38.025C38.8788 38.13 38.6538 38.385 38.4738 39.075C38.3988 39.42 38.3388 39.51 38.2188 39.51C38.1138 39.51 37.8738 39.39 37.5588 39.18C36.9738 38.775 36.4338 38.31 35.9388 37.8C34.9188 36.72 34.3788 35.7 33.5388 33.525C33.5088 33.45 33.4488 33.345 33.3438 33.255C33.2688 33.21 33.2238 33.135 33.2238 33.09C33.2238 32.97 33.6138 32.82 33.8088 32.82C33.8988 32.82 33.9588 32.865 33.9588 32.94C33.9588 32.97 33.8838 33.135 33.8838 33.21C33.8838 33.285 33.9138 33.405 33.9738 33.54C34.4538 34.605 35.2788 35.58 36.1788 36.33C37.0488 37.035 38.0388 37.485 39.3738 37.8ZM31.5888 33.63C31.5888 33.84 31.4238 33.93 30.9738 33.96C29.4588 36.81 27.9738 38.325 25.2738 39.72C25.2138 39.75 25.0938 39.6 25.1538 39.555C26.6688 38.28 27.9738 36.585 28.7838 34.89C29.1438 34.14 29.4138 33.405 29.5638 32.7C31.1088 33.21 31.5888 33.435 31.5888 33.63Z" fill="#FFF5F5"/>
</svg>
