<svg width="27" height="20" viewBox="0 0 27 20" fill="none" xmlns="http://www.w3.org/2000/svg">
<rect x="6.82129" y="0.0683594" width="20.7927" height="13.1657" transform="rotate(17.9456 6.82129 0.0683594)" fill="#6B0000"/>
<path d="M15.9411 2.27985C15.6773 3.00043 16.2399 3.77973 17.0058 3.73244L17.4324 3.7061C17.8208 3.68212 18.1731 3.47555 18.395 3.1559C18.8152 2.55059 18.9299 2.47114 19.0492 2.46378C19.1961 2.45471 19.7726 1.89809 20.6174 2.61491C20.9945 2.9212 20.6846 3.70303 20.6927 3.83436C20.7022 3.98757 20.6223 4.05842 20.4334 4.07008L19.6215 4.12021C16.7279 4.29888 13.6373 5.5407 10.9706 6.67815C10.4263 6.91029 9.87919 7.14252 9.36544 7.37337C9.27079 7.41589 9.17629 7.49274 9.08406 7.44521V7.44521C8.95127 7.37678 9.05003 7.21761 9.18488 7.15334C11.0861 6.24729 14.2307 5.66667 14.3598 2.87198C14.3661 2.73566 14.3816 2.5909 14.4116 2.45777V2.45777C14.6512 1.39441 15.8278 0.414937 16.7372 1.01595C16.8423 1.08546 16.8827 1.15391 16.8877 1.23503C16.8962 1.37151 16.8278 1.47038 16.6686 1.5525C16.3607 1.71129 16.0602 1.95458 15.9411 2.27985V2.27985ZM11.206 9.1968C11.191 8.71014 10.7745 8.33564 10.2886 8.36565V8.36565C9.8302 8.39395 9.47371 8.77505 9.46821 9.23425C9.42818 12.5754 9.12362 13.789 7.26892 16.0442C7.19038 16.137 6.97241 16.0186 7.02861 15.9053C8.25574 13.4662 7.79384 11.897 7.56544 7.54039C7.53591 6.97702 7.82223 6.29681 7.91522 5.60742C7.95396 5.32029 7.7049 5.09769 7.41572 5.11554V5.11554C7.06142 5.13742 6.79024 5.18256 6.39502 5.26377C6.21678 5.30039 6.03923 5.19702 5.98498 5.02334V5.02334C5.90764 4.77572 6.11537 4.53304 6.37372 4.55647C6.72773 4.58859 7.02657 4.59029 7.38193 4.56835V4.56835C8.07736 4.52541 8.60631 3.92685 8.56337 3.23142L8.52219 2.56449V2.56449C8.46898 1.70266 9.15151 0.876449 9.9982 1.04591C10.4427 1.13487 10.5264 1.24699 10.535 1.3856V1.3856C10.5701 1.95369 9.92238 2.38218 9.95746 2.95027L10.003 3.68795C10.0274 4.08329 10.3677 4.38399 10.763 4.35958V4.35958C10.9864 4.34579 11.1899 4.22786 11.3169 4.0436C11.7491 3.41662 11.8684 3.32461 11.9605 3.31892C12.1074 3.30985 12.24 3.41151 12.9508 4.00479C13.2398 4.2506 13.3346 4.42052 13.3427 4.55184V4.55184C13.3586 4.80878 12.9628 4.82313 12.7309 4.93485L11.0965 5.72215C10.4712 6.02333 9.79815 6.2211 9.17943 6.5355C8.06589 7.10135 8.23678 7.80021 9.46055 7.8675L9.76069 7.84897C10.5136 7.80248 10.9872 6.96031 11.74 6.91382V6.91382C11.866 6.90605 11.9973 6.98582 12.5977 7.49803C12.9077 7.74254 13.0011 7.89057 13.0092 8.02189V8.02189C13.0409 8.53388 12.5072 8.92628 12.5185 9.43912C12.5974 13.0339 12.5153 14.6756 12.3057 15.7333C12.1573 16.4015 11.9352 16.8986 11.5764 17.2284C11.2765 17.4886 10.8648 17.6458 10.4451 17.6717C10.1933 17.6873 10.1263 17.6255 10.0877 17.3423C9.99096 16.799 9.7202 16.5081 8.64656 16.1789C8.53892 16.1416 8.56603 15.8982 8.67231 15.9137C9.66678 15.9841 10.0472 16.0045 10.425 15.9812C10.8867 15.9527 11.0276 15.5046 11.1719 14.0895C11.2482 13.2412 11.2685 11.2254 11.206 9.1968ZM18.147 11.6814C17.8207 11.7016 17.5724 11.9825 17.5926 12.3089V12.3089C17.6939 13.9505 17.8414 14.974 17.8846 15.6744C17.9198 16.2435 17.7342 16.6504 17.458 16.9531C17.2027 17.2545 16.7925 17.4336 16.3098 17.4634C16.0579 17.479 15.9909 17.4172 15.9246 17.0258C15.8109 16.5495 15.526 16.3693 14.2228 16.0763C14.0942 16.0403 14.0766 15.7557 14.2039 15.7698C15.0697 15.8043 15.702 15.8092 16.1428 15.782C16.3736 15.7677 16.4521 15.675 16.4373 15.4342L16.3205 13.5427C16.2611 12.5807 15.4331 11.849 14.4711 11.9084V11.9084C14.1826 11.9262 13.9438 11.9538 13.6351 12.0278C13.4603 12.0697 13.2788 11.9774 13.2201 11.8075V11.8075C13.1385 11.5711 13.3339 11.3327 13.5831 11.3536C13.8734 11.3779 14.1194 11.3808 14.4163 11.3625L15.9165 11.2699C16.0616 11.2609 16.1719 11.1361 16.1629 10.991V10.991C16.1251 10.379 16.0976 10.0541 16.0583 9.73076C16.0115 9.34572 16.3895 9.01718 16.7752 9.05767V9.05767C17.0026 9.08153 17.156 8.96773 17.2753 8.77269C17.3247 8.69208 17.3721 8.61314 17.4177 8.53557C17.8029 7.88097 17.269 7.14369 16.5109 7.19049L15.6157 7.24577C15.2117 7.27071 14.6404 7.38416 14.1626 7.49978C13.9103 7.56081 13.643 7.51721 13.4287 7.37075V7.37075C12.6628 6.84714 13.0469 6.00968 13.9434 6.24871C14.2689 6.33551 14.5629 6.40967 14.7962 6.46019C15.0996 6.52589 15.3869 6.39189 15.5801 6.14898L15.6904 6.01036C16.0727 5.52978 16.7453 5.39377 17.2843 5.68802V5.68802C17.818 5.9794 18.3804 5.79614 18.6041 5.23067C18.6703 5.06347 18.7784 4.94274 19.0455 4.89626C19.1463 4.87873 19.248 4.86471 19.3492 4.85066C19.6677 4.80646 19.7966 4.92506 20.4561 5.46076C20.7465 5.72846 20.3712 6.7497 20.1603 6.81136C19.8028 6.91585 19.5999 7.34177 19.1987 7.81549C18.7116 8.39067 18.4126 8.61085 18.0116 8.89329C17.8638 8.99738 17.971 9.2262 17.9821 9.40662V9.40662C17.9877 9.49588 17.9597 9.57579 17.8741 9.65949C17.6559 9.87272 17.4576 10.123 17.4764 10.4275V10.4275C17.5017 10.838 17.855 11.1502 18.2655 11.1248L18.4083 11.116C18.6713 11.0998 18.9129 10.9663 19.0719 10.7561C19.5049 10.1839 19.623 10.0963 19.7307 10.0896C19.8776 10.0805 20.0313 10.1809 20.7813 10.7278C21.1137 10.9929 21.2267 11.1178 21.2362 11.271C21.2456 11.4242 21.1867 11.4937 20.9768 11.5067L18.147 11.6814ZM4.56813 5.7967C4.16939 5.82132 3.96429 5.57033 3.6611 4.75415C3.31188 3.8749 2.7237 2.87857 1.88162 2.20552C1.81461 2.14375 1.93242 2.00465 2.01771 2.02135C4.1278 2.41837 5.29748 3.62047 5.3637 4.69297C5.40019 5.28393 5.09279 5.76431 4.56813 5.7967ZM6.33116 9.2234C6.36472 9.76702 5.82138 10.1909 5.85372 10.7346L6.01796 13.4958C6.0913 14.7287 5.99116 16.1667 7.10301 16.7046V16.7046C7.64162 16.9651 8.48186 17.0405 9.06952 17.153C10.0698 17.3444 11.5047 17.4287 13.802 17.2869C16.1735 17.1405 18.6614 16.8331 21.8676 16.2176C21.9712 16.1893 22.0057 16.4069 21.9245 16.4558C21.3991 16.8178 21.3063 17.0213 21.2853 17.7037C21.2595 17.9689 21.1796 18.0398 20.8885 18.1017C18.8636 18.4025 16.7887 18.5746 14.9419 18.6886C10.6816 18.9516 8.76449 18.6086 7.55213 17.7387V17.7387C6.52469 17.0054 4.7409 16.9387 4.04871 17.9942V17.9942C3.85766 18.2856 3.78155 18.6473 3.77555 18.9957C3.76939 19.353 3.67551 19.4721 3.5097 19.4823C3.35188 19.4921 3.15136 19.2888 2.72364 18.6101C2.30455 17.945 2.60485 17.0512 3.24737 16.5984V16.5984C3.47256 16.4462 3.87241 15.9875 4.27848 15.4917C4.98676 14.6269 5.23841 13.4636 4.97546 12.3771L4.56228 10.6699C4.40204 10.0078 3.78996 9.55608 3.11006 9.59806V9.59806C2.87731 9.61243 2.67787 9.62907 2.4829 9.65742C2.02728 9.72369 1.55271 9.54885 1.32909 9.14639L1.05777 8.65811C0.77985 8.15794 1.19022 7.54619 1.76203 7.52524V7.52524C1.91484 7.51964 2.07507 7.55958 2.20163 7.6454L2.96682 8.16422C3.32806 8.40915 3.98606 7.9997 4.12181 7.5849V7.5849C4.28737 7.079 4.79832 6.78164 5.33016 6.80386C5.63422 6.81656 5.9512 6.8875 6.19871 7.07841C6.55071 7.32033 6.32305 9.09207 6.33116 9.2234V9.2234Z" fill="#FFF5F5"/>
</svg>
